<svg width="55" height="55" viewBox="0 0 55 55" fill="none" xmlns="http://www.w3.org/2000/svg">
<path d="M43.5271 30.3565C41.1632 33.2154 38.4889 36.1533 35.6025 39.0397C32.7161 41.926 29.7785 44.6015 26.9202 46.9645C27.113 46.9714 27.3055 46.9791 27.5 46.9791C31.7531 46.9744 35.8306 45.2827 38.8379 42.2754C41.8453 39.268 43.5369 35.1905 43.5417 30.9375C43.5417 30.7427 43.534 30.5496 43.5271 30.3565Z" fill="#100268"/>
<path d="M50.1875 8.25144C47.9651 6.02823 43.8951 6.81657 37.7449 10.6608C35.4801 12.0967 33.2956 13.6554 31.2013 15.3301C28.5381 14.6962 25.7569 14.7549 23.1228 15.5006C20.4888 16.2463 18.0895 17.6541 16.1537 19.5899C14.218 21.5256 12.8102 23.9249 12.0645 26.559C11.3188 29.193 11.2601 31.9742 11.894 34.6374C10.2192 36.7317 8.66044 38.9161 7.22473 41.181C3.38017 47.3315 2.59126 51.4015 4.81246 53.625C5.23656 54.0382 5.74068 54.3604 6.29384 54.5716C6.847 54.7828 7.43752 54.8787 8.0291 54.8533C10.313 54.8533 13.3687 53.6448 17.2551 51.2153C22.2947 48.0643 28.2347 43.1658 33.9808 37.4206C39.7269 31.6754 44.6256 25.7346 47.7755 20.6949C51.6197 14.5435 52.4087 10.4735 50.1875 8.25144ZM43.2093 19.3256C40.2264 23.8468 35.7989 29.1225 30.7418 34.1782C25.6847 39.2339 20.4104 43.6628 15.8892 46.6457C11.4402 49.5808 9.04288 50.2462 8.16144 50.2772C8.19238 49.3963 8.85783 46.9984 11.7929 42.5494C12.4434 41.5634 13.1679 40.5399 13.9459 39.4923C14.7905 40.8268 15.8257 42.0305 17.0187 43.0653C21.3123 39.8732 25.358 36.3608 29.1213 32.558C32.924 28.7949 36.4364 24.7495 39.6286 20.4563C38.5938 19.2627 37.3897 18.227 36.0547 17.3823C37.1023 16.6028 38.1258 15.8798 39.1118 15.2293C43.5608 12.2942 45.9582 11.6288 46.8396 11.5978C46.8087 12.479 46.1432 14.8766 43.2082 19.3256H43.2093Z" fill="#100268"/>
<path d="M43.5417 50.4166C44.8073 50.4166 45.8333 49.3906 45.8333 48.125C45.8333 46.8593 44.8073 45.8333 43.5417 45.8333C42.276 45.8333 41.25 46.8593 41.25 48.125C41.25 49.3906 42.276 50.4166 43.5417 50.4166Z" fill="#100268"/>
<path d="M4.58329 32.0833C5.84894 32.0833 6.87496 31.0573 6.87496 29.7917C6.87496 28.526 5.84894 27.5 4.58329 27.5C3.31764 27.5 2.29163 28.526 2.29163 29.7917C2.29163 31.0573 3.31764 32.0833 4.58329 32.0833Z" fill="#100268"/>
<path d="M50.4167 29.7917C51.6823 29.7917 52.7083 28.7657 52.7083 27.5001C52.7083 26.2344 51.6823 25.2084 50.4167 25.2084C49.151 25.2084 48.125 26.2344 48.125 27.5001C48.125 28.7657 49.151 29.7917 50.4167 29.7917Z" fill="#100268"/>
</svg>
