<svg width="16" height="16" viewBox="0 0 16 16" fill="none" xmlns="http://www.w3.org/2000/svg">
<path fill-rule="evenodd" clip-rule="evenodd" d="M0.389158 0.422613C0.638658 0.173958 0.976867 0.03429 1.32949 0.03429C1.68212 0.03429 2.02033 0.173958 2.26983 0.422613L7.98282 6.12336L13.6958 0.422613C13.8176 0.292157 13.9645 0.187522 14.1278 0.114949C14.291 0.0423758 14.4672 0.0033523 14.6459 0.000206645C14.8245 -0.002939 15.002 0.0298573 15.1677 0.0966393C15.3334 0.163421 15.4839 0.262821 15.6103 0.388907C15.7366 0.514994 15.8362 0.665186 15.9032 0.830522C15.9701 0.995858 16.0029 1.17295 15.9998 1.35124C15.9966 1.52952 15.9575 1.70535 15.8848 1.86823C15.8121 2.0311 15.7072 2.1777 15.5765 2.29926L9.86349 8L15.5765 13.7007C15.7072 13.8223 15.8121 13.9689 15.8848 14.1318C15.9575 14.2946 15.9966 14.4705 15.9998 14.6488C16.0029 14.827 15.9701 15.0041 15.9032 15.1695C15.8362 15.3348 15.7366 15.485 15.6103 15.6111C15.4839 15.7372 15.3334 15.8366 15.1677 15.9034C15.002 15.9701 14.8245 16.0029 14.6459 15.9998C14.4672 15.9966 14.291 15.9576 14.1278 15.8851C13.9645 15.8125 13.8176 15.7078 13.6958 15.5774L7.98282 9.87664L2.26983 15.5774C2.01758 15.8119 1.68395 15.9396 1.33921 15.9335C0.994479 15.9275 0.665565 15.7881 0.421765 15.5448C0.177964 15.3016 0.0383113 14.9734 0.0322289 14.6294C0.0261465 14.2854 0.154109 13.9525 0.389158 13.7007L6.10215 8L0.389158 2.29926C0.139968 2.05029 0 1.71281 0 1.36093C0 1.00906 0.139968 0.671579 0.389158 0.422613Z" fill="#100268"/>
</svg>
