<svg width="10" height="10" viewBox="0 0 10 10" fill="none" xmlns="http://www.w3.org/2000/svg">
<path fill-rule="evenodd" clip-rule="evenodd" d="M2.74742 0.35C3.48017 0.166 4.25788 0 4.72367 0C5.18875 0 5.96717 0.166 6.69992 0.35C7.35349 0.516517 8.00283 0.697678 8.64737 0.893333C9.01831 1.00533 9.29792 1.30867 9.35202 1.68267C9.75458 4.48067 8.8209 6.554 7.6891 7.926C7.20679 8.51481 6.63418 9.03166 5.99035 9.45933C5.76649 9.60814 5.52983 9.73882 5.28289 9.85C5.09321 9.93267 4.89087 10 4.72367 10C4.55646 10 4.35413 9.93267 4.16445 9.85C3.91745 9.73891 3.68079 9.60823 3.45699 9.45933C2.81342 9.0316 2.24104 8.51475 1.75894 7.926C0.62574 6.554 -0.307237 4.48067 0.0953203 1.68267C0.122235 1.50138 0.202702 1.33103 0.327406 1.19134C0.45211 1.05165 0.615953 0.948329 0.79997 0.893333C1.44452 0.697683 2.09385 0.516521 2.74742 0.35V0.35ZM5.08548 4.93933C5.31712 4.8589 5.51169 4.70391 5.6353 4.50136C5.75891 4.29881 5.80373 4.06153 5.76195 3.83085C5.72017 3.60017 5.59444 3.3907 5.40666 3.23893C5.21888 3.08716 4.98094 3.00271 4.7343 3.00028C4.48765 2.99785 4.24792 3.0776 4.05686 3.22564C3.8658 3.37368 3.73552 3.58062 3.6887 3.81043C3.64189 4.04024 3.68151 4.27835 3.80066 4.4833C3.91982 4.68824 4.11095 4.84703 4.34078 4.932C4.32596 4.96066 4.31555 4.9912 4.30987 5.02267L4.07593 6.356C4.06756 6.40373 4.07025 6.45262 4.0838 6.49926C4.09736 6.54591 4.12145 6.5892 4.15441 6.62612C4.18737 6.66304 4.2284 6.69271 4.27466 6.71307C4.32091 6.73342 4.37129 6.74398 4.42228 6.744H5.0089C5.0601 6.74403 5.11069 6.73343 5.15712 6.71296C5.20356 6.69248 5.24471 6.66263 5.27771 6.62547C5.3107 6.58832 5.33474 6.54477 5.34813 6.49788C5.36153 6.45098 5.36396 6.40188 5.35526 6.354L5.11147 5.02067C5.1065 4.99261 5.09777 4.96528 5.08548 4.93933V4.93933Z" fill="white"/>
</svg>
