<svg width="18" height="18" viewBox="0 0 18 18" fill="none" xmlns="http://www.w3.org/2000/svg">
<path opacity="0.75" d="M17.5954 5.52054C17.4671 5.40052 17.3144 5.30534 17.1462 5.24051C16.9779 5.17568 16.7975 5.14249 16.6154 5.14286H13.8461V4.5C13.8461 3.30653 13.3356 2.16193 12.4267 1.31802C11.5179 0.474106 10.2853 0 9 0C7.71472 0 6.48208 0.474106 5.57325 1.31802C4.66442 2.16193 4.15384 3.30653 4.15384 4.5V5.14286H1.38461C1.01739 5.14286 0.66521 5.27832 0.405544 5.51943C0.145879 5.76055 0 6.08758 0 6.42857V15.1071C0 16.6741 1.42788 18 3.11538 18H14.8846C15.7009 18.0002 16.4848 17.7039 17.0688 17.1743C17.3627 16.914 17.5968 16.601 17.7568 16.2544C17.9168 15.9077 17.9996 15.5345 18 15.1574V6.42857C18.0006 6.2599 17.9651 6.09279 17.8956 5.93693C17.8262 5.78107 17.7242 5.63954 17.5954 5.52054V5.52054ZM12.3097 9.72321L8.43274 14.2232C8.36907 14.2971 8.28863 14.357 8.19716 14.3987C8.10568 14.4403 8.00543 14.4627 7.90355 14.4643H7.8923C7.79231 14.4643 7.6935 14.4442 7.60267 14.4053C7.51184 14.3665 7.43115 14.3098 7.36615 14.2393L5.70461 12.4361C5.64552 12.3719 5.60061 12.2976 5.57246 12.2173C5.5443 12.137 5.53345 12.0524 5.54052 11.9682C5.54759 11.884 5.57245 11.802 5.61367 11.7267C5.65489 11.6515 5.71167 11.5845 5.78077 11.5296C5.84986 11.4748 5.92992 11.4331 6.01637 11.4069C6.10282 11.3808 6.19397 11.3707 6.28462 11.3773C6.37526 11.3838 6.46362 11.4069 6.54466 11.4452C6.6257 11.4835 6.69783 11.5362 6.75692 11.6004L7.875 12.8133L11.2288 8.91964C11.3436 8.78644 11.5106 8.70103 11.6932 8.68219C11.8757 8.66335 12.0589 8.71264 12.2024 8.8192C12.3458 8.92576 12.4378 9.08087 12.4581 9.2504C12.4784 9.41994 12.4253 9.59001 12.3105 9.72321H12.3097ZM12.4615 5.14286H5.53846V4.5C5.53846 3.64752 5.90316 2.82995 6.55232 2.22716C7.20148 1.62436 8.08194 1.28571 9 1.28571C9.91805 1.28571 10.7985 1.62436 11.4477 2.22716C12.0968 2.82995 12.4615 3.64752 12.4615 4.5V5.14286Z" fill="white"/>
</svg>
