<svg width="451" height="47" viewBox="0 0 451 47" fill="none" xmlns="http://www.w3.org/2000/svg">
<rect width="451" height="47" rx="5" fill="url(#paint0_linear)"/>
<circle cx="45" cy="23" r="5" fill="#07C8A5"/>
<path d="M100.75 17.8C100.75 16.976 100.934 16.24 101.302 15.592C101.678 14.936 102.186 14.428 102.826 14.068C103.474 13.7 104.198 13.516 104.998 13.516C105.934 13.516 106.754 13.756 107.458 14.236C108.162 14.716 108.654 15.38 108.934 16.228H107.002C106.81 15.828 106.538 15.528 106.186 15.328C105.842 15.128 105.442 15.028 104.986 15.028C104.498 15.028 104.062 15.144 103.678 15.376C103.302 15.6 103.006 15.92 102.79 16.336C102.582 16.752 102.478 17.24 102.478 17.8C102.478 18.352 102.582 18.84 102.79 19.264C103.006 19.68 103.302 20.004 103.678 20.236C104.062 20.46 104.498 20.572 104.986 20.572C105.442 20.572 105.842 20.472 106.186 20.272C106.538 20.064 106.81 19.76 107.002 19.36H108.934C108.654 20.216 108.162 20.884 107.458 21.364C106.762 21.836 105.942 22.072 104.998 22.072C104.198 22.072 103.474 21.892 102.826 21.532C102.186 21.164 101.678 20.656 101.302 20.008C100.934 19.36 100.75 18.624 100.75 17.8ZM116.645 15.352V22H114.953V21.16C114.737 21.448 114.453 21.676 114.101 21.844C113.757 22.004 113.381 22.084 112.973 22.084C112.453 22.084 111.993 21.976 111.593 21.76C111.193 21.536 110.877 21.212 110.645 20.788C110.421 20.356 110.309 19.844 110.309 19.252V15.352H111.989V19.012C111.989 19.54 112.121 19.948 112.385 20.236C112.649 20.516 113.009 20.656 113.465 20.656C113.929 20.656 114.293 20.516 114.557 20.236C114.821 19.948 114.953 19.54 114.953 19.012V15.352H116.645ZM120.847 22.108C120.303 22.108 119.815 22.012 119.383 21.82C118.951 21.62 118.607 21.352 118.351 21.016C118.103 20.68 117.967 20.308 117.943 19.9H119.635C119.667 20.156 119.791 20.368 120.007 20.536C120.231 20.704 120.507 20.788 120.835 20.788C121.155 20.788 121.403 20.724 121.579 20.596C121.763 20.468 121.855 20.304 121.855 20.104C121.855 19.888 121.743 19.728 121.519 19.624C121.303 19.512 120.955 19.392 120.475 19.264C119.979 19.144 119.571 19.02 119.251 18.892C118.939 18.764 118.667 18.568 118.435 18.304C118.211 18.04 118.099 17.684 118.099 17.236C118.099 16.868 118.203 16.532 118.411 16.228C118.627 15.924 118.931 15.684 119.323 15.508C119.723 15.332 120.191 15.244 120.727 15.244C121.519 15.244 122.151 15.444 122.623 15.844C123.095 16.236 123.355 16.768 123.403 17.44H121.795C121.771 17.176 121.659 16.968 121.459 16.816C121.267 16.656 121.007 16.576 120.679 16.576C120.375 16.576 120.139 16.632 119.971 16.744C119.811 16.856 119.731 17.012 119.731 17.212C119.731 17.436 119.843 17.608 120.067 17.728C120.291 17.84 120.639 17.956 121.111 18.076C121.591 18.196 121.987 18.32 122.299 18.448C122.611 18.576 122.879 18.776 123.103 19.048C123.335 19.312 123.455 19.664 123.463 20.104C123.463 20.488 123.355 20.832 123.139 21.136C122.931 21.44 122.627 21.68 122.227 21.856C121.835 22.024 121.375 22.108 120.847 22.108ZM126.798 16.732V19.948C126.798 20.172 126.85 20.336 126.954 20.44C127.066 20.536 127.25 20.584 127.506 20.584H128.286V22H127.23C125.814 22 125.106 21.312 125.106 19.936V16.732H124.314V15.352H125.106V13.708H126.798V15.352H128.286V16.732H126.798ZM132.446 22.108C131.806 22.108 131.23 21.968 130.718 21.688C130.206 21.4 129.802 20.996 129.506 20.476C129.218 19.956 129.074 19.356 129.074 18.676C129.074 17.996 129.222 17.396 129.518 16.876C129.822 16.356 130.234 15.956 130.754 15.676C131.274 15.388 131.854 15.244 132.494 15.244C133.134 15.244 133.714 15.388 134.234 15.676C134.754 15.956 135.162 16.356 135.458 16.876C135.762 17.396 135.914 17.996 135.914 18.676C135.914 19.356 135.758 19.956 135.446 20.476C135.142 20.996 134.726 21.4 134.198 21.688C133.678 21.968 133.094 22.108 132.446 22.108ZM132.446 20.644C132.75 20.644 133.034 20.572 133.298 20.428C133.57 20.276 133.786 20.052 133.946 19.756C134.106 19.46 134.186 19.1 134.186 18.676C134.186 18.044 134.018 17.56 133.682 17.224C133.354 16.88 132.95 16.708 132.47 16.708C131.99 16.708 131.586 16.88 131.258 17.224C130.938 17.56 130.778 18.044 130.778 18.676C130.778 19.308 130.934 19.796 131.246 20.14C131.566 20.476 131.966 20.644 132.446 20.644ZM145.402 15.256C146.218 15.256 146.874 15.508 147.37 16.012C147.874 16.508 148.126 17.204 148.126 18.1V22H146.446V18.328C146.446 17.808 146.314 17.412 146.05 17.14C145.786 16.86 145.426 16.72 144.97 16.72C144.514 16.72 144.15 16.86 143.878 17.14C143.614 17.412 143.482 17.808 143.482 18.328V22H141.802V18.328C141.802 17.808 141.67 17.412 141.406 17.14C141.142 16.86 140.782 16.72 140.326 16.72C139.862 16.72 139.494 16.86 139.222 17.14C138.958 17.412 138.826 17.808 138.826 18.328V22H137.146V15.352H138.826V16.156C139.042 15.876 139.318 15.656 139.654 15.496C139.998 15.336 140.374 15.256 140.782 15.256C141.302 15.256 141.766 15.368 142.174 15.592C142.582 15.808 142.898 16.12 143.122 16.528C143.338 16.144 143.65 15.836 144.058 15.604C144.474 15.372 144.922 15.256 145.402 15.256ZM155.901 18.532C155.901 18.772 155.885 18.988 155.853 19.18H150.993C151.033 19.66 151.201 20.036 151.497 20.308C151.793 20.58 152.157 20.716 152.589 20.716C153.213 20.716 153.657 20.448 153.921 19.912H155.733C155.541 20.552 155.173 21.08 154.629 21.496C154.085 21.904 153.417 22.108 152.625 22.108C151.985 22.108 151.409 21.968 150.897 21.688C150.393 21.4 149.997 20.996 149.709 20.476C149.429 19.956 149.289 19.356 149.289 18.676C149.289 17.988 149.429 17.384 149.709 16.864C149.989 16.344 150.381 15.944 150.885 15.664C151.389 15.384 151.969 15.244 152.625 15.244C153.257 15.244 153.821 15.38 154.317 15.652C154.821 15.924 155.209 16.312 155.481 16.816C155.761 17.312 155.901 17.884 155.901 18.532ZM154.161 18.052C154.153 17.62 153.997 17.276 153.693 17.02C153.389 16.756 153.017 16.624 152.577 16.624C152.161 16.624 151.809 16.752 151.521 17.008C151.241 17.256 151.069 17.604 151.005 18.052H154.161ZM158.807 16.384C159.023 16.032 159.303 15.756 159.647 15.556C159.999 15.356 160.399 15.256 160.847 15.256V17.02H160.403C159.875 17.02 159.475 17.144 159.203 17.392C158.939 17.64 158.807 18.072 158.807 18.688V22H157.127V15.352H158.807V16.384ZM166.518 14.98V17.08H169.338V18.412H166.518V20.632H169.698V22H164.838V13.612H169.698V14.98H166.518ZM174.908 15.256C175.7 15.256 176.34 15.508 176.828 16.012C177.316 16.508 177.56 17.204 177.56 18.1V22H175.88V18.328C175.88 17.8 175.748 17.396 175.484 17.116C175.22 16.828 174.86 16.684 174.404 16.684C173.94 16.684 173.572 16.828 173.3 17.116C173.036 17.396 172.904 17.8 172.904 18.328V22H171.224V15.352H172.904V16.18C173.128 15.892 173.412 15.668 173.756 15.508C174.108 15.34 174.492 15.256 174.908 15.256ZM181.114 16.732V19.948C181.114 20.172 181.166 20.336 181.27 20.44C181.382 20.536 181.566 20.584 181.822 20.584H182.602V22H181.546C180.13 22 179.422 21.312 179.422 19.936V16.732H178.63V15.352H179.422V13.708H181.114V15.352H182.602V16.732H181.114ZM185.49 16.384C185.706 16.032 185.986 15.756 186.33 15.556C186.682 15.356 187.082 15.256 187.53 15.256V17.02H187.086C186.558 17.02 186.158 17.144 185.886 17.392C185.622 17.64 185.49 18.072 185.49 18.688V22H183.81V15.352H185.49V16.384ZM195.022 15.352L190.906 25.144H189.118L190.558 21.832L187.894 15.352H189.778L191.494 19.996L193.234 15.352H195.022ZM201.679 22.084C201.095 22.084 200.567 21.984 200.095 21.784C199.631 21.584 199.263 21.296 198.991 20.92C198.719 20.544 198.579 20.1 198.571 19.588H200.371C200.395 19.932 200.515 20.204 200.731 20.404C200.955 20.604 201.259 20.704 201.643 20.704C202.035 20.704 202.343 20.612 202.567 20.428C202.791 20.236 202.903 19.988 202.903 19.684C202.903 19.436 202.827 19.232 202.675 19.072C202.523 18.912 202.331 18.788 202.099 18.7C201.875 18.604 201.563 18.5 201.163 18.388C200.619 18.228 200.175 18.072 199.831 17.92C199.495 17.76 199.203 17.524 198.955 17.212C198.715 16.892 198.595 16.468 198.595 15.94C198.595 15.444 198.719 15.012 198.967 14.644C199.215 14.276 199.563 13.996 200.011 13.804C200.459 13.604 200.971 13.504 201.547 13.504C202.411 13.504 203.111 13.716 203.647 14.14C204.191 14.556 204.491 15.14 204.547 15.892H202.699C202.683 15.604 202.559 15.368 202.327 15.184C202.103 14.992 201.803 14.896 201.427 14.896C201.099 14.896 200.835 14.98 200.635 15.148C200.443 15.316 200.347 15.56 200.347 15.88C200.347 16.104 200.419 16.292 200.563 16.444C200.715 16.588 200.899 16.708 201.115 16.804C201.339 16.892 201.651 16.996 202.051 17.116C202.595 17.276 203.039 17.436 203.383 17.596C203.727 17.756 204.023 17.996 204.271 18.316C204.519 18.636 204.643 19.056 204.643 19.576C204.643 20.024 204.527 20.44 204.295 20.824C204.063 21.208 203.723 21.516 203.275 21.748C202.827 21.972 202.295 22.084 201.679 22.084ZM209.843 15.256C210.347 15.256 210.795 15.368 211.187 15.592C211.579 15.808 211.883 16.132 212.099 16.564C212.323 16.988 212.435 17.5 212.435 18.1V22H210.755V18.328C210.755 17.8 210.623 17.396 210.359 17.116C210.095 16.828 209.735 16.684 209.279 16.684C208.815 16.684 208.447 16.828 208.175 17.116C207.911 17.396 207.779 17.8 207.779 18.328V22H206.099V13.12H207.779V16.18C207.995 15.892 208.283 15.668 208.643 15.508C209.003 15.34 209.403 15.256 209.843 15.256ZM220.213 18.532C220.213 18.772 220.197 18.988 220.165 19.18H215.305C215.345 19.66 215.513 20.036 215.809 20.308C216.105 20.58 216.469 20.716 216.901 20.716C217.525 20.716 217.969 20.448 218.233 19.912H220.045C219.853 20.552 219.485 21.08 218.941 21.496C218.397 21.904 217.729 22.108 216.937 22.108C216.297 22.108 215.721 21.968 215.209 21.688C214.705 21.4 214.309 20.996 214.021 20.476C213.741 19.956 213.601 19.356 213.601 18.676C213.601 17.988 213.741 17.384 214.021 16.864C214.301 16.344 214.693 15.944 215.197 15.664C215.701 15.384 216.281 15.244 216.937 15.244C217.569 15.244 218.133 15.38 218.629 15.652C219.133 15.924 219.521 16.312 219.793 16.816C220.073 17.312 220.213 17.884 220.213 18.532ZM218.473 18.052C218.465 17.62 218.309 17.276 218.005 17.02C217.701 16.756 217.329 16.624 216.889 16.624C216.473 16.624 216.121 16.752 215.833 17.008C215.553 17.256 215.381 17.604 215.317 18.052H218.473ZM227.619 18.532C227.619 18.772 227.603 18.988 227.571 19.18H222.711C222.751 19.66 222.919 20.036 223.215 20.308C223.511 20.58 223.875 20.716 224.307 20.716C224.931 20.716 225.375 20.448 225.639 19.912H227.451C227.259 20.552 226.891 21.08 226.347 21.496C225.803 21.904 225.135 22.108 224.343 22.108C223.703 22.108 223.127 21.968 222.615 21.688C222.111 21.4 221.715 20.996 221.427 20.476C221.147 19.956 221.007 19.356 221.007 18.676C221.007 17.988 221.147 17.384 221.427 16.864C221.707 16.344 222.099 15.944 222.603 15.664C223.107 15.384 223.687 15.244 224.343 15.244C224.975 15.244 225.539 15.38 226.035 15.652C226.539 15.924 226.927 16.312 227.199 16.816C227.479 17.312 227.619 17.884 227.619 18.532ZM225.879 18.052C225.871 17.62 225.715 17.276 225.411 17.02C225.107 16.756 224.735 16.624 224.295 16.624C223.879 16.624 223.527 16.752 223.239 17.008C222.959 17.256 222.787 17.604 222.723 18.052H225.879ZM230.802 16.732V19.948C230.802 20.172 230.854 20.336 230.958 20.44C231.07 20.536 231.254 20.584 231.51 20.584H232.29V22H231.234C229.818 22 229.11 21.312 229.11 19.936V16.732H228.318V15.352H229.11V13.708H230.802V15.352H232.29V16.732H230.802Z" fill="white"/>
<path d="M425 28.1417C425 27.9415 425.069 27.7475 425.197 27.5933L429.033 23.0008L425.334 18.3998C425.263 18.3121 425.21 18.2113 425.178 18.1031C425.146 17.9948 425.135 17.8813 425.147 17.769C425.159 17.6568 425.193 17.548 425.247 17.4489C425.301 17.3498 425.374 17.2624 425.462 17.1917C425.55 17.1205 425.651 17.0674 425.759 17.0353C425.867 17.0032 425.981 16.9929 426.093 17.0048C426.205 17.0168 426.314 17.0508 426.413 17.1049C426.512 17.159 426.599 17.2322 426.67 17.3202L430.805 22.4611C430.931 22.6144 431 22.8067 431 23.0051C431 23.2036 430.931 23.3959 430.805 23.5492L426.524 28.69C426.452 28.7768 426.364 28.8485 426.264 28.9011C426.165 28.9536 426.056 28.986 425.944 28.9964C425.831 29.0067 425.718 28.9948 425.611 28.9614C425.503 28.9279 425.403 28.8736 425.317 28.8014C425.219 28.7217 425.139 28.6212 425.084 28.5071C425.03 28.393 425.001 28.2682 425 28.1417Z" fill="white"/>
<path d="M102.923 31.4507C102.374 31.4507 101.94 31.6341 101.621 32.001C101.304 32.3656 101.146 32.8657 101.146 33.5015C101.146 34.1554 101.298 34.6613 101.604 35.019C101.911 35.3745 102.349 35.5522 102.916 35.5522C103.265 35.5522 103.662 35.4896 104.109 35.3643V35.8735C103.763 36.0034 103.335 36.0684 102.827 36.0684C102.091 36.0684 101.523 35.8451 101.122 35.3984C100.723 34.9518 100.523 34.3172 100.523 33.4946C100.523 32.9797 100.619 32.5285 100.811 32.1411C101.004 31.7537 101.282 31.4552 101.645 31.2456C102.009 31.036 102.438 30.9312 102.93 30.9312C103.454 30.9312 103.912 31.0269 104.304 31.2183L104.058 31.7173C103.679 31.5396 103.301 31.4507 102.923 31.4507ZM108.973 31.0029V34.2363C108.973 34.806 108.801 35.2537 108.457 35.5796C108.112 35.9054 107.64 36.0684 107.038 36.0684C106.437 36.0684 105.971 35.9043 105.64 35.5762C105.312 35.248 105.148 34.7969 105.148 34.2227V31.0029H105.729V34.2637C105.729 34.6807 105.843 35.0008 106.071 35.2241C106.299 35.4474 106.634 35.5591 107.076 35.5591C107.497 35.5591 107.822 35.4474 108.05 35.2241C108.278 34.9985 108.392 34.6761 108.392 34.2568V31.0029H108.973ZM113.119 34.6704C113.119 35.1102 112.959 35.4531 112.64 35.6992C112.321 35.9453 111.888 36.0684 111.341 36.0684C110.749 36.0684 110.293 35.992 109.974 35.8394V35.2788C110.179 35.3654 110.403 35.4338 110.644 35.4839C110.886 35.534 111.125 35.5591 111.362 35.5591C111.749 35.5591 112.041 35.4862 112.237 35.3403C112.433 35.1922 112.531 34.9871 112.531 34.7251C112.531 34.5519 112.495 34.4106 112.425 34.3013C112.356 34.1896 112.24 34.0871 112.076 33.9937C111.914 33.9002 111.667 33.7943 111.334 33.6758C110.87 33.5094 110.537 33.3123 110.336 33.0845C110.138 32.8566 110.039 32.5592 110.039 32.1924C110.039 31.8073 110.184 31.5008 110.473 31.2729C110.763 31.0451 111.145 30.9312 111.622 30.9312C112.118 30.9312 112.575 31.0223 112.992 31.2046L112.811 31.7104C112.399 31.5373 111.998 31.4507 111.608 31.4507C111.3 31.4507 111.06 31.5168 110.887 31.6489C110.714 31.7811 110.627 31.9645 110.627 32.1992C110.627 32.3724 110.659 32.5148 110.723 32.6265C110.786 32.7358 110.894 32.8372 111.044 32.9307C111.197 33.0218 111.429 33.1232 111.741 33.2349C112.265 33.4217 112.625 33.6222 112.821 33.8364C113.02 34.0506 113.119 34.3286 113.119 34.6704ZM115.679 36H115.098V31.519H113.515V31.0029H117.261V31.519H115.679V36ZM122.354 33.4946C122.354 34.2944 122.151 34.9233 121.746 35.3813C121.342 35.8394 120.781 36.0684 120.061 36.0684C119.325 36.0684 118.756 35.8439 118.355 35.395C117.956 34.9438 117.757 34.3081 117.757 33.4878C117.757 32.6743 117.957 32.0443 118.358 31.5977C118.759 31.1488 119.329 30.9243 120.067 30.9243C120.785 30.9243 121.346 31.1522 121.749 31.6079C122.152 32.0636 122.354 32.6925 122.354 33.4946ZM118.372 33.4946C118.372 34.1714 118.516 34.6852 118.803 35.0361C119.092 35.3848 119.511 35.5591 120.061 35.5591C120.614 35.5591 121.032 35.3848 121.315 35.0361C121.597 34.6875 121.739 34.1737 121.739 33.4946C121.739 32.8224 121.597 32.3132 121.315 31.9668C121.035 31.6182 120.619 31.4438 120.067 31.4438C119.514 31.4438 119.092 31.6193 118.803 31.9702C118.516 32.3188 118.372 32.827 118.372 33.4946ZM125.683 36L123.988 31.5703H123.96C123.992 31.9212 124.008 32.3382 124.008 32.8213V36H123.472V31.0029H124.347L125.929 35.125H125.957L127.553 31.0029H128.421V36H127.84V32.7803C127.84 32.4111 127.856 32.0101 127.888 31.5771H127.86L126.151 36H125.683ZM132.581 36H129.795V31.0029H132.581V31.519H130.376V33.1289H132.447V33.6416H130.376V35.4805H132.581V36ZM134.272 33.9219V36H133.691V31.0029H135.062C135.675 31.0029 136.127 31.1203 136.419 31.355C136.713 31.5897 136.86 31.9429 136.86 32.4146C136.86 33.0754 136.525 33.522 135.855 33.7544L137.212 36H136.525L135.315 33.9219H134.272ZM134.272 33.4229H135.069C135.479 33.4229 135.78 33.342 135.971 33.1802C136.163 33.0161 136.258 32.7712 136.258 32.4453C136.258 32.1149 136.16 31.8768 135.964 31.731C135.771 31.5851 135.458 31.5122 135.028 31.5122H134.272V33.4229ZM139.837 36V31.0029H140.418V36H139.837ZM145.695 36H145.032L142.301 31.8062H142.274C142.31 32.2983 142.329 32.7495 142.329 33.1597V36H141.792V31.0029H142.448L145.172 35.1797H145.2C145.195 35.1182 145.185 34.9211 145.169 34.5884C145.153 34.2534 145.147 34.0142 145.152 33.8706V31.0029H145.695V36ZM148.607 36H148.026V31.519H146.444V31.0029H150.19V31.519H148.607V36ZM153.731 36H150.945V31.0029H153.731V31.519H151.526V33.1289H153.598V33.6416H151.526V35.4805H153.731V36ZM155.423 33.9219V36H154.842V31.0029H156.212C156.825 31.0029 157.278 31.1203 157.569 31.355C157.863 31.5897 158.01 31.9429 158.01 32.4146C158.01 33.0754 157.675 33.522 157.005 33.7544L158.362 36H157.675L156.465 33.9219H155.423ZM155.423 33.4229H156.219C156.629 33.4229 156.93 33.342 157.122 33.1802C157.313 33.0161 157.409 32.7712 157.409 32.4453C157.409 32.1149 157.311 31.8768 157.115 31.731C156.921 31.5851 156.609 31.5122 156.178 31.5122H155.423V33.4229ZM162.31 36L161.688 34.4106H159.685L159.07 36H158.482L160.458 30.9824H160.946L162.912 36H162.31ZM161.507 33.8877L160.926 32.3394C160.851 32.1434 160.773 31.903 160.693 31.6182C160.643 31.8369 160.571 32.0773 160.478 32.3394L159.89 33.8877H161.507ZM165.738 31.4507C165.189 31.4507 164.755 31.6341 164.436 32.001C164.119 32.3656 163.961 32.8657 163.961 33.5015C163.961 34.1554 164.114 34.6613 164.419 35.019C164.727 35.3745 165.164 35.5522 165.731 35.5522C166.08 35.5522 166.478 35.4896 166.924 35.3643V35.8735C166.578 36.0034 166.151 36.0684 165.643 36.0684C164.907 36.0684 164.338 35.8451 163.937 35.3984C163.538 34.9518 163.339 34.3172 163.339 33.4946C163.339 32.9797 163.435 32.5285 163.626 32.1411C163.82 31.7537 164.098 31.4552 164.46 31.2456C164.825 31.036 165.253 30.9312 165.745 30.9312C166.269 30.9312 166.727 31.0269 167.119 31.2183L166.873 31.7173C166.495 31.5396 166.117 31.4507 165.738 31.4507ZM169.553 36H168.972V31.519H167.389V31.0029H171.135V31.519H169.553V36ZM171.891 36V31.0029H172.472V36H171.891ZM178.183 33.4946C178.183 34.2944 177.98 34.9233 177.575 35.3813C177.171 35.8394 176.61 36.0684 175.89 36.0684C175.154 36.0684 174.585 35.8439 174.184 35.395C173.785 34.9438 173.586 34.3081 173.586 33.4878C173.586 32.6743 173.786 32.0443 174.188 31.5977C174.589 31.1488 175.158 30.9243 175.896 30.9243C176.614 30.9243 177.175 31.1522 177.578 31.6079C177.981 32.0636 178.183 32.6925 178.183 33.4946ZM174.201 33.4946C174.201 34.1714 174.345 34.6852 174.632 35.0361C174.921 35.3848 175.34 35.5591 175.89 35.5591C176.443 35.5591 176.861 35.3848 177.144 35.0361C177.427 34.6875 177.568 34.1737 177.568 33.4946C177.568 32.8224 177.427 32.3132 177.144 31.9668C176.864 31.6182 176.448 31.4438 175.896 31.4438C175.343 31.4438 174.921 31.6193 174.632 31.9702C174.345 32.3188 174.201 32.827 174.201 33.4946ZM183.204 36H182.541L179.81 31.8062H179.783C179.819 32.2983 179.837 32.7495 179.837 33.1597V36H179.301V31.0029H179.957L182.681 35.1797H182.708C182.704 35.1182 182.694 34.9211 182.678 34.5884C182.662 34.2534 182.656 34.0142 182.661 33.8706V31.0029H183.204V36ZM188.536 31.4507C187.987 31.4507 187.553 31.6341 187.234 32.001C186.917 32.3656 186.759 32.8657 186.759 33.5015C186.759 34.1554 186.911 34.6613 187.217 35.019C187.524 35.3745 187.962 35.5522 188.529 35.5522C188.878 35.5522 189.276 35.4896 189.722 35.3643V35.8735C189.376 36.0034 188.949 36.0684 188.44 36.0684C187.704 36.0684 187.136 35.8451 186.735 35.3984C186.336 34.9518 186.137 34.3172 186.137 33.4946C186.137 32.9797 186.232 32.5285 186.424 32.1411C186.618 31.7537 186.896 31.4552 187.258 31.2456C187.622 31.036 188.051 30.9312 188.543 30.9312C189.067 30.9312 189.525 31.0269 189.917 31.2183L189.671 31.7173C189.293 31.5396 188.914 31.4507 188.536 31.4507ZM195.15 33.4946C195.15 34.2944 194.947 34.9233 194.542 35.3813C194.138 35.8394 193.576 36.0684 192.856 36.0684C192.12 36.0684 191.552 35.8439 191.151 35.395C190.752 34.9438 190.553 34.3081 190.553 33.4878C190.553 32.6743 190.753 32.0443 191.154 31.5977C191.555 31.1488 192.125 30.9243 192.863 30.9243C193.581 30.9243 194.142 31.1522 194.545 31.6079C194.948 32.0636 195.15 32.6925 195.15 33.4946ZM191.168 33.4946C191.168 34.1714 191.312 34.6852 191.599 35.0361C191.888 35.3848 192.307 35.5591 192.856 35.5591C193.41 35.5591 193.828 35.3848 194.111 35.0361C194.393 34.6875 194.535 34.1737 194.535 33.4946C194.535 32.8224 194.393 32.3132 194.111 31.9668C193.831 31.6182 193.415 31.4438 192.863 31.4438C192.31 31.4438 191.888 31.6193 191.599 31.9702C191.312 32.3188 191.168 32.827 191.168 33.4946ZM198.479 36L196.784 31.5703H196.756C196.788 31.9212 196.804 32.3382 196.804 32.8213V36H196.268V31.0029H197.143L198.725 35.125H198.752L200.349 31.0029H201.217V36H200.636V32.7803C200.636 32.4111 200.652 32.0101 200.684 31.5771H200.656L198.947 36H198.479ZM205.759 32.459C205.759 32.9648 205.586 33.3545 205.24 33.6279C204.896 33.8991 204.402 34.0347 203.76 34.0347H203.172V36H202.591V31.0029H203.886C205.135 31.0029 205.759 31.4883 205.759 32.459ZM203.172 33.5356H203.695C204.21 33.5356 204.582 33.4525 204.812 33.2861C205.043 33.1198 205.158 32.8532 205.158 32.4863C205.158 32.1559 205.049 31.9098 204.833 31.748C204.617 31.5863 204.279 31.5054 203.821 31.5054H203.172V33.5356ZM211.146 33.4946C211.146 34.2944 210.943 34.9233 210.538 35.3813C210.134 35.8394 209.573 36.0684 208.853 36.0684C208.117 36.0684 207.548 35.8439 207.147 35.395C206.748 34.9438 206.549 34.3081 206.549 33.4878C206.549 32.6743 206.749 32.0443 207.15 31.5977C207.551 31.1488 208.121 30.9243 208.859 30.9243C209.577 30.9243 210.138 31.1522 210.541 31.6079C210.944 32.0636 211.146 32.6925 211.146 33.4946ZM207.164 33.4946C207.164 34.1714 207.308 34.6852 207.595 35.0361C207.884 35.3848 208.303 35.5591 208.853 35.5591C209.406 35.5591 209.824 35.3848 210.107 35.0361C210.389 34.6875 210.531 34.1737 210.531 33.4946C210.531 32.8224 210.389 32.3132 210.107 31.9668C209.827 31.6182 209.411 31.4438 208.859 31.4438C208.306 31.4438 207.884 31.6193 207.595 31.9702C207.308 32.3188 207.164 32.827 207.164 33.4946ZM216.167 36H215.504L212.773 31.8062H212.746C212.782 32.2983 212.8 32.7495 212.8 33.1597V36H212.264V31.0029H212.92L215.644 35.1797H215.671C215.667 35.1182 215.657 34.9211 215.641 34.5884C215.625 34.2534 215.619 34.0142 215.624 33.8706V31.0029H216.167V36ZM220.327 36H217.541V31.0029H220.327V31.519H218.122V33.1289H220.193V33.6416H218.122V35.4805H220.327V36ZM225.341 36H224.678L221.947 31.8062H221.919C221.956 32.2983 221.974 32.7495 221.974 33.1597V36H221.438V31.0029H222.094L224.818 35.1797H224.845C224.841 35.1182 224.83 34.9211 224.814 34.5884C224.799 34.2534 224.793 34.0142 224.797 33.8706V31.0029H225.341V36ZM228.253 36H227.672V31.519H226.089V31.0029H229.835V31.519H228.253V36Z" fill="white"/>
<defs>
<linearGradient id="paint0_linear" x1="451" y1="23.1148" x2="41.8545" y2="-107.746" gradientUnits="userSpaceOnUse">
<stop offset="0.265807" stop-color="#100268"/>
</linearGradient>
</defs>
</svg>
