<svg width="70" height="70" viewBox="0 0 70 70" fill="none" xmlns="http://www.w3.org/2000/svg">
<circle cx="35" cy="35" r="35" fill="#100268"/>
<path d="M39.25 31H21.75C20.7875 31 20 31.9 20 33C20 34.1 20.7875 35 21.75 35H39.25C40.2125 35 41 34.1 41 33C41 31.9 40.2125 31 39.25 31ZM39.25 23H21.75C20.7875 23 20 23.9 20 25C20 26.1 20.7875 27 21.75 27H39.25C40.2125 27 41 26.1 41 25C41 23.9 40.2125 23 39.25 23ZM48 39V33C48 31.9 47.2125 31 46.25 31C45.2875 31 44.5 31.9 44.5 33V39H39.25C38.2875 39 37.5 39.9 37.5 41C37.5 42.1 38.2875 43 39.25 43H44.5V49C44.5 50.1 45.2875 51 46.25 51C47.2125 51 48 50.1 48 49V43H53.25C54.2125 43 55 42.1 55 41C55 39.9 54.2125 39 53.25 39H48ZM21.75 43H32.25C33.2125 43 34 42.1 34 41C34 39.9 33.2125 39 32.25 39H21.75C20.7875 39 20 39.9 20 41C20 42.1 20.7875 43 21.75 43Z" fill="white"/>
</svg>
