<svg width="451" height="47" viewBox="0 0 451 47" fill="none" xmlns="http://www.w3.org/2000/svg">
<rect width="451" height="47" rx="5" fill="url(#paint0_linear)"/>
<circle cx="45" cy="23" r="5" fill="#07C8A5"/>
<path d="M425 28.1417C425 27.9415 425.069 27.7475 425.197 27.5933L429.033 23.0008L425.334 18.3998C425.263 18.3121 425.21 18.2113 425.178 18.1031C425.146 17.9948 425.135 17.8813 425.147 17.769C425.159 17.6568 425.193 17.548 425.247 17.4489C425.301 17.3498 425.374 17.2624 425.462 17.1917C425.55 17.1205 425.651 17.0674 425.759 17.0353C425.867 17.0032 425.981 16.9929 426.093 17.0048C426.205 17.0168 426.314 17.0508 426.413 17.1049C426.512 17.159 426.599 17.2322 426.67 17.3202L430.805 22.4611C430.931 22.6144 431 22.8067 431 23.0051C431 23.2036 430.931 23.3959 430.805 23.5492L426.524 28.69C426.452 28.7768 426.364 28.8485 426.264 28.9011C426.165 28.9536 426.056 28.986 425.944 28.9964C425.831 29.0067 425.718 28.9948 425.611 28.9614C425.503 28.9279 425.403 28.8736 425.317 28.8014C425.219 28.7217 425.139 28.6212 425.084 28.5071C425.03 28.393 425.001 28.2682 425 28.1417Z" fill="white"/>
<path d="M106.985 16.216C106.985 16.664 106.877 17.084 106.661 17.476C106.453 17.868 106.121 18.184 105.665 18.424C105.217 18.664 104.649 18.784 103.961 18.784H102.557V22H100.877V13.624H103.961C104.609 13.624 105.161 13.736 105.617 13.96C106.073 14.184 106.413 14.492 106.637 14.884C106.869 15.276 106.985 15.72 106.985 16.216ZM103.889 17.428C104.353 17.428 104.697 17.324 104.921 17.116C105.145 16.9 105.257 16.6 105.257 16.216C105.257 15.4 104.801 14.992 103.889 14.992H102.557V17.428H103.889ZM109.858 16.384C110.074 16.032 110.354 15.756 110.698 15.556C111.05 15.356 111.45 15.256 111.898 15.256V17.02H111.454C110.926 17.02 110.526 17.144 110.254 17.392C109.99 17.64 109.858 18.072 109.858 18.688V22H108.178V15.352H109.858V16.384ZM115.981 22.108C115.341 22.108 114.765 21.968 114.253 21.688C113.741 21.4 113.337 20.996 113.041 20.476C112.753 19.956 112.609 19.356 112.609 18.676C112.609 17.996 112.757 17.396 113.053 16.876C113.357 16.356 113.769 15.956 114.289 15.676C114.809 15.388 115.389 15.244 116.029 15.244C116.669 15.244 117.249 15.388 117.769 15.676C118.289 15.956 118.697 16.356 118.993 16.876C119.297 17.396 119.449 17.996 119.449 18.676C119.449 19.356 119.293 19.956 118.981 20.476C118.677 20.996 118.261 21.4 117.733 21.688C117.213 21.968 116.629 22.108 115.981 22.108ZM115.981 20.644C116.285 20.644 116.569 20.572 116.833 20.428C117.105 20.276 117.321 20.052 117.481 19.756C117.641 19.46 117.721 19.1 117.721 18.676C117.721 18.044 117.553 17.56 117.217 17.224C116.889 16.88 116.485 16.708 116.005 16.708C115.525 16.708 115.121 16.88 114.793 17.224C114.473 17.56 114.313 18.044 114.313 18.676C114.313 19.308 114.469 19.796 114.781 20.14C115.101 20.476 115.501 20.644 115.981 20.644ZM120.25 18.652C120.25 17.98 120.382 17.384 120.646 16.864C120.918 16.344 121.286 15.944 121.75 15.664C122.214 15.384 122.73 15.244 123.298 15.244C123.73 15.244 124.142 15.34 124.534 15.532C124.926 15.716 125.238 15.964 125.47 16.276V13.12H127.174V22H125.47V21.016C125.262 21.344 124.97 21.608 124.594 21.808C124.218 22.008 123.782 22.108 123.286 22.108C122.726 22.108 122.214 21.964 121.75 21.676C121.286 21.388 120.918 20.984 120.646 20.464C120.382 19.936 120.25 19.332 120.25 18.652ZM125.482 18.676C125.482 18.268 125.402 17.92 125.242 17.632C125.082 17.336 124.866 17.112 124.594 16.96C124.322 16.8 124.03 16.72 123.718 16.72C123.406 16.72 123.118 16.796 122.854 16.948C122.59 17.1 122.374 17.324 122.206 17.62C122.046 17.908 121.966 18.252 121.966 18.652C121.966 19.052 122.046 19.404 122.206 19.708C122.374 20.004 122.59 20.232 122.854 20.392C123.126 20.552 123.414 20.632 123.718 20.632C124.03 20.632 124.322 20.556 124.594 20.404C124.866 20.244 125.082 20.02 125.242 19.732C125.402 19.436 125.482 19.084 125.482 18.676ZM135.09 15.352V22H133.398V21.16C133.182 21.448 132.898 21.676 132.546 21.844C132.202 22.004 131.826 22.084 131.418 22.084C130.898 22.084 130.438 21.976 130.038 21.76C129.638 21.536 129.322 21.212 129.09 20.788C128.866 20.356 128.754 19.844 128.754 19.252V15.352H130.434V19.012C130.434 19.54 130.566 19.948 130.83 20.236C131.094 20.516 131.454 20.656 131.91 20.656C132.374 20.656 132.738 20.516 133.002 20.236C133.266 19.948 133.398 19.54 133.398 19.012V15.352H135.09ZM136.316 18.676C136.316 17.988 136.456 17.388 136.736 16.876C137.016 16.356 137.404 15.956 137.9 15.676C138.396 15.388 138.964 15.244 139.604 15.244C140.428 15.244 141.108 15.452 141.644 15.868C142.188 16.276 142.552 16.852 142.736 17.596H140.924C140.828 17.308 140.664 17.084 140.432 16.924C140.208 16.756 139.928 16.672 139.592 16.672C139.112 16.672 138.732 16.848 138.452 17.2C138.172 17.544 138.032 18.036 138.032 18.676C138.032 19.308 138.172 19.8 138.452 20.152C138.732 20.496 139.112 20.668 139.592 20.668C140.272 20.668 140.716 20.364 140.924 19.756H142.736C142.552 20.476 142.188 21.048 141.644 21.472C141.1 21.896 140.42 22.108 139.604 22.108C138.964 22.108 138.396 21.968 137.9 21.688C137.404 21.4 137.016 21 136.736 20.488C136.456 19.968 136.316 19.364 136.316 18.676ZM145.923 16.732V19.948C145.923 20.172 145.975 20.336 146.079 20.44C146.191 20.536 146.375 20.584 146.631 20.584H147.411V22H146.355C144.939 22 144.231 21.312 144.231 19.936V16.732H143.439V15.352H144.231V13.708H145.923V15.352H147.411V16.732H145.923ZM154.37 22.084C153.786 22.084 153.258 21.984 152.786 21.784C152.322 21.584 151.954 21.296 151.682 20.92C151.41 20.544 151.27 20.1 151.262 19.588H153.062C153.086 19.932 153.206 20.204 153.422 20.404C153.646 20.604 153.95 20.704 154.334 20.704C154.726 20.704 155.034 20.612 155.258 20.428C155.482 20.236 155.594 19.988 155.594 19.684C155.594 19.436 155.518 19.232 155.366 19.072C155.214 18.912 155.022 18.788 154.79 18.7C154.566 18.604 154.254 18.5 153.854 18.388C153.31 18.228 152.866 18.072 152.522 17.92C152.186 17.76 151.894 17.524 151.646 17.212C151.406 16.892 151.286 16.468 151.286 15.94C151.286 15.444 151.41 15.012 151.658 14.644C151.906 14.276 152.254 13.996 152.702 13.804C153.15 13.604 153.662 13.504 154.238 13.504C155.102 13.504 155.802 13.716 156.338 14.14C156.882 14.556 157.182 15.14 157.238 15.892H155.39C155.374 15.604 155.25 15.368 155.018 15.184C154.794 14.992 154.494 14.896 154.118 14.896C153.79 14.896 153.526 14.98 153.326 15.148C153.134 15.316 153.038 15.56 153.038 15.88C153.038 16.104 153.11 16.292 153.254 16.444C153.406 16.588 153.59 16.708 153.806 16.804C154.03 16.892 154.342 16.996 154.742 17.116C155.286 17.276 155.73 17.436 156.074 17.596C156.418 17.756 156.714 17.996 156.962 18.316C157.21 18.636 157.334 19.056 157.334 19.576C157.334 20.024 157.218 20.44 156.986 20.824C156.754 21.208 156.414 21.516 155.966 21.748C155.518 21.972 154.986 22.084 154.37 22.084ZM158.359 18.652C158.359 17.98 158.491 17.384 158.755 16.864C159.027 16.344 159.391 15.944 159.847 15.664C160.311 15.384 160.827 15.244 161.395 15.244C161.891 15.244 162.323 15.344 162.691 15.544C163.067 15.744 163.367 15.996 163.591 16.3V15.352H165.283V22H163.591V21.028C163.375 21.34 163.075 21.6 162.691 21.808C162.315 22.008 161.879 22.108 161.383 22.108C160.823 22.108 160.311 21.964 159.847 21.676C159.391 21.388 159.027 20.984 158.755 20.464C158.491 19.936 158.359 19.332 158.359 18.652ZM163.591 18.676C163.591 18.268 163.511 17.92 163.351 17.632C163.191 17.336 162.975 17.112 162.703 16.96C162.431 16.8 162.139 16.72 161.827 16.72C161.515 16.72 161.227 16.796 160.963 16.948C160.699 17.1 160.483 17.324 160.315 17.62C160.155 17.908 160.075 18.252 160.075 18.652C160.075 19.052 160.155 19.404 160.315 19.708C160.483 20.004 160.699 20.232 160.963 20.392C161.235 20.552 161.523 20.632 161.827 20.632C162.139 20.632 162.431 20.556 162.703 20.404C162.975 20.244 163.191 20.02 163.351 19.732C163.511 19.436 163.591 19.084 163.591 18.676ZM168.604 13.12V22H166.924V13.12H168.604ZM176.444 18.532C176.444 18.772 176.428 18.988 176.396 19.18H171.536C171.576 19.66 171.744 20.036 172.04 20.308C172.336 20.58 172.7 20.716 173.132 20.716C173.756 20.716 174.2 20.448 174.464 19.912H176.276C176.084 20.552 175.716 21.08 175.172 21.496C174.628 21.904 173.96 22.108 173.168 22.108C172.528 22.108 171.952 21.968 171.44 21.688C170.936 21.4 170.54 20.996 170.252 20.476C169.972 19.956 169.832 19.356 169.832 18.676C169.832 17.988 169.972 17.384 170.252 16.864C170.532 16.344 170.924 15.944 171.428 15.664C171.932 15.384 172.512 15.244 173.168 15.244C173.8 15.244 174.364 15.38 174.86 15.652C175.364 15.924 175.752 16.312 176.024 16.816C176.304 17.312 176.444 17.884 176.444 18.532ZM174.704 18.052C174.696 17.62 174.54 17.276 174.236 17.02C173.932 16.756 173.56 16.624 173.12 16.624C172.704 16.624 172.352 16.752 172.064 17.008C171.784 17.256 171.612 17.604 171.548 18.052H174.704ZM180.214 22.108C179.67 22.108 179.182 22.012 178.75 21.82C178.318 21.62 177.974 21.352 177.718 21.016C177.47 20.68 177.334 20.308 177.31 19.9H179.002C179.034 20.156 179.158 20.368 179.374 20.536C179.598 20.704 179.874 20.788 180.202 20.788C180.522 20.788 180.77 20.724 180.946 20.596C181.13 20.468 181.222 20.304 181.222 20.104C181.222 19.888 181.11 19.728 180.886 19.624C180.67 19.512 180.322 19.392 179.842 19.264C179.346 19.144 178.938 19.02 178.618 18.892C178.306 18.764 178.034 18.568 177.802 18.304C177.578 18.04 177.466 17.684 177.466 17.236C177.466 16.868 177.57 16.532 177.778 16.228C177.994 15.924 178.298 15.684 178.69 15.508C179.09 15.332 179.558 15.244 180.094 15.244C180.886 15.244 181.518 15.444 181.99 15.844C182.462 16.236 182.722 16.768 182.77 17.44H181.162C181.138 17.176 181.026 16.968 180.826 16.816C180.634 16.656 180.374 16.576 180.046 16.576C179.742 16.576 179.506 16.632 179.338 16.744C179.178 16.856 179.098 17.012 179.098 17.212C179.098 17.436 179.21 17.608 179.434 17.728C179.658 17.84 180.006 17.956 180.478 18.076C180.958 18.196 181.354 18.32 181.666 18.448C181.978 18.576 182.246 18.776 182.47 19.048C182.702 19.312 182.822 19.664 182.83 20.104C182.83 20.488 182.722 20.832 182.506 21.136C182.298 21.44 181.994 21.68 181.594 21.856C181.202 22.024 180.742 22.108 180.214 22.108ZM189.96 22.084C189.376 22.084 188.848 21.984 188.376 21.784C187.912 21.584 187.544 21.296 187.272 20.92C187 20.544 186.86 20.1 186.852 19.588H188.652C188.676 19.932 188.796 20.204 189.012 20.404C189.236 20.604 189.54 20.704 189.924 20.704C190.316 20.704 190.624 20.612 190.848 20.428C191.072 20.236 191.184 19.988 191.184 19.684C191.184 19.436 191.108 19.232 190.956 19.072C190.804 18.912 190.612 18.788 190.38 18.7C190.156 18.604 189.844 18.5 189.444 18.388C188.9 18.228 188.456 18.072 188.112 17.92C187.776 17.76 187.484 17.524 187.236 17.212C186.996 16.892 186.876 16.468 186.876 15.94C186.876 15.444 187 15.012 187.248 14.644C187.496 14.276 187.844 13.996 188.292 13.804C188.74 13.604 189.252 13.504 189.828 13.504C190.692 13.504 191.392 13.716 191.928 14.14C192.472 14.556 192.772 15.14 192.828 15.892H190.98C190.964 15.604 190.84 15.368 190.608 15.184C190.384 14.992 190.084 14.896 189.708 14.896C189.38 14.896 189.116 14.98 188.916 15.148C188.724 15.316 188.628 15.56 188.628 15.88C188.628 16.104 188.7 16.292 188.844 16.444C188.996 16.588 189.18 16.708 189.396 16.804C189.62 16.892 189.932 16.996 190.332 17.116C190.876 17.276 191.32 17.436 191.664 17.596C192.008 17.756 192.304 17.996 192.552 18.316C192.8 18.636 192.924 19.056 192.924 19.576C192.924 20.024 192.808 20.44 192.576 20.824C192.344 21.208 192.004 21.516 191.556 21.748C191.108 21.972 190.576 22.084 189.96 22.084ZM198.125 15.256C198.629 15.256 199.077 15.368 199.469 15.592C199.861 15.808 200.165 16.132 200.381 16.564C200.605 16.988 200.717 17.5 200.717 18.1V22H199.037V18.328C199.037 17.8 198.905 17.396 198.641 17.116C198.377 16.828 198.017 16.684 197.561 16.684C197.097 16.684 196.729 16.828 196.457 17.116C196.193 17.396 196.061 17.8 196.061 18.328V22H194.381V13.12H196.061V16.18C196.277 15.892 196.565 15.668 196.925 15.508C197.285 15.34 197.685 15.256 198.125 15.256ZM208.494 18.532C208.494 18.772 208.478 18.988 208.446 19.18H203.586C203.626 19.66 203.794 20.036 204.09 20.308C204.386 20.58 204.75 20.716 205.182 20.716C205.806 20.716 206.25 20.448 206.514 19.912H208.326C208.134 20.552 207.766 21.08 207.222 21.496C206.678 21.904 206.01 22.108 205.218 22.108C204.578 22.108 204.002 21.968 203.49 21.688C202.986 21.4 202.59 20.996 202.302 20.476C202.022 19.956 201.882 19.356 201.882 18.676C201.882 17.988 202.022 17.384 202.302 16.864C202.582 16.344 202.974 15.944 203.478 15.664C203.982 15.384 204.562 15.244 205.218 15.244C205.85 15.244 206.414 15.38 206.91 15.652C207.414 15.924 207.802 16.312 208.074 16.816C208.354 17.312 208.494 17.884 208.494 18.532ZM206.754 18.052C206.746 17.62 206.59 17.276 206.286 17.02C205.982 16.756 205.61 16.624 205.17 16.624C204.754 16.624 204.402 16.752 204.114 17.008C203.834 17.256 203.662 17.604 203.598 18.052H206.754ZM215.901 18.532C215.901 18.772 215.885 18.988 215.853 19.18H210.993C211.033 19.66 211.201 20.036 211.497 20.308C211.793 20.58 212.157 20.716 212.589 20.716C213.213 20.716 213.657 20.448 213.921 19.912H215.733C215.541 20.552 215.173 21.08 214.629 21.496C214.085 21.904 213.417 22.108 212.625 22.108C211.985 22.108 211.409 21.968 210.897 21.688C210.393 21.4 209.997 20.996 209.709 20.476C209.429 19.956 209.289 19.356 209.289 18.676C209.289 17.988 209.429 17.384 209.709 16.864C209.989 16.344 210.381 15.944 210.885 15.664C211.389 15.384 211.969 15.244 212.625 15.244C213.257 15.244 213.821 15.38 214.317 15.652C214.821 15.924 215.209 16.312 215.481 16.816C215.761 17.312 215.901 17.884 215.901 18.532ZM214.161 18.052C214.153 17.62 213.997 17.276 213.693 17.02C213.389 16.756 213.017 16.624 212.577 16.624C212.161 16.624 211.809 16.752 211.521 17.008C211.241 17.256 211.069 17.604 211.005 18.052H214.161ZM219.083 16.732V19.948C219.083 20.172 219.135 20.336 219.239 20.44C219.351 20.536 219.535 20.584 219.791 20.584H220.571V22H219.515C218.099 22 217.391 21.312 217.391 19.936V16.732H216.599V15.352H217.391V13.708H219.083V15.352H220.571V16.732H219.083Z" fill="white"/>
<path d="M102.923 31.4507C102.374 31.4507 101.94 31.6341 101.621 32.001C101.304 32.3656 101.146 32.8657 101.146 33.5015C101.146 34.1554 101.298 34.6613 101.604 35.019C101.911 35.3745 102.349 35.5522 102.916 35.5522C103.265 35.5522 103.662 35.4896 104.109 35.3643V35.8735C103.763 36.0034 103.335 36.0684 102.827 36.0684C102.091 36.0684 101.523 35.8451 101.122 35.3984C100.723 34.9518 100.523 34.3172 100.523 33.4946C100.523 32.9797 100.619 32.5285 100.811 32.1411C101.004 31.7537 101.282 31.4552 101.645 31.2456C102.009 31.036 102.438 30.9312 102.93 30.9312C103.454 30.9312 103.912 31.0269 104.304 31.2183L104.058 31.7173C103.679 31.5396 103.301 31.4507 102.923 31.4507ZM108.973 31.0029V34.2363C108.973 34.806 108.801 35.2537 108.457 35.5796C108.112 35.9054 107.64 36.0684 107.038 36.0684C106.437 36.0684 105.971 35.9043 105.64 35.5762C105.312 35.248 105.148 34.7969 105.148 34.2227V31.0029H105.729V34.2637C105.729 34.6807 105.843 35.0008 106.071 35.2241C106.299 35.4474 106.634 35.5591 107.076 35.5591C107.497 35.5591 107.822 35.4474 108.05 35.2241C108.278 34.9985 108.392 34.6761 108.392 34.2568V31.0029H108.973ZM113.119 34.6704C113.119 35.1102 112.959 35.4531 112.64 35.6992C112.321 35.9453 111.888 36.0684 111.341 36.0684C110.749 36.0684 110.293 35.992 109.974 35.8394V35.2788C110.179 35.3654 110.403 35.4338 110.644 35.4839C110.886 35.534 111.125 35.5591 111.362 35.5591C111.749 35.5591 112.041 35.4862 112.237 35.3403C112.433 35.1922 112.531 34.9871 112.531 34.7251C112.531 34.5519 112.495 34.4106 112.425 34.3013C112.356 34.1896 112.24 34.0871 112.076 33.9937C111.914 33.9002 111.667 33.7943 111.334 33.6758C110.87 33.5094 110.537 33.3123 110.336 33.0845C110.138 32.8566 110.039 32.5592 110.039 32.1924C110.039 31.8073 110.184 31.5008 110.473 31.2729C110.763 31.0451 111.145 30.9312 111.622 30.9312C112.118 30.9312 112.575 31.0223 112.992 31.2046L112.811 31.7104C112.399 31.5373 111.998 31.4507 111.608 31.4507C111.3 31.4507 111.06 31.5168 110.887 31.6489C110.714 31.7811 110.627 31.9645 110.627 32.1992C110.627 32.3724 110.659 32.5148 110.723 32.6265C110.786 32.7358 110.894 32.8372 111.044 32.9307C111.197 33.0218 111.429 33.1232 111.741 33.2349C112.265 33.4217 112.625 33.6222 112.821 33.8364C113.02 34.0506 113.119 34.3286 113.119 34.6704ZM115.679 36H115.098V31.519H113.515V31.0029H117.261V31.519H115.679V36ZM122.354 33.4946C122.354 34.2944 122.151 34.9233 121.746 35.3813C121.342 35.8394 120.781 36.0684 120.061 36.0684C119.325 36.0684 118.756 35.8439 118.355 35.395C117.956 34.9438 117.757 34.3081 117.757 33.4878C117.757 32.6743 117.957 32.0443 118.358 31.5977C118.759 31.1488 119.329 30.9243 120.067 30.9243C120.785 30.9243 121.346 31.1522 121.749 31.6079C122.152 32.0636 122.354 32.6925 122.354 33.4946ZM118.372 33.4946C118.372 34.1714 118.516 34.6852 118.803 35.0361C119.092 35.3848 119.511 35.5591 120.061 35.5591C120.614 35.5591 121.032 35.3848 121.315 35.0361C121.597 34.6875 121.739 34.1737 121.739 33.4946C121.739 32.8224 121.597 32.3132 121.315 31.9668C121.035 31.6182 120.619 31.4438 120.067 31.4438C119.514 31.4438 119.092 31.6193 118.803 31.9702C118.516 32.3188 118.372 32.827 118.372 33.4946ZM125.683 36L123.988 31.5703H123.96C123.992 31.9212 124.008 32.3382 124.008 32.8213V36H123.472V31.0029H124.347L125.929 35.125H125.957L127.553 31.0029H128.421V36H127.84V32.7803C127.84 32.4111 127.856 32.0101 127.888 31.5771H127.86L126.151 36H125.683ZM132.581 36H129.795V31.0029H132.581V31.519H130.376V33.1289H132.447V33.6416H130.376V35.4805H132.581V36ZM134.272 33.9219V36H133.691V31.0029H135.062C135.675 31.0029 136.127 31.1203 136.419 31.355C136.713 31.5897 136.86 31.9429 136.86 32.4146C136.86 33.0754 136.525 33.522 135.855 33.7544L137.212 36H136.525L135.315 33.9219H134.272ZM134.272 33.4229H135.069C135.479 33.4229 135.78 33.342 135.971 33.1802C136.163 33.0161 136.258 32.7712 136.258 32.4453C136.258 32.1149 136.16 31.8768 135.964 31.731C135.771 31.5851 135.458 31.5122 135.028 31.5122H134.272V33.4229ZM139.837 36V31.0029H140.418V36H139.837ZM145.695 36H145.032L142.301 31.8062H142.274C142.31 32.2983 142.329 32.7495 142.329 33.1597V36H141.792V31.0029H142.448L145.172 35.1797H145.2C145.195 35.1182 145.185 34.9211 145.169 34.5884C145.153 34.2534 145.147 34.0142 145.152 33.8706V31.0029H145.695V36ZM148.607 36H148.026V31.519H146.444V31.0029H150.19V31.519H148.607V36ZM153.731 36H150.945V31.0029H153.731V31.519H151.526V33.1289H153.598V33.6416H151.526V35.4805H153.731V36ZM155.423 33.9219V36H154.842V31.0029H156.212C156.825 31.0029 157.278 31.1203 157.569 31.355C157.863 31.5897 158.01 31.9429 158.01 32.4146C158.01 33.0754 157.675 33.522 157.005 33.7544L158.362 36H157.675L156.465 33.9219H155.423ZM155.423 33.4229H156.219C156.629 33.4229 156.93 33.342 157.122 33.1802C157.313 33.0161 157.409 32.7712 157.409 32.4453C157.409 32.1149 157.311 31.8768 157.115 31.731C156.921 31.5851 156.609 31.5122 156.178 31.5122H155.423V33.4229ZM162.31 36L161.688 34.4106H159.685L159.07 36H158.482L160.458 30.9824H160.946L162.912 36H162.31ZM161.507 33.8877L160.926 32.3394C160.851 32.1434 160.773 31.903 160.693 31.6182C160.643 31.8369 160.571 32.0773 160.478 32.3394L159.89 33.8877H161.507ZM165.738 31.4507C165.189 31.4507 164.755 31.6341 164.436 32.001C164.119 32.3656 163.961 32.8657 163.961 33.5015C163.961 34.1554 164.114 34.6613 164.419 35.019C164.727 35.3745 165.164 35.5522 165.731 35.5522C166.08 35.5522 166.478 35.4896 166.924 35.3643V35.8735C166.578 36.0034 166.151 36.0684 165.643 36.0684C164.907 36.0684 164.338 35.8451 163.937 35.3984C163.538 34.9518 163.339 34.3172 163.339 33.4946C163.339 32.9797 163.435 32.5285 163.626 32.1411C163.82 31.7537 164.098 31.4552 164.46 31.2456C164.825 31.036 165.253 30.9312 165.745 30.9312C166.269 30.9312 166.727 31.0269 167.119 31.2183L166.873 31.7173C166.495 31.5396 166.117 31.4507 165.738 31.4507ZM169.553 36H168.972V31.519H167.389V31.0029H171.135V31.519H169.553V36ZM171.891 36V31.0029H172.472V36H171.891ZM178.183 33.4946C178.183 34.2944 177.98 34.9233 177.575 35.3813C177.171 35.8394 176.61 36.0684 175.89 36.0684C175.154 36.0684 174.585 35.8439 174.184 35.395C173.785 34.9438 173.586 34.3081 173.586 33.4878C173.586 32.6743 173.786 32.0443 174.188 31.5977C174.589 31.1488 175.158 30.9243 175.896 30.9243C176.614 30.9243 177.175 31.1522 177.578 31.6079C177.981 32.0636 178.183 32.6925 178.183 33.4946ZM174.201 33.4946C174.201 34.1714 174.345 34.6852 174.632 35.0361C174.921 35.3848 175.34 35.5591 175.89 35.5591C176.443 35.5591 176.861 35.3848 177.144 35.0361C177.427 34.6875 177.568 34.1737 177.568 33.4946C177.568 32.8224 177.427 32.3132 177.144 31.9668C176.864 31.6182 176.448 31.4438 175.896 31.4438C175.343 31.4438 174.921 31.6193 174.632 31.9702C174.345 32.3188 174.201 32.827 174.201 33.4946ZM183.204 36H182.541L179.81 31.8062H179.783C179.819 32.2983 179.837 32.7495 179.837 33.1597V36H179.301V31.0029H179.957L182.681 35.1797H182.708C182.704 35.1182 182.694 34.9211 182.678 34.5884C182.662 34.2534 182.656 34.0142 182.661 33.8706V31.0029H183.204V36ZM188.536 31.4507C187.987 31.4507 187.553 31.6341 187.234 32.001C186.917 32.3656 186.759 32.8657 186.759 33.5015C186.759 34.1554 186.911 34.6613 187.217 35.019C187.524 35.3745 187.962 35.5522 188.529 35.5522C188.878 35.5522 189.276 35.4896 189.722 35.3643V35.8735C189.376 36.0034 188.949 36.0684 188.44 36.0684C187.704 36.0684 187.136 35.8451 186.735 35.3984C186.336 34.9518 186.137 34.3172 186.137 33.4946C186.137 32.9797 186.232 32.5285 186.424 32.1411C186.618 31.7537 186.896 31.4552 187.258 31.2456C187.622 31.036 188.051 30.9312 188.543 30.9312C189.067 30.9312 189.525 31.0269 189.917 31.2183L189.671 31.7173C189.293 31.5396 188.914 31.4507 188.536 31.4507ZM195.15 33.4946C195.15 34.2944 194.947 34.9233 194.542 35.3813C194.138 35.8394 193.576 36.0684 192.856 36.0684C192.12 36.0684 191.552 35.8439 191.151 35.395C190.752 34.9438 190.553 34.3081 190.553 33.4878C190.553 32.6743 190.753 32.0443 191.154 31.5977C191.555 31.1488 192.125 30.9243 192.863 30.9243C193.581 30.9243 194.142 31.1522 194.545 31.6079C194.948 32.0636 195.15 32.6925 195.15 33.4946ZM191.168 33.4946C191.168 34.1714 191.312 34.6852 191.599 35.0361C191.888 35.3848 192.307 35.5591 192.856 35.5591C193.41 35.5591 193.828 35.3848 194.111 35.0361C194.393 34.6875 194.535 34.1737 194.535 33.4946C194.535 32.8224 194.393 32.3132 194.111 31.9668C193.831 31.6182 193.415 31.4438 192.863 31.4438C192.31 31.4438 191.888 31.6193 191.599 31.9702C191.312 32.3188 191.168 32.827 191.168 33.4946ZM198.479 36L196.784 31.5703H196.756C196.788 31.9212 196.804 32.3382 196.804 32.8213V36H196.268V31.0029H197.143L198.725 35.125H198.752L200.349 31.0029H201.217V36H200.636V32.7803C200.636 32.4111 200.652 32.0101 200.684 31.5771H200.656L198.947 36H198.479ZM205.759 32.459C205.759 32.9648 205.586 33.3545 205.24 33.6279C204.896 33.8991 204.402 34.0347 203.76 34.0347H203.172V36H202.591V31.0029H203.886C205.135 31.0029 205.759 31.4883 205.759 32.459ZM203.172 33.5356H203.695C204.21 33.5356 204.582 33.4525 204.812 33.2861C205.043 33.1198 205.158 32.8532 205.158 32.4863C205.158 32.1559 205.049 31.9098 204.833 31.748C204.617 31.5863 204.279 31.5054 203.821 31.5054H203.172V33.5356ZM211.146 33.4946C211.146 34.2944 210.943 34.9233 210.538 35.3813C210.134 35.8394 209.573 36.0684 208.853 36.0684C208.117 36.0684 207.548 35.8439 207.147 35.395C206.748 34.9438 206.549 34.3081 206.549 33.4878C206.549 32.6743 206.749 32.0443 207.15 31.5977C207.551 31.1488 208.121 30.9243 208.859 30.9243C209.577 30.9243 210.138 31.1522 210.541 31.6079C210.944 32.0636 211.146 32.6925 211.146 33.4946ZM207.164 33.4946C207.164 34.1714 207.308 34.6852 207.595 35.0361C207.884 35.3848 208.303 35.5591 208.853 35.5591C209.406 35.5591 209.824 35.3848 210.107 35.0361C210.389 34.6875 210.531 34.1737 210.531 33.4946C210.531 32.8224 210.389 32.3132 210.107 31.9668C209.827 31.6182 209.411 31.4438 208.859 31.4438C208.306 31.4438 207.884 31.6193 207.595 31.9702C207.308 32.3188 207.164 32.827 207.164 33.4946ZM216.167 36H215.504L212.773 31.8062H212.746C212.782 32.2983 212.8 32.7495 212.8 33.1597V36H212.264V31.0029H212.92L215.644 35.1797H215.671C215.667 35.1182 215.657 34.9211 215.641 34.5884C215.625 34.2534 215.619 34.0142 215.624 33.8706V31.0029H216.167V36ZM220.327 36H217.541V31.0029H220.327V31.519H218.122V33.1289H220.193V33.6416H218.122V35.4805H220.327V36ZM225.341 36H224.678L221.947 31.8062H221.919C221.956 32.2983 221.974 32.7495 221.974 33.1597V36H221.438V31.0029H222.094L224.818 35.1797H224.845C224.841 35.1182 224.83 34.9211 224.814 34.5884C224.799 34.2534 224.793 34.0142 224.797 33.8706V31.0029H225.341V36ZM228.253 36H227.672V31.519H226.089V31.0029H229.835V31.519H228.253V36Z" fill="white"/>
<defs>
<linearGradient id="paint0_linear" x1="451" y1="23.1148" x2="41.8545" y2="-107.746" gradientUnits="userSpaceOnUse">
<stop offset="0.265807" stop-color="#100268"/>
</linearGradient>
</defs>
</svg>
