<svg width="70" height="70" viewBox="0 0 70 70" fill="none" xmlns="http://www.w3.org/2000/svg">
<circle cx="35" cy="35" r="35" fill="#100268"/>
<path d="M31.0002 26.4821C31.0005 25.8525 30.8161 25.234 30.4652 24.6886C30.1144 24.1432 29.6096 23.6903 29.0016 23.3753C28.3935 23.0603 27.7037 22.8943 27.0015 22.8941C26.2992 22.8939 25.6093 23.0594 25.001 23.374C24.3927 23.6886 23.8876 24.1413 23.5363 24.6864C23.1851 25.2316 23.0001 25.85 23 26.4796C22.9999 27.1091 23.1847 27.7276 23.5358 28.2729C23.8869 28.8181 24.3919 29.2709 25 29.5856V41.3085C24.2375 41.7032 23.6415 42.3124 23.3045 43.0417C22.9675 43.771 22.9084 44.5796 23.1363 45.3421C23.3642 46.1046 23.8664 46.7784 24.565 47.259C25.2636 47.7395 26.1195 48 27.0001 48C27.8806 48 28.7366 47.7395 29.4352 47.259C30.1338 46.7784 30.636 46.1046 30.8639 45.3421C31.0918 44.5796 31.0326 43.771 30.6957 43.0417C30.3587 42.3124 29.7627 41.7032 29.0001 41.3085V29.5856C29.6079 29.2711 30.1126 28.8187 30.4637 28.2739C30.8148 27.7292 30.9998 27.1112 31.0002 26.4821ZM27.0001 24.6891C27.3956 24.6891 27.7823 24.7942 28.1112 24.9913C28.4401 25.1883 28.6965 25.4683 28.8479 25.7959C28.9993 26.1236 29.0389 26.4841 28.9617 26.8319C28.8845 27.1797 28.694 27.4992 28.4143 27.7499C28.1346 28.0007 27.7782 28.1714 27.3903 28.2406C27.0023 28.3098 26.6002 28.2743 26.2347 28.1386C25.8692 28.0029 25.5569 27.7731 25.3371 27.4782C25.1173 27.1834 25 26.8367 25 26.4821C25 26.0065 25.2108 25.5505 25.5858 25.2142C25.9609 24.878 26.4696 24.6891 27.0001 24.6891ZM27.0001 46.205C26.6045 46.205 26.2178 46.0999 25.8889 45.9028C25.56 45.7058 25.3037 45.4258 25.1523 45.0982C25.0009 44.7705 24.9613 44.41 25.0385 44.0622C25.1156 43.7144 25.3061 43.3949 25.5858 43.1442C25.8655 42.8934 26.2219 42.7227 26.6099 42.6535C26.9979 42.5843 27.4 42.6198 27.7655 42.7555C28.1309 42.8912 28.4433 43.121 28.663 43.4159C28.8828 43.7107 29.0001 44.0574 29.0001 44.412C29.0001 44.8875 28.7894 45.3436 28.4143 45.6799C28.0392 46.0161 27.5305 46.205 27.0001 46.205Z" fill="white"/>
<path d="M44.9998 41.3085V29.8439C44.9981 28.4772 44.3918 27.1669 43.3138 26.2005C42.2358 25.2341 40.7742 24.6906 39.2497 24.6891H37.9997V22.8961C37.9996 22.7188 37.9409 22.5456 37.831 22.3982C37.7211 22.2509 37.5649 22.136 37.3823 22.0682C37.1996 22.0004 36.9986 21.9826 36.8047 22.0172C36.6107 22.0518 36.4326 22.1371 36.2927 22.2624L32.2927 25.8484C32.1053 26.0165 32 26.2444 32 26.4821C32 26.7197 32.1053 26.9477 32.2927 27.1158L36.2927 30.7018C36.4326 30.8271 36.6107 30.9124 36.8047 30.9469C36.9986 30.9815 37.1996 30.9637 37.3823 30.8959C37.5649 30.8281 37.7211 30.7133 37.831 30.5659C37.9409 30.4186 37.9996 30.2453 37.9997 30.0681V28.2751H39.2497C39.7138 28.2751 40.1589 28.4404 40.4871 28.7346C40.8153 29.0288 40.9997 29.4278 40.9997 29.8439V41.3085C40.2371 41.7031 39.6411 42.3124 39.3042 43.0417C38.9672 43.771 38.9081 44.5796 39.136 45.3421C39.3639 46.1046 39.8661 46.7784 40.5647 47.259C41.2632 47.7395 42.1192 48 42.9997 48C43.8803 48 44.7362 47.7395 45.4348 47.259C46.1334 46.7784 46.6356 46.1046 46.8635 45.3421C47.0914 44.5796 47.0323 43.771 46.6953 43.0417C46.3584 42.3124 45.7624 41.7031 44.9998 41.3085ZM42.9997 46.205C42.6042 46.205 42.2175 46.0998 41.8886 45.9028C41.5597 45.7058 41.3033 45.4258 41.152 45.0982C41.0006 44.7705 40.961 44.41 41.0381 44.0622C41.1153 43.7144 41.3058 43.3949 41.5855 43.1442C41.8652 42.8934 42.2216 42.7227 42.6096 42.6535C42.9975 42.5843 43.3997 42.6198 43.7651 42.7555C44.1306 42.8912 44.443 43.121 44.6627 43.4159C44.8825 43.7107 44.9998 44.0574 44.9998 44.412C44.9998 44.8875 44.7891 45.3436 44.414 45.6799C44.0389 46.0161 43.5302 46.205 42.9997 46.205Z" fill="white"/>
</svg>
