<svg width="18" height="18" viewBox="0 0 18 18" fill="none" xmlns="http://www.w3.org/2000/svg">
<path d="M7.2006 1.8004H6.60059V2.40041H7.2006V1.8004Z" fill="white" fill-opacity="0.75"/>
<path d="M4.80021 1.8004H4.2002V2.40041H4.80021V1.8004Z" fill="white" fill-opacity="0.75"/>
<path d="M2.39982 1.8004H1.7998V2.40041H2.39982V1.8004Z" fill="white" fill-opacity="0.75"/>
<path d="M16.65 0H1.35C0.605707 0 0 0.605707 0 1.35V3.6H18V1.35C18 0.605707 17.3943 0 16.65 0ZM2.99999 2.7C2.99999 2.86559 2.86559 2.99999 2.7 2.99999H1.50001C1.33443 2.99999 1.20002 2.86559 1.20002 2.7V1.50001C1.20002 1.33443 1.33443 1.20002 1.50001 1.20002H2.7C2.86559 1.20002 2.99999 1.33443 2.99999 1.50001V2.7ZM5.4 2.7C5.4 2.86559 5.2656 2.99999 5.10001 2.99999H3.90002C3.73444 2.99999 3.60004 2.86559 3.60004 2.7V1.50001C3.60004 1.33443 3.73444 1.20002 3.90002 1.20002H5.10001C5.2656 1.20002 5.4 1.33443 5.4 1.50001V2.7ZM7.80001 2.7C7.80001 2.86559 7.66561 2.99999 7.50002 2.99999H6.3C6.13441 2.99999 6.00001 2.86559 6.00001 2.7V1.50001C6.00001 1.33443 6.13441 1.20002 6.3 1.20002H7.49999C7.66557 1.20002 7.79998 1.33443 7.79998 1.50001V2.7H7.80001Z" fill="white" fill-opacity="0.75"/>
<path d="M0 4.19995V16.6499C0 17.3942 0.605707 17.9999 1.35 17.9999H16.65C17.3943 17.9999 18 17.3942 18 16.6499V4.19995H0ZM10.8 8.69995H14.1C14.2656 8.69995 14.4 8.83404 14.4 8.99994C14.4 9.16584 14.2656 9.29993 14.1 9.29993H10.8C10.6344 9.29993 10.5 9.16584 10.5 8.99994C10.5 8.83404 10.6344 8.69995 10.8 8.69995ZM10.8 9.89994H15.6C15.7656 9.89994 15.9 10.034 15.9 10.1999C15.9 10.3658 15.7656 10.4999 15.6 10.4999H10.8C10.6344 10.4999 10.5 10.3658 10.5 10.1999C10.5 10.034 10.6344 9.89994 10.8 9.89994ZM10.8 14.9999H14.1C14.2656 14.9999 14.4 15.134 14.4 15.2999C14.4 15.4658 14.2656 15.5999 14.1 15.5999H10.8C10.6344 15.5999 10.5 15.4658 10.5 15.2999C10.5 15.134 10.6344 14.9999 10.8 14.9999ZM2.40001 8.69995H5.70002C5.86561 8.69995 6.00001 8.83404 6.00001 8.99994C6.00001 9.16584 5.86561 9.29993 5.70002 9.29993H2.40001C2.23443 9.29993 2.10002 9.16584 2.10002 8.99994C2.10002 8.83404 2.23439 8.69995 2.40001 8.69995ZM2.40001 9.89994H7.2C7.36559 9.89994 7.49999 10.034 7.49999 10.1999C7.49999 10.3658 7.36559 10.4999 7.2 10.4999H2.40001C2.23443 10.4999 2.10002 10.3658 2.10002 10.1999C2.10002 10.034 2.23439 9.89994 2.40001 9.89994ZM2.40001 14.9999H5.70002C5.86561 14.9999 6.00001 15.134 6.00001 15.2999C6.00001 15.4658 5.86561 15.5999 5.70002 15.5999H2.40001C2.23443 15.5999 2.10002 15.4658 2.10002 15.2999C2.10002 15.134 2.23439 14.9999 2.40001 14.9999ZM7.2 16.7999H2.40001C2.23443 16.7999 2.10002 16.6659 2.10002 16.5C2.10002 16.3341 2.23443 16.2 2.40001 16.2H7.2C7.36559 16.2 7.49999 16.3341 7.49999 16.5C7.49999 16.6659 7.36559 16.7999 7.2 16.7999ZM7.4121 13.412C7.3536 13.4705 7.27678 13.4999 7.2 13.4999C7.12318 13.4999 7.0464 13.4705 6.9879 13.412L6.00001 12.4242L5.22422 13.1999L5.61213 13.5879C5.72945 13.7051 5.72945 13.8948 5.61213 14.0121C5.55363 14.0706 5.47682 14.0999 5.40003 14.0999C5.32322 14.0999 5.24644 14.0706 5.18794 14.0121L4.20005 13.0242L3.21216 14.0121C3.15366 14.0706 3.07684 14.0999 3.00006 14.0999C2.92324 14.0999 2.84646 14.0706 2.78796 14.0121C2.67064 13.8948 2.67064 13.7051 2.78796 13.5879L3.98795 12.3879C4.10495 12.2706 4.29514 12.2706 4.41214 12.3879L4.80006 12.7758L5.78795 11.7879C5.90495 11.6706 6.09514 11.6706 6.21214 11.7879L7.41213 12.9879C7.52941 13.1051 7.52941 13.2947 7.4121 13.412ZM7.4121 7.11205C7.3536 7.17055 7.27678 7.19994 7.2 7.19994C7.12318 7.19994 7.0464 7.17055 6.9879 7.11205L6.00001 6.12416L5.22422 6.89995L5.61213 7.28786C5.72945 7.40518 5.72945 7.59478 5.61213 7.71206C5.55363 7.77056 5.47682 7.79995 5.40003 7.79995C5.32322 7.79995 5.24644 7.77056 5.18794 7.71206L4.20005 6.72417L3.21216 7.71206C3.15366 7.77056 3.07684 7.79995 3.00006 7.79995C2.92324 7.79995 2.84646 7.77056 2.78796 7.71206C2.67064 7.59478 2.67064 7.40515 2.78796 7.28786L3.98795 6.08788C4.10495 5.97056 4.29514 5.97056 4.41214 6.08788L4.80006 6.47579L5.78795 5.4879C5.90495 5.37058 6.09514 5.37058 6.21214 5.4879L7.41213 6.68789C7.52941 6.80513 7.52941 6.99473 7.4121 7.11205ZM15.6 16.7999H10.8C10.6344 16.7999 10.5 16.6659 10.5 16.5C10.5 16.3341 10.6344 16.2 10.8 16.2H15.6C15.7656 16.2 15.9 16.3341 15.9 16.5C15.9 16.6659 15.7656 16.7999 15.6 16.7999ZM15.8121 13.412C15.7536 13.4705 15.6768 13.4999 15.6 13.4999C15.5232 13.4999 15.4464 13.4705 15.3879 13.412L14.4 12.4242L13.6242 13.1999L14.0121 13.5879C14.1294 13.7051 14.1294 13.8948 14.0121 14.0121C13.9536 14.0706 13.8768 14.0999 13.8 14.0999C13.7232 14.0999 13.6464 14.0706 13.5879 14.0121L12.6 13.0242L11.6121 14.0121C11.5536 14.0706 11.4768 14.0999 11.4 14.0999C11.3232 14.0999 11.2464 14.0706 11.1879 14.0121C11.0707 13.8948 11.0707 13.7051 11.1879 13.5879L12.3879 12.3879C12.5049 12.2706 12.6951 12.2706 12.8121 12.3879L13.2 12.7758L14.1879 11.7879C14.3049 11.6706 14.4951 11.6706 14.6121 11.7879L15.8121 12.9879C15.9294 13.1051 15.9294 13.2947 15.8121 13.412ZM15.8121 7.11205C15.7536 7.17055 15.6768 7.19994 15.6 7.19994C15.5232 7.19994 15.4464 7.17055 15.3879 7.11205L14.4 6.12416L13.6242 6.89995L14.0121 7.28786C14.1294 7.40518 14.1294 7.59478 14.0121 7.71206C13.9536 7.77056 13.8768 7.79995 13.8 7.79995C13.7232 7.79995 13.6464 7.77056 13.5879 7.71206L12.6 6.72417L11.6121 7.71206C11.5536 7.77056 11.4768 7.79995 11.4 7.79995C11.3232 7.79995 11.2464 7.77056 11.1879 7.71206C11.0707 7.59478 11.0707 7.40515 11.1879 7.28786L12.3879 6.08788C12.5049 5.97056 12.6951 5.97056 12.8121 6.08788L13.2 6.47579L14.1879 5.4879C14.3049 5.37058 14.4951 5.37058 14.6121 5.4879L15.8121 6.68789C15.9294 6.80513 15.9294 6.99473 15.8121 7.11205Z" fill="white" fill-opacity="0.75"/>
</svg>
