<svg width="30" height="30" viewBox="0 0 30 30" fill="none" xmlns="http://www.w3.org/2000/svg">
<circle cx="15" cy="15" r="15" fill="white"/>
<path d="M19.0615 21H10.0791V19.1104L13.3047 15.8496C14.2598 14.8711 14.8838 14.1943 15.1768 13.8193C15.4697 13.4385 15.6807 13.0869 15.8096 12.7646C15.9385 12.4424 16.0029 12.1084 16.0029 11.7627C16.0029 11.2471 15.8594 10.8633 15.5723 10.6113C15.291 10.3594 14.9131 10.2334 14.4385 10.2334C13.9404 10.2334 13.457 10.3477 12.9883 10.5762C12.5195 10.8047 12.0303 11.1299 11.5205 11.5518L10.0439 9.80273C10.6768 9.26367 11.2012 8.88281 11.6172 8.66016C12.0332 8.4375 12.4873 8.26758 12.9795 8.15039C13.4717 8.02734 14.0225 7.96582 14.6318 7.96582C15.4346 7.96582 16.1436 8.1123 16.7588 8.40527C17.374 8.69824 17.8516 9.1084 18.1914 9.63574C18.5312 10.1631 18.7012 10.7666 18.7012 11.4463C18.7012 12.0381 18.5957 12.5947 18.3848 13.1162C18.1797 13.6318 17.8574 14.1621 17.418 14.707C16.9844 15.252 16.2168 16.0283 15.1152 17.0361L13.4629 18.5918V18.7148H19.0615V21Z" fill="#07C8A5"/>
</svg>
