<svg width="20" height="20" viewBox="0 0 20 20" fill="none" xmlns="http://www.w3.org/2000/svg">
<path d="M8.00054 2.00043H7.33386V2.66711H8.00054V2.00043Z" fill="#11036B" fill-opacity="0.5"/>
<path d="M5.3338 2.00043H4.66711V2.66711H5.3338V2.00043Z" fill="#11036B" fill-opacity="0.5"/>
<path d="M2.66619 2.00043H1.99951V2.66711H2.66619V2.00043Z" fill="#11036B" fill-opacity="0.5"/>
<path d="M18.5 0H1.5C0.673008 0 0 0.673008 0 1.5V4H20V1.5C20 0.673008 19.327 0 18.5 0ZM3.33332 3C3.33332 3.18398 3.18398 3.33332 3 3.33332H1.66668C1.4827 3.33332 1.33336 3.18398 1.33336 3V1.66668C1.33336 1.4827 1.4827 1.33336 1.66668 1.33336H3C3.18398 1.33336 3.33332 1.4827 3.33332 1.66668V3ZM6 3C6 3.18398 5.85066 3.33332 5.66668 3.33332H4.33336C4.14937 3.33332 4.00004 3.18398 4.00004 3V1.66668C4.00004 1.4827 4.14937 1.33336 4.33336 1.33336H5.66668C5.85066 1.33336 6 1.4827 6 1.66668V3ZM8.66668 3C8.66668 3.18398 8.51734 3.33332 8.33336 3.33332H7C6.81602 3.33332 6.66668 3.18398 6.66668 3V1.66668C6.66668 1.4827 6.81602 1.33336 7 1.33336H8.33332C8.5173 1.33336 8.66664 1.4827 8.66664 1.66668V3H8.66668Z" fill="#11036B" fill-opacity="0.5"/>
<path d="M0 4.66663V18.4999C0 19.3269 0.673008 19.9999 1.5 19.9999H18.5C19.327 19.9999 20 19.3269 20 18.4999V4.66663H0ZM12 9.66662H15.6667C15.8507 9.66662 16 9.81561 16 9.99994C16 10.1843 15.8507 10.3333 15.6667 10.3333H12C11.816 10.3333 11.6667 10.1843 11.6667 9.99994C11.6667 9.81561 11.816 9.66662 12 9.66662ZM12 10.9999H17.3333C17.5173 10.9999 17.6666 11.1489 17.6666 11.3333C17.6666 11.5176 17.5173 11.6666 17.3333 11.6666H12C11.816 11.6666 11.6667 11.5176 11.6667 11.3333C11.6667 11.1489 11.816 10.9999 12 10.9999ZM12 16.6666H15.6667C15.8507 16.6666 16 16.8156 16 16.9999C16 17.1843 15.8507 17.3333 15.6667 17.3333H12C11.816 17.3333 11.6667 17.1843 11.6667 16.9999C11.6667 16.8156 11.816 16.6666 12 16.6666ZM2.66668 9.66662H6.33336C6.51734 9.66662 6.66668 9.81561 6.66668 9.99994C6.66668 10.1843 6.51734 10.3333 6.33336 10.3333H2.66668C2.4827 10.3333 2.33336 10.1843 2.33336 9.99994C2.33336 9.81561 2.48266 9.66662 2.66668 9.66662ZM2.66668 10.9999H8C8.18398 10.9999 8.33332 11.1489 8.33332 11.3333C8.33332 11.5176 8.18398 11.6666 8 11.6666H2.66668C2.4827 11.6666 2.33336 11.5176 2.33336 11.3333C2.33336 11.1489 2.48266 10.9999 2.66668 10.9999ZM2.66668 16.6666H6.33336C6.51734 16.6666 6.66668 16.8156 6.66668 16.9999C6.66668 17.1843 6.51734 17.3333 6.33336 17.3333H2.66668C2.4827 17.3333 2.33336 17.1843 2.33336 16.9999C2.33336 16.8156 2.48266 16.6666 2.66668 16.6666ZM8 18.6666H2.66668C2.4827 18.6666 2.33336 18.5176 2.33336 18.3333C2.33336 18.149 2.4827 18 2.66668 18H8C8.18398 18 8.33332 18.149 8.33332 18.3333C8.33332 18.5176 8.18398 18.6666 8 18.6666ZM8.23566 14.9023C8.17066 14.9673 8.08531 14.9999 8 14.9999C7.91465 14.9999 7.82934 14.9673 7.76434 14.9023L6.66668 13.8046L5.80469 14.6666L6.2357 15.0976C6.36606 15.228 6.36606 15.4387 6.2357 15.569C6.1707 15.634 6.08535 15.6666 6.00004 15.6666C5.91469 15.6666 5.82937 15.634 5.76437 15.569L4.66672 14.4713L3.56906 15.569C3.50406 15.634 3.41871 15.6666 3.3334 15.6666C3.24805 15.6666 3.16273 15.634 3.09773 15.569C2.96738 15.4387 2.96738 15.228 3.09773 15.0976L4.43105 13.7643C4.56105 13.634 4.77238 13.634 4.90238 13.7643L5.3334 14.1953L6.43105 13.0977C6.56105 12.9673 6.77238 12.9673 6.90238 13.0977L8.2357 14.431C8.36602 14.5613 8.36602 14.7719 8.23566 14.9023ZM8.23566 7.90229C8.17066 7.96729 8.08531 7.99995 8 7.99995C7.91465 7.99995 7.82934 7.96729 7.76434 7.90229L6.66668 6.80463L5.80469 7.66663L6.2357 8.09764C6.36606 8.22799 6.36606 8.43866 6.2357 8.56897C6.1707 8.63397 6.08535 8.66662 6.00004 8.66662C5.91469 8.66662 5.82937 8.63397 5.76437 8.56897L4.66672 7.47131L3.56906 8.56897C3.50406 8.63397 3.41871 8.66662 3.3334 8.66662C3.24805 8.66662 3.16273 8.63397 3.09773 8.56897C2.96738 8.43866 2.96738 8.22795 3.09773 8.09764L4.43105 6.76432C4.56105 6.63397 4.77238 6.63397 4.90238 6.76432L5.3334 7.19534L6.43105 6.09768C6.56105 5.96733 6.77238 5.96733 6.90238 6.09768L8.2357 7.431C8.36602 7.56127 8.36602 7.77194 8.23566 7.90229ZM17.3333 18.6666H12C11.816 18.6666 11.6667 18.5176 11.6667 18.3333C11.6667 18.149 11.816 18 12 18H17.3333C17.5173 18 17.6666 18.149 17.6666 18.3333C17.6666 18.5176 17.5173 18.6666 17.3333 18.6666ZM17.569 14.9023C17.504 14.9673 17.4186 14.9999 17.3333 14.9999C17.248 14.9999 17.1627 14.9673 17.0977 14.9023L16 13.8046L15.138 14.6666L15.569 15.0976C15.6994 15.228 15.6994 15.4387 15.569 15.569C15.504 15.634 15.4187 15.6666 15.3334 15.6666C15.248 15.6666 15.1627 15.634 15.0977 15.569L14 14.4713L12.9024 15.569C12.8374 15.634 12.752 15.6666 12.6667 15.6666C12.5814 15.6666 12.4961 15.634 12.4311 15.569C12.3007 15.4387 12.3007 15.228 12.4311 15.0976L13.7644 13.7643C13.8944 13.634 14.1057 13.634 14.2357 13.7643L14.6667 14.1953L15.7644 13.0977C15.8944 12.9673 16.1057 12.9673 16.2357 13.0977L17.569 14.431C17.6993 14.5613 17.6993 14.7719 17.569 14.9023ZM17.569 7.90229C17.504 7.96729 17.4186 7.99995 17.3333 7.99995C17.248 7.99995 17.1627 7.96729 17.0977 7.90229L16 6.80463L15.138 7.66663L15.569 8.09764C15.6994 8.22799 15.6994 8.43866 15.569 8.56897C15.504 8.63397 15.4187 8.66662 15.3334 8.66662C15.248 8.66662 15.1627 8.63397 15.0977 8.56897L14 7.47131L12.9024 8.56897C12.8374 8.63397 12.752 8.66662 12.6667 8.66662C12.5814 8.66662 12.4961 8.63397 12.4311 8.56897C12.3007 8.43866 12.3007 8.22795 12.4311 8.09764L13.7644 6.76432C13.8944 6.63397 14.1057 6.63397 14.2357 6.76432L14.6667 7.19534L15.7644 6.09768C15.8944 5.96733 16.1057 5.96733 16.2357 6.09768L17.569 7.431C17.6993 7.56127 17.6993 7.77194 17.569 7.90229Z" fill="#11036B" fill-opacity="0.5"/>
</svg>
