<svg width="20" height="20" viewBox="0 0 20 20" fill="none" xmlns="http://www.w3.org/2000/svg">
<path d="M0 12.5V16.25C0 18.3212 4.47714 20 10 20C15.5229 20 20 18.3212 20 16.25V12.5C20 14.5712 15.5229 16.25 10 16.25C4.47714 16.25 0 14.5712 0 12.5Z" fill="white"/>
<path d="M0 6.25V10C0 12.0712 4.47714 13.75 10 13.75C15.5229 13.75 20 12.0712 20 10V6.25C20 8.32125 15.5229 10 10 10C4.47714 10 0 8.32125 0 6.25Z" fill="white"/>
<path d="M20 3.75C20 5.82125 15.5229 7.5 10 7.5C4.47714 7.5 0 5.82125 0 3.75C0 1.67875 4.47714 0 10 0C15.5229 0 20 1.67875 20 3.75Z" fill="white"/>
</svg>
