<svg width="50" height="50" viewBox="0 0 50 50" fill="none" xmlns="http://www.w3.org/2000/svg">
<path d="M39.57 27.5968C37.4211 30.1958 34.9898 32.8666 32.3659 35.4906C29.7419 38.1145 27.0713 40.5468 24.4729 42.695C24.6482 42.7013 24.8232 42.7083 25 42.7083C28.8664 42.7039 32.5732 41.1661 35.3072 38.4321C38.0411 35.6982 39.579 31.9914 39.5833 28.125C39.5833 27.9479 39.5763 27.7724 39.57 27.5968Z" fill="white"/>
<path d="M45.625 7.50131C43.6047 5.48021 39.9047 6.19688 34.3135 9.69167C32.2546 10.997 30.2688 12.414 28.3648 13.9365C25.9437 13.3602 23.4154 13.4136 21.0208 14.0915C18.6262 14.7693 16.445 16.0492 14.6852 17.809C12.9254 19.5688 11.6456 21.7499 10.9677 24.1445C10.2899 26.5391 10.2365 29.0675 10.8127 31.4885C9.29021 33.3924 7.87315 35.3783 6.56796 37.4372C3.0729 43.0287 2.35572 46.7286 4.37499 48.75C4.76053 49.1257 5.21882 49.4185 5.7217 49.6105C6.22457 49.8026 6.76141 49.8897 7.29921 49.8667C9.37551 49.8667 12.1534 48.768 15.6864 46.5594C20.268 43.6948 25.668 39.2417 30.8917 34.0188C36.1154 28.7958 40.5687 23.3951 43.4323 18.8135C46.9271 13.2214 47.6443 9.52136 45.625 7.50131ZM39.2812 17.5688C36.5695 21.6789 32.5445 26.475 27.9471 31.0711C23.3497 35.6672 18.5549 39.6935 14.4448 42.4052C10.4002 45.0734 8.22082 45.6784 7.41952 45.7065C7.44764 44.9057 8.05259 42.7258 10.7208 38.6813C11.3122 37.7849 11.9708 36.8544 12.6781 35.9021C13.4459 37.1152 14.387 38.2096 15.4716 39.1503C19.3748 36.2484 23.0528 33.0552 26.4739 29.5982C29.9309 26.1772 33.1241 22.4995 36.026 18.5966C35.0853 17.5115 33.9907 16.57 32.7771 15.8021C33.7294 15.0935 34.6599 14.4362 35.5562 13.8448C39.6008 11.1766 41.7802 10.5716 42.5815 10.5435C42.5534 11.3445 41.9484 13.5242 39.2802 17.5688H39.2812Z" fill="white"/>
<path d="M39.5833 45.8333C40.7339 45.8333 41.6667 44.9006 41.6667 43.75C41.6667 42.5994 40.7339 41.6666 39.5833 41.6666C38.4327 41.6666 37.5 42.5994 37.5 43.75C37.5 44.9006 38.4327 45.8333 39.5833 45.8333Z" fill="white"/>
<path d="M4.16658 29.1667C5.31718 29.1667 6.24992 28.2339 6.24992 27.0833C6.24992 25.9327 5.31718 25 4.16658 25C3.01599 25 2.08325 25.9327 2.08325 27.0833C2.08325 28.2339 3.01599 29.1667 4.16658 29.1667Z" fill="white"/>
<path d="M45.8333 27.0834C46.9839 27.0834 47.9167 26.1507 47.9167 25.0001C47.9167 23.8495 46.9839 22.9167 45.8333 22.9167C44.6827 22.9167 43.75 23.8495 43.75 25.0001C43.75 26.1507 44.6827 27.0834 45.8333 27.0834Z" fill="white"/>
</svg>
