<svg width="18" height="18" viewBox="0 0 18 18" fill="none" xmlns="http://www.w3.org/2000/svg">
<path fill-rule="evenodd" clip-rule="evenodd" d="M18 2.25C18 1.008 16.9144 0 15.5768 0H12.1151C11.8397 3.81089e-09 11.5755 0.101594 11.3807 0.282433C11.186 0.463271 11.0766 0.708541 11.0766 0.964286C11.0766 1.22003 11.186 1.4653 11.3807 1.64614C11.5755 1.82698 11.8397 1.92857 12.1151 1.92857H15.5768C15.6686 1.92857 15.7567 1.96244 15.8216 2.02272C15.8865 2.083 15.923 2.16475 15.923 2.25V15.75C15.923 15.9274 15.7679 16.0714 15.5768 16.0714H12.1151C11.8397 16.0714 11.5755 16.173 11.3807 16.3539C11.186 16.5347 11.0766 16.78 11.0766 17.0357C11.0766 17.2915 11.186 17.5367 11.3807 17.7176C11.5755 17.8984 11.8397 18 12.1151 18H15.5768C16.2195 18 16.8358 17.7629 17.2903 17.341C17.7447 16.919 18 16.3467 18 15.75V2.25ZM3.54388 8.03571H11.4227C11.6982 8.03571 11.9623 8.13731 12.1571 8.31815C12.3518 8.49899 12.4613 8.74426 12.4613 9C12.4613 9.25574 12.3518 9.50101 12.1571 9.68185C11.9623 9.86269 11.6982 9.96429 11.4227 9.96429H3.54388L6.27171 12.4971C6.37374 12.5854 6.45558 12.6919 6.51235 12.8102C6.56911 12.9284 6.59963 13.0561 6.60209 13.1856C6.60455 13.3151 6.5789 13.4437 6.52666 13.5638C6.47443 13.6838 6.39669 13.7929 6.29807 13.8845C6.19946 13.976 6.08199 14.0482 5.95268 14.0967C5.82336 14.1452 5.68486 14.169 5.54541 14.1668C5.40597 14.1645 5.26845 14.1361 5.14106 14.0834C5.01367 14.0307 4.89902 13.9547 4.80395 13.86L0.303719 9.68143C0.109238 9.50062 0 9.25554 0 9C0 8.74446 0.109238 8.49938 0.303719 8.31857L4.80395 4.14C4.89902 4.04526 5.01367 3.96927 5.14106 3.91657C5.26845 3.86386 5.40597 3.83552 5.54541 3.83324C5.68486 3.83095 5.82336 3.85477 5.95268 3.90327C6.08199 3.95177 6.19946 4.02395 6.29807 4.11552C6.39669 4.20709 6.47443 4.31616 6.52666 4.43623C6.5789 4.5563 6.60455 4.68491 6.60209 4.81439C6.59963 4.94386 6.56911 5.07155 6.51235 5.18983C6.45558 5.30812 6.37374 5.41458 6.27171 5.50286L3.54388 8.03571Z" fill="#100268"/>
</svg>
