<svg width="902" height="141" viewBox="0 0 902 141" fill="none" xmlns="http://www.w3.org/2000/svg">
<rect x="0.5" y="0.5" width="901" height="140" rx="4.5" fill="#0B35CA" fill-opacity="0.17" stroke="#0B35CA"/>
<path d="M57.5342 108H56.04V101.953H49.2725V108H47.7783V95.1504H49.2725V100.617H56.04V95.1504H57.5342V108ZM73.126 108V101.733C73.126 100.966 72.9619 100.392 72.6338 100.011C72.3057 99.624 71.7959 99.4307 71.1045 99.4307C70.1963 99.4307 69.5254 99.6914 69.0918 100.213C68.6582 100.734 68.4414 101.537 68.4414 102.621V108H66.9824V101.733C66.9824 100.966 66.8184 100.392 66.4902 100.011C66.1621 99.624 65.6494 99.4307 64.9521 99.4307C64.0381 99.4307 63.3672 99.7061 62.9395 100.257C62.5176 100.802 62.3066 101.698 62.3066 102.946V108H60.8477V98.3672H62.0342L62.2715 99.6855H62.3418C62.6172 99.2168 63.0039 98.8506 63.502 98.5869C64.0059 98.3232 64.5684 98.1914 65.1895 98.1914C66.6953 98.1914 67.6797 98.7363 68.1426 99.8262H68.2129C68.5 99.3223 68.916 98.9238 69.4609 98.6309C70.0059 98.3379 70.627 98.1914 71.3242 98.1914C72.4141 98.1914 73.2285 98.4727 73.7676 99.0352C74.3125 99.5918 74.585 100.485 74.585 101.716V108H73.126ZM77.3887 107.068C77.3887 106.676 77.4766 106.38 77.6523 106.181C77.834 105.976 78.0918 105.873 78.4258 105.873C78.7656 105.873 79.0293 105.976 79.2168 106.181C79.4102 106.38 79.5068 106.676 79.5068 107.068C79.5068 107.449 79.4102 107.742 79.2168 107.947C79.0234 108.152 78.7598 108.255 78.4258 108.255C78.127 108.255 77.8779 108.164 77.6787 107.982C77.4854 107.795 77.3887 107.49 77.3887 107.068ZM82.1875 107.068C82.1875 106.676 82.2754 106.38 82.4512 106.181C82.6328 105.976 82.8906 105.873 83.2246 105.873C83.5645 105.873 83.8281 105.976 84.0156 106.181C84.209 106.38 84.3057 106.676 84.3057 107.068C84.3057 107.449 84.209 107.742 84.0156 107.947C83.8223 108.152 83.5586 108.255 83.2246 108.255C82.9258 108.255 82.6768 108.164 82.4775 107.982C82.2842 107.795 82.1875 107.49 82.1875 107.068ZM86.9863 107.068C86.9863 106.676 87.0742 106.38 87.25 106.181C87.4316 105.976 87.6895 105.873 88.0234 105.873C88.3633 105.873 88.627 105.976 88.8145 106.181C89.0078 106.38 89.1045 106.676 89.1045 107.068C89.1045 107.449 89.0078 107.742 88.8145 107.947C88.6211 108.152 88.3574 108.255 88.0234 108.255C87.7246 108.255 87.4756 108.164 87.2764 107.982C87.083 107.795 86.9863 107.49 86.9863 107.068ZM98.1309 108H96.6719V94.3242H98.1309V108ZM109.539 103.175C109.539 104.745 109.144 105.973 108.353 106.857C107.562 107.736 106.469 108.176 105.074 108.176C104.213 108.176 103.448 107.974 102.78 107.569C102.112 107.165 101.597 106.585 101.233 105.829C100.87 105.073 100.688 104.188 100.688 103.175C100.688 101.604 101.081 100.383 101.866 99.5098C102.651 98.6309 103.741 98.1914 105.136 98.1914C106.483 98.1914 107.553 98.6396 108.344 99.5361C109.141 100.433 109.539 101.646 109.539 103.175ZM102.2 103.175C102.2 104.405 102.446 105.343 102.938 105.987C103.431 106.632 104.154 106.954 105.109 106.954C106.064 106.954 106.788 106.635 107.28 105.996C107.778 105.352 108.027 104.411 108.027 103.175C108.027 101.95 107.778 101.021 107.28 100.389C106.788 99.75 106.059 99.4307 105.092 99.4307C104.137 99.4307 103.416 99.7441 102.93 100.371C102.443 100.998 102.2 101.933 102.2 103.175ZM120.42 103.175C120.42 104.745 120.024 105.973 119.233 106.857C118.442 107.736 117.35 108.176 115.955 108.176C115.094 108.176 114.329 107.974 113.661 107.569C112.993 107.165 112.478 106.585 112.114 105.829C111.751 105.073 111.569 104.188 111.569 103.175C111.569 101.604 111.962 100.383 112.747 99.5098C113.532 98.6309 114.622 98.1914 116.017 98.1914C117.364 98.1914 118.434 98.6396 119.225 99.5361C120.021 100.433 120.42 101.646 120.42 103.175ZM113.081 103.175C113.081 104.405 113.327 105.343 113.819 105.987C114.312 106.632 115.035 106.954 115.99 106.954C116.945 106.954 117.669 106.635 118.161 105.996C118.659 105.352 118.908 104.411 118.908 103.175C118.908 101.95 118.659 101.021 118.161 100.389C117.669 99.75 116.939 99.4307 115.973 99.4307C115.018 99.4307 114.297 99.7441 113.811 100.371C113.324 100.998 113.081 101.933 113.081 103.175ZM124.428 103.069C124.68 102.712 125.063 102.243 125.579 101.663L128.69 98.3672H130.422L126.52 102.472L130.694 108H128.928L125.526 103.447L124.428 104.396V108H122.986V94.3242H124.428V101.575C124.428 101.897 124.404 102.396 124.357 103.069H124.428ZM138.657 105.372C138.657 106.269 138.323 106.96 137.655 107.446C136.987 107.933 136.05 108.176 134.843 108.176C133.565 108.176 132.569 107.974 131.854 107.569V106.216C132.317 106.45 132.812 106.635 133.34 106.77C133.873 106.904 134.386 106.972 134.878 106.972C135.64 106.972 136.226 106.852 136.636 106.611C137.046 106.365 137.251 105.993 137.251 105.495C137.251 105.12 137.087 104.801 136.759 104.537C136.437 104.268 135.804 103.951 134.86 103.588C133.964 103.254 133.325 102.964 132.944 102.718C132.569 102.466 132.288 102.182 132.101 101.865C131.919 101.549 131.828 101.171 131.828 100.731C131.828 99.9463 132.147 99.3281 132.786 98.877C133.425 98.4199 134.301 98.1914 135.414 98.1914C136.451 98.1914 137.465 98.4023 138.455 98.8242L137.937 100.011C136.97 99.6123 136.094 99.4131 135.309 99.4131C134.617 99.4131 134.096 99.5215 133.744 99.7383C133.393 99.9551 133.217 100.254 133.217 100.635C133.217 100.893 133.281 101.112 133.41 101.294C133.545 101.476 133.759 101.648 134.052 101.812C134.345 101.977 134.907 102.214 135.739 102.524C136.882 102.94 137.652 103.359 138.051 103.781C138.455 104.203 138.657 104.733 138.657 105.372ZM147.174 108H145.715V94.3242H147.174V108ZM151.727 108H150.268V98.3672H151.727V108ZM150.145 95.7568C150.145 95.4229 150.227 95.1797 150.391 95.0273C150.555 94.8691 150.76 94.79 151.006 94.79C151.24 94.79 151.442 94.8691 151.612 95.0273C151.782 95.1855 151.867 95.4287 151.867 95.7568C151.867 96.085 151.782 96.3311 151.612 96.4951C151.442 96.6533 151.24 96.7324 151.006 96.7324C150.76 96.7324 150.555 96.6533 150.391 96.4951C150.227 96.3311 150.145 96.085 150.145 95.7568ZM156.262 103.069C156.514 102.712 156.897 102.243 157.413 101.663L160.524 98.3672H162.256L158.354 102.472L162.528 108H160.762L157.36 103.447L156.262 104.396V108H154.82V94.3242H156.262V101.575C156.262 101.897 156.238 102.396 156.191 103.069H156.262ZM168.347 108.176C166.923 108.176 165.798 107.742 164.972 106.875C164.151 106.008 163.741 104.804 163.741 103.263C163.741 101.71 164.122 100.477 164.884 99.5625C165.651 98.6484 166.68 98.1914 167.969 98.1914C169.176 98.1914 170.131 98.5898 170.834 99.3867C171.537 100.178 171.889 101.224 171.889 102.524V103.447H165.253C165.282 104.578 165.566 105.437 166.105 106.022C166.65 106.608 167.415 106.901 168.399 106.901C169.437 106.901 170.462 106.685 171.476 106.251V107.552C170.96 107.774 170.471 107.933 170.008 108.026C169.551 108.126 168.997 108.176 168.347 108.176ZM167.951 99.4131C167.178 99.4131 166.56 99.665 166.097 100.169C165.64 100.673 165.37 101.37 165.288 102.261H170.324C170.324 101.341 170.119 100.638 169.709 100.151C169.299 99.6592 168.713 99.4131 167.951 99.4131ZM177.531 98.3672H179.096L181.205 103.86C181.668 105.114 181.955 106.02 182.066 106.576H182.137C182.213 106.277 182.371 105.768 182.611 105.047C182.857 104.32 183.654 102.094 185.002 98.3672H186.566L182.427 109.336C182.017 110.42 181.536 111.188 180.985 111.639C180.44 112.096 179.77 112.324 178.973 112.324C178.527 112.324 178.088 112.274 177.654 112.175V111.006C177.977 111.076 178.337 111.111 178.735 111.111C179.737 111.111 180.452 110.549 180.88 109.424L181.416 108.053L177.531 98.3672ZM196.445 103.175C196.445 104.745 196.05 105.973 195.259 106.857C194.468 107.736 193.375 108.176 191.98 108.176C191.119 108.176 190.354 107.974 189.687 107.569C189.019 107.165 188.503 106.585 188.14 105.829C187.776 105.073 187.595 104.188 187.595 103.175C187.595 101.604 187.987 100.383 188.772 99.5098C189.558 98.6309 190.647 98.1914 192.042 98.1914C193.39 98.1914 194.459 98.6396 195.25 99.5361C196.047 100.433 196.445 101.646 196.445 103.175ZM189.106 103.175C189.106 104.405 189.353 105.343 189.845 105.987C190.337 106.632 191.061 106.954 192.016 106.954C192.971 106.954 193.694 106.635 194.187 105.996C194.685 105.352 194.934 104.411 194.934 103.175C194.934 101.95 194.685 101.021 194.187 100.389C193.694 99.75 192.965 99.4307 191.998 99.4307C191.043 99.4307 190.322 99.7441 189.836 100.371C189.35 100.998 189.106 101.933 189.106 103.175ZM200.383 98.3672V104.616C200.383 105.401 200.562 105.987 200.919 106.374C201.276 106.761 201.836 106.954 202.598 106.954C203.605 106.954 204.341 106.679 204.804 106.128C205.272 105.577 205.507 104.678 205.507 103.43V98.3672H206.966V108H205.762L205.551 106.708H205.472C205.173 107.183 204.757 107.546 204.224 107.798C203.696 108.05 203.093 108.176 202.413 108.176C201.241 108.176 200.362 107.897 199.776 107.341C199.196 106.784 198.906 105.894 198.906 104.669V98.3672H200.383ZM211.237 95.1504L211.369 95.3438C211.217 95.9297 210.997 96.6123 210.71 97.3916C210.423 98.165 210.124 98.8857 209.813 99.5537H208.741C209.151 97.8838 209.45 96.416 209.638 95.1504H211.237ZM215.236 108L211.58 98.3672H213.145L215.219 104.08C215.688 105.416 215.963 106.283 216.045 106.682H216.115C216.18 106.371 216.382 105.729 216.722 104.757C217.067 103.778 217.838 101.648 219.033 98.3672H220.598L216.941 108H215.236ZM226.214 108.176C224.79 108.176 223.665 107.742 222.839 106.875C222.019 106.008 221.608 104.804 221.608 103.263C221.608 101.71 221.989 100.477 222.751 99.5625C223.519 98.6484 224.547 98.1914 225.836 98.1914C227.043 98.1914 227.998 98.5898 228.701 99.3867C229.404 100.178 229.756 101.224 229.756 102.524V103.447H223.12C223.149 104.578 223.434 105.437 223.973 106.022C224.518 106.608 225.282 106.901 226.267 106.901C227.304 106.901 228.329 106.685 229.343 106.251V107.552C228.827 107.774 228.338 107.933 227.875 108.026C227.418 108.126 226.864 108.176 226.214 108.176ZM225.818 99.4131C225.045 99.4131 224.427 99.665 223.964 100.169C223.507 100.673 223.237 101.37 223.155 102.261H228.191C228.191 101.341 227.986 100.638 227.576 100.151C227.166 99.6592 226.58 99.4131 225.818 99.4131ZM244.812 98.3672V99.29L243.027 99.501C243.191 99.7061 243.338 99.9756 243.467 100.31C243.596 100.638 243.66 101.01 243.66 101.426C243.66 102.369 243.338 103.122 242.693 103.685C242.049 104.247 241.164 104.528 240.039 104.528C239.752 104.528 239.482 104.505 239.23 104.458C238.609 104.786 238.299 105.199 238.299 105.697C238.299 105.961 238.407 106.157 238.624 106.286C238.841 106.409 239.213 106.471 239.74 106.471H241.445C242.488 106.471 243.288 106.69 243.845 107.13C244.407 107.569 244.688 108.208 244.688 109.046C244.688 110.112 244.261 110.924 243.405 111.48C242.55 112.043 241.302 112.324 239.661 112.324C238.401 112.324 237.429 112.09 236.743 111.621C236.063 111.152 235.724 110.49 235.724 109.635C235.724 109.049 235.911 108.542 236.286 108.114C236.661 107.687 237.188 107.396 237.868 107.244C237.622 107.133 237.414 106.96 237.244 106.726C237.08 106.491 236.998 106.219 236.998 105.908C236.998 105.557 237.092 105.249 237.279 104.985C237.467 104.722 237.763 104.467 238.167 104.221C237.669 104.016 237.262 103.667 236.945 103.175C236.635 102.683 236.479 102.12 236.479 101.487C236.479 100.433 236.796 99.6211 237.429 99.0527C238.062 98.4785 238.958 98.1914 240.118 98.1914C240.622 98.1914 241.076 98.25 241.48 98.3672H244.812ZM237.13 109.617C237.13 110.139 237.35 110.534 237.789 110.804C238.229 111.073 238.858 111.208 239.679 111.208C240.903 111.208 241.809 111.023 242.395 110.654C242.986 110.291 243.282 109.796 243.282 109.169C243.282 108.647 243.121 108.284 242.799 108.079C242.477 107.88 241.87 107.78 240.979 107.78H239.23C238.568 107.78 238.053 107.938 237.684 108.255C237.314 108.571 237.13 109.025 237.13 109.617ZM237.921 101.452C237.921 102.126 238.111 102.636 238.492 102.981C238.873 103.327 239.403 103.5 240.083 103.5C241.507 103.5 242.219 102.809 242.219 101.426C242.219 99.9785 241.498 99.2549 240.057 99.2549C239.371 99.2549 238.844 99.4395 238.475 99.8086C238.105 100.178 237.921 100.726 237.921 101.452ZM255.104 103.175C255.104 104.745 254.708 105.973 253.917 106.857C253.126 107.736 252.033 108.176 250.639 108.176C249.777 108.176 249.013 107.974 248.345 107.569C247.677 107.165 247.161 106.585 246.798 105.829C246.435 105.073 246.253 104.188 246.253 103.175C246.253 101.604 246.646 100.383 247.431 99.5098C248.216 98.6309 249.306 98.1914 250.7 98.1914C252.048 98.1914 253.117 98.6396 253.908 99.5361C254.705 100.433 255.104 101.646 255.104 103.175ZM247.765 103.175C247.765 104.405 248.011 105.343 248.503 105.987C248.995 106.632 249.719 106.954 250.674 106.954C251.629 106.954 252.353 106.635 252.845 105.996C253.343 105.352 253.592 104.411 253.592 103.175C253.592 101.95 253.343 101.021 252.845 100.389C252.353 99.75 251.623 99.4307 250.656 99.4307C249.701 99.4307 248.98 99.7441 248.494 100.371C248.008 100.998 247.765 101.933 247.765 103.175ZM260.781 106.972C261.039 106.972 261.288 106.954 261.528 106.919C261.769 106.878 261.959 106.837 262.1 106.796V107.912C261.941 107.988 261.707 108.05 261.396 108.097C261.092 108.149 260.816 108.176 260.57 108.176C258.707 108.176 257.775 107.194 257.775 105.231V99.501H256.396V98.7979L257.775 98.1914L258.391 96.1348H259.234V98.3672H262.029V99.501H259.234V105.17C259.234 105.75 259.372 106.195 259.647 106.506C259.923 106.816 260.301 106.972 260.781 106.972ZM275.301 108V101.769C275.301 100.983 275.122 100.397 274.765 100.011C274.407 99.624 273.848 99.4307 273.086 99.4307C272.078 99.4307 271.34 99.7031 270.871 100.248C270.402 100.793 270.168 101.692 270.168 102.946V108H268.709V98.3672H269.896L270.133 99.6855H270.203C270.502 99.2109 270.921 98.8447 271.46 98.5869C271.999 98.3232 272.6 98.1914 273.262 98.1914C274.422 98.1914 275.295 98.4727 275.881 99.0352C276.467 99.5918 276.76 100.485 276.76 101.716V108H275.301ZM288.08 103.175C288.08 104.745 287.685 105.973 286.894 106.857C286.103 107.736 285.01 108.176 283.615 108.176C282.754 108.176 281.989 107.974 281.321 107.569C280.653 107.165 280.138 106.585 279.774 105.829C279.411 105.073 279.229 104.188 279.229 103.175C279.229 101.604 279.622 100.383 280.407 99.5098C281.192 98.6309 282.282 98.1914 283.677 98.1914C285.024 98.1914 286.094 98.6396 286.885 99.5361C287.682 100.433 288.08 101.646 288.08 103.175ZM280.741 103.175C280.741 104.405 280.987 105.343 281.479 105.987C281.972 106.632 282.695 106.954 283.65 106.954C284.605 106.954 285.329 106.635 285.821 105.996C286.319 105.352 286.568 104.411 286.568 103.175C286.568 101.95 286.319 101.021 285.821 100.389C285.329 99.75 284.6 99.4307 283.633 99.4307C282.678 99.4307 281.957 99.7441 281.471 100.371C280.984 100.998 280.741 101.933 280.741 103.175ZM301.879 106.708H301.8C301.126 107.687 300.118 108.176 298.776 108.176C297.517 108.176 296.535 107.745 295.832 106.884C295.135 106.022 294.786 104.798 294.786 103.21C294.786 101.622 295.138 100.389 295.841 99.5098C296.544 98.6309 297.522 98.1914 298.776 98.1914C300.083 98.1914 301.085 98.666 301.782 99.6152H301.896L301.835 98.9209L301.8 98.2441V94.3242H303.259V108H302.072L301.879 106.708ZM298.961 106.954C299.957 106.954 300.678 106.685 301.123 106.146C301.574 105.601 301.8 104.725 301.8 103.518V103.21C301.8 101.845 301.571 100.872 301.114 100.292C300.663 99.7061 299.939 99.4131 298.943 99.4131C298.088 99.4131 297.432 99.7471 296.975 100.415C296.523 101.077 296.298 102.015 296.298 103.228C296.298 104.458 296.523 105.387 296.975 106.014C297.426 106.641 298.088 106.954 298.961 106.954ZM312.285 108L311.995 106.629H311.925C311.444 107.232 310.964 107.643 310.483 107.859C310.009 108.07 309.414 108.176 308.699 108.176C307.744 108.176 306.994 107.93 306.449 107.438C305.91 106.945 305.641 106.245 305.641 105.337C305.641 103.392 307.196 102.372 310.308 102.278L311.942 102.226V101.628C311.942 100.872 311.778 100.315 311.45 99.958C311.128 99.5947 310.609 99.4131 309.895 99.4131C309.092 99.4131 308.184 99.6592 307.17 100.151L306.722 99.0352C307.196 98.7773 307.715 98.5752 308.277 98.4287C308.846 98.2822 309.414 98.209 309.982 98.209C311.131 98.209 311.98 98.4639 312.531 98.9736C313.088 99.4834 313.366 100.301 313.366 101.426V108H312.285ZM308.989 106.972C309.897 106.972 310.609 106.723 311.125 106.225C311.646 105.727 311.907 105.029 311.907 104.133V103.263L310.448 103.324C309.288 103.365 308.45 103.547 307.935 103.869C307.425 104.186 307.17 104.681 307.17 105.354C307.17 105.882 307.328 106.283 307.645 106.559C307.967 106.834 308.415 106.972 308.989 106.972ZM319.492 106.972C319.75 106.972 319.999 106.954 320.239 106.919C320.479 106.878 320.67 106.837 320.811 106.796V107.912C320.652 107.988 320.418 108.05 320.107 108.097C319.803 108.149 319.527 108.176 319.281 108.176C317.418 108.176 316.486 107.194 316.486 105.231V99.501H315.106V98.7979L316.486 98.1914L317.102 96.1348H317.945V98.3672H320.74V99.501H317.945V105.17C317.945 105.75 318.083 106.195 318.358 106.506C318.634 106.816 319.012 106.972 319.492 106.972ZM328.668 108L328.378 106.629H328.308C327.827 107.232 327.347 107.643 326.866 107.859C326.392 108.07 325.797 108.176 325.082 108.176C324.127 108.176 323.377 107.93 322.832 107.438C322.293 106.945 322.023 106.245 322.023 105.337C322.023 103.392 323.579 102.372 326.69 102.278L328.325 102.226V101.628C328.325 100.872 328.161 100.315 327.833 99.958C327.511 99.5947 326.992 99.4131 326.277 99.4131C325.475 99.4131 324.566 99.6592 323.553 100.151L323.104 99.0352C323.579 98.7773 324.098 98.5752 324.66 98.4287C325.229 98.2822 325.797 98.209 326.365 98.209C327.514 98.209 328.363 98.4639 328.914 98.9736C329.471 99.4834 329.749 100.301 329.749 101.426V108H328.668ZM325.372 106.972C326.28 106.972 326.992 106.723 327.508 106.225C328.029 105.727 328.29 105.029 328.29 104.133V103.263L326.831 103.324C325.671 103.365 324.833 103.547 324.317 103.869C323.808 104.186 323.553 104.681 323.553 105.354C323.553 105.882 323.711 106.283 324.027 106.559C324.35 106.834 324.798 106.972 325.372 106.972ZM338.898 108H337.439V98.3672H338.898V108ZM337.316 95.7568C337.316 95.4229 337.398 95.1797 337.562 95.0273C337.727 94.8691 337.932 94.79 338.178 94.79C338.412 94.79 338.614 94.8691 338.784 95.0273C338.954 95.1855 339.039 95.4287 339.039 95.7568C339.039 96.085 338.954 96.3311 338.784 96.4951C338.614 96.6533 338.412 96.7324 338.178 96.7324C337.932 96.7324 337.727 96.6533 337.562 96.4951C337.398 96.3311 337.316 96.085 337.316 95.7568ZM348.584 108V101.769C348.584 100.983 348.405 100.397 348.048 100.011C347.69 99.624 347.131 99.4307 346.369 99.4307C345.361 99.4307 344.623 99.7031 344.154 100.248C343.686 100.793 343.451 101.692 343.451 102.946V108H341.992V98.3672H343.179L343.416 99.6855H343.486C343.785 99.2109 344.204 98.8447 344.743 98.5869C345.282 98.3232 345.883 98.1914 346.545 98.1914C347.705 98.1914 348.578 98.4727 349.164 99.0352C349.75 99.5918 350.043 100.485 350.043 101.716V108H348.584ZM360.836 106.972C361.094 106.972 361.343 106.954 361.583 106.919C361.823 106.878 362.014 106.837 362.154 106.796V107.912C361.996 107.988 361.762 108.05 361.451 108.097C361.146 108.149 360.871 108.176 360.625 108.176C358.762 108.176 357.83 107.194 357.83 105.231V99.501H356.45V98.7979L357.83 98.1914L358.445 96.1348H359.289V98.3672H362.084V99.501H359.289V105.17C359.289 105.75 359.427 106.195 359.702 106.506C359.978 106.816 360.355 106.972 360.836 106.972ZM370.68 108V101.769C370.68 100.983 370.501 100.397 370.144 100.011C369.786 99.624 369.227 99.4307 368.465 99.4307C367.451 99.4307 366.71 99.7061 366.241 100.257C365.778 100.808 365.547 101.71 365.547 102.964V108H364.088V94.3242H365.547V98.4639C365.547 98.9619 365.523 99.375 365.477 99.7031H365.564C365.852 99.2402 366.259 98.877 366.786 98.6133C367.319 98.3438 367.926 98.209 368.605 98.209C369.783 98.209 370.665 98.4902 371.251 99.0527C371.843 99.6094 372.139 100.497 372.139 101.716V108H370.68ZM376.604 108H375.145V98.3672H376.604V108ZM375.021 95.7568C375.021 95.4229 375.104 95.1797 375.268 95.0273C375.432 94.8691 375.637 94.79 375.883 94.79C376.117 94.79 376.319 94.8691 376.489 95.0273C376.659 95.1855 376.744 95.4287 376.744 95.7568C376.744 96.085 376.659 96.3311 376.489 96.4951C376.319 96.6533 376.117 96.7324 375.883 96.7324C375.637 96.7324 375.432 96.6533 375.268 96.4951C375.104 96.3311 375.021 96.085 375.021 95.7568ZM385.911 105.372C385.911 106.269 385.577 106.96 384.909 107.446C384.241 107.933 383.304 108.176 382.097 108.176C380.819 108.176 379.823 107.974 379.108 107.569V106.216C379.571 106.45 380.066 106.635 380.594 106.77C381.127 106.904 381.64 106.972 382.132 106.972C382.894 106.972 383.479 106.852 383.89 106.611C384.3 106.365 384.505 105.993 384.505 105.495C384.505 105.12 384.341 104.801 384.013 104.537C383.69 104.268 383.058 103.951 382.114 103.588C381.218 103.254 380.579 102.964 380.198 102.718C379.823 102.466 379.542 102.182 379.354 101.865C379.173 101.549 379.082 101.171 379.082 100.731C379.082 99.9463 379.401 99.3281 380.04 98.877C380.679 98.4199 381.555 98.1914 382.668 98.1914C383.705 98.1914 384.719 98.4023 385.709 98.8242L385.19 100.011C384.224 99.6123 383.348 99.4131 382.562 99.4131C381.871 99.4131 381.35 99.5215 380.998 99.7383C380.646 99.9551 380.471 100.254 380.471 100.635C380.471 100.893 380.535 101.112 380.664 101.294C380.799 101.476 381.013 101.648 381.306 101.812C381.599 101.977 382.161 102.214 382.993 102.524C384.136 102.94 384.906 103.359 385.305 103.781C385.709 104.203 385.911 104.733 385.911 105.372ZM399.525 106.708H399.446C398.772 107.687 397.765 108.176 396.423 108.176C395.163 108.176 394.182 107.745 393.479 106.884C392.781 106.022 392.433 104.798 392.433 103.21C392.433 101.622 392.784 100.389 393.487 99.5098C394.19 98.6309 395.169 98.1914 396.423 98.1914C397.729 98.1914 398.731 98.666 399.429 99.6152H399.543L399.481 98.9209L399.446 98.2441V94.3242H400.905V108H399.719L399.525 106.708ZM396.607 106.954C397.604 106.954 398.324 106.685 398.77 106.146C399.221 105.601 399.446 104.725 399.446 103.518V103.21C399.446 101.845 399.218 100.872 398.761 100.292C398.31 99.7061 397.586 99.4131 396.59 99.4131C395.734 99.4131 395.078 99.7471 394.621 100.415C394.17 101.077 393.944 102.015 393.944 103.228C393.944 104.458 394.17 105.387 394.621 106.014C395.072 106.641 395.734 106.954 396.607 106.954ZM409.932 108L409.642 106.629H409.571C409.091 107.232 408.61 107.643 408.13 107.859C407.655 108.07 407.061 108.176 406.346 108.176C405.391 108.176 404.641 107.93 404.096 107.438C403.557 106.945 403.287 106.245 403.287 105.337C403.287 103.392 404.843 102.372 407.954 102.278L409.589 102.226V101.628C409.589 100.872 409.425 100.315 409.097 99.958C408.774 99.5947 408.256 99.4131 407.541 99.4131C406.738 99.4131 405.83 99.6592 404.816 100.151L404.368 99.0352C404.843 98.7773 405.361 98.5752 405.924 98.4287C406.492 98.2822 407.061 98.209 407.629 98.209C408.777 98.209 409.627 98.4639 410.178 98.9736C410.734 99.4834 411.013 100.301 411.013 101.426V108H409.932ZM406.636 106.972C407.544 106.972 408.256 106.723 408.771 106.225C409.293 105.727 409.554 105.029 409.554 104.133V103.263L408.095 103.324C406.935 103.365 406.097 103.547 405.581 103.869C405.071 104.186 404.816 104.681 404.816 105.354C404.816 105.882 404.975 106.283 405.291 106.559C405.613 106.834 406.062 106.972 406.636 106.972ZM417.139 106.972C417.396 106.972 417.646 106.954 417.886 106.919C418.126 106.878 418.316 106.837 418.457 106.796V107.912C418.299 107.988 418.064 108.05 417.754 108.097C417.449 108.149 417.174 108.176 416.928 108.176C415.064 108.176 414.133 107.194 414.133 105.231V99.501H412.753V98.7979L414.133 98.1914L414.748 96.1348H415.592V98.3672H418.387V99.501H415.592V105.17C415.592 105.75 415.729 106.195 416.005 106.506C416.28 106.816 416.658 106.972 417.139 106.972ZM426.314 108L426.024 106.629H425.954C425.474 107.232 424.993 107.643 424.513 107.859C424.038 108.07 423.443 108.176 422.729 108.176C421.773 108.176 421.023 107.93 420.479 107.438C419.939 106.945 419.67 106.245 419.67 105.337C419.67 103.392 421.226 102.372 424.337 102.278L425.972 102.226V101.628C425.972 100.872 425.808 100.315 425.479 99.958C425.157 99.5947 424.639 99.4131 423.924 99.4131C423.121 99.4131 422.213 99.6592 421.199 100.151L420.751 99.0352C421.226 98.7773 421.744 98.5752 422.307 98.4287C422.875 98.2822 423.443 98.209 424.012 98.209C425.16 98.209 426.01 98.4639 426.561 98.9736C427.117 99.4834 427.396 100.301 427.396 101.426V108H426.314ZM423.019 106.972C423.927 106.972 424.639 106.723 425.154 106.225C425.676 105.727 425.937 105.029 425.937 104.133V103.263L424.478 103.324C423.317 103.365 422.479 103.547 421.964 103.869C421.454 104.186 421.199 104.681 421.199 105.354C421.199 105.882 421.357 106.283 421.674 106.559C421.996 106.834 422.444 106.972 423.019 106.972ZM434.893 98.209C436.158 98.209 437.14 98.6426 437.837 99.5098C438.54 100.371 438.892 101.593 438.892 103.175C438.892 104.757 438.537 105.987 437.828 106.866C437.125 107.739 436.146 108.176 434.893 108.176C434.266 108.176 433.691 108.062 433.17 107.833C432.654 107.599 432.221 107.241 431.869 106.761H431.764L431.456 108H430.41V94.3242H431.869V97.6465C431.869 98.3906 431.846 99.0586 431.799 99.6504H431.869C432.549 98.6895 433.557 98.209 434.893 98.209ZM434.682 99.4307C433.686 99.4307 432.968 99.7178 432.528 100.292C432.089 100.86 431.869 101.821 431.869 103.175C431.869 104.528 432.095 105.498 432.546 106.084C432.997 106.664 433.721 106.954 434.717 106.954C435.613 106.954 436.281 106.629 436.721 105.979C437.16 105.322 437.38 104.382 437.38 103.157C437.38 101.903 437.16 100.969 436.721 100.354C436.281 99.7383 435.602 99.4307 434.682 99.4307ZM447.373 108L447.083 106.629H447.013C446.532 107.232 446.052 107.643 445.571 107.859C445.097 108.07 444.502 108.176 443.787 108.176C442.832 108.176 442.082 107.93 441.537 107.438C440.998 106.945 440.729 106.245 440.729 105.337C440.729 103.392 442.284 102.372 445.396 102.278L447.03 102.226V101.628C447.03 100.872 446.866 100.315 446.538 99.958C446.216 99.5947 445.697 99.4131 444.982 99.4131C444.18 99.4131 443.271 99.6592 442.258 100.151L441.81 99.0352C442.284 98.7773 442.803 98.5752 443.365 98.4287C443.934 98.2822 444.502 98.209 445.07 98.209C446.219 98.209 447.068 98.4639 447.619 98.9736C448.176 99.4834 448.454 100.301 448.454 101.426V108H447.373ZM444.077 106.972C444.985 106.972 445.697 106.723 446.213 106.225C446.734 105.727 446.995 105.029 446.995 104.133V103.263L445.536 103.324C444.376 103.365 443.538 103.547 443.022 103.869C442.513 104.186 442.258 104.681 442.258 105.354C442.258 105.882 442.416 106.283 442.732 106.559C443.055 106.834 443.503 106.972 444.077 106.972ZM457.683 105.372C457.683 106.269 457.349 106.96 456.681 107.446C456.013 107.933 455.075 108.176 453.868 108.176C452.591 108.176 451.595 107.974 450.88 107.569V106.216C451.343 106.45 451.838 106.635 452.365 106.77C452.898 106.904 453.411 106.972 453.903 106.972C454.665 106.972 455.251 106.852 455.661 106.611C456.071 106.365 456.276 105.993 456.276 105.495C456.276 105.12 456.112 104.801 455.784 104.537C455.462 104.268 454.829 103.951 453.886 103.588C452.989 103.254 452.351 102.964 451.97 102.718C451.595 102.466 451.313 102.182 451.126 101.865C450.944 101.549 450.854 101.171 450.854 100.731C450.854 99.9463 451.173 99.3281 451.812 98.877C452.45 98.4199 453.326 98.1914 454.439 98.1914C455.477 98.1914 456.49 98.4023 457.48 98.8242L456.962 100.011C455.995 99.6123 455.119 99.4131 454.334 99.4131C453.643 99.4131 453.121 99.5215 452.77 99.7383C452.418 99.9551 452.242 100.254 452.242 100.635C452.242 100.893 452.307 101.112 452.436 101.294C452.57 101.476 452.784 101.648 453.077 101.812C453.37 101.977 453.933 102.214 454.765 102.524C455.907 102.94 456.678 103.359 457.076 103.781C457.48 104.203 457.683 104.733 457.683 105.372ZM464.134 108.176C462.71 108.176 461.585 107.742 460.759 106.875C459.938 106.008 459.528 104.804 459.528 103.263C459.528 101.71 459.909 100.477 460.671 99.5625C461.438 98.6484 462.467 98.1914 463.756 98.1914C464.963 98.1914 465.918 98.5898 466.621 99.3867C467.324 100.178 467.676 101.224 467.676 102.524V103.447H461.04C461.069 104.578 461.354 105.437 461.893 106.022C462.438 106.608 463.202 106.901 464.187 106.901C465.224 106.901 466.249 106.685 467.263 106.251V107.552C466.747 107.774 466.258 107.933 465.795 108.026C465.338 108.126 464.784 108.176 464.134 108.176ZM463.738 99.4131C462.965 99.4131 462.347 99.665 461.884 100.169C461.427 100.673 461.157 101.37 461.075 102.261H466.111C466.111 101.341 465.906 100.638 465.496 100.151C465.086 99.6592 464.5 99.4131 463.738 99.4131ZM469.961 107.068C469.961 106.676 470.049 106.38 470.225 106.181C470.406 105.976 470.664 105.873 470.998 105.873C471.338 105.873 471.602 105.976 471.789 106.181C471.982 106.38 472.079 106.676 472.079 107.068C472.079 107.449 471.982 107.742 471.789 107.947C471.596 108.152 471.332 108.255 470.998 108.255C470.699 108.255 470.45 108.164 470.251 107.982C470.058 107.795 469.961 107.49 469.961 107.068ZM491.081 108H489.604L487.012 99.3955C486.889 99.0146 486.751 98.5342 486.599 97.9541C486.446 97.374 486.367 97.0254 486.361 96.9082C486.232 97.6816 486.027 98.5283 485.746 99.4482L483.232 108H481.756L478.337 95.1504H479.919L481.949 103.087C482.23 104.2 482.436 105.208 482.564 106.11C482.723 105.038 482.957 103.989 483.268 102.964L485.57 95.1504H487.152L489.569 103.034C489.851 103.942 490.088 104.968 490.281 106.11C490.393 105.278 490.604 104.265 490.914 103.069L492.936 95.1504H494.518L491.081 108ZM502.902 108V101.769C502.902 100.983 502.724 100.397 502.366 100.011C502.009 99.624 501.449 99.4307 500.688 99.4307C499.674 99.4307 498.933 99.7061 498.464 100.257C498.001 100.808 497.77 101.71 497.77 102.964V108H496.311V94.3242H497.77V98.4639C497.77 98.9619 497.746 99.375 497.699 99.7031H497.787C498.074 99.2402 498.481 98.877 499.009 98.6133C499.542 98.3438 500.148 98.209 500.828 98.209C502.006 98.209 502.888 98.4902 503.474 99.0527C504.065 99.6094 504.361 100.497 504.361 101.716V108H502.902ZM505.838 98.3672H507.402L509.512 103.86C509.975 105.114 510.262 106.02 510.373 106.576H510.443C510.52 106.277 510.678 105.768 510.918 105.047C511.164 104.32 511.961 102.094 513.309 98.3672H514.873L510.733 109.336C510.323 110.42 509.843 111.188 509.292 111.639C508.747 112.096 508.076 112.324 507.279 112.324C506.834 112.324 506.395 112.274 505.961 112.175V111.006C506.283 111.076 506.644 111.111 507.042 111.111C508.044 111.111 508.759 110.549 509.187 109.424L509.723 108.053L505.838 98.3672ZM527.705 108V101.769C527.705 100.983 527.526 100.397 527.169 100.011C526.812 99.624 526.252 99.4307 525.49 99.4307C524.482 99.4307 523.744 99.7031 523.275 100.248C522.807 100.793 522.572 101.692 522.572 102.946V108H521.113V98.3672H522.3L522.537 99.6855H522.607C522.906 99.2109 523.325 98.8447 523.864 98.5869C524.403 98.3232 525.004 98.1914 525.666 98.1914C526.826 98.1914 527.699 98.4727 528.285 99.0352C528.871 99.5918 529.164 100.485 529.164 101.716V108H527.705ZM540.484 103.175C540.484 104.745 540.089 105.973 539.298 106.857C538.507 107.736 537.414 108.176 536.02 108.176C535.158 108.176 534.394 107.974 533.726 107.569C533.058 107.165 532.542 106.585 532.179 105.829C531.815 105.073 531.634 104.188 531.634 103.175C531.634 101.604 532.026 100.383 532.812 99.5098C533.597 98.6309 534.687 98.1914 536.081 98.1914C537.429 98.1914 538.498 98.6396 539.289 99.5361C540.086 100.433 540.484 101.646 540.484 103.175ZM533.146 103.175C533.146 104.405 533.392 105.343 533.884 105.987C534.376 106.632 535.1 106.954 536.055 106.954C537.01 106.954 537.733 106.635 538.226 105.996C538.724 105.352 538.973 104.411 538.973 103.175C538.973 101.95 538.724 101.021 538.226 100.389C537.733 99.75 537.004 99.4307 536.037 99.4307C535.082 99.4307 534.361 99.7441 533.875 100.371C533.389 100.998 533.146 101.933 533.146 103.175ZM546.162 106.972C546.42 106.972 546.669 106.954 546.909 106.919C547.149 106.878 547.34 106.837 547.48 106.796V107.912C547.322 107.988 547.088 108.05 546.777 108.097C546.473 108.149 546.197 108.176 545.951 108.176C544.088 108.176 543.156 107.194 543.156 105.231V99.501H541.776V98.7979L543.156 98.1914L543.771 96.1348H544.615V98.3672H547.41V99.501H544.615V105.17C544.615 105.75 544.753 106.195 545.028 106.506C545.304 106.816 545.682 106.972 546.162 106.972ZM561.974 98.3672V99.29L560.189 99.501C560.354 99.7061 560.5 99.9756 560.629 100.31C560.758 100.638 560.822 101.01 560.822 101.426C560.822 102.369 560.5 103.122 559.855 103.685C559.211 104.247 558.326 104.528 557.201 104.528C556.914 104.528 556.645 104.505 556.393 104.458C555.771 104.786 555.461 105.199 555.461 105.697C555.461 105.961 555.569 106.157 555.786 106.286C556.003 106.409 556.375 106.471 556.902 106.471H558.607C559.65 106.471 560.45 106.69 561.007 107.13C561.569 107.569 561.851 108.208 561.851 109.046C561.851 110.112 561.423 110.924 560.567 111.48C559.712 112.043 558.464 112.324 556.823 112.324C555.563 112.324 554.591 112.09 553.905 111.621C553.226 111.152 552.886 110.49 552.886 109.635C552.886 109.049 553.073 108.542 553.448 108.114C553.823 107.687 554.351 107.396 555.03 107.244C554.784 107.133 554.576 106.96 554.406 106.726C554.242 106.491 554.16 106.219 554.16 105.908C554.16 105.557 554.254 105.249 554.441 104.985C554.629 104.722 554.925 104.467 555.329 104.221C554.831 104.016 554.424 103.667 554.107 103.175C553.797 102.683 553.642 102.12 553.642 101.487C553.642 100.433 553.958 99.6211 554.591 99.0527C555.224 98.4785 556.12 98.1914 557.28 98.1914C557.784 98.1914 558.238 98.25 558.643 98.3672H561.974ZM554.292 109.617C554.292 110.139 554.512 110.534 554.951 110.804C555.391 111.073 556.021 111.208 556.841 111.208C558.065 111.208 558.971 111.023 559.557 110.654C560.148 110.291 560.444 109.796 560.444 109.169C560.444 108.647 560.283 108.284 559.961 108.079C559.639 107.88 559.032 107.78 558.142 107.78H556.393C555.73 107.78 555.215 107.938 554.846 108.255C554.477 108.571 554.292 109.025 554.292 109.617ZM555.083 101.452C555.083 102.126 555.273 102.636 555.654 102.981C556.035 103.327 556.565 103.5 557.245 103.5C558.669 103.5 559.381 102.809 559.381 101.426C559.381 99.9785 558.66 99.2549 557.219 99.2549C556.533 99.2549 556.006 99.4395 555.637 99.8086C555.268 100.178 555.083 100.726 555.083 101.452ZM568.021 108.176C566.597 108.176 565.472 107.742 564.646 106.875C563.825 106.008 563.415 104.804 563.415 103.263C563.415 101.71 563.796 100.477 564.558 99.5625C565.325 98.6484 566.354 98.1914 567.643 98.1914C568.85 98.1914 569.805 98.5898 570.508 99.3867C571.211 100.178 571.562 101.224 571.562 102.524V103.447H564.927C564.956 104.578 565.24 105.437 565.779 106.022C566.324 106.608 567.089 106.901 568.073 106.901C569.11 106.901 570.136 106.685 571.149 106.251V107.552C570.634 107.774 570.145 107.933 569.682 108.026C569.225 108.126 568.671 108.176 568.021 108.176ZM567.625 99.4131C566.852 99.4131 566.233 99.665 565.771 100.169C565.313 100.673 565.044 101.37 564.962 102.261H569.998C569.998 101.341 569.793 100.638 569.383 100.151C568.973 99.6592 568.387 99.4131 567.625 99.4131ZM577.17 106.972C577.428 106.972 577.677 106.954 577.917 106.919C578.157 106.878 578.348 106.837 578.488 106.796V107.912C578.33 107.988 578.096 108.05 577.785 108.097C577.48 108.149 577.205 108.176 576.959 108.176C575.096 108.176 574.164 107.194 574.164 105.231V99.501H572.784V98.7979L574.164 98.1914L574.779 96.1348H575.623V98.3672H578.418V99.501H575.623V105.17C575.623 105.75 575.761 106.195 576.036 106.506C576.312 106.816 576.689 106.972 577.17 106.972ZM591.312 105.372C591.312 106.269 590.978 106.96 590.31 107.446C589.642 107.933 588.704 108.176 587.497 108.176C586.22 108.176 585.224 107.974 584.509 107.569V106.216C584.972 106.45 585.467 106.635 585.994 106.77C586.527 106.904 587.04 106.972 587.532 106.972C588.294 106.972 588.88 106.852 589.29 106.611C589.7 106.365 589.905 105.993 589.905 105.495C589.905 105.12 589.741 104.801 589.413 104.537C589.091 104.268 588.458 103.951 587.515 103.588C586.618 103.254 585.979 102.964 585.599 102.718C585.224 102.466 584.942 102.182 584.755 101.865C584.573 101.549 584.482 101.171 584.482 100.731C584.482 99.9463 584.802 99.3281 585.44 98.877C586.079 98.4199 586.955 98.1914 588.068 98.1914C589.105 98.1914 590.119 98.4023 591.109 98.8242L590.591 100.011C589.624 99.6123 588.748 99.4131 587.963 99.4131C587.271 99.4131 586.75 99.5215 586.398 99.7383C586.047 99.9551 585.871 100.254 585.871 100.635C585.871 100.893 585.936 101.112 586.064 101.294C586.199 101.476 586.413 101.648 586.706 101.812C586.999 101.977 587.562 102.214 588.394 102.524C589.536 102.94 590.307 103.359 590.705 103.781C591.109 104.203 591.312 104.733 591.312 105.372ZM602.008 103.175C602.008 104.745 601.612 105.973 600.821 106.857C600.03 107.736 598.938 108.176 597.543 108.176C596.682 108.176 595.917 107.974 595.249 107.569C594.581 107.165 594.065 106.585 593.702 105.829C593.339 105.073 593.157 104.188 593.157 103.175C593.157 101.604 593.55 100.383 594.335 99.5098C595.12 98.6309 596.21 98.1914 597.604 98.1914C598.952 98.1914 600.021 98.6396 600.812 99.5361C601.609 100.433 602.008 101.646 602.008 103.175ZM594.669 103.175C594.669 104.405 594.915 105.343 595.407 105.987C595.899 106.632 596.623 106.954 597.578 106.954C598.533 106.954 599.257 106.635 599.749 105.996C600.247 105.352 600.496 104.411 600.496 103.175C600.496 101.95 600.247 101.021 599.749 100.389C599.257 99.75 598.527 99.4307 597.561 99.4307C596.605 99.4307 595.885 99.7441 595.398 100.371C594.912 100.998 594.669 101.933 594.669 103.175ZM616.853 108V101.733C616.853 100.966 616.688 100.392 616.36 100.011C616.032 99.624 615.522 99.4307 614.831 99.4307C613.923 99.4307 613.252 99.6914 612.818 100.213C612.385 100.734 612.168 101.537 612.168 102.621V108H610.709V101.733C610.709 100.966 610.545 100.392 610.217 100.011C609.889 99.624 609.376 99.4307 608.679 99.4307C607.765 99.4307 607.094 99.7061 606.666 100.257C606.244 100.802 606.033 101.698 606.033 102.946V108H604.574V98.3672H605.761L605.998 99.6855H606.068C606.344 99.2168 606.73 98.8506 607.229 98.5869C607.732 98.3232 608.295 98.1914 608.916 98.1914C610.422 98.1914 611.406 98.7363 611.869 99.8262H611.939C612.227 99.3223 612.643 98.9238 613.188 98.6309C613.732 98.3379 614.354 98.1914 615.051 98.1914C616.141 98.1914 616.955 98.4727 617.494 99.0352C618.039 99.5918 618.312 100.485 618.312 101.716V108H616.853ZM625.396 108.176C623.972 108.176 622.847 107.742 622.021 106.875C621.2 106.008 620.79 104.804 620.79 103.263C620.79 101.71 621.171 100.477 621.933 99.5625C622.7 98.6484 623.729 98.1914 625.018 98.1914C626.225 98.1914 627.18 98.5898 627.883 99.3867C628.586 100.178 628.938 101.224 628.938 102.524V103.447H622.302C622.331 104.578 622.615 105.437 623.154 106.022C623.699 106.608 624.464 106.901 625.448 106.901C626.485 106.901 627.511 106.685 628.524 106.251V107.552C628.009 107.774 627.52 107.933 627.057 108.026C626.6 108.126 626.046 108.176 625.396 108.176ZM625 99.4131C624.227 99.4131 623.608 99.665 623.146 100.169C622.688 100.673 622.419 101.37 622.337 102.261H627.373C627.373 101.341 627.168 100.638 626.758 100.151C626.348 99.6592 625.762 99.4131 625 99.4131ZM639.959 108.176C638.564 108.176 637.483 107.748 636.716 106.893C635.954 106.031 635.573 104.815 635.573 103.245C635.573 101.634 635.96 100.389 636.733 99.5098C637.513 98.6309 638.62 98.1914 640.056 98.1914C640.519 98.1914 640.981 98.2412 641.444 98.3408C641.907 98.4404 642.271 98.5576 642.534 98.6924L642.086 99.9316C641.764 99.8027 641.412 99.6973 641.031 99.6152C640.65 99.5273 640.313 99.4834 640.021 99.4834C638.063 99.4834 637.085 100.731 637.085 103.228C637.085 104.411 637.322 105.319 637.797 105.952C638.277 106.585 638.986 106.901 639.924 106.901C640.727 106.901 641.55 106.729 642.394 106.383V107.675C641.749 108.009 640.938 108.176 639.959 108.176ZM646.059 98.3672V104.616C646.059 105.401 646.237 105.987 646.595 106.374C646.952 106.761 647.512 106.954 648.273 106.954C649.281 106.954 650.017 106.679 650.479 106.128C650.948 105.577 651.183 104.678 651.183 103.43V98.3672H652.642V108H651.438L651.227 106.708H651.147C650.849 107.183 650.433 107.546 649.899 107.798C649.372 108.05 648.769 108.176 648.089 108.176C646.917 108.176 646.038 107.897 645.452 107.341C644.872 106.784 644.582 105.894 644.582 104.669V98.3672H646.059ZM661.958 105.372C661.958 106.269 661.624 106.96 660.956 107.446C660.288 107.933 659.351 108.176 658.144 108.176C656.866 108.176 655.87 107.974 655.155 107.569V106.216C655.618 106.45 656.113 106.635 656.641 106.77C657.174 106.904 657.687 106.972 658.179 106.972C658.94 106.972 659.526 106.852 659.937 106.611C660.347 106.365 660.552 105.993 660.552 105.495C660.552 105.12 660.388 104.801 660.06 104.537C659.737 104.268 659.104 103.951 658.161 103.588C657.265 103.254 656.626 102.964 656.245 102.718C655.87 102.466 655.589 102.182 655.401 101.865C655.22 101.549 655.129 101.171 655.129 100.731C655.129 99.9463 655.448 99.3281 656.087 98.877C656.726 98.4199 657.602 98.1914 658.715 98.1914C659.752 98.1914 660.766 98.4023 661.756 98.8242L661.237 100.011C660.271 99.6123 659.395 99.4131 658.609 99.4131C657.918 99.4131 657.396 99.5215 657.045 99.7383C656.693 99.9551 656.518 100.254 656.518 100.635C656.518 100.893 656.582 101.112 656.711 101.294C656.846 101.476 657.06 101.648 657.353 101.812C657.646 101.977 658.208 102.214 659.04 102.524C660.183 102.94 660.953 103.359 661.352 103.781C661.756 104.203 661.958 104.733 661.958 105.372ZM667.451 106.972C667.709 106.972 667.958 106.954 668.198 106.919C668.438 106.878 668.629 106.837 668.77 106.796V107.912C668.611 107.988 668.377 108.05 668.066 108.097C667.762 108.149 667.486 108.176 667.24 108.176C665.377 108.176 664.445 107.194 664.445 105.231V99.501H663.065V98.7979L664.445 98.1914L665.061 96.1348H665.904V98.3672H668.699V99.501H665.904V105.17C665.904 105.75 666.042 106.195 666.317 106.506C666.593 106.816 666.971 106.972 667.451 106.972ZM679.018 103.175C679.018 104.745 678.622 105.973 677.831 106.857C677.04 107.736 675.947 108.176 674.553 108.176C673.691 108.176 672.927 107.974 672.259 107.569C671.591 107.165 671.075 106.585 670.712 105.829C670.349 105.073 670.167 104.188 670.167 103.175C670.167 101.604 670.56 100.383 671.345 99.5098C672.13 98.6309 673.22 98.1914 674.614 98.1914C675.962 98.1914 677.031 98.6396 677.822 99.5361C678.619 100.433 679.018 101.646 679.018 103.175ZM671.679 103.175C671.679 104.405 671.925 105.343 672.417 105.987C672.909 106.632 673.633 106.954 674.588 106.954C675.543 106.954 676.267 106.635 676.759 105.996C677.257 105.352 677.506 104.411 677.506 103.175C677.506 101.95 677.257 101.021 676.759 100.389C676.267 99.75 675.537 99.4307 674.57 99.4307C673.615 99.4307 672.895 99.7441 672.408 100.371C671.922 100.998 671.679 101.933 671.679 103.175ZM693.862 108V101.733C693.862 100.966 693.698 100.392 693.37 100.011C693.042 99.624 692.532 99.4307 691.841 99.4307C690.933 99.4307 690.262 99.6914 689.828 100.213C689.395 100.734 689.178 101.537 689.178 102.621V108H687.719V101.733C687.719 100.966 687.555 100.392 687.227 100.011C686.898 99.624 686.386 99.4307 685.688 99.4307C684.774 99.4307 684.104 99.7061 683.676 100.257C683.254 100.802 683.043 101.698 683.043 102.946V108H681.584V98.3672H682.771L683.008 99.6855H683.078C683.354 99.2168 683.74 98.8506 684.238 98.5869C684.742 98.3232 685.305 98.1914 685.926 98.1914C687.432 98.1914 688.416 98.7363 688.879 99.8262H688.949C689.236 99.3223 689.652 98.9238 690.197 98.6309C690.742 98.3379 691.363 98.1914 692.061 98.1914C693.15 98.1914 693.965 98.4727 694.504 99.0352C695.049 99.5918 695.321 100.485 695.321 101.716V108H693.862ZM702.405 108.176C700.981 108.176 699.856 107.742 699.03 106.875C698.21 106.008 697.8 104.804 697.8 103.263C697.8 101.71 698.181 100.477 698.942 99.5625C699.71 98.6484 700.738 98.1914 702.027 98.1914C703.234 98.1914 704.189 98.5898 704.893 99.3867C705.596 100.178 705.947 101.224 705.947 102.524V103.447H699.312C699.341 104.578 699.625 105.437 700.164 106.022C700.709 106.608 701.474 106.901 702.458 106.901C703.495 106.901 704.521 106.685 705.534 106.251V107.552C705.019 107.774 704.529 107.933 704.066 108.026C703.609 108.126 703.056 108.176 702.405 108.176ZM702.01 99.4131C701.236 99.4131 700.618 99.665 700.155 100.169C699.698 100.673 699.429 101.37 699.347 102.261H704.383C704.383 101.341 704.178 100.638 703.768 100.151C703.357 99.6592 702.771 99.4131 702.01 99.4131ZM712.838 98.1914C713.266 98.1914 713.649 98.2266 713.989 98.2969L713.787 99.6504C713.389 99.5625 713.037 99.5186 712.732 99.5186C711.953 99.5186 711.285 99.835 710.729 100.468C710.178 101.101 709.902 101.889 709.902 102.832V108H708.443V98.3672H709.647L709.814 100.151H709.885C710.242 99.5244 710.673 99.041 711.177 98.7012C711.681 98.3613 712.234 98.1914 712.838 98.1914ZM722.005 105.372C722.005 106.269 721.671 106.96 721.003 107.446C720.335 107.933 719.397 108.176 718.19 108.176C716.913 108.176 715.917 107.974 715.202 107.569V106.216C715.665 106.45 716.16 106.635 716.688 106.77C717.221 106.904 717.733 106.972 718.226 106.972C718.987 106.972 719.573 106.852 719.983 106.611C720.394 106.365 720.599 105.993 720.599 105.495C720.599 105.12 720.435 104.801 720.106 104.537C719.784 104.268 719.151 103.951 718.208 103.588C717.312 103.254 716.673 102.964 716.292 102.718C715.917 102.466 715.636 102.182 715.448 101.865C715.267 101.549 715.176 101.171 715.176 100.731C715.176 99.9463 715.495 99.3281 716.134 98.877C716.772 98.4199 717.648 98.1914 718.762 98.1914C719.799 98.1914 720.812 98.4023 721.803 98.8242L721.284 100.011C720.317 99.6123 719.441 99.4131 718.656 99.4131C717.965 99.4131 717.443 99.5215 717.092 99.7383C716.74 99.9551 716.564 100.254 716.564 100.635C716.564 100.893 716.629 101.112 716.758 101.294C716.893 101.476 717.106 101.648 717.399 101.812C717.692 101.977 718.255 102.214 719.087 102.524C720.229 102.94 721 103.359 721.398 103.781C721.803 104.203 722.005 104.733 722.005 105.372ZM732.174 106.972C732.432 106.972 732.681 106.954 732.921 106.919C733.161 106.878 733.352 106.837 733.492 106.796V107.912C733.334 107.988 733.1 108.05 732.789 108.097C732.484 108.149 732.209 108.176 731.963 108.176C730.1 108.176 729.168 107.194 729.168 105.231V99.501H727.788V98.7979L729.168 98.1914L729.783 96.1348H730.627V98.3672H733.422V99.501H730.627V105.17C730.627 105.75 730.765 106.195 731.04 106.506C731.315 106.816 731.693 106.972 732.174 106.972ZM743.74 103.175C743.74 104.745 743.345 105.973 742.554 106.857C741.763 107.736 740.67 108.176 739.275 108.176C738.414 108.176 737.649 107.974 736.981 107.569C736.313 107.165 735.798 106.585 735.435 105.829C735.071 105.073 734.89 104.188 734.89 103.175C734.89 101.604 735.282 100.383 736.067 99.5098C736.853 98.6309 737.942 98.1914 739.337 98.1914C740.685 98.1914 741.754 98.6396 742.545 99.5361C743.342 100.433 743.74 101.646 743.74 103.175ZM736.401 103.175C736.401 104.405 736.647 105.343 737.14 105.987C737.632 106.632 738.355 106.954 739.311 106.954C740.266 106.954 740.989 106.635 741.481 105.996C741.979 105.352 742.229 104.411 742.229 103.175C742.229 101.95 741.979 101.021 741.481 100.389C740.989 99.75 740.26 99.4307 739.293 99.4307C738.338 99.4307 737.617 99.7441 737.131 100.371C736.645 100.998 736.401 101.933 736.401 103.175ZM756.906 108L756.616 106.629H756.546C756.065 107.232 755.585 107.643 755.104 107.859C754.63 108.07 754.035 108.176 753.32 108.176C752.365 108.176 751.615 107.93 751.07 107.438C750.531 106.945 750.262 106.245 750.262 105.337C750.262 103.392 751.817 102.372 754.929 102.278L756.563 102.226V101.628C756.563 100.872 756.399 100.315 756.071 99.958C755.749 99.5947 755.23 99.4131 754.516 99.4131C753.713 99.4131 752.805 99.6592 751.791 100.151L751.343 99.0352C751.817 98.7773 752.336 98.5752 752.898 98.4287C753.467 98.2822 754.035 98.209 754.604 98.209C755.752 98.209 756.602 98.4639 757.152 98.9736C757.709 99.4834 757.987 100.301 757.987 101.426V108H756.906ZM753.61 106.972C754.519 106.972 755.23 106.723 755.746 106.225C756.268 105.727 756.528 105.029 756.528 104.133V103.263L755.069 103.324C753.909 103.365 753.071 103.547 752.556 103.869C752.046 104.186 751.791 104.681 751.791 105.354C751.791 105.882 751.949 106.283 752.266 106.559C752.588 106.834 753.036 106.972 753.61 106.972ZM764.852 108.176C763.457 108.176 762.376 107.748 761.608 106.893C760.847 106.031 760.466 104.815 760.466 103.245C760.466 101.634 760.853 100.389 761.626 99.5098C762.405 98.6309 763.513 98.1914 764.948 98.1914C765.411 98.1914 765.874 98.2412 766.337 98.3408C766.8 98.4404 767.163 98.5576 767.427 98.6924L766.979 99.9316C766.656 99.8027 766.305 99.6973 765.924 99.6152C765.543 99.5273 765.206 99.4834 764.913 99.4834C762.956 99.4834 761.978 100.731 761.978 103.228C761.978 104.411 762.215 105.319 762.689 105.952C763.17 106.585 763.879 106.901 764.816 106.901C765.619 106.901 766.442 106.729 767.286 106.383V107.675C766.642 108.009 765.83 108.176 764.852 108.176ZM773.219 106.954C774.191 106.954 774.9 106.693 775.346 106.172C775.791 105.65 776.028 104.771 776.058 103.535V103.21C776.058 101.862 775.829 100.893 775.372 100.301C774.915 99.709 774.191 99.4131 773.201 99.4131C772.346 99.4131 771.689 99.7471 771.232 100.415C770.781 101.077 770.556 102.015 770.556 103.228C770.556 104.44 770.778 105.366 771.224 106.005C771.675 106.638 772.34 106.954 773.219 106.954ZM772.999 108.176C771.757 108.176 770.787 107.739 770.09 106.866C769.393 105.993 769.044 104.774 769.044 103.21C769.044 101.634 769.396 100.403 770.099 99.5186C770.802 98.6338 771.78 98.1914 773.034 98.1914C774.353 98.1914 775.366 98.6895 776.075 99.6855H776.154L776.365 98.3672H777.517V112.324H776.058V108.202C776.058 107.616 776.09 107.118 776.154 106.708H776.04C775.366 107.687 774.353 108.176 772.999 108.176ZM781.99 98.3672V104.616C781.99 105.401 782.169 105.987 782.526 106.374C782.884 106.761 783.443 106.954 784.205 106.954C785.213 106.954 785.948 106.679 786.411 106.128C786.88 105.577 787.114 104.678 787.114 103.43V98.3672H788.573V108H787.369L787.158 106.708H787.079C786.78 107.183 786.364 107.546 785.831 107.798C785.304 108.05 784.7 108.176 784.021 108.176C782.849 108.176 781.97 107.897 781.384 107.341C780.804 106.784 780.514 105.894 780.514 104.669V98.3672H781.99ZM793.135 108H791.676V98.3672H793.135V108ZM791.553 95.7568C791.553 95.4229 791.635 95.1797 791.799 95.0273C791.963 94.8691 792.168 94.79 792.414 94.79C792.648 94.79 792.851 94.8691 793.021 95.0273C793.19 95.1855 793.275 95.4287 793.275 95.7568C793.275 96.085 793.19 96.3311 793.021 96.4951C792.851 96.6533 792.648 96.7324 792.414 96.7324C792.168 96.7324 791.963 96.6533 791.799 96.4951C791.635 96.3311 791.553 96.085 791.553 95.7568ZM800.623 98.1914C801.051 98.1914 801.435 98.2266 801.774 98.2969L801.572 99.6504C801.174 99.5625 800.822 99.5186 800.518 99.5186C799.738 99.5186 799.07 99.835 798.514 100.468C797.963 101.101 797.688 101.889 797.688 102.832V108H796.229V98.3672H797.433L797.6 100.151H797.67C798.027 99.5244 798.458 99.041 798.962 98.7012C799.466 98.3613 800.02 98.1914 800.623 98.1914ZM807.646 108.176C806.222 108.176 805.097 107.742 804.271 106.875C803.45 106.008 803.04 104.804 803.04 103.263C803.04 101.71 803.421 100.477 804.183 99.5625C804.95 98.6484 805.979 98.1914 807.268 98.1914C808.475 98.1914 809.43 98.5898 810.133 99.3867C810.836 100.178 811.188 101.224 811.188 102.524V103.447H804.552C804.581 104.578 804.865 105.437 805.404 106.022C805.949 106.608 806.714 106.901 807.698 106.901C808.735 106.901 809.761 106.685 810.774 106.251V107.552C810.259 107.774 809.77 107.933 809.307 108.026C808.85 108.126 808.296 108.176 807.646 108.176ZM807.25 99.4131C806.477 99.4131 805.858 99.665 805.396 100.169C804.938 100.673 804.669 101.37 804.587 102.261H809.623C809.623 101.341 809.418 100.638 809.008 100.151C808.598 99.6592 808.012 99.4131 807.25 99.4131ZM824.916 106.708H824.837C824.163 107.687 823.155 108.176 821.813 108.176C820.554 108.176 819.572 107.745 818.869 106.884C818.172 106.022 817.823 104.798 817.823 103.21C817.823 101.622 818.175 100.389 818.878 99.5098C819.581 98.6309 820.56 98.1914 821.813 98.1914C823.12 98.1914 824.122 98.666 824.819 99.6152H824.934L824.872 98.9209L824.837 98.2441V94.3242H826.296V108H825.109L824.916 106.708ZM821.998 106.954C822.994 106.954 823.715 106.685 824.16 106.146C824.611 105.601 824.837 104.725 824.837 103.518V103.21C824.837 101.845 824.608 100.872 824.151 100.292C823.7 99.7061 822.977 99.4131 821.98 99.4131C821.125 99.4131 820.469 99.7471 820.012 100.415C819.561 101.077 819.335 102.015 819.335 103.228C819.335 104.458 819.561 105.387 820.012 106.014C820.463 106.641 821.125 106.954 821.998 106.954ZM835.322 108L835.032 106.629H834.962C834.481 107.232 834.001 107.643 833.521 107.859C833.046 108.07 832.451 108.176 831.736 108.176C830.781 108.176 830.031 107.93 829.486 107.438C828.947 106.945 828.678 106.245 828.678 105.337C828.678 103.392 830.233 102.372 833.345 102.278L834.979 102.226V101.628C834.979 100.872 834.815 100.315 834.487 99.958C834.165 99.5947 833.646 99.4131 832.932 99.4131C832.129 99.4131 831.221 99.6592 830.207 100.151L829.759 99.0352C830.233 98.7773 830.752 98.5752 831.314 98.4287C831.883 98.2822 832.451 98.209 833.02 98.209C834.168 98.209 835.018 98.4639 835.568 98.9736C836.125 99.4834 836.403 100.301 836.403 101.426V108H835.322ZM832.026 106.972C832.935 106.972 833.646 106.723 834.162 106.225C834.684 105.727 834.944 105.029 834.944 104.133V103.263L833.485 103.324C832.325 103.365 831.487 103.547 830.972 103.869C830.462 104.186 830.207 104.681 830.207 105.354C830.207 105.882 830.365 106.283 830.682 106.559C831.004 106.834 831.452 106.972 832.026 106.972ZM842.529 106.972C842.787 106.972 843.036 106.954 843.276 106.919C843.517 106.878 843.707 106.837 843.848 106.796V107.912C843.689 107.988 843.455 108.05 843.145 108.097C842.84 108.149 842.564 108.176 842.318 108.176C840.455 108.176 839.523 107.194 839.523 105.231V99.501H838.144V98.7979L839.523 98.1914L840.139 96.1348H840.982V98.3672H843.777V99.501H840.982V105.17C840.982 105.75 841.12 106.195 841.396 106.506C841.671 106.816 842.049 106.972 842.529 106.972ZM851.705 108L851.415 106.629H851.345C850.864 107.232 850.384 107.643 849.903 107.859C849.429 108.07 848.834 108.176 848.119 108.176C847.164 108.176 846.414 107.93 845.869 107.438C845.33 106.945 845.061 106.245 845.061 105.337C845.061 103.392 846.616 102.372 849.728 102.278L851.362 102.226V101.628C851.362 100.872 851.198 100.315 850.87 99.958C850.548 99.5947 850.029 99.4131 849.314 99.4131C848.512 99.4131 847.604 99.6592 846.59 100.151L846.142 99.0352C846.616 98.7773 847.135 98.5752 847.697 98.4287C848.266 98.2822 848.834 98.209 849.402 98.209C850.551 98.209 851.4 98.4639 851.951 98.9736C852.508 99.4834 852.786 100.301 852.786 101.426V108H851.705ZM848.409 106.972C849.317 106.972 850.029 106.723 850.545 106.225C851.066 105.727 851.327 105.029 851.327 104.133V103.263L849.868 103.324C848.708 103.365 847.87 103.547 847.354 103.869C846.845 104.186 846.59 104.681 846.59 105.354C846.59 105.882 846.748 106.283 847.064 106.559C847.387 106.834 847.835 106.972 848.409 106.972ZM856.794 104.458V103.983C856.794 103.298 856.899 102.735 857.11 102.296C857.321 101.851 857.714 101.382 858.288 100.89C859.085 100.216 859.586 99.709 859.791 99.3691C860.002 99.0293 860.107 98.6191 860.107 98.1387C860.107 97.541 859.914 97.0811 859.527 96.7588C859.146 96.4307 858.596 96.2666 857.875 96.2666C857.412 96.2666 856.961 96.3223 856.521 96.4336C856.082 96.5391 855.578 96.7354 855.01 97.0225L854.491 95.8359C855.599 95.2559 856.756 94.9658 857.963 94.9658C859.082 94.9658 859.952 95.2412 860.573 95.792C861.194 96.3428 861.505 97.1191 861.505 98.1211C861.505 98.5488 861.446 98.9268 861.329 99.2549C861.218 99.5771 861.051 99.8848 860.828 100.178C860.605 100.465 860.125 100.931 859.387 101.575C858.795 102.079 858.402 102.498 858.209 102.832C858.021 103.166 857.928 103.611 857.928 104.168V104.458H856.794ZM856.363 107.068C856.363 106.271 856.715 105.873 857.418 105.873C857.758 105.873 858.019 105.976 858.2 106.181C858.388 106.386 858.481 106.682 858.481 107.068C858.481 107.443 858.388 107.736 858.2 107.947C858.013 108.152 857.752 108.255 857.418 108.255C857.113 108.255 856.861 108.164 856.662 107.982C856.463 107.795 856.363 107.49 856.363 107.068Z" fill="#0B35CA"/>
<path d="M448 53.42L448.58 52.82L449.16 53.42C449.346 53.6075 449.567 53.7562 449.811 53.8578C450.055 53.9593 450.316 54.0116 450.58 54.0116C450.844 54.0116 451.105 53.9593 451.349 53.8578C451.593 53.7562 451.814 53.6075 452 53.42C452.187 53.2341 452.336 53.0129 452.438 52.7691C452.539 52.5254 452.592 52.264 452.592 52C452.592 51.736 452.539 51.4746 452.438 51.2308C452.336 50.9871 452.187 50.7659 452 50.58L451.4 50L452 49.42C452.377 49.0328 452.584 48.5118 452.576 47.9717C452.569 47.4316 452.347 46.9166 451.96 46.54C451.573 46.1634 451.052 45.956 450.512 45.9635C449.972 45.971 449.457 46.1928 449.08 46.58L448.5 47.18L448 46.58C447.623 46.1928 447.108 45.971 446.568 45.9635C446.028 45.956 445.507 46.1634 445.12 46.54C444.733 46.9166 444.511 47.4316 444.504 47.9717C444.496 48.5118 444.703 49.0328 445.08 49.42L445.68 50L445.08 50.58C444.893 50.7659 444.744 50.9871 444.642 51.2308C444.541 51.4746 444.488 51.736 444.488 52C444.488 52.264 444.541 52.5254 444.642 52.7691C444.744 53.0129 444.893 53.2341 445.08 53.42C445.266 53.6075 445.487 53.7562 445.731 53.8578C445.975 53.9593 446.236 54.0116 446.5 54.0116C446.764 54.0116 447.025 53.9593 447.269 53.8578C447.513 53.7562 447.734 53.6075 447.92 53.42H448ZM446.8 60.66C446.397 60.9986 446.144 61.4824 446.095 62.0066C446.046 62.5308 446.206 63.053 446.54 63.46C446.708 63.6625 446.914 63.8299 447.147 63.9526C447.379 64.0753 447.634 64.1509 447.896 64.1751C448.158 64.1992 448.422 64.1715 448.673 64.0934C448.925 64.0153 449.158 63.8884 449.36 63.72C450.697 62.6421 452.363 62.0542 454.08 62.0542C455.797 62.0542 457.463 62.6421 458.8 63.72C459.002 63.8884 459.235 64.0153 459.487 64.0934C459.738 64.1715 460.002 64.1992 460.264 64.1751C460.526 64.1509 460.781 64.0753 461.013 63.9526C461.246 63.8299 461.452 63.6625 461.62 63.46C461.954 63.053 462.114 62.5308 462.065 62.0066C462.017 61.4824 461.763 60.9986 461.36 60.66C459.29 58.9809 456.705 58.0645 454.04 58.0645C451.375 58.0645 448.79 58.9809 446.72 60.66H446.8ZM454 34C450.044 34 446.178 35.173 442.889 37.3706C439.6 39.5682 437.036 42.6918 435.522 46.3463C434.009 50.0008 433.613 54.0222 434.384 57.9018C435.156 61.7814 437.061 65.3451 439.858 68.1421C442.655 70.9392 446.219 72.844 450.098 73.6157C453.978 74.3874 457.999 73.9913 461.654 72.4776C465.308 70.9638 468.432 68.4004 470.629 65.1114C472.827 61.8224 474 57.9556 474 54C474 51.3736 473.483 48.7728 472.478 46.3463C471.472 43.9198 469.999 41.715 468.142 39.8579C466.285 38.0007 464.08 36.5275 461.654 35.5224C459.227 34.5173 456.626 34 454 34ZM454 70C450.836 70 447.742 69.0616 445.111 67.3035C442.48 65.5454 440.429 63.0465 439.218 60.1229C438.007 57.1993 437.69 53.9822 438.307 50.8785C438.925 47.7749 440.449 44.9239 442.686 42.6863C444.924 40.4486 447.775 38.9248 450.879 38.3074C453.982 37.6901 457.199 38.0069 460.123 39.2179C463.047 40.4289 465.545 42.4797 467.304 45.1109C469.062 47.7421 470 50.8355 470 54C470 58.2435 468.314 62.3131 465.314 65.3137C462.313 68.3143 458.243 70 454 70ZM464 46.58C463.814 46.3925 463.593 46.2438 463.349 46.1422C463.105 46.0407 462.844 45.9884 462.58 45.9884C462.316 45.9884 462.055 46.0407 461.811 46.1422C461.567 46.2438 461.346 46.3925 461.16 46.58L460.58 47.18L460 46.58C459.623 46.2034 459.113 45.9918 458.58 45.9918C458.047 45.9918 457.537 46.2034 457.16 46.58C456.783 46.9566 456.572 47.4674 456.572 48C456.572 48.5326 456.783 49.0434 457.16 49.42L457.76 50L457.16 50.58C456.973 50.7659 456.824 50.9871 456.722 51.2308C456.621 51.4746 456.568 51.736 456.568 52C456.568 52.264 456.621 52.5254 456.722 52.7691C456.824 53.0129 456.973 53.2341 457.16 53.42C457.346 53.6075 457.567 53.7562 457.811 53.8578C458.055 53.9593 458.316 54.0116 458.58 54.0116C458.844 54.0116 459.105 53.9593 459.349 53.8578C459.593 53.7562 459.814 53.6075 460 53.42L460.58 52.82L461.16 53.42C461.346 53.6075 461.567 53.7562 461.811 53.8578C462.055 53.9593 462.316 54.0116 462.58 54.0116C462.844 54.0116 463.105 53.9593 463.349 53.8578C463.593 53.7562 463.814 53.6075 464 53.42C464.187 53.2341 464.336 53.0129 464.438 52.7691C464.539 52.5254 464.592 52.264 464.592 52C464.592 51.736 464.539 51.4746 464.438 51.2308C464.336 50.9871 464.187 50.7659 464 50.58L463.4 50L464 49.42C464.187 49.2341 464.336 49.0129 464.438 48.7691C464.539 48.5254 464.592 48.264 464.592 48C464.592 47.736 464.539 47.4746 464.438 47.2308C464.336 46.9871 464.187 46.7659 464 46.58Z" fill="#0B35CA"/>
</svg>
