<svg width="346" height="59" viewBox="0 0 346 59" fill="none" xmlns="http://www.w3.org/2000/svg">
<rect x="0.5" y="0.5" width="345" height="58" rx="5.5" fill="#0B35CA" fill-opacity="0.12" stroke="#0B35CA"/>
<path d="M91.084 34H89.488L84.686 26.734V34H83.09V24.256H84.686L89.488 31.508V24.256H91.084V34ZM96.5259 34.126C95.7979 34.126 95.1399 33.9627 94.5519 33.636C93.9639 33.3 93.5019 32.8333 93.1659 32.236C92.8299 31.6293 92.6619 30.9293 92.6619 30.136C92.6619 29.352 92.8345 28.6567 93.1799 28.05C93.5252 27.4433 93.9965 26.9767 94.5939 26.65C95.1912 26.3233 95.8585 26.16 96.5959 26.16C97.3332 26.16 98.0005 26.3233 98.5979 26.65C99.1952 26.9767 99.6665 27.4433 100.012 28.05C100.357 28.6567 100.53 29.352 100.53 30.136C100.53 30.92 100.353 31.6153 99.9979 32.222C99.6432 32.8287 99.1579 33.3 98.5419 33.636C97.9352 33.9627 97.2632 34.126 96.5259 34.126ZM96.5259 32.74C96.9365 32.74 97.3192 32.642 97.6739 32.446C98.0379 32.25 98.3319 31.956 98.5559 31.564C98.7799 31.172 98.8919 30.696 98.8919 30.136C98.8919 29.576 98.7845 29.1047 98.5699 28.722C98.3552 28.33 98.0705 28.036 97.7159 27.84C97.3612 27.644 96.9785 27.546 96.5679 27.546C96.1572 27.546 95.7745 27.644 95.4199 27.84C95.0745 28.036 94.7992 28.33 94.5939 28.722C94.3885 29.1047 94.2859 29.576 94.2859 30.136C94.2859 30.9667 94.4959 31.6107 94.9159 32.068C95.3452 32.516 95.8819 32.74 96.5259 32.74ZM107.34 27.42C107.611 27.0653 107.98 26.7667 108.446 26.524C108.913 26.2813 109.44 26.16 110.028 26.16C110.7 26.16 111.312 26.328 111.862 26.664C112.422 26.9907 112.861 27.4527 113.178 28.05C113.496 28.6473 113.654 29.3333 113.654 30.108C113.654 30.8827 113.496 31.578 113.178 32.194C112.861 32.8007 112.422 33.2767 111.862 33.622C111.312 33.958 110.7 34.126 110.028 34.126C109.44 34.126 108.918 34.0093 108.46 33.776C108.003 33.5333 107.63 33.2347 107.34 32.88V37.668H105.744V26.286H107.34V27.42ZM112.03 30.108C112.03 29.576 111.918 29.1187 111.694 28.736C111.48 28.344 111.19 28.05 110.826 27.854C110.472 27.6487 110.089 27.546 109.678 27.546C109.277 27.546 108.894 27.6487 108.53 27.854C108.176 28.0593 107.886 28.358 107.662 28.75C107.448 29.142 107.34 29.604 107.34 30.136C107.34 30.668 107.448 31.1347 107.662 31.536C107.886 31.928 108.176 32.2267 108.53 32.432C108.894 32.6373 109.277 32.74 109.678 32.74C110.089 32.74 110.472 32.6373 110.826 32.432C111.19 32.2173 111.48 31.9093 111.694 31.508C111.918 31.1067 112.03 30.64 112.03 30.108ZM122.303 29.954C122.303 30.2433 122.284 30.5047 122.247 30.738H116.353C116.399 31.354 116.628 31.8487 117.039 32.222C117.449 32.5953 117.953 32.782 118.551 32.782C119.409 32.782 120.016 32.4227 120.371 31.704H122.093C121.859 32.4133 121.435 32.9967 120.819 33.454C120.212 33.902 119.456 34.126 118.551 34.126C117.813 34.126 117.151 33.9627 116.563 33.636C115.984 33.3 115.527 32.8333 115.191 32.236C114.864 31.6293 114.701 30.9293 114.701 30.136C114.701 29.3427 114.859 28.6473 115.177 28.05C115.503 27.4433 115.956 26.9767 116.535 26.65C117.123 26.3233 117.795 26.16 118.551 26.16C119.279 26.16 119.927 26.3187 120.497 26.636C121.066 26.9533 121.509 27.4013 121.827 27.98C122.144 28.5493 122.303 29.2073 122.303 29.954ZM120.637 29.45C120.627 28.862 120.417 28.3907 120.007 28.036C119.596 27.6813 119.087 27.504 118.481 27.504C117.93 27.504 117.459 27.6813 117.067 28.036C116.675 28.3813 116.441 28.8527 116.367 29.45H120.637ZM127.765 26.16C128.372 26.16 128.913 26.286 129.389 26.538C129.875 26.79 130.253 27.1633 130.523 27.658C130.794 28.1527 130.929 28.75 130.929 29.45V34H129.347V29.688C129.347 28.9973 129.175 28.47 128.829 28.106C128.484 27.7327 128.013 27.546 127.415 27.546C126.818 27.546 126.342 27.7327 125.987 28.106C125.642 28.47 125.469 28.9973 125.469 29.688V34H123.873V26.286H125.469V27.168C125.731 26.8507 126.062 26.6033 126.463 26.426C126.874 26.2487 127.308 26.16 127.765 26.16ZM132.433 30.108C132.433 29.3333 132.592 28.6473 132.909 28.05C133.236 27.4527 133.674 26.9907 134.225 26.664C134.785 26.328 135.406 26.16 136.087 26.16C136.591 26.16 137.086 26.272 137.571 26.496C138.066 26.7107 138.458 27 138.747 27.364V23.64H140.357V34H138.747V32.838C138.486 33.2113 138.122 33.5193 137.655 33.762C137.198 34.0047 136.67 34.126 136.073 34.126C135.401 34.126 134.785 33.958 134.225 33.622C133.674 33.2767 133.236 32.8007 132.909 32.194C132.592 31.578 132.433 30.8827 132.433 30.108ZM138.747 30.136C138.747 29.604 138.635 29.142 138.411 28.75C138.196 28.358 137.912 28.0593 137.557 27.854C137.202 27.6487 136.82 27.546 136.409 27.546C135.998 27.546 135.616 27.6487 135.261 27.854C134.906 28.05 134.617 28.344 134.393 28.736C134.178 29.1187 134.071 29.576 134.071 30.108C134.071 30.64 134.178 31.1067 134.393 31.508C134.617 31.9093 134.906 32.2173 135.261 32.432C135.625 32.6373 136.008 32.74 136.409 32.74C136.82 32.74 137.202 32.6373 137.557 32.432C137.912 32.2267 138.196 31.928 138.411 31.536C138.635 31.1347 138.747 30.668 138.747 30.136ZM143.265 25.264C142.976 25.264 142.733 25.166 142.537 24.97C142.341 24.774 142.243 24.5313 142.243 24.242C142.243 23.9527 142.341 23.71 142.537 23.514C142.733 23.318 142.976 23.22 143.265 23.22C143.545 23.22 143.783 23.318 143.979 23.514C144.175 23.71 144.273 23.9527 144.273 24.242C144.273 24.5313 144.175 24.774 143.979 24.97C143.783 25.166 143.545 25.264 143.265 25.264ZM144.049 26.286V34H142.453V26.286H144.049ZM150.037 26.16C150.643 26.16 151.185 26.286 151.661 26.538C152.146 26.79 152.524 27.1633 152.795 27.658C153.065 28.1527 153.201 28.75 153.201 29.45V34H151.619V29.688C151.619 28.9973 151.446 28.47 151.101 28.106C150.755 27.7327 150.284 27.546 149.687 27.546C149.089 27.546 148.613 27.7327 148.259 28.106C147.913 28.47 147.741 28.9973 147.741 29.688V34H146.145V26.286H147.741V27.168C148.002 26.8507 148.333 26.6033 148.735 26.426C149.145 26.2487 149.579 26.16 150.037 26.16ZM158.345 26.16C158.942 26.16 159.469 26.2813 159.927 26.524C160.393 26.7573 160.757 27.0513 161.019 27.406V26.286H162.629V34.126C162.629 34.8353 162.479 35.4653 162.181 36.016C161.882 36.576 161.448 37.0147 160.879 37.332C160.319 37.6493 159.647 37.808 158.863 37.808C157.817 37.808 156.949 37.5607 156.259 37.066C155.568 36.5807 155.176 35.918 155.083 35.078H156.665C156.786 35.4793 157.043 35.8013 157.435 36.044C157.836 36.296 158.312 36.422 158.863 36.422C159.507 36.422 160.025 36.226 160.417 35.834C160.818 35.442 161.019 34.8727 161.019 34.126V32.838C160.748 33.202 160.379 33.51 159.913 33.762C159.455 34.0047 158.933 34.126 158.345 34.126C157.673 34.126 157.057 33.958 156.497 33.622C155.946 33.2767 155.507 32.8007 155.181 32.194C154.863 31.578 154.705 30.8827 154.705 30.108C154.705 29.3333 154.863 28.6473 155.181 28.05C155.507 27.4527 155.946 26.9907 156.497 26.664C157.057 26.328 157.673 26.16 158.345 26.16ZM161.019 30.136C161.019 29.604 160.907 29.142 160.683 28.75C160.468 28.358 160.183 28.0593 159.829 27.854C159.474 27.6487 159.091 27.546 158.681 27.546C158.27 27.546 157.887 27.6487 157.533 27.854C157.178 28.05 156.889 28.344 156.665 28.736C156.45 29.1187 156.343 29.576 156.343 30.108C156.343 30.64 156.45 31.1067 156.665 31.508C156.889 31.9093 157.178 32.2173 157.533 32.432C157.897 32.6373 158.279 32.74 158.681 32.74C159.091 32.74 159.474 32.6373 159.829 32.432C160.183 32.2267 160.468 31.928 160.683 31.536C160.907 31.1347 161.019 30.668 161.019 30.136ZM169.958 27.406C170.191 27.014 170.499 26.7107 170.882 26.496C171.274 26.272 171.736 26.16 172.268 26.16V27.812H171.862C171.236 27.812 170.76 27.9707 170.434 28.288C170.116 28.6053 169.958 29.156 169.958 29.94V34H168.362V26.286H169.958V27.406ZM180.805 29.954C180.805 30.2433 180.786 30.5047 180.749 30.738H174.855C174.901 31.354 175.13 31.8487 175.541 32.222C175.951 32.5953 176.455 32.782 177.053 32.782C177.911 32.782 178.518 32.4227 178.873 31.704H180.595C180.361 32.4133 179.937 32.9967 179.321 33.454C178.714 33.902 177.958 34.126 177.053 34.126C176.315 34.126 175.653 33.9627 175.065 33.636C174.486 33.3 174.029 32.8333 173.693 32.236C173.366 31.6293 173.203 30.9293 173.203 30.136C173.203 29.3427 173.361 28.6473 173.679 28.05C174.005 27.4433 174.458 26.9767 175.037 26.65C175.625 26.3233 176.297 26.16 177.053 26.16C177.781 26.16 178.429 26.3187 178.999 26.636C179.568 26.9533 180.011 27.4013 180.329 27.98C180.646 28.5493 180.805 29.2073 180.805 29.954ZM179.139 29.45C179.129 28.862 178.919 28.3907 178.509 28.036C178.098 27.6813 177.589 27.504 176.983 27.504C176.432 27.504 175.961 27.6813 175.569 28.036C175.177 28.3813 174.943 28.8527 174.869 29.45H179.139ZM181.843 30.108C181.843 29.3333 182.002 28.6473 182.319 28.05C182.646 27.4527 183.085 26.9907 183.635 26.664C184.195 26.328 184.816 26.16 185.497 26.16C186.095 26.16 186.622 26.2813 187.079 26.524C187.546 26.7667 187.905 27.0607 188.157 27.406V26.286H189.767V37.668H188.157V32.88C187.905 33.2253 187.541 33.5193 187.065 33.762C186.589 34.0047 186.048 34.126 185.441 34.126C184.779 34.126 184.172 33.958 183.621 33.622C183.08 33.2767 182.646 32.8007 182.319 32.194C182.002 31.578 181.843 30.8827 181.843 30.108ZM188.157 30.136C188.157 29.604 188.045 29.142 187.821 28.75C187.607 28.358 187.322 28.0593 186.967 27.854C186.613 27.6487 186.23 27.546 185.819 27.546C185.409 27.546 185.026 27.6487 184.671 27.854C184.317 28.05 184.027 28.344 183.803 28.736C183.589 29.1187 183.481 29.576 183.481 30.108C183.481 30.64 183.589 31.1067 183.803 31.508C184.027 31.9093 184.317 32.2173 184.671 32.432C185.035 32.6373 185.418 32.74 185.819 32.74C186.23 32.74 186.613 32.6373 186.967 32.432C187.322 32.2267 187.607 31.928 187.821 31.536C188.045 31.1347 188.157 30.668 188.157 30.136ZM198.849 26.286V34H197.253V33.09C197.001 33.4073 196.67 33.6593 196.259 33.846C195.858 34.0233 195.429 34.112 194.971 34.112C194.365 34.112 193.819 33.986 193.333 33.734C192.857 33.482 192.479 33.1087 192.199 32.614C191.929 32.1193 191.793 31.522 191.793 30.822V26.286H193.375V30.584C193.375 31.2747 193.548 31.8067 193.893 32.18C194.239 32.544 194.71 32.726 195.307 32.726C195.905 32.726 196.376 32.544 196.721 32.18C197.076 31.8067 197.253 31.2747 197.253 30.584V26.286H198.849ZM208.025 29.954C208.025 30.2433 208.007 30.5047 207.969 30.738H202.075C202.122 31.354 202.351 31.8487 202.761 32.222C203.172 32.5953 203.676 32.782 204.273 32.782C205.132 32.782 205.739 32.4227 206.093 31.704H207.815C207.582 32.4133 207.157 32.9967 206.541 33.454C205.935 33.902 205.179 34.126 204.273 34.126C203.536 34.126 202.873 33.9627 202.285 33.636C201.707 33.3 201.249 32.8333 200.913 32.236C200.587 31.6293 200.423 30.9293 200.423 30.136C200.423 29.3427 200.582 28.6473 200.899 28.05C201.226 27.4433 201.679 26.9767 202.257 26.65C202.845 26.3233 203.517 26.16 204.273 26.16C205.001 26.16 205.65 26.3187 206.219 26.636C206.789 26.9533 207.232 27.4013 207.549 27.98C207.867 28.5493 208.025 29.2073 208.025 29.954ZM206.359 29.45C206.35 28.862 206.14 28.3907 205.729 28.036C205.319 27.6813 204.81 27.504 204.203 27.504C203.653 27.504 203.181 27.6813 202.789 28.036C202.397 28.3813 202.164 28.8527 202.089 29.45H206.359ZM212.396 34.126C211.789 34.126 211.243 34.0187 210.758 33.804C210.282 33.58 209.904 33.2813 209.624 32.908C209.344 32.5253 209.195 32.1007 209.176 31.634H210.828C210.856 31.9607 211.01 32.236 211.29 32.46C211.579 32.6747 211.939 32.782 212.368 32.782C212.816 32.782 213.161 32.698 213.404 32.53C213.656 32.3527 213.782 32.1287 213.782 31.858C213.782 31.5687 213.642 31.354 213.362 31.214C213.091 31.074 212.657 30.92 212.06 30.752C211.481 30.5933 211.01 30.4393 210.646 30.29C210.282 30.1407 209.965 29.912 209.694 29.604C209.433 29.296 209.302 28.89 209.302 28.386C209.302 27.9753 209.423 27.602 209.666 27.266C209.909 26.9207 210.254 26.65 210.702 26.454C211.159 26.258 211.682 26.16 212.27 26.16C213.147 26.16 213.852 26.384 214.384 26.832C214.925 27.2707 215.215 27.8727 215.252 28.638H213.656C213.628 28.2927 213.488 28.0173 213.236 27.812C212.984 27.6067 212.643 27.504 212.214 27.504C211.794 27.504 211.472 27.5833 211.248 27.742C211.024 27.9007 210.912 28.1107 210.912 28.372C210.912 28.5773 210.987 28.75 211.136 28.89C211.285 29.03 211.467 29.142 211.682 29.226C211.897 29.3007 212.214 29.3987 212.634 29.52C213.194 29.6693 213.651 29.8233 214.006 29.982C214.37 30.1313 214.683 30.3553 214.944 30.654C215.205 30.9527 215.341 31.3493 215.35 31.844C215.35 32.2827 215.229 32.6747 214.986 33.02C214.743 33.3653 214.398 33.636 213.95 33.832C213.511 34.028 212.993 34.126 212.396 34.126ZM218.936 27.588V31.858C218.936 32.1473 219.002 32.3573 219.132 32.488C219.272 32.6093 219.506 32.67 219.832 32.67H220.812V34H219.552C218.834 34 218.283 33.832 217.9 33.496C217.518 33.16 217.326 32.614 217.326 31.858V27.588H216.416V26.286H217.326V24.368H218.936V26.286H220.812V27.588H218.936ZM225.083 34.126C224.477 34.126 223.931 34.0187 223.445 33.804C222.969 33.58 222.591 33.2813 222.311 32.908C222.031 32.5253 221.882 32.1007 221.863 31.634H223.515C223.543 31.9607 223.697 32.236 223.977 32.46C224.267 32.6747 224.626 32.782 225.055 32.782C225.503 32.782 225.849 32.698 226.091 32.53C226.343 32.3527 226.469 32.1287 226.469 31.858C226.469 31.5687 226.329 31.354 226.049 31.214C225.779 31.074 225.345 30.92 224.747 30.752C224.169 30.5933 223.697 30.4393 223.333 30.29C222.969 30.1407 222.652 29.912 222.381 29.604C222.12 29.296 221.989 28.89 221.989 28.386C221.989 27.9753 222.111 27.602 222.353 27.266C222.596 26.9207 222.941 26.65 223.389 26.454C223.847 26.258 224.369 26.16 224.957 26.16C225.835 26.16 226.539 26.384 227.071 26.832C227.613 27.2707 227.902 27.8727 227.939 28.638H226.343C226.315 28.2927 226.175 28.0173 225.923 27.812C225.671 27.6067 225.331 27.504 224.901 27.504C224.481 27.504 224.159 27.5833 223.935 27.742C223.711 27.9007 223.599 28.1107 223.599 28.372C223.599 28.5773 223.674 28.75 223.823 28.89C223.973 29.03 224.155 29.142 224.369 29.226C224.584 29.3007 224.901 29.3987 225.321 29.52C225.881 29.6693 226.339 29.8233 226.693 29.982C227.057 30.1313 227.37 30.3553 227.631 30.654C227.893 30.9527 228.028 31.3493 228.037 31.844C228.037 32.2827 227.916 32.6747 227.673 33.02C227.431 33.3653 227.085 33.636 226.637 33.832C226.199 34.028 225.681 34.126 225.083 34.126ZM230.406 34.098C230.117 34.098 229.874 34 229.678 33.804C229.482 33.608 229.384 33.3653 229.384 33.076C229.384 32.7867 229.482 32.544 229.678 32.348C229.874 32.152 230.117 32.054 230.406 32.054C230.686 32.054 230.924 32.152 231.12 32.348C231.316 32.544 231.414 32.7867 231.414 33.076C231.414 33.3653 231.316 33.608 231.12 33.804C230.924 34 230.686 34.098 230.406 34.098ZM244.546 24.27V34H242.95V29.744H238.372V34H236.776V24.27H238.372V28.442H242.95V24.27H244.546ZM249.993 34.126C249.265 34.126 248.607 33.9627 248.019 33.636C247.431 33.3 246.969 32.8333 246.633 32.236C246.297 31.6293 246.129 30.9293 246.129 30.136C246.129 29.352 246.301 28.6567 246.647 28.05C246.992 27.4433 247.463 26.9767 248.061 26.65C248.658 26.3233 249.325 26.16 250.063 26.16C250.8 26.16 251.467 26.3233 252.065 26.65C252.662 26.9767 253.133 27.4433 253.479 28.05C253.824 28.6567 253.997 29.352 253.997 30.136C253.997 30.92 253.819 31.6153 253.465 32.222C253.11 32.8287 252.625 33.3 252.009 33.636C251.402 33.9627 250.73 34.126 249.993 34.126ZM249.993 32.74C250.403 32.74 250.786 32.642 251.141 32.446C251.505 32.25 251.799 31.956 252.023 31.564C252.247 31.172 252.359 30.696 252.359 30.136C252.359 29.576 252.251 29.1047 252.037 28.722C251.822 28.33 251.537 28.036 251.183 27.84C250.828 27.644 250.445 27.546 250.035 27.546C249.624 27.546 249.241 27.644 248.887 27.84C248.541 28.036 248.266 28.33 248.061 28.722C247.855 29.1047 247.753 29.576 247.753 30.136C247.753 30.9667 247.963 31.6107 248.383 32.068C248.812 32.516 249.349 32.74 249.993 32.74ZM258.92 34.126C258.192 34.126 257.534 33.9627 256.946 33.636C256.358 33.3 255.896 32.8333 255.56 32.236C255.224 31.6293 255.056 30.9293 255.056 30.136C255.056 29.352 255.229 28.6567 255.574 28.05C255.92 27.4433 256.391 26.9767 256.988 26.65C257.586 26.3233 258.253 26.16 258.99 26.16C259.728 26.16 260.395 26.3233 260.992 26.65C261.59 26.9767 262.061 27.4433 262.406 28.05C262.752 28.6567 262.924 29.352 262.924 30.136C262.924 30.92 262.747 31.6153 262.392 32.222C262.038 32.8287 261.552 33.3 260.936 33.636C260.33 33.9627 259.658 34.126 258.92 34.126ZM258.92 32.74C259.331 32.74 259.714 32.642 260.068 32.446C260.432 32.25 260.726 31.956 260.95 31.564C261.174 31.172 261.286 30.696 261.286 30.136C261.286 29.576 261.179 29.1047 260.964 28.722C260.75 28.33 260.465 28.036 260.11 27.84C259.756 27.644 259.373 27.546 258.962 27.546C258.552 27.546 258.169 27.644 257.814 27.84C257.469 28.036 257.194 28.33 256.988 28.722C256.783 29.1047 256.68 29.576 256.68 30.136C256.68 30.9667 256.89 31.6107 257.31 32.068C257.74 32.516 258.276 32.74 258.92 32.74ZM266.098 27.406C266.331 27.014 266.639 26.7107 267.022 26.496C267.414 26.272 267.876 26.16 268.408 26.16V27.812H268.002C267.377 27.812 266.901 27.9707 266.574 28.288C266.257 28.6053 266.098 29.156 266.098 29.94V34H264.502V26.286H266.098V27.406ZM269.343 30.108C269.343 29.3333 269.502 28.6473 269.819 28.05C270.146 27.4527 270.585 26.9907 271.135 26.664C271.695 26.328 272.311 26.16 272.983 26.16C273.59 26.16 274.117 26.2813 274.565 26.524C275.023 26.7573 275.387 27.0513 275.657 27.406V26.286H277.267V34H275.657V32.852C275.387 33.216 275.018 33.5193 274.551 33.762C274.085 34.0047 273.553 34.126 272.955 34.126C272.293 34.126 271.686 33.958 271.135 33.622C270.585 33.2767 270.146 32.8007 269.819 32.194C269.502 31.578 269.343 30.8827 269.343 30.108ZM275.657 30.136C275.657 29.604 275.545 29.142 275.321 28.75C275.107 28.358 274.822 28.0593 274.467 27.854C274.113 27.6487 273.73 27.546 273.319 27.546C272.909 27.546 272.526 27.6487 272.171 27.854C271.817 28.05 271.527 28.344 271.303 28.736C271.089 29.1187 270.981 29.576 270.981 30.108C270.981 30.64 271.089 31.1067 271.303 31.508C271.527 31.9093 271.817 32.2173 272.171 32.432C272.535 32.6373 272.918 32.74 273.319 32.74C273.73 32.74 274.113 32.6373 274.467 32.432C274.822 32.2267 275.107 31.928 275.321 31.536C275.545 31.1347 275.657 30.668 275.657 30.136ZM286.307 26.286L281.575 37.626H279.923L281.491 33.874L278.453 26.286H280.231L282.401 32.166L284.655 26.286H286.307ZM289.514 24.27L289.332 31.06H288.002L287.82 24.27H289.514ZM288.716 34.098C288.427 34.098 288.184 34 287.988 33.804C287.792 33.608 287.694 33.3653 287.694 33.076C287.694 32.7867 287.792 32.544 287.988 32.348C288.184 32.152 288.427 32.054 288.716 32.054C288.996 32.054 289.234 32.152 289.43 32.348C289.626 32.544 289.724 32.7867 289.724 33.076C289.724 33.3653 289.626 33.608 289.43 33.804C289.234 34 288.996 34.098 288.716 34.098Z" fill="#0B35CA"/>
<path d="M44.2098 14.0014C35.7742 13.8875 28.8875 20.7738 29.0014 29.2091C29.1139 37.299 35.7013 43.8861 43.7916 43.9986C52.2287 44.1139 59.1139 37.2276 58.9986 28.7923C58.8875 20.701 52.3001 14.1139 44.2098 14.0014ZM42.9991 27.8801L46.7164 23.6257C46.9178 23.3953 47.2025 23.2543 47.5079 23.2337C47.8132 23.2132 48.1143 23.3147 48.3447 23.5161C48.5752 23.7175 48.7162 24.0022 48.7368 24.3075C48.7573 24.6129 48.6557 24.9139 48.4543 25.1443L44.737 29.3987C44.6372 29.5128 44.516 29.6062 44.3802 29.6735C44.2444 29.7407 44.0967 29.7806 43.9455 29.7908C43.7943 29.8009 43.6426 29.7812 43.499 29.7328C43.3554 29.6843 43.2228 29.6081 43.1087 29.5083C42.9946 29.4086 42.9012 29.2874 42.8339 29.1516C42.7667 29.0158 42.7268 28.8681 42.7166 28.7169C42.7065 28.5657 42.7262 28.414 42.7746 28.2705C42.8231 28.1269 42.8993 27.9942 42.9991 27.8801V27.8801ZM40.1968 34.4312C39.9804 34.6474 39.6871 34.7689 39.3812 34.7689C39.0753 34.7689 38.782 34.6474 38.5656 34.4312L35.1078 30.97C35.0007 30.8628 34.9158 30.7356 34.8579 30.5955C34.7999 30.4555 34.7702 30.3055 34.7702 30.1539C34.7703 30.0024 34.8002 29.8524 34.8583 29.7124C34.9163 29.5724 35.0014 29.4453 35.1086 29.3382C35.2158 29.2311 35.343 29.1461 35.483 29.0882C35.6231 29.0303 35.7731 29.0005 35.9247 29.0006C36.0762 29.0006 36.2262 29.0306 36.3662 29.0886C36.5062 29.1466 36.6334 29.2317 36.7405 29.3389L40.2018 32.8001C40.4174 33.0171 40.5379 33.3108 40.537 33.6167C40.536 33.9226 40.4137 34.2155 40.1968 34.4312ZM52.9462 25.1443L44.8783 34.3742C44.7744 34.4933 44.647 34.5898 44.5043 34.6576C44.3615 34.7255 44.2063 34.7633 44.0483 34.7687H44.0094C43.8577 34.7687 43.7076 34.7388 43.5675 34.6808C43.4275 34.6228 43.3002 34.5377 43.193 34.4305L39.736 30.9693C39.5197 30.7528 39.3982 30.4592 39.3984 30.1532C39.3985 29.8472 39.5202 29.5537 39.7367 29.3374C39.9532 29.1212 40.2468 28.9997 40.5528 28.9999C40.8589 29 41.1523 29.1217 41.3686 29.3382L43.5176 31.4892C43.5734 31.545 43.6402 31.5889 43.7137 31.6179C43.7871 31.6469 43.8658 31.6605 43.9448 31.6579C44.0238 31.6552 44.1013 31.6364 44.1727 31.6025C44.2441 31.5687 44.3078 31.5205 44.3598 31.461L51.2105 23.6257C51.4119 23.3953 51.6965 23.2543 52.0019 23.2337C52.3073 23.2132 52.6083 23.3147 52.8388 23.5161C53.0692 23.7175 53.2102 24.0022 53.2308 24.3075C53.2513 24.6129 53.1498 24.9139 52.9484 25.1443H52.9462Z" fill="#0B35CA"/>
</svg>
