<svg width="346" height="75" viewBox="0 0 346 75" fill="none" xmlns="http://www.w3.org/2000/svg">
<rect x="0.5" y="0.5" width="345" height="58" rx="5.5" fill="#0B35CA" fill-opacity="0.12" stroke="#0B35CA"/>
<path d="M104.345 34H102.749L97.9468 26.734V34H96.3508V24.256H97.9468L102.749 31.508V24.256H104.345V34ZM109.787 34.126C109.059 34.126 108.401 33.9627 107.813 33.636C107.225 33.3 106.763 32.8333 106.427 32.236C106.091 31.6293 105.923 30.9293 105.923 30.136C105.923 29.352 106.095 28.6567 106.441 28.05C106.786 27.4433 107.257 26.9767 107.855 26.65C108.452 26.3233 109.119 26.16 109.857 26.16C110.594 26.16 111.261 26.3233 111.859 26.65C112.456 26.9767 112.927 27.4433 113.273 28.05C113.618 28.6567 113.791 29.352 113.791 30.136C113.791 30.92 113.613 31.6153 113.259 32.222C112.904 32.8287 112.419 33.3 111.803 33.636C111.196 33.9627 110.524 34.126 109.787 34.126ZM109.787 32.74C110.197 32.74 110.58 32.642 110.935 32.446C111.299 32.25 111.593 31.956 111.817 31.564C112.041 31.172 112.153 30.696 112.153 30.136C112.153 29.576 112.045 29.1047 111.831 28.722C111.616 28.33 111.331 28.036 110.977 27.84C110.622 27.644 110.239 27.546 109.829 27.546C109.418 27.546 109.035 27.644 108.681 27.84C108.335 28.036 108.06 28.33 107.855 28.722C107.649 29.1047 107.547 29.576 107.547 30.136C107.547 30.9667 107.757 31.6107 108.177 32.068C108.606 32.516 109.143 32.74 109.787 32.74ZM124.059 34L121.819 30.108H120.601V34H119.005V24.27H122.365C123.112 24.27 123.742 24.4007 124.255 24.662C124.778 24.9233 125.165 25.2733 125.417 25.712C125.678 26.1507 125.809 26.6407 125.809 27.182C125.809 27.8167 125.622 28.3953 125.249 28.918C124.885 29.4313 124.32 29.7813 123.555 29.968L125.963 34H124.059ZM120.601 28.834H122.365C122.962 28.834 123.41 28.6847 123.709 28.386C124.017 28.0873 124.171 27.686 124.171 27.182C124.171 26.678 124.022 26.286 123.723 26.006C123.424 25.7167 122.972 25.572 122.365 25.572H120.601V28.834ZM134.921 29.954C134.921 30.2433 134.902 30.5047 134.865 30.738H128.971C129.017 31.354 129.246 31.8487 129.657 32.222C130.067 32.5953 130.571 32.782 131.169 32.782C132.027 32.782 132.634 32.4227 132.989 31.704H134.711C134.477 32.4133 134.053 32.9967 133.437 33.454C132.83 33.902 132.074 34.126 131.169 34.126C130.431 34.126 129.769 33.9627 129.181 33.636C128.602 33.3 128.145 32.8333 127.809 32.236C127.482 31.6293 127.319 30.9293 127.319 30.136C127.319 29.3427 127.477 28.6473 127.795 28.05C128.121 27.4433 128.574 26.9767 129.153 26.65C129.741 26.3233 130.413 26.16 131.169 26.16C131.897 26.16 132.545 26.3187 133.115 26.636C133.684 26.9533 134.127 27.4013 134.445 27.98C134.762 28.5493 134.921 29.2073 134.921 29.954ZM133.255 29.45C133.245 28.862 133.035 28.3907 132.625 28.036C132.214 27.6813 131.705 27.504 131.099 27.504C130.548 27.504 130.077 27.6813 129.685 28.036C129.293 28.3813 129.059 28.8527 128.985 29.45H133.255ZM135.959 30.136C135.959 29.3427 136.118 28.6473 136.435 28.05C136.762 27.4433 137.21 26.9767 137.779 26.65C138.349 26.3233 139.002 26.16 139.739 26.16C140.673 26.16 141.443 26.384 142.049 26.832C142.665 27.2707 143.081 27.9007 143.295 28.722H141.573C141.433 28.3393 141.209 28.0407 140.901 27.826C140.593 27.6113 140.206 27.504 139.739 27.504C139.086 27.504 138.563 27.7373 138.171 28.204C137.789 28.6613 137.597 29.3053 137.597 30.136C137.597 30.9667 137.789 31.6153 138.171 32.082C138.563 32.5487 139.086 32.782 139.739 32.782C140.663 32.782 141.275 32.376 141.573 31.564H143.295C143.071 32.348 142.651 32.9733 142.035 33.44C141.419 33.8973 140.654 34.126 139.739 34.126C139.002 34.126 138.349 33.9627 137.779 33.636C137.21 33.3 136.762 32.8333 136.435 32.236C136.118 31.6293 135.959 30.9293 135.959 30.136ZM151.956 29.954C151.956 30.2433 151.937 30.5047 151.9 30.738H146.006C146.053 31.354 146.281 31.8487 146.692 32.222C147.103 32.5953 147.607 32.782 148.204 32.782C149.063 32.782 149.669 32.4227 150.024 31.704H151.746C151.513 32.4133 151.088 32.9967 150.472 33.454C149.865 33.902 149.109 34.126 148.204 34.126C147.467 34.126 146.804 33.9627 146.216 33.636C145.637 33.3 145.18 32.8333 144.844 32.236C144.517 31.6293 144.354 30.9293 144.354 30.136C144.354 29.3427 144.513 28.6473 144.83 28.05C145.157 27.4433 145.609 26.9767 146.188 26.65C146.776 26.3233 147.448 26.16 148.204 26.16C148.932 26.16 149.581 26.3187 150.15 26.636C150.719 26.9533 151.163 27.4013 151.48 27.98C151.797 28.5493 151.956 29.2073 151.956 29.954ZM150.29 29.45C150.281 28.862 150.071 28.3907 149.66 28.036C149.249 27.6813 148.741 27.504 148.134 27.504C147.583 27.504 147.112 27.6813 146.72 28.036C146.328 28.3813 146.095 28.8527 146.02 29.45H150.29ZM157.419 26.16C158.025 26.16 158.567 26.286 159.043 26.538C159.528 26.79 159.906 27.1633 160.177 27.658C160.447 28.1527 160.583 28.75 160.583 29.45V34H159.001V29.688C159.001 28.9973 158.828 28.47 158.483 28.106C158.137 27.7327 157.666 27.546 157.069 27.546C156.471 27.546 155.995 27.7327 155.641 28.106C155.295 28.47 155.123 28.9973 155.123 29.688V34H153.527V26.286H155.123V27.168C155.384 26.8507 155.715 26.6033 156.117 26.426C156.527 26.2487 156.961 26.16 157.419 26.16ZM164.48 27.588V31.858C164.48 32.1473 164.546 32.3573 164.676 32.488C164.816 32.6093 165.05 32.67 165.376 32.67H166.356V34H165.096C164.378 34 163.827 33.832 163.444 33.496C163.062 33.16 162.87 32.614 162.87 31.858V27.588H161.96V26.286H162.87V24.368H164.48V26.286H166.356V27.588H164.48ZM173.06 27.406C173.293 27.014 173.601 26.7107 173.984 26.496C174.376 26.272 174.838 26.16 175.37 26.16V27.812H174.964C174.339 27.812 173.863 27.9707 173.536 28.288C173.219 28.6053 173.06 29.156 173.06 29.94V34H171.464V26.286H173.06V27.406ZM183.907 29.954C183.907 30.2433 183.888 30.5047 183.851 30.738H177.957C178.004 31.354 178.232 31.8487 178.643 32.222C179.054 32.5953 179.558 32.782 180.155 32.782C181.014 32.782 181.62 32.4227 181.975 31.704H183.697C183.464 32.4133 183.039 32.9967 182.423 33.454C181.816 33.902 181.06 34.126 180.155 34.126C179.418 34.126 178.755 33.9627 178.167 33.636C177.588 33.3 177.131 32.8333 176.795 32.236C176.468 31.6293 176.305 30.9293 176.305 30.136C176.305 29.3427 176.464 28.6473 176.781 28.05C177.108 27.4433 177.56 26.9767 178.139 26.65C178.727 26.3233 179.399 26.16 180.155 26.16C180.883 26.16 181.532 26.3187 182.101 26.636C182.67 26.9533 183.114 27.4013 183.431 27.98C183.748 28.5493 183.907 29.2073 183.907 29.954ZM182.241 29.45C182.232 28.862 182.022 28.3907 181.611 28.036C181.2 27.6813 180.692 27.504 180.085 27.504C179.534 27.504 179.063 27.6813 178.671 28.036C178.279 28.3813 178.046 28.8527 177.971 29.45H182.241ZM184.946 30.108C184.946 29.3333 185.104 28.6473 185.422 28.05C185.748 27.4527 186.187 26.9907 186.738 26.664C187.298 26.328 187.918 26.16 188.6 26.16C189.197 26.16 189.724 26.2813 190.182 26.524C190.648 26.7667 191.008 27.0607 191.26 27.406V26.286H192.87V37.668H191.26V32.88C191.008 33.2253 190.644 33.5193 190.168 33.762C189.692 34.0047 189.15 34.126 188.544 34.126C187.881 34.126 187.274 33.958 186.724 33.622C186.182 33.2767 185.748 32.8007 185.422 32.194C185.104 31.578 184.946 30.8827 184.946 30.108ZM191.26 30.136C191.26 29.604 191.148 29.142 190.924 28.75C190.709 28.358 190.424 28.0593 190.07 27.854C189.715 27.6487 189.332 27.546 188.922 27.546C188.511 27.546 188.128 27.6487 187.774 27.854C187.419 28.05 187.13 28.344 186.906 28.736C186.691 29.1187 186.584 29.576 186.584 30.108C186.584 30.64 186.691 31.1067 186.906 31.508C187.13 31.9093 187.419 32.2173 187.774 32.432C188.138 32.6373 188.52 32.74 188.922 32.74C189.332 32.74 189.715 32.6373 190.07 32.432C190.424 32.2267 190.709 31.928 190.924 31.536C191.148 31.1347 191.26 30.668 191.26 30.136ZM201.952 26.286V34H200.356V33.09C200.104 33.4073 199.773 33.6593 199.362 33.846C198.961 34.0233 198.531 34.112 198.074 34.112C197.467 34.112 196.921 33.986 196.436 33.734C195.96 33.482 195.582 33.1087 195.302 32.614C195.031 32.1193 194.896 31.522 194.896 30.822V26.286H196.478V30.584C196.478 31.2747 196.651 31.8067 196.996 32.18C197.341 32.544 197.813 32.726 198.41 32.726C199.007 32.726 199.479 32.544 199.824 32.18C200.179 31.8067 200.356 31.2747 200.356 30.584V26.286H201.952ZM211.128 29.954C211.128 30.2433 211.109 30.5047 211.072 30.738H205.178C205.224 31.354 205.453 31.8487 205.864 32.222C206.274 32.5953 206.778 32.782 207.376 32.782C208.234 32.782 208.841 32.4227 209.196 31.704H210.918C210.684 32.4133 210.26 32.9967 209.644 33.454C209.037 33.902 208.281 34.126 207.376 34.126C206.638 34.126 205.976 33.9627 205.388 33.636C204.809 33.3 204.352 32.8333 204.016 32.236C203.689 31.6293 203.526 30.9293 203.526 30.136C203.526 29.3427 203.684 28.6473 204.002 28.05C204.328 27.4433 204.781 26.9767 205.36 26.65C205.948 26.3233 206.62 26.16 207.376 26.16C208.104 26.16 208.752 26.3187 209.322 26.636C209.891 26.9533 210.334 27.4013 210.652 27.98C210.969 28.5493 211.128 29.2073 211.128 29.954ZM209.462 29.45C209.452 28.862 209.242 28.3907 208.832 28.036C208.421 27.6813 207.912 27.504 207.306 27.504C206.755 27.504 206.284 27.6813 205.892 28.036C205.5 28.3813 205.266 28.8527 205.192 29.45H209.462ZM215.498 34.126C214.892 34.126 214.346 34.0187 213.86 33.804C213.384 33.58 213.006 33.2813 212.726 32.908C212.446 32.5253 212.297 32.1007 212.278 31.634H213.93C213.958 31.9607 214.112 32.236 214.392 32.46C214.682 32.6747 215.041 32.782 215.47 32.782C215.918 32.782 216.264 32.698 216.506 32.53C216.758 32.3527 216.884 32.1287 216.884 31.858C216.884 31.5687 216.744 31.354 216.464 31.214C216.194 31.074 215.76 30.92 215.162 30.752C214.584 30.5933 214.112 30.4393 213.748 30.29C213.384 30.1407 213.067 29.912 212.796 29.604C212.535 29.296 212.404 28.89 212.404 28.386C212.404 27.9753 212.526 27.602 212.768 27.266C213.011 26.9207 213.356 26.65 213.804 26.454C214.262 26.258 214.784 26.16 215.372 26.16C216.25 26.16 216.954 26.384 217.486 26.832C218.028 27.2707 218.317 27.8727 218.354 28.638H216.758C216.73 28.2927 216.59 28.0173 216.338 27.812C216.086 27.6067 215.746 27.504 215.316 27.504C214.896 27.504 214.574 27.5833 214.35 27.742C214.126 27.9007 214.014 28.1107 214.014 28.372C214.014 28.5773 214.089 28.75 214.238 28.89C214.388 29.03 214.57 29.142 214.784 29.226C214.999 29.3007 215.316 29.3987 215.736 29.52C216.296 29.6693 216.754 29.8233 217.108 29.982C217.472 30.1313 217.785 30.3553 218.046 30.654C218.308 30.9527 218.443 31.3493 218.452 31.844C218.452 32.2827 218.331 32.6747 218.088 33.02C217.846 33.3653 217.5 33.636 217.052 33.832C216.614 34.028 216.096 34.126 215.498 34.126ZM222.039 27.588V31.858C222.039 32.1473 222.104 32.3573 222.235 32.488C222.375 32.6093 222.608 32.67 222.935 32.67H223.915V34H222.655C221.936 34 221.386 33.832 221.003 33.496C220.62 33.16 220.429 32.614 220.429 31.858V27.588H219.519V26.286H220.429V24.368H222.039V26.286H223.915V27.588H222.039ZM228.186 34.126C227.579 34.126 227.033 34.0187 226.548 33.804C226.072 33.58 225.694 33.2813 225.414 32.908C225.134 32.5253 224.985 32.1007 224.966 31.634H226.618C226.646 31.9607 226.8 32.236 227.08 32.46C227.369 32.6747 227.729 32.782 228.158 32.782C228.606 32.782 228.951 32.698 229.194 32.53C229.446 32.3527 229.572 32.1287 229.572 31.858C229.572 31.5687 229.432 31.354 229.152 31.214C228.881 31.074 228.447 30.92 227.85 30.752C227.271 30.5933 226.8 30.4393 226.436 30.29C226.072 30.1407 225.755 29.912 225.484 29.604C225.223 29.296 225.092 28.89 225.092 28.386C225.092 27.9753 225.213 27.602 225.456 27.266C225.699 26.9207 226.044 26.65 226.492 26.454C226.949 26.258 227.472 26.16 228.06 26.16C228.937 26.16 229.642 26.384 230.174 26.832C230.715 27.2707 231.005 27.8727 231.042 28.638H229.446C229.418 28.2927 229.278 28.0173 229.026 27.812C228.774 27.6067 228.433 27.504 228.004 27.504C227.584 27.504 227.262 27.5833 227.038 27.742C226.814 27.9007 226.702 28.1107 226.702 28.372C226.702 28.5773 226.777 28.75 226.926 28.89C227.075 29.03 227.257 29.142 227.472 29.226C227.687 29.3007 228.004 29.3987 228.424 29.52C228.984 29.6693 229.441 29.8233 229.796 29.982C230.16 30.1313 230.473 30.3553 230.734 30.654C230.995 30.9527 231.131 31.3493 231.14 31.844C231.14 32.2827 231.019 32.6747 230.776 33.02C230.533 33.3653 230.188 33.636 229.74 33.832C229.301 34.028 228.783 34.126 228.186 34.126ZM239.735 27.588H238.307V34H236.697V27.588H235.787V26.286H236.697V25.74C236.697 24.8533 236.931 24.2093 237.397 23.808C237.873 23.3973 238.615 23.192 239.623 23.192V24.522C239.138 24.522 238.797 24.6153 238.601 24.802C238.405 24.9793 238.307 25.292 238.307 25.74V26.286H239.735V27.588ZM244.496 34.126C243.768 34.126 243.11 33.9627 242.522 33.636C241.934 33.3 241.472 32.8333 241.136 32.236C240.8 31.6293 240.632 30.9293 240.632 30.136C240.632 29.352 240.804 28.6567 241.15 28.05C241.495 27.4433 241.966 26.9767 242.564 26.65C243.161 26.3233 243.828 26.16 244.566 26.16C245.303 26.16 245.97 26.3233 246.568 26.65C247.165 26.9767 247.636 27.4433 247.982 28.05C248.327 28.6567 248.5 29.352 248.5 30.136C248.5 30.92 248.322 31.6153 247.968 32.222C247.613 32.8287 247.128 33.3 246.512 33.636C245.905 33.9627 245.233 34.126 244.496 34.126ZM244.496 32.74C244.906 32.74 245.289 32.642 245.644 32.446C246.008 32.25 246.302 31.956 246.526 31.564C246.75 31.172 246.862 30.696 246.862 30.136C246.862 29.576 246.754 29.1047 246.54 28.722C246.325 28.33 246.04 28.036 245.686 27.84C245.331 27.644 244.948 27.546 244.538 27.546C244.127 27.546 243.744 27.644 243.39 27.84C243.044 28.036 242.769 28.33 242.564 28.722C242.358 29.1047 242.256 29.576 242.256 30.136C242.256 30.9667 242.466 31.6107 242.886 32.068C243.315 32.516 243.852 32.74 244.496 32.74ZM257.063 26.286V34H255.467V33.09C255.215 33.4073 254.884 33.6593 254.473 33.846C254.072 34.0233 253.643 34.112 253.185 34.112C252.579 34.112 252.033 33.986 251.547 33.734C251.071 33.482 250.693 33.1087 250.413 32.614C250.143 32.1193 250.007 31.522 250.007 30.822V26.286H251.589V30.584C251.589 31.2747 251.762 31.8067 252.107 32.18C252.453 32.544 252.924 32.726 253.521 32.726C254.119 32.726 254.59 32.544 254.935 32.18C255.29 31.8067 255.467 31.2747 255.467 30.584V26.286H257.063ZM263.061 26.16C263.668 26.16 264.209 26.286 264.685 26.538C265.17 26.79 265.548 27.1633 265.819 27.658C266.09 28.1527 266.225 28.75 266.225 29.45V34H264.643V29.688C264.643 28.9973 264.47 28.47 264.125 28.106C263.78 27.7327 263.308 27.546 262.711 27.546C262.114 27.546 261.638 27.7327 261.283 28.106C260.938 28.47 260.765 28.9973 260.765 29.688V34H259.169V26.286H260.765V27.168C261.026 26.8507 261.358 26.6033 261.759 26.426C262.17 26.2487 262.604 26.16 263.061 26.16ZM267.729 30.108C267.729 29.3333 267.888 28.6473 268.205 28.05C268.532 27.4527 268.97 26.9907 269.521 26.664C270.081 26.328 270.702 26.16 271.383 26.16C271.887 26.16 272.382 26.272 272.867 26.496C273.362 26.7107 273.754 27 274.043 27.364V23.64H275.653V34H274.043V32.838C273.782 33.2113 273.418 33.5193 272.951 33.762C272.494 34.0047 271.966 34.126 271.369 34.126C270.697 34.126 270.081 33.958 269.521 33.622C268.97 33.2767 268.532 32.8007 268.205 32.194C267.888 31.578 267.729 30.8827 267.729 30.108ZM274.043 30.136C274.043 29.604 273.931 29.142 273.707 28.75C273.492 28.358 273.208 28.0593 272.853 27.854C272.498 27.6487 272.116 27.546 271.705 27.546C271.294 27.546 270.912 27.6487 270.557 27.854C270.202 28.05 269.913 28.344 269.689 28.736C269.474 29.1187 269.367 29.576 269.367 30.108C269.367 30.64 269.474 31.1067 269.689 31.508C269.913 31.9093 270.202 32.2173 270.557 32.432C270.921 32.6373 271.304 32.74 271.705 32.74C272.116 32.74 272.498 32.6373 272.853 32.432C273.208 32.2267 273.492 31.928 273.707 31.536C273.931 31.1347 274.043 30.668 274.043 30.136Z" fill="#0B35CA"/>
<path d="M44 14C35.7161 14 29 20.7161 29 29C29 37.2839 35.7161 44 44 44C52.2839 44 59 37.2839 59 29C59 20.7161 52.2839 14 44 14ZM50.9231 31.3077H44C43.694 31.3077 43.4005 31.1861 43.1841 30.9697C42.9677 30.7534 42.8462 30.4599 42.8462 30.1538V19.7692C42.8462 19.4632 42.9677 19.1697 43.1841 18.9533C43.4005 18.737 43.694 18.6154 44 18.6154C44.306 18.6154 44.5995 18.737 44.8159 18.9533C45.0323 19.1697 45.1538 19.4632 45.1538 19.7692V29H50.9231C51.2291 29 51.5226 29.1216 51.739 29.338C51.9554 29.5543 52.0769 29.8478 52.0769 30.1538C52.0769 30.4599 51.9554 30.7534 51.739 30.9697C51.5226 31.1861 51.2291 31.3077 50.9231 31.3077Z" fill="#0B35CA"/>
</svg>
