<svg width="87" height="85" viewBox="0 0 87 85" fill="none" xmlns="http://www.w3.org/2000/svg">
<path d="M68.8517 46.9146C65.1125 51.3328 60.8822 55.8733 56.3165 60.334C51.7508 64.7947 47.104 68.9296 42.5827 72.5815C42.8877 72.5921 43.1922 72.6041 43.4998 72.6041C50.2274 72.5967 56.6772 69.9824 61.4343 65.3346C66.1914 60.6869 68.8673 54.3853 68.8748 47.8124C68.8748 47.5114 68.8626 47.213 68.8517 46.9146Z" fill="white"/>
<path d="M79.3876 12.7522C75.8723 9.31631 69.4343 10.5346 59.7057 16.4758C56.1232 18.6948 52.6678 21.1038 49.3549 23.6919C45.1422 22.7123 40.7429 22.803 36.5763 23.9554C32.4097 25.1078 28.6145 27.2835 25.5524 30.2752C22.4904 33.2668 20.2635 36.9748 19.084 41.0456C17.9045 45.1165 17.8116 49.4146 18.8143 53.5305C16.1651 56.7671 13.6994 60.143 11.4284 63.6433C5.34698 73.1487 4.09907 79.4387 7.6126 82.875C8.28345 83.5136 9.08087 84.0114 9.95588 84.3379C10.8309 84.6643 11.765 84.8125 12.7007 84.7733C16.3135 84.7733 21.147 82.9055 27.2945 79.1509C35.2664 74.2811 44.6624 66.7108 53.7516 57.8318C62.8408 48.9529 70.5897 39.7716 75.5723 31.983C81.6532 22.4763 82.9011 16.1863 79.3876 12.7522ZM68.3495 29.8668C63.6311 36.8541 56.6276 45.0075 48.6281 52.8208C40.6286 60.6342 32.2857 67.4789 25.134 72.0888C18.0966 76.6248 14.3043 77.6532 12.9101 77.701C12.959 76.3397 14.0116 72.6338 18.6544 65.7581C19.6834 64.2343 20.8293 62.6525 22.06 61.0335C23.396 63.0959 25.0335 64.9562 26.9207 66.5554C33.7123 61.6222 40.1119 56.1939 46.0648 50.3169C52.0799 44.5012 57.636 38.2491 62.6854 31.6142C61.0485 29.7695 59.1439 28.169 57.0322 26.8635C58.6893 25.6589 60.3083 24.5415 61.868 23.5361C68.9055 19.0001 72.6977 17.9717 74.0919 17.9239C74.043 19.2857 72.9904 22.9911 68.3477 29.8668H68.3495Z" fill="white"/>
<path d="M68.875 77.9166C70.877 77.9166 72.5 76.3309 72.5 74.3749C72.5 72.4189 70.877 70.8333 68.875 70.8333C66.873 70.8333 65.25 72.4189 65.25 74.3749C65.25 76.3309 66.873 77.9166 68.875 77.9166Z" fill="white"/>
<path d="M7.24975 49.5833C9.25178 49.5833 10.8747 47.9977 10.8747 46.0417C10.8747 44.0857 9.25178 42.5 7.24975 42.5C5.24772 42.5 3.62476 44.0857 3.62476 46.0417C3.62476 47.9977 5.24772 49.5833 7.24975 49.5833Z" fill="white"/>
<path d="M79.75 46.0418C81.752 46.0418 83.375 44.4561 83.375 42.5001C83.375 40.5441 81.752 38.9584 79.75 38.9584C77.748 38.9584 76.125 40.5441 76.125 42.5001C76.125 44.4561 77.748 46.0418 79.75 46.0418Z" fill="white"/>
</svg>
