<svg width="70" height="70" viewBox="0 0 70 70" fill="none" xmlns="http://www.w3.org/2000/svg">
<circle cx="35" cy="35" r="34.5" fill="#07C8A5" fill-opacity="0.12" stroke="#07C8A5"/>
<path d="M35 20C32.7267 20 30.5465 20.856 28.9391 22.3798C27.3316 23.9035 26.4286 25.9701 26.4286 28.125V31.375C25.5193 31.375 24.6472 31.7174 24.0042 32.3269C23.3612 32.9364 23 33.763 23 34.625V42.75C23 43.612 23.3612 44.4386 24.0042 45.0481C24.6472 45.6576 25.5193 46 26.4286 46H43.5714C44.4807 46 45.3528 45.6576 45.9958 45.0481C46.6388 44.4386 47 43.612 47 42.75V34.625C47 33.763 46.6388 32.9364 45.9958 32.3269C45.3528 31.7174 44.4807 31.375 43.5714 31.375H29.8571V28.125C29.8567 26.9382 30.3131 25.792 31.1406 24.9013C31.9681 24.0106 33.1099 23.4367 34.352 23.2872C35.5941 23.1377 36.851 23.4228 37.8872 24.089C38.9233 24.7553 39.6674 25.757 39.98 26.9062C40.0937 27.3237 40.3776 27.6812 40.7693 27.9001C40.9633 28.0085 41.1779 28.0797 41.4009 28.1095C41.6238 28.1393 41.8508 28.1272 42.0689 28.0738C42.2869 28.0205 42.4917 27.9269 42.6716 27.7985C42.8515 27.6702 43.003 27.5095 43.1173 27.3256C43.2317 27.1417 43.3068 26.9383 43.3382 26.7269C43.3696 26.5156 43.3569 26.3004 43.3006 26.0938C42.8249 24.3497 41.7516 22.8049 40.2491 21.7019C38.7467 20.5989 36.9003 20.0003 35 20Z" fill="#07C8A5"/>
</svg>
