<svg width="70" height="70" viewBox="0 0 70 70" fill="none" xmlns="http://www.w3.org/2000/svg">
<circle cx="35" cy="35" r="34.5" fill="#07C8A5" fill-opacity="0.12" stroke="#07C8A5"/>
<path d="M27.3636 24.0909C27.3636 23.4909 26.8727 23 26.2727 23C25.6727 23 25.1818 23.4909 25.1818 24.0909V28.4545H24.0909C23.4909 28.4545 23 28.9455 23 29.5455V35H29.5455V29.5455C29.5455 28.9455 29.0545 28.4545 28.4545 28.4545H27.3636V24.0909ZM31.7273 39.3636C31.7273 40.7818 32.6436 41.9818 33.9091 42.44V45.9091C33.9091 46.5091 34.4 47 35 47C35.6 47 36.0909 46.5091 36.0909 45.9091V42.44C37.3564 41.9927 38.2727 40.7927 38.2727 39.3636V37.1818H31.7273V39.3636ZM23 39.3636C23 40.7818 23.9164 41.9818 25.1818 42.44V45.9091C25.1818 46.5091 25.6727 47 26.2727 47C26.8727 47 27.3636 46.5091 27.3636 45.9091V42.44C28.6291 41.9818 29.5455 40.7818 29.5455 39.3636V37.1818H23V39.3636ZM44.8182 28.4545V24.0909C44.8182 23.4909 44.3273 23 43.7273 23C43.1273 23 42.6364 23.4909 42.6364 24.0909V28.4545H41.5455C40.9455 28.4545 40.4545 28.9455 40.4545 29.5455V35H47V29.5455C47 28.9455 46.5091 28.4545 45.9091 28.4545H44.8182ZM36.0909 24.0909C36.0909 23.4909 35.6 23 35 23C34.4 23 33.9091 23.4909 33.9091 24.0909V28.4545H32.8182C32.2182 28.4545 31.7273 28.9455 31.7273 29.5455V35H38.2727V29.5455C38.2727 28.9455 37.7818 28.4545 37.1818 28.4545H36.0909V24.0909ZM40.4545 39.3636C40.4545 40.7818 41.3709 41.9818 42.6364 42.44V45.9091C42.6364 46.5091 43.1273 47 43.7273 47C44.3273 47 44.8182 46.5091 44.8182 45.9091V42.44C46.0836 41.9927 47 40.7927 47 39.3636V37.1818H40.4545V39.3636Z" fill="#07C8A5"/>
</svg>
