<svg width="130" height="130" viewBox="0 0 130 130" fill="none" xmlns="http://www.w3.org/2000/svg">
<circle cx="65" cy="65" r="65" fill="#FBB70A" fill-opacity="0.12"/>
<circle cx="65" cy="65" r="50" fill="#FBB70A" fill-opacity="0.12"/>
<circle cx="65" cy="65" r="35" fill="#FBB70A" fill-opacity="0.12"/>
<path fill-rule="evenodd" clip-rule="evenodd" d="M56.4286 63.375V60.125C56.4286 57.9701 57.3316 55.9035 58.9391 54.3798C60.5465 52.856 62.7267 52 65 52C67.2733 52 69.4535 52.856 71.0609 54.3798C72.6684 55.9035 73.5714 57.9701 73.5714 60.125V63.375C74.4807 63.375 75.3528 63.7174 75.9958 64.3269C76.6388 64.9364 77 65.763 77 66.625V74.75C77 75.612 76.6388 76.4386 75.9958 77.0481C75.3528 77.6576 74.4807 78 73.5714 78H56.4286C55.5193 78 54.6472 77.6576 54.0042 77.0481C53.3612 76.4386 53 75.612 53 74.75V66.625C53 65.763 53.3612 64.9364 54.0042 64.3269C54.6472 63.7174 55.5193 63.375 56.4286 63.375ZM70.1429 60.125V63.375H59.8571V60.125C59.8571 58.8321 60.399 57.5921 61.3635 56.6779C62.3279 55.7636 63.636 55.25 65 55.25C66.364 55.25 67.6721 55.7636 68.6365 56.6779C69.601 57.5921 70.1429 58.8321 70.1429 60.125Z" fill="#FBB70A"/>
</svg>
