<svg width="902" height="141" viewBox="0 0 902 141" fill="none" xmlns="http://www.w3.org/2000/svg">
<rect x="0.5" y="0.5" width="901" height="140" rx="4.5" fill="#530BCA" fill-opacity="0.1" stroke="#0B35CA"/>
<path d="M104.925 108H103.431V101.953H96.6631V108H95.1689V95.1504H96.6631V100.617H103.431V95.1504H104.925V108ZM120.517 108V101.733C120.517 100.966 120.353 100.392 120.024 100.011C119.696 99.624 119.187 99.4307 118.495 99.4307C117.587 99.4307 116.916 99.6914 116.482 100.213C116.049 100.734 115.832 101.537 115.832 102.621V108H114.373V101.733C114.373 100.966 114.209 100.392 113.881 100.011C113.553 99.624 113.04 99.4307 112.343 99.4307C111.429 99.4307 110.758 99.7061 110.33 100.257C109.908 100.802 109.697 101.698 109.697 102.946V108H108.238V98.3672H109.425L109.662 99.6855H109.732C110.008 99.2168 110.395 98.8506 110.893 98.5869C111.396 98.3232 111.959 98.1914 112.58 98.1914C114.086 98.1914 115.07 98.7363 115.533 99.8262H115.604C115.891 99.3223 116.307 98.9238 116.852 98.6309C117.396 98.3379 118.018 98.1914 118.715 98.1914C119.805 98.1914 120.619 98.4727 121.158 99.0352C121.703 99.5918 121.976 100.485 121.976 101.716V108H120.517ZM124.779 107.068C124.779 106.676 124.867 106.38 125.043 106.181C125.225 105.976 125.482 105.873 125.816 105.873C126.156 105.873 126.42 105.976 126.607 106.181C126.801 106.38 126.897 106.676 126.897 107.068C126.897 107.449 126.801 107.742 126.607 107.947C126.414 108.152 126.15 108.255 125.816 108.255C125.518 108.255 125.269 108.164 125.069 107.982C124.876 107.795 124.779 107.49 124.779 107.068ZM129.578 107.068C129.578 106.676 129.666 106.38 129.842 106.181C130.023 105.976 130.281 105.873 130.615 105.873C130.955 105.873 131.219 105.976 131.406 106.181C131.6 106.38 131.696 106.676 131.696 107.068C131.696 107.449 131.6 107.742 131.406 107.947C131.213 108.152 130.949 108.255 130.615 108.255C130.316 108.255 130.067 108.164 129.868 107.982C129.675 107.795 129.578 107.49 129.578 107.068ZM134.377 107.068C134.377 106.676 134.465 106.38 134.641 106.181C134.822 105.976 135.08 105.873 135.414 105.873C135.754 105.873 136.018 105.976 136.205 106.181C136.398 106.38 136.495 106.676 136.495 107.068C136.495 107.449 136.398 107.742 136.205 107.947C136.012 108.152 135.748 108.255 135.414 108.255C135.115 108.255 134.866 108.164 134.667 107.982C134.474 107.795 134.377 107.49 134.377 107.068ZM145.521 108H144.062V94.3242H145.521V108ZM156.93 103.175C156.93 104.745 156.534 105.973 155.743 106.857C154.952 107.736 153.859 108.176 152.465 108.176C151.604 108.176 150.839 107.974 150.171 107.569C149.503 107.165 148.987 106.585 148.624 105.829C148.261 105.073 148.079 104.188 148.079 103.175C148.079 101.604 148.472 100.383 149.257 99.5098C150.042 98.6309 151.132 98.1914 152.526 98.1914C153.874 98.1914 154.943 98.6396 155.734 99.5361C156.531 100.433 156.93 101.646 156.93 103.175ZM149.591 103.175C149.591 104.405 149.837 105.343 150.329 105.987C150.821 106.632 151.545 106.954 152.5 106.954C153.455 106.954 154.179 106.635 154.671 105.996C155.169 105.352 155.418 104.411 155.418 103.175C155.418 101.95 155.169 101.021 154.671 100.389C154.179 99.75 153.449 99.4307 152.482 99.4307C151.527 99.4307 150.807 99.7441 150.32 100.371C149.834 100.998 149.591 101.933 149.591 103.175ZM167.811 103.175C167.811 104.745 167.415 105.973 166.624 106.857C165.833 107.736 164.74 108.176 163.346 108.176C162.484 108.176 161.72 107.974 161.052 107.569C160.384 107.165 159.868 106.585 159.505 105.829C159.142 105.073 158.96 104.188 158.96 103.175C158.96 101.604 159.353 100.383 160.138 99.5098C160.923 98.6309 162.013 98.1914 163.407 98.1914C164.755 98.1914 165.824 98.6396 166.615 99.5361C167.412 100.433 167.811 101.646 167.811 103.175ZM160.472 103.175C160.472 104.405 160.718 105.343 161.21 105.987C161.702 106.632 162.426 106.954 163.381 106.954C164.336 106.954 165.06 106.635 165.552 105.996C166.05 105.352 166.299 104.411 166.299 103.175C166.299 101.95 166.05 101.021 165.552 100.389C165.06 99.75 164.33 99.4307 163.363 99.4307C162.408 99.4307 161.688 99.7441 161.201 100.371C160.715 100.998 160.472 101.933 160.472 103.175ZM171.818 103.069C172.07 102.712 172.454 102.243 172.97 101.663L176.081 98.3672H177.812L173.91 102.472L178.085 108H176.318L172.917 103.447L171.818 104.396V108H170.377V94.3242H171.818V101.575C171.818 101.897 171.795 102.396 171.748 103.069H171.818ZM186.048 105.372C186.048 106.269 185.714 106.96 185.046 107.446C184.378 107.933 183.44 108.176 182.233 108.176C180.956 108.176 179.96 107.974 179.245 107.569V106.216C179.708 106.45 180.203 106.635 180.73 106.77C181.264 106.904 181.776 106.972 182.269 106.972C183.03 106.972 183.616 106.852 184.026 106.611C184.437 106.365 184.642 105.993 184.642 105.495C184.642 105.12 184.478 104.801 184.149 104.537C183.827 104.268 183.194 103.951 182.251 103.588C181.354 103.254 180.716 102.964 180.335 102.718C179.96 102.466 179.679 102.182 179.491 101.865C179.31 101.549 179.219 101.171 179.219 100.731C179.219 99.9463 179.538 99.3281 180.177 98.877C180.815 98.4199 181.691 98.1914 182.805 98.1914C183.842 98.1914 184.855 98.4023 185.846 98.8242L185.327 100.011C184.36 99.6123 183.484 99.4131 182.699 99.4131C182.008 99.4131 181.486 99.5215 181.135 99.7383C180.783 99.9551 180.607 100.254 180.607 100.635C180.607 100.893 180.672 101.112 180.801 101.294C180.936 101.476 181.149 101.648 181.442 101.812C181.735 101.977 182.298 102.214 183.13 102.524C184.272 102.94 185.043 103.359 185.441 103.781C185.846 104.203 186.048 104.733 186.048 105.372ZM194.564 108H193.105V94.3242H194.564V108ZM199.117 108H197.658V98.3672H199.117V108ZM197.535 95.7568C197.535 95.4229 197.617 95.1797 197.781 95.0273C197.945 94.8691 198.15 94.79 198.396 94.79C198.631 94.79 198.833 94.8691 199.003 95.0273C199.173 95.1855 199.258 95.4287 199.258 95.7568C199.258 96.085 199.173 96.3311 199.003 96.4951C198.833 96.6533 198.631 96.7324 198.396 96.7324C198.15 96.7324 197.945 96.6533 197.781 96.4951C197.617 96.3311 197.535 96.085 197.535 95.7568ZM203.652 103.069C203.904 102.712 204.288 102.243 204.804 101.663L207.915 98.3672H209.646L205.744 102.472L209.919 108H208.152L204.751 103.447L203.652 104.396V108H202.211V94.3242H203.652V101.575C203.652 101.897 203.629 102.396 203.582 103.069H203.652ZM215.737 108.176C214.313 108.176 213.188 107.742 212.362 106.875C211.542 106.008 211.132 104.804 211.132 103.263C211.132 101.71 211.513 100.477 212.274 99.5625C213.042 98.6484 214.07 98.1914 215.359 98.1914C216.566 98.1914 217.521 98.5898 218.225 99.3867C218.928 100.178 219.279 101.224 219.279 102.524V103.447H212.644C212.673 104.578 212.957 105.437 213.496 106.022C214.041 106.608 214.806 106.901 215.79 106.901C216.827 106.901 217.853 106.685 218.866 106.251V107.552C218.351 107.774 217.861 107.933 217.398 108.026C216.941 108.126 216.388 108.176 215.737 108.176ZM215.342 99.4131C214.568 99.4131 213.95 99.665 213.487 100.169C213.03 100.673 212.761 101.37 212.679 102.261H217.715C217.715 101.341 217.51 100.638 217.1 100.151C216.689 99.6592 216.104 99.4131 215.342 99.4131ZM224.922 98.3672H226.486L228.596 103.86C229.059 105.114 229.346 106.02 229.457 106.576H229.527C229.604 106.277 229.762 105.768 230.002 105.047C230.248 104.32 231.045 102.094 232.393 98.3672H233.957L229.817 109.336C229.407 110.42 228.927 111.188 228.376 111.639C227.831 112.096 227.16 112.324 226.363 112.324C225.918 112.324 225.479 112.274 225.045 112.175V111.006C225.367 111.076 225.728 111.111 226.126 111.111C227.128 111.111 227.843 110.549 228.271 109.424L228.807 108.053L224.922 98.3672ZM243.836 103.175C243.836 104.745 243.44 105.973 242.649 106.857C241.858 107.736 240.766 108.176 239.371 108.176C238.51 108.176 237.745 107.974 237.077 107.569C236.409 107.165 235.894 106.585 235.53 105.829C235.167 105.073 234.985 104.188 234.985 103.175C234.985 101.604 235.378 100.383 236.163 99.5098C236.948 98.6309 238.038 98.1914 239.433 98.1914C240.78 98.1914 241.85 98.6396 242.641 99.5361C243.438 100.433 243.836 101.646 243.836 103.175ZM236.497 103.175C236.497 104.405 236.743 105.343 237.235 105.987C237.728 106.632 238.451 106.954 239.406 106.954C240.361 106.954 241.085 106.635 241.577 105.996C242.075 105.352 242.324 104.411 242.324 103.175C242.324 101.95 242.075 101.021 241.577 100.389C241.085 99.75 240.355 99.4307 239.389 99.4307C238.434 99.4307 237.713 99.7441 237.227 100.371C236.74 100.998 236.497 101.933 236.497 103.175ZM247.773 98.3672V104.616C247.773 105.401 247.952 105.987 248.31 106.374C248.667 106.761 249.227 106.954 249.988 106.954C250.996 106.954 251.731 106.679 252.194 106.128C252.663 105.577 252.897 104.678 252.897 103.43V98.3672H254.356V108H253.152L252.941 106.708H252.862C252.563 107.183 252.147 107.546 251.614 107.798C251.087 108.05 250.483 108.176 249.804 108.176C248.632 108.176 247.753 107.897 247.167 107.341C246.587 106.784 246.297 105.894 246.297 104.669V98.3672H247.773ZM258.628 95.1504L258.76 95.3438C258.607 95.9297 258.388 96.6123 258.101 97.3916C257.813 98.165 257.515 98.8857 257.204 99.5537H256.132C256.542 97.8838 256.841 96.416 257.028 95.1504H258.628ZM262.627 108L258.971 98.3672H260.535L262.609 104.08C263.078 105.416 263.354 106.283 263.436 106.682H263.506C263.57 106.371 263.772 105.729 264.112 104.757C264.458 103.778 265.229 101.648 266.424 98.3672H267.988L264.332 108H262.627ZM273.604 108.176C272.181 108.176 271.056 107.742 270.229 106.875C269.409 106.008 268.999 104.804 268.999 103.263C268.999 101.71 269.38 100.477 270.142 99.5625C270.909 98.6484 271.938 98.1914 273.227 98.1914C274.434 98.1914 275.389 98.5898 276.092 99.3867C276.795 100.178 277.146 101.224 277.146 102.524V103.447H270.511C270.54 104.578 270.824 105.437 271.363 106.022C271.908 106.608 272.673 106.901 273.657 106.901C274.694 106.901 275.72 106.685 276.733 106.251V107.552C276.218 107.774 275.729 107.933 275.266 108.026C274.809 108.126 274.255 108.176 273.604 108.176ZM273.209 99.4131C272.436 99.4131 271.817 99.665 271.354 100.169C270.897 100.673 270.628 101.37 270.546 102.261H275.582C275.582 101.341 275.377 100.638 274.967 100.151C274.557 99.6592 273.971 99.4131 273.209 99.4131ZM292.202 98.3672V99.29L290.418 99.501C290.582 99.7061 290.729 99.9756 290.857 100.31C290.986 100.638 291.051 101.01 291.051 101.426C291.051 102.369 290.729 103.122 290.084 103.685C289.439 104.247 288.555 104.528 287.43 104.528C287.143 104.528 286.873 104.505 286.621 104.458C286 104.786 285.689 105.199 285.689 105.697C285.689 105.961 285.798 106.157 286.015 106.286C286.231 106.409 286.604 106.471 287.131 106.471H288.836C289.879 106.471 290.679 106.69 291.235 107.13C291.798 107.569 292.079 108.208 292.079 109.046C292.079 110.112 291.651 110.924 290.796 111.48C289.94 112.043 288.692 112.324 287.052 112.324C285.792 112.324 284.819 112.09 284.134 111.621C283.454 111.152 283.114 110.49 283.114 109.635C283.114 109.049 283.302 108.542 283.677 108.114C284.052 107.687 284.579 107.396 285.259 107.244C285.013 107.133 284.805 106.96 284.635 106.726C284.471 106.491 284.389 106.219 284.389 105.908C284.389 105.557 284.482 105.249 284.67 104.985C284.857 104.722 285.153 104.467 285.558 104.221C285.06 104.016 284.652 103.667 284.336 103.175C284.025 102.683 283.87 102.12 283.87 101.487C283.87 100.433 284.187 99.6211 284.819 99.0527C285.452 98.4785 286.349 98.1914 287.509 98.1914C288.013 98.1914 288.467 98.25 288.871 98.3672H292.202ZM284.521 109.617C284.521 110.139 284.74 110.534 285.18 110.804C285.619 111.073 286.249 111.208 287.069 111.208C288.294 111.208 289.199 111.023 289.785 110.654C290.377 110.291 290.673 109.796 290.673 109.169C290.673 108.647 290.512 108.284 290.189 108.079C289.867 107.88 289.261 107.78 288.37 107.78H286.621C285.959 107.78 285.443 107.938 285.074 108.255C284.705 108.571 284.521 109.025 284.521 109.617ZM285.312 101.452C285.312 102.126 285.502 102.636 285.883 102.981C286.264 103.327 286.794 103.5 287.474 103.5C288.897 103.5 289.609 102.809 289.609 101.426C289.609 99.9785 288.889 99.2549 287.447 99.2549C286.762 99.2549 286.234 99.4395 285.865 99.8086C285.496 100.178 285.312 100.726 285.312 101.452ZM302.494 103.175C302.494 104.745 302.099 105.973 301.308 106.857C300.517 107.736 299.424 108.176 298.029 108.176C297.168 108.176 296.403 107.974 295.735 107.569C295.067 107.165 294.552 106.585 294.188 105.829C293.825 105.073 293.644 104.188 293.644 103.175C293.644 101.604 294.036 100.383 294.821 99.5098C295.606 98.6309 296.696 98.1914 298.091 98.1914C299.438 98.1914 300.508 98.6396 301.299 99.5361C302.096 100.433 302.494 101.646 302.494 103.175ZM295.155 103.175C295.155 104.405 295.401 105.343 295.894 105.987C296.386 106.632 297.109 106.954 298.064 106.954C299.02 106.954 299.743 106.635 300.235 105.996C300.733 105.352 300.982 104.411 300.982 103.175C300.982 101.95 300.733 101.021 300.235 100.389C299.743 99.75 299.014 99.4307 298.047 99.4307C297.092 99.4307 296.371 99.7441 295.885 100.371C295.398 100.998 295.155 101.933 295.155 103.175ZM308.172 106.972C308.43 106.972 308.679 106.954 308.919 106.919C309.159 106.878 309.35 106.837 309.49 106.796V107.912C309.332 107.988 309.098 108.05 308.787 108.097C308.482 108.149 308.207 108.176 307.961 108.176C306.098 108.176 305.166 107.194 305.166 105.231V99.501H303.786V98.7979L305.166 98.1914L305.781 96.1348H306.625V98.3672H309.42V99.501H306.625V105.17C306.625 105.75 306.763 106.195 307.038 106.506C307.313 106.816 307.691 106.972 308.172 106.972ZM322.691 108V101.769C322.691 100.983 322.513 100.397 322.155 100.011C321.798 99.624 321.238 99.4307 320.477 99.4307C319.469 99.4307 318.73 99.7031 318.262 100.248C317.793 100.793 317.559 101.692 317.559 102.946V108H316.1V98.3672H317.286L317.523 99.6855H317.594C317.893 99.2109 318.312 98.8447 318.851 98.5869C319.39 98.3232 319.99 98.1914 320.652 98.1914C321.812 98.1914 322.686 98.4727 323.271 99.0352C323.857 99.5918 324.15 100.485 324.15 101.716V108H322.691ZM335.471 103.175C335.471 104.745 335.075 105.973 334.284 106.857C333.493 107.736 332.4 108.176 331.006 108.176C330.145 108.176 329.38 107.974 328.712 107.569C328.044 107.165 327.528 106.585 327.165 105.829C326.802 105.073 326.62 104.188 326.62 103.175C326.62 101.604 327.013 100.383 327.798 99.5098C328.583 98.6309 329.673 98.1914 331.067 98.1914C332.415 98.1914 333.484 98.6396 334.275 99.5361C335.072 100.433 335.471 101.646 335.471 103.175ZM328.132 103.175C328.132 104.405 328.378 105.343 328.87 105.987C329.362 106.632 330.086 106.954 331.041 106.954C331.996 106.954 332.72 106.635 333.212 105.996C333.71 105.352 333.959 104.411 333.959 103.175C333.959 101.95 333.71 101.021 333.212 100.389C332.72 99.75 331.99 99.4307 331.023 99.4307C330.068 99.4307 329.348 99.7441 328.861 100.371C328.375 100.998 328.132 101.933 328.132 103.175ZM346.562 108.176C345.168 108.176 344.087 107.748 343.319 106.893C342.558 106.031 342.177 104.815 342.177 103.245C342.177 101.634 342.563 100.389 343.337 99.5098C344.116 98.6309 345.224 98.1914 346.659 98.1914C347.122 98.1914 347.585 98.2412 348.048 98.3408C348.511 98.4404 348.874 98.5576 349.138 98.6924L348.689 99.9316C348.367 99.8027 348.016 99.6973 347.635 99.6152C347.254 99.5273 346.917 99.4834 346.624 99.4834C344.667 99.4834 343.688 100.731 343.688 103.228C343.688 104.411 343.926 105.319 344.4 105.952C344.881 106.585 345.59 106.901 346.527 106.901C347.33 106.901 348.153 106.729 348.997 106.383V107.675C348.353 108.009 347.541 108.176 346.562 108.176ZM352.662 98.3672V104.616C352.662 105.401 352.841 105.987 353.198 106.374C353.556 106.761 354.115 106.954 354.877 106.954C355.885 106.954 356.62 106.679 357.083 106.128C357.552 105.577 357.786 104.678 357.786 103.43V98.3672H359.245V108H358.041L357.83 106.708H357.751C357.452 107.183 357.036 107.546 356.503 107.798C355.976 108.05 355.372 108.176 354.692 108.176C353.521 108.176 352.642 107.897 352.056 107.341C351.476 106.784 351.186 105.894 351.186 104.669V98.3672H352.662ZM368.562 105.372C368.562 106.269 368.228 106.96 367.56 107.446C366.892 107.933 365.954 108.176 364.747 108.176C363.47 108.176 362.474 107.974 361.759 107.569V106.216C362.222 106.45 362.717 106.635 363.244 106.77C363.777 106.904 364.29 106.972 364.782 106.972C365.544 106.972 366.13 106.852 366.54 106.611C366.95 106.365 367.155 105.993 367.155 105.495C367.155 105.12 366.991 104.801 366.663 104.537C366.341 104.268 365.708 103.951 364.765 103.588C363.868 103.254 363.229 102.964 362.849 102.718C362.474 102.466 362.192 102.182 362.005 101.865C361.823 101.549 361.732 101.171 361.732 100.731C361.732 99.9463 362.052 99.3281 362.69 98.877C363.329 98.4199 364.205 98.1914 365.318 98.1914C366.355 98.1914 367.369 98.4023 368.359 98.8242L367.841 100.011C366.874 99.6123 365.998 99.4131 365.213 99.4131C364.521 99.4131 364 99.5215 363.648 99.7383C363.297 99.9551 363.121 100.254 363.121 100.635C363.121 100.893 363.186 101.112 363.314 101.294C363.449 101.476 363.663 101.648 363.956 101.812C364.249 101.977 364.812 102.214 365.644 102.524C366.786 102.94 367.557 103.359 367.955 103.781C368.359 104.203 368.562 104.733 368.562 105.372ZM374.055 106.972C374.312 106.972 374.562 106.954 374.802 106.919C375.042 106.878 375.232 106.837 375.373 106.796V107.912C375.215 107.988 374.98 108.05 374.67 108.097C374.365 108.149 374.09 108.176 373.844 108.176C371.98 108.176 371.049 107.194 371.049 105.231V99.501H369.669V98.7979L371.049 98.1914L371.664 96.1348H372.508V98.3672H375.303V99.501H372.508V105.17C372.508 105.75 372.646 106.195 372.921 106.506C373.196 106.816 373.574 106.972 374.055 106.972ZM385.621 103.175C385.621 104.745 385.226 105.973 384.435 106.857C383.644 107.736 382.551 108.176 381.156 108.176C380.295 108.176 379.53 107.974 378.862 107.569C378.194 107.165 377.679 106.585 377.315 105.829C376.952 105.073 376.771 104.188 376.771 103.175C376.771 101.604 377.163 100.383 377.948 99.5098C378.733 98.6309 379.823 98.1914 381.218 98.1914C382.565 98.1914 383.635 98.6396 384.426 99.5361C385.223 100.433 385.621 101.646 385.621 103.175ZM378.282 103.175C378.282 104.405 378.528 105.343 379.021 105.987C379.513 106.632 380.236 106.954 381.191 106.954C382.146 106.954 382.87 106.635 383.362 105.996C383.86 105.352 384.109 104.411 384.109 103.175C384.109 101.95 383.86 101.021 383.362 100.389C382.87 99.75 382.141 99.4307 381.174 99.4307C380.219 99.4307 379.498 99.7441 379.012 100.371C378.525 100.998 378.282 101.933 378.282 103.175ZM400.466 108V101.733C400.466 100.966 400.302 100.392 399.974 100.011C399.646 99.624 399.136 99.4307 398.444 99.4307C397.536 99.4307 396.865 99.6914 396.432 100.213C395.998 100.734 395.781 101.537 395.781 102.621V108H394.322V101.733C394.322 100.966 394.158 100.392 393.83 100.011C393.502 99.624 392.989 99.4307 392.292 99.4307C391.378 99.4307 390.707 99.7061 390.279 100.257C389.857 100.802 389.646 101.698 389.646 102.946V108H388.188V98.3672H389.374L389.611 99.6855H389.682C389.957 99.2168 390.344 98.8506 390.842 98.5869C391.346 98.3232 391.908 98.1914 392.529 98.1914C394.035 98.1914 395.02 98.7363 395.482 99.8262H395.553C395.84 99.3223 396.256 98.9238 396.801 98.6309C397.346 98.3379 397.967 98.1914 398.664 98.1914C399.754 98.1914 400.568 98.4727 401.107 99.0352C401.652 99.5918 401.925 100.485 401.925 101.716V108H400.466ZM409.009 108.176C407.585 108.176 406.46 107.742 405.634 106.875C404.813 106.008 404.403 104.804 404.403 103.263C404.403 101.71 404.784 100.477 405.546 99.5625C406.313 98.6484 407.342 98.1914 408.631 98.1914C409.838 98.1914 410.793 98.5898 411.496 99.3867C412.199 100.178 412.551 101.224 412.551 102.524V103.447H405.915C405.944 104.578 406.229 105.437 406.768 106.022C407.312 106.608 408.077 106.901 409.062 106.901C410.099 106.901 411.124 106.685 412.138 106.251V107.552C411.622 107.774 411.133 107.933 410.67 108.026C410.213 108.126 409.659 108.176 409.009 108.176ZM408.613 99.4131C407.84 99.4131 407.222 99.665 406.759 100.169C406.302 100.673 406.032 101.37 405.95 102.261H410.986C410.986 101.341 410.781 100.638 410.371 100.151C409.961 99.6592 409.375 99.4131 408.613 99.4131ZM419.441 98.1914C419.869 98.1914 420.253 98.2266 420.593 98.2969L420.391 99.6504C419.992 99.5625 419.641 99.5186 419.336 99.5186C418.557 99.5186 417.889 99.835 417.332 100.468C416.781 101.101 416.506 101.889 416.506 102.832V108H415.047V98.3672H416.251L416.418 100.151H416.488C416.846 99.5244 417.276 99.041 417.78 98.7012C418.284 98.3613 418.838 98.1914 419.441 98.1914ZM428.529 108H427.07V98.3672H428.529V108ZM426.947 95.7568C426.947 95.4229 427.029 95.1797 427.193 95.0273C427.357 94.8691 427.562 94.79 427.809 94.79C428.043 94.79 428.245 94.8691 428.415 95.0273C428.585 95.1855 428.67 95.4287 428.67 95.7568C428.67 96.085 428.585 96.3311 428.415 96.4951C428.245 96.6533 428.043 96.7324 427.809 96.7324C427.562 96.7324 427.357 96.6533 427.193 96.4951C427.029 96.3311 426.947 96.085 426.947 95.7568ZM438.215 108V101.769C438.215 100.983 438.036 100.397 437.679 100.011C437.321 99.624 436.762 99.4307 436 99.4307C434.992 99.4307 434.254 99.7031 433.785 100.248C433.316 100.793 433.082 101.692 433.082 102.946V108H431.623V98.3672H432.81L433.047 99.6855H433.117C433.416 99.2109 433.835 98.8447 434.374 98.5869C434.913 98.3232 435.514 98.1914 436.176 98.1914C437.336 98.1914 438.209 98.4727 438.795 99.0352C439.381 99.5918 439.674 100.485 439.674 101.716V108H438.215ZM445.791 106.972C446.049 106.972 446.298 106.954 446.538 106.919C446.778 106.878 446.969 106.837 447.109 106.796V107.912C446.951 107.988 446.717 108.05 446.406 108.097C446.102 108.149 445.826 108.176 445.58 108.176C443.717 108.176 442.785 107.194 442.785 105.231V99.501H441.405V98.7979L442.785 98.1914L443.4 96.1348H444.244V98.3672H447.039V99.501H444.244V105.17C444.244 105.75 444.382 106.195 444.657 106.506C444.933 106.816 445.311 106.972 445.791 106.972ZM453.112 108.176C451.688 108.176 450.563 107.742 449.737 106.875C448.917 106.008 448.507 104.804 448.507 103.263C448.507 101.71 448.888 100.477 449.649 99.5625C450.417 98.6484 451.445 98.1914 452.734 98.1914C453.941 98.1914 454.896 98.5898 455.6 99.3867C456.303 100.178 456.654 101.224 456.654 102.524V103.447H450.019C450.048 104.578 450.332 105.437 450.871 106.022C451.416 106.608 452.181 106.901 453.165 106.901C454.202 106.901 455.228 106.685 456.241 106.251V107.552C455.726 107.774 455.236 107.933 454.773 108.026C454.316 108.126 453.763 108.176 453.112 108.176ZM452.717 99.4131C451.943 99.4131 451.325 99.665 450.862 100.169C450.405 100.673 450.136 101.37 450.054 102.261H455.09C455.09 101.341 454.885 100.638 454.475 100.151C454.064 99.6592 453.479 99.4131 452.717 99.4131ZM463.545 98.1914C463.973 98.1914 464.356 98.2266 464.696 98.2969L464.494 99.6504C464.096 99.5625 463.744 99.5186 463.439 99.5186C462.66 99.5186 461.992 99.835 461.436 100.468C460.885 101.101 460.609 101.889 460.609 102.832V108H459.15V98.3672H460.354L460.521 100.151H460.592C460.949 99.5244 461.38 99.041 461.884 98.7012C462.388 98.3613 462.941 98.1914 463.545 98.1914ZM472.422 108L472.132 106.629H472.062C471.581 107.232 471.101 107.643 470.62 107.859C470.146 108.07 469.551 108.176 468.836 108.176C467.881 108.176 467.131 107.93 466.586 107.438C466.047 106.945 465.777 106.245 465.777 105.337C465.777 103.392 467.333 102.372 470.444 102.278L472.079 102.226V101.628C472.079 100.872 471.915 100.315 471.587 99.958C471.265 99.5947 470.746 99.4131 470.031 99.4131C469.229 99.4131 468.32 99.6592 467.307 100.151L466.858 99.0352C467.333 98.7773 467.852 98.5752 468.414 98.4287C468.982 98.2822 469.551 98.209 470.119 98.209C471.268 98.209 472.117 98.4639 472.668 98.9736C473.225 99.4834 473.503 100.301 473.503 101.426V108H472.422ZM469.126 106.972C470.034 106.972 470.746 106.723 471.262 106.225C471.783 105.727 472.044 105.029 472.044 104.133V103.263L470.585 103.324C469.425 103.365 468.587 103.547 468.071 103.869C467.562 104.186 467.307 104.681 467.307 105.354C467.307 105.882 467.465 106.283 467.781 106.559C468.104 106.834 468.552 106.972 469.126 106.972ZM480.367 108.176C478.973 108.176 477.892 107.748 477.124 106.893C476.362 106.031 475.981 104.815 475.981 103.245C475.981 101.634 476.368 100.389 477.142 99.5098C477.921 98.6309 479.028 98.1914 480.464 98.1914C480.927 98.1914 481.39 98.2412 481.853 98.3408C482.315 98.4404 482.679 98.5576 482.942 98.6924L482.494 99.9316C482.172 99.8027 481.82 99.6973 481.439 99.6152C481.059 99.5273 480.722 99.4834 480.429 99.4834C478.472 99.4834 477.493 100.731 477.493 103.228C477.493 104.411 477.73 105.319 478.205 105.952C478.686 106.585 479.395 106.901 480.332 106.901C481.135 106.901 481.958 106.729 482.802 106.383V107.675C482.157 108.009 481.346 108.176 480.367 108.176ZM488.207 106.972C488.465 106.972 488.714 106.954 488.954 106.919C489.194 106.878 489.385 106.837 489.525 106.796V107.912C489.367 107.988 489.133 108.05 488.822 108.097C488.518 108.149 488.242 108.176 487.996 108.176C486.133 108.176 485.201 107.194 485.201 105.231V99.501H483.821V98.7979L485.201 98.1914L485.816 96.1348H486.66V98.3672H489.455V99.501H486.66V105.17C486.66 105.75 486.798 106.195 487.073 106.506C487.349 106.816 487.727 106.972 488.207 106.972ZM492.918 108H491.459V98.3672H492.918V108ZM491.336 95.7568C491.336 95.4229 491.418 95.1797 491.582 95.0273C491.746 94.8691 491.951 94.79 492.197 94.79C492.432 94.79 492.634 94.8691 492.804 95.0273C492.974 95.1855 493.059 95.4287 493.059 95.7568C493.059 96.085 492.974 96.3311 492.804 96.4951C492.634 96.6533 492.432 96.7324 492.197 96.7324C491.951 96.7324 491.746 96.6533 491.582 96.4951C491.418 96.3311 491.336 96.085 491.336 95.7568ZM504.326 103.175C504.326 104.745 503.931 105.973 503.14 106.857C502.349 107.736 501.256 108.176 499.861 108.176C499 108.176 498.235 107.974 497.567 107.569C496.899 107.165 496.384 106.585 496.021 105.829C495.657 105.073 495.476 104.188 495.476 103.175C495.476 101.604 495.868 100.383 496.653 99.5098C497.438 98.6309 498.528 98.1914 499.923 98.1914C501.271 98.1914 502.34 98.6396 503.131 99.5361C503.928 100.433 504.326 101.646 504.326 103.175ZM496.987 103.175C496.987 104.405 497.233 105.343 497.726 105.987C498.218 106.632 498.941 106.954 499.896 106.954C500.852 106.954 501.575 106.635 502.067 105.996C502.565 105.352 502.814 104.411 502.814 103.175C502.814 101.95 502.565 101.021 502.067 100.389C501.575 99.75 500.846 99.4307 499.879 99.4307C498.924 99.4307 498.203 99.7441 497.717 100.371C497.23 100.998 496.987 101.933 496.987 103.175ZM513.484 108V101.769C513.484 100.983 513.306 100.397 512.948 100.011C512.591 99.624 512.031 99.4307 511.27 99.4307C510.262 99.4307 509.523 99.7031 509.055 100.248C508.586 100.793 508.352 101.692 508.352 102.946V108H506.893V98.3672H508.079L508.316 99.6855H508.387C508.686 99.2109 509.104 98.8447 509.644 98.5869C510.183 98.3232 510.783 98.1914 511.445 98.1914C512.605 98.1914 513.479 98.4727 514.064 99.0352C514.65 99.5918 514.943 100.485 514.943 101.716V108H513.484ZM526.475 108.176C525.08 108.176 523.999 107.748 523.231 106.893C522.47 106.031 522.089 104.815 522.089 103.245C522.089 101.634 522.476 100.389 523.249 99.5098C524.028 98.6309 525.136 98.1914 526.571 98.1914C527.034 98.1914 527.497 98.2412 527.96 98.3408C528.423 98.4404 528.786 98.5576 529.05 98.6924L528.602 99.9316C528.279 99.8027 527.928 99.6973 527.547 99.6152C527.166 99.5273 526.829 99.4834 526.536 99.4834C524.579 99.4834 523.601 100.731 523.601 103.228C523.601 104.411 523.838 105.319 524.312 105.952C524.793 106.585 525.502 106.901 526.439 106.901C527.242 106.901 528.065 106.729 528.909 106.383V107.675C528.265 108.009 527.453 108.176 526.475 108.176ZM539.518 103.175C539.518 104.745 539.122 105.973 538.331 106.857C537.54 107.736 536.447 108.176 535.053 108.176C534.191 108.176 533.427 107.974 532.759 107.569C532.091 107.165 531.575 106.585 531.212 105.829C530.849 105.073 530.667 104.188 530.667 103.175C530.667 101.604 531.06 100.383 531.845 99.5098C532.63 98.6309 533.72 98.1914 535.114 98.1914C536.462 98.1914 537.531 98.6396 538.322 99.5361C539.119 100.433 539.518 101.646 539.518 103.175ZM532.179 103.175C532.179 104.405 532.425 105.343 532.917 105.987C533.409 106.632 534.133 106.954 535.088 106.954C536.043 106.954 536.767 106.635 537.259 105.996C537.757 105.352 538.006 104.411 538.006 103.175C538.006 101.95 537.757 101.021 537.259 100.389C536.767 99.75 536.037 99.4307 535.07 99.4307C534.115 99.4307 533.395 99.7441 532.908 100.371C532.422 100.998 532.179 101.933 532.179 103.175ZM554.362 108V101.733C554.362 100.966 554.198 100.392 553.87 100.011C553.542 99.624 553.032 99.4307 552.341 99.4307C551.433 99.4307 550.762 99.6914 550.328 100.213C549.895 100.734 549.678 101.537 549.678 102.621V108H548.219V101.733C548.219 100.966 548.055 100.392 547.727 100.011C547.398 99.624 546.886 99.4307 546.188 99.4307C545.274 99.4307 544.604 99.7061 544.176 100.257C543.754 100.802 543.543 101.698 543.543 102.946V108H542.084V98.3672H543.271L543.508 99.6855H543.578C543.854 99.2168 544.24 98.8506 544.738 98.5869C545.242 98.3232 545.805 98.1914 546.426 98.1914C547.932 98.1914 548.916 98.7363 549.379 99.8262H549.449C549.736 99.3223 550.152 98.9238 550.697 98.6309C551.242 98.3379 551.863 98.1914 552.561 98.1914C553.65 98.1914 554.465 98.4727 555.004 99.0352C555.549 99.5918 555.821 100.485 555.821 101.716V108H554.362ZM563.318 108.176C562.691 108.176 562.117 108.062 561.596 107.833C561.08 107.599 560.646 107.241 560.295 106.761H560.189C560.26 107.323 560.295 107.856 560.295 108.36V112.324H558.836V98.3672H560.022L560.225 99.6855H560.295C560.67 99.1582 561.106 98.7773 561.604 98.543C562.103 98.3086 562.674 98.1914 563.318 98.1914C564.596 98.1914 565.58 98.6279 566.271 99.501C566.969 100.374 567.317 101.599 567.317 103.175C567.317 104.757 566.963 105.987 566.254 106.866C565.551 107.739 564.572 108.176 563.318 108.176ZM563.107 99.4307C562.123 99.4307 561.411 99.7031 560.972 100.248C560.532 100.793 560.307 101.66 560.295 102.85V103.175C560.295 104.528 560.521 105.498 560.972 106.084C561.423 106.664 562.146 106.954 563.143 106.954C563.975 106.954 564.625 106.617 565.094 105.943C565.568 105.27 565.806 104.341 565.806 103.157C565.806 101.956 565.568 101.036 565.094 100.397C564.625 99.7529 563.963 99.4307 563.107 99.4307ZM578.189 103.175C578.189 104.745 577.794 105.973 577.003 106.857C576.212 107.736 575.119 108.176 573.725 108.176C572.863 108.176 572.099 107.974 571.431 107.569C570.763 107.165 570.247 106.585 569.884 105.829C569.521 105.073 569.339 104.188 569.339 103.175C569.339 101.604 569.731 100.383 570.517 99.5098C571.302 98.6309 572.392 98.1914 573.786 98.1914C575.134 98.1914 576.203 98.6396 576.994 99.5361C577.791 100.433 578.189 101.646 578.189 103.175ZM570.851 103.175C570.851 104.405 571.097 105.343 571.589 105.987C572.081 106.632 572.805 106.954 573.76 106.954C574.715 106.954 575.438 106.635 575.931 105.996C576.429 105.352 576.678 104.411 576.678 103.175C576.678 101.95 576.429 101.021 575.931 100.389C575.438 99.75 574.709 99.4307 573.742 99.4307C572.787 99.4307 572.066 99.7441 571.58 100.371C571.094 100.998 570.851 101.933 570.851 103.175ZM587.348 108V101.769C587.348 100.983 587.169 100.397 586.812 100.011C586.454 99.624 585.895 99.4307 585.133 99.4307C584.125 99.4307 583.387 99.7031 582.918 100.248C582.449 100.793 582.215 101.692 582.215 102.946V108H580.756V98.3672H581.942L582.18 99.6855H582.25C582.549 99.2109 582.968 98.8447 583.507 98.5869C584.046 98.3232 584.646 98.1914 585.309 98.1914C586.469 98.1914 587.342 98.4727 587.928 99.0352C588.514 99.5918 588.807 100.485 588.807 101.716V108H587.348ZM595.882 108.176C594.458 108.176 593.333 107.742 592.507 106.875C591.687 106.008 591.276 104.804 591.276 103.263C591.276 101.71 591.657 100.477 592.419 99.5625C593.187 98.6484 594.215 98.1914 595.504 98.1914C596.711 98.1914 597.666 98.5898 598.369 99.3867C599.072 100.178 599.424 101.224 599.424 102.524V103.447H592.788C592.817 104.578 593.102 105.437 593.641 106.022C594.186 106.608 594.95 106.901 595.935 106.901C596.972 106.901 597.997 106.685 599.011 106.251V107.552C598.495 107.774 598.006 107.933 597.543 108.026C597.086 108.126 596.532 108.176 595.882 108.176ZM595.486 99.4131C594.713 99.4131 594.095 99.665 593.632 100.169C593.175 100.673 592.905 101.37 592.823 102.261H597.859C597.859 101.341 597.654 100.638 597.244 100.151C596.834 99.6592 596.248 99.4131 595.486 99.4131ZM608.512 108V101.769C608.512 100.983 608.333 100.397 607.976 100.011C607.618 99.624 607.059 99.4307 606.297 99.4307C605.289 99.4307 604.551 99.7031 604.082 100.248C603.613 100.793 603.379 101.692 603.379 102.946V108H601.92V98.3672H603.106L603.344 99.6855H603.414C603.713 99.2109 604.132 98.8447 604.671 98.5869C605.21 98.3232 605.811 98.1914 606.473 98.1914C607.633 98.1914 608.506 98.4727 609.092 99.0352C609.678 99.5918 609.971 100.485 609.971 101.716V108H608.512ZM616.088 106.972C616.346 106.972 616.595 106.954 616.835 106.919C617.075 106.878 617.266 106.837 617.406 106.796V107.912C617.248 107.988 617.014 108.05 616.703 108.097C616.398 108.149 616.123 108.176 615.877 108.176C614.014 108.176 613.082 107.194 613.082 105.231V99.501H611.702V98.7979L613.082 98.1914L613.697 96.1348H614.541V98.3672H617.336V99.501H614.541V105.17C614.541 105.75 614.679 106.195 614.954 106.506C615.229 106.816 615.607 106.972 616.088 106.972ZM625.554 105.372C625.554 106.269 625.22 106.96 624.552 107.446C623.884 107.933 622.946 108.176 621.739 108.176C620.462 108.176 619.466 107.974 618.751 107.569V106.216C619.214 106.45 619.709 106.635 620.236 106.77C620.77 106.904 621.282 106.972 621.774 106.972C622.536 106.972 623.122 106.852 623.532 106.611C623.942 106.365 624.147 105.993 624.147 105.495C624.147 105.12 623.983 104.801 623.655 104.537C623.333 104.268 622.7 103.951 621.757 103.588C620.86 103.254 620.222 102.964 619.841 102.718C619.466 102.466 619.185 102.182 618.997 101.865C618.815 101.549 618.725 101.171 618.725 100.731C618.725 99.9463 619.044 99.3281 619.683 98.877C620.321 98.4199 621.197 98.1914 622.311 98.1914C623.348 98.1914 624.361 98.4023 625.352 98.8242L624.833 100.011C623.866 99.6123 622.99 99.4131 622.205 99.4131C621.514 99.4131 620.992 99.5215 620.641 99.7383C620.289 99.9551 620.113 100.254 620.113 100.635C620.113 100.893 620.178 101.112 620.307 101.294C620.441 101.476 620.655 101.648 620.948 101.812C621.241 101.977 621.804 102.214 622.636 102.524C623.778 102.94 624.549 103.359 624.947 103.781C625.352 104.203 625.554 104.733 625.554 105.372ZM627.725 107.068C627.725 106.676 627.812 106.38 627.988 106.181C628.17 105.976 628.428 105.873 628.762 105.873C629.102 105.873 629.365 105.976 629.553 106.181C629.746 106.38 629.843 106.676 629.843 107.068C629.843 107.449 629.746 107.742 629.553 107.947C629.359 108.152 629.096 108.255 628.762 108.255C628.463 108.255 628.214 108.164 628.015 107.982C627.821 107.795 627.725 107.49 627.725 107.068ZM648.845 108H647.368L644.775 99.3955C644.652 99.0146 644.515 98.5342 644.362 97.9541C644.21 97.374 644.131 97.0254 644.125 96.9082C643.996 97.6816 643.791 98.5283 643.51 99.4482L640.996 108H639.52L636.101 95.1504H637.683L639.713 103.087C639.994 104.2 640.199 105.208 640.328 106.11C640.486 105.038 640.721 103.989 641.031 102.964L643.334 95.1504H644.916L647.333 103.034C647.614 103.942 647.852 104.968 648.045 106.11C648.156 105.278 648.367 104.265 648.678 103.069L650.699 95.1504H652.281L648.845 108ZM660.666 108V101.769C660.666 100.983 660.487 100.397 660.13 100.011C659.772 99.624 659.213 99.4307 658.451 99.4307C657.438 99.4307 656.696 99.7061 656.228 100.257C655.765 100.808 655.533 101.71 655.533 102.964V108H654.074V94.3242H655.533V98.4639C655.533 98.9619 655.51 99.375 655.463 99.7031H655.551C655.838 99.2402 656.245 98.877 656.772 98.6133C657.306 98.3438 657.912 98.209 658.592 98.209C659.77 98.209 660.651 98.4902 661.237 99.0527C661.829 99.6094 662.125 100.497 662.125 101.716V108H660.666ZM663.602 98.3672H665.166L667.275 103.86C667.738 105.114 668.025 106.02 668.137 106.576H668.207C668.283 106.277 668.441 105.768 668.682 105.047C668.928 104.32 669.725 102.094 671.072 98.3672H672.637L668.497 109.336C668.087 110.42 667.606 111.188 667.056 111.639C666.511 112.096 665.84 112.324 665.043 112.324C664.598 112.324 664.158 112.274 663.725 112.175V111.006C664.047 111.076 664.407 111.111 664.806 111.111C665.808 111.111 666.522 110.549 666.95 109.424L667.486 108.053L663.602 98.3672ZM685.469 108V101.769C685.469 100.983 685.29 100.397 684.933 100.011C684.575 99.624 684.016 99.4307 683.254 99.4307C682.246 99.4307 681.508 99.7031 681.039 100.248C680.57 100.793 680.336 101.692 680.336 102.946V108H678.877V98.3672H680.063L680.301 99.6855H680.371C680.67 99.2109 681.089 98.8447 681.628 98.5869C682.167 98.3232 682.768 98.1914 683.43 98.1914C684.59 98.1914 685.463 98.4727 686.049 99.0352C686.635 99.5918 686.928 100.485 686.928 101.716V108H685.469ZM698.248 103.175C698.248 104.745 697.853 105.973 697.062 106.857C696.271 107.736 695.178 108.176 693.783 108.176C692.922 108.176 692.157 107.974 691.489 107.569C690.821 107.165 690.306 106.585 689.942 105.829C689.579 105.073 689.397 104.188 689.397 103.175C689.397 101.604 689.79 100.383 690.575 99.5098C691.36 98.6309 692.45 98.1914 693.845 98.1914C695.192 98.1914 696.262 98.6396 697.053 99.5361C697.85 100.433 698.248 101.646 698.248 103.175ZM690.909 103.175C690.909 104.405 691.155 105.343 691.647 105.987C692.14 106.632 692.863 106.954 693.818 106.954C694.773 106.954 695.497 106.635 695.989 105.996C696.487 105.352 696.736 104.411 696.736 103.175C696.736 101.95 696.487 101.021 695.989 100.389C695.497 99.75 694.768 99.4307 693.801 99.4307C692.846 99.4307 692.125 99.7441 691.639 100.371C691.152 100.998 690.909 101.933 690.909 103.175ZM703.926 106.972C704.184 106.972 704.433 106.954 704.673 106.919C704.913 106.878 705.104 106.837 705.244 106.796V107.912C705.086 107.988 704.852 108.05 704.541 108.097C704.236 108.149 703.961 108.176 703.715 108.176C701.852 108.176 700.92 107.194 700.92 105.231V99.501H699.54V98.7979L700.92 98.1914L701.535 96.1348H702.379V98.3672H705.174V99.501H702.379V105.17C702.379 105.75 702.517 106.195 702.792 106.506C703.067 106.816 703.445 106.972 703.926 106.972ZM715.703 108.176C712.645 108.176 711.115 106.497 711.115 103.14C711.115 101.47 711.531 100.195 712.363 99.3164C713.195 98.4316 714.388 97.9893 715.94 97.9893C717.077 97.9893 718.097 98.2119 718.999 98.6572L718.208 100.731C717.786 100.562 717.394 100.424 717.03 100.318C716.667 100.207 716.304 100.151 715.94 100.151C714.546 100.151 713.849 101.142 713.849 103.122C713.849 105.044 714.546 106.005 715.94 106.005C716.456 106.005 716.934 105.938 717.373 105.803C717.812 105.662 718.252 105.445 718.691 105.152V107.446C718.258 107.722 717.818 107.912 717.373 108.018C716.934 108.123 716.377 108.176 715.703 108.176ZM726.461 97.9893C726.824 97.9893 727.126 98.0156 727.366 98.0684L727.164 100.582C726.947 100.523 726.684 100.494 726.373 100.494C725.518 100.494 724.85 100.714 724.369 101.153C723.895 101.593 723.657 102.208 723.657 102.999V108H720.977V98.1738H723.007L723.402 99.8262H723.534C723.839 99.2754 724.249 98.833 724.765 98.499C725.286 98.1592 725.852 97.9893 726.461 97.9893ZM733.22 99.8965C732.651 99.8965 732.206 100.078 731.884 100.441C731.562 100.799 731.377 101.309 731.33 101.971H735.092C735.08 101.309 734.907 100.799 734.573 100.441C734.239 100.078 733.788 99.8965 733.22 99.8965ZM733.598 108.176C732.016 108.176 730.779 107.739 729.889 106.866C728.998 105.993 728.553 104.757 728.553 103.157C728.553 101.511 728.963 100.239 729.783 99.3428C730.609 98.4404 731.749 97.9893 733.202 97.9893C734.591 97.9893 735.672 98.3848 736.445 99.1758C737.219 99.9668 737.605 101.06 737.605 102.454V103.755H731.269C731.298 104.517 731.523 105.111 731.945 105.539C732.367 105.967 732.959 106.181 733.721 106.181C734.312 106.181 734.872 106.119 735.399 105.996C735.927 105.873 736.478 105.677 737.052 105.407V107.481C736.583 107.716 736.082 107.889 735.549 108C735.016 108.117 734.365 108.176 733.598 108.176ZM746.025 108L745.507 106.664H745.437C744.985 107.232 744.52 107.628 744.039 107.851C743.564 108.067 742.943 108.176 742.176 108.176C741.232 108.176 740.488 107.906 739.943 107.367C739.404 106.828 739.135 106.061 739.135 105.064C739.135 104.021 739.498 103.254 740.225 102.762C740.957 102.264 742.059 101.988 743.529 101.936L745.234 101.883V101.452C745.234 100.456 744.725 99.958 743.705 99.958C742.92 99.958 741.997 100.195 740.937 100.67L740.049 98.8594C741.18 98.2676 742.434 97.9717 743.811 97.9717C745.129 97.9717 746.14 98.2588 746.843 98.833C747.546 99.4072 747.897 100.28 747.897 101.452V108H746.025ZM745.234 103.447L744.197 103.482C743.418 103.506 742.838 103.646 742.457 103.904C742.076 104.162 741.886 104.555 741.886 105.082C741.886 105.838 742.319 106.216 743.187 106.216C743.808 106.216 744.303 106.037 744.672 105.68C745.047 105.322 745.234 104.848 745.234 104.256V103.447ZM754.806 106.04C755.274 106.04 755.837 105.938 756.493 105.732V107.728C755.825 108.026 755.005 108.176 754.032 108.176C752.96 108.176 752.178 107.906 751.686 107.367C751.199 106.822 750.956 106.008 750.956 104.924V100.187H749.673V99.0527L751.149 98.1562L751.923 96.082H753.637V98.1738H756.388V100.187H753.637V104.924C753.637 105.305 753.742 105.586 753.953 105.768C754.17 105.949 754.454 106.04 754.806 106.04ZM762.558 99.8965C761.989 99.8965 761.544 100.078 761.222 100.441C760.899 100.799 760.715 101.309 760.668 101.971H764.43C764.418 101.309 764.245 100.799 763.911 100.441C763.577 100.078 763.126 99.8965 762.558 99.8965ZM762.936 108.176C761.354 108.176 760.117 107.739 759.227 106.866C758.336 105.993 757.891 104.757 757.891 103.157C757.891 101.511 758.301 100.239 759.121 99.3428C759.947 98.4404 761.087 97.9893 762.54 97.9893C763.929 97.9893 765.01 98.3848 765.783 99.1758C766.557 99.9668 766.943 101.06 766.943 102.454V103.755H760.606C760.636 104.517 760.861 105.111 761.283 105.539C761.705 105.967 762.297 106.181 763.059 106.181C763.65 106.181 764.21 106.119 764.737 105.996C765.265 105.873 765.815 105.677 766.39 105.407V107.481C765.921 107.716 765.42 107.889 764.887 108C764.354 108.117 763.703 108.176 762.936 108.176ZM775.935 103.069C775.935 104.042 776.093 104.777 776.409 105.275C776.731 105.773 777.253 106.022 777.974 106.022C778.688 106.022 779.201 105.776 779.512 105.284C779.828 104.786 779.986 104.048 779.986 103.069C779.986 102.097 779.828 101.367 779.512 100.881C779.195 100.395 778.677 100.151 777.956 100.151C777.241 100.151 776.726 100.395 776.409 100.881C776.093 101.361 775.935 102.091 775.935 103.069ZM782.729 103.069C782.729 104.669 782.307 105.92 781.463 106.822C780.619 107.725 779.444 108.176 777.938 108.176C776.995 108.176 776.163 107.971 775.442 107.561C774.722 107.145 774.168 106.55 773.781 105.776C773.395 105.003 773.201 104.101 773.201 103.069C773.201 101.464 773.62 100.216 774.458 99.3252C775.296 98.4346 776.474 97.9893 777.991 97.9893C778.935 97.9893 779.767 98.1943 780.487 98.6045C781.208 99.0146 781.762 99.6035 782.148 100.371C782.535 101.139 782.729 102.038 782.729 103.069ZM794.014 108H791.333V102.261C791.333 101.552 791.207 101.021 790.955 100.67C790.703 100.312 790.302 100.134 789.751 100.134C789.001 100.134 788.459 100.386 788.125 100.89C787.791 101.388 787.624 102.217 787.624 103.377V108H784.943V98.1738H786.991L787.352 99.4307H787.501C787.8 98.9561 788.21 98.5986 788.731 98.3584C789.259 98.1123 789.856 97.9893 790.524 97.9893C791.667 97.9893 792.534 98.2998 793.126 98.9209C793.718 99.5361 794.014 100.427 794.014 101.593V108ZM800.843 99.8965C800.274 99.8965 799.829 100.078 799.507 100.441C799.185 100.799 799 101.309 798.953 101.971H802.715C802.703 101.309 802.53 100.799 802.196 100.441C801.862 100.078 801.411 99.8965 800.843 99.8965ZM801.221 108.176C799.639 108.176 798.402 107.739 797.512 106.866C796.621 105.993 796.176 104.757 796.176 103.157C796.176 101.511 796.586 100.239 797.406 99.3428C798.232 98.4404 799.372 97.9893 800.825 97.9893C802.214 97.9893 803.295 98.3848 804.068 99.1758C804.842 99.9668 805.229 101.06 805.229 102.454V103.755H798.892C798.921 104.517 799.146 105.111 799.568 105.539C799.99 105.967 800.582 106.181 801.344 106.181C801.936 106.181 802.495 106.119 803.022 105.996C803.55 105.873 804.101 105.677 804.675 105.407V107.481C804.206 107.716 803.705 107.889 803.172 108C802.639 108.117 801.988 108.176 801.221 108.176ZM808.428 103.737V103.087C808.428 102.524 808.548 102.035 808.788 101.619C809.028 101.203 809.468 100.761 810.106 100.292C810.722 99.8525 811.126 99.4951 811.319 99.2197C811.519 98.9443 811.618 98.6367 811.618 98.2969C811.618 97.916 811.478 97.626 811.196 97.4268C810.915 97.2275 810.522 97.1279 810.019 97.1279C809.14 97.1279 808.138 97.415 807.013 97.9893L806.055 96.0645C807.361 95.332 808.747 94.9658 810.212 94.9658C811.419 94.9658 812.377 95.2559 813.086 95.8359C813.801 96.416 814.158 97.1895 814.158 98.1562C814.158 98.8008 814.012 99.3574 813.719 99.8262C813.426 100.295 812.869 100.822 812.049 101.408C811.486 101.824 811.129 102.141 810.977 102.357C810.83 102.574 810.757 102.858 810.757 103.21V103.737H808.428ZM808.146 106.743C808.146 106.251 808.278 105.879 808.542 105.627C808.806 105.375 809.189 105.249 809.693 105.249C810.18 105.249 810.555 105.378 810.818 105.636C811.088 105.894 811.223 106.263 811.223 106.743C811.223 107.206 811.088 107.572 810.818 107.842C810.549 108.105 810.174 108.237 809.693 108.237C809.201 108.237 808.82 108.108 808.551 107.851C808.281 107.587 808.146 107.218 808.146 106.743Z" fill="#530BCA"/>
<path d="M448 53.42L448.58 52.82L449.16 53.42C449.346 53.6075 449.567 53.7562 449.811 53.8578C450.055 53.9593 450.316 54.0116 450.58 54.0116C450.844 54.0116 451.105 53.9593 451.349 53.8578C451.593 53.7562 451.814 53.6075 452 53.42C452.187 53.2341 452.336 53.0129 452.438 52.7691C452.539 52.5254 452.592 52.264 452.592 52C452.592 51.736 452.539 51.4746 452.438 51.2308C452.336 50.9871 452.187 50.7659 452 50.58L451.4 50L452 49.42C452.377 49.0328 452.584 48.5118 452.576 47.9717C452.569 47.4316 452.347 46.9166 451.96 46.54C451.573 46.1634 451.052 45.956 450.512 45.9635C449.972 45.971 449.457 46.1928 449.08 46.58L448.5 47.18L448 46.58C447.623 46.1928 447.108 45.971 446.568 45.9635C446.028 45.956 445.507 46.1634 445.12 46.54C444.733 46.9166 444.511 47.4316 444.504 47.9717C444.496 48.5118 444.703 49.0328 445.08 49.42L445.68 50L445.08 50.58C444.893 50.7659 444.744 50.9871 444.642 51.2308C444.541 51.4746 444.488 51.736 444.488 52C444.488 52.264 444.541 52.5254 444.642 52.7691C444.744 53.0129 444.893 53.2341 445.08 53.42C445.266 53.6075 445.487 53.7562 445.731 53.8578C445.975 53.9593 446.236 54.0116 446.5 54.0116C446.764 54.0116 447.025 53.9593 447.269 53.8578C447.513 53.7562 447.734 53.6075 447.92 53.42H448ZM446.8 60.66C446.397 60.9986 446.144 61.4824 446.095 62.0066C446.046 62.5308 446.206 63.053 446.54 63.46C446.708 63.6625 446.914 63.8299 447.147 63.9526C447.379 64.0753 447.634 64.1509 447.896 64.1751C448.158 64.1992 448.422 64.1715 448.673 64.0934C448.925 64.0153 449.158 63.8884 449.36 63.72C450.697 62.6421 452.363 62.0542 454.08 62.0542C455.797 62.0542 457.463 62.6421 458.8 63.72C459.002 63.8884 459.235 64.0153 459.487 64.0934C459.738 64.1715 460.002 64.1992 460.264 64.1751C460.526 64.1509 460.781 64.0753 461.013 63.9526C461.246 63.8299 461.452 63.6625 461.62 63.46C461.954 63.053 462.114 62.5308 462.065 62.0066C462.017 61.4824 461.763 60.9986 461.36 60.66C459.29 58.9809 456.705 58.0645 454.04 58.0645C451.375 58.0645 448.79 58.9809 446.72 60.66H446.8ZM454 34C450.044 34 446.178 35.173 442.889 37.3706C439.6 39.5682 437.036 42.6918 435.522 46.3463C434.009 50.0008 433.613 54.0222 434.384 57.9018C435.156 61.7814 437.061 65.3451 439.858 68.1421C442.655 70.9392 446.219 72.844 450.098 73.6157C453.978 74.3874 457.999 73.9913 461.654 72.4776C465.308 70.9638 468.432 68.4004 470.629 65.1114C472.827 61.8224 474 57.9556 474 54C474 51.3736 473.483 48.7728 472.478 46.3463C471.472 43.9198 469.999 41.715 468.142 39.8579C466.285 38.0007 464.08 36.5275 461.654 35.5224C459.227 34.5173 456.626 34 454 34V34ZM454 70C450.836 70 447.742 69.0616 445.111 67.3035C442.48 65.5454 440.429 63.0465 439.218 60.1229C438.007 57.1993 437.69 53.9822 438.307 50.8786C438.925 47.7749 440.449 44.9239 442.686 42.6863C444.924 40.4486 447.775 38.9248 450.879 38.3074C453.982 37.6901 457.199 38.0069 460.123 39.2179C463.047 40.4289 465.545 42.4797 467.304 45.1109C469.062 47.7421 470 50.8355 470 54C470 58.2435 468.314 62.3131 465.314 65.3137C462.313 68.3143 458.243 70 454 70V70ZM464 46.58C463.814 46.3925 463.593 46.2438 463.349 46.1422C463.105 46.0407 462.844 45.9884 462.58 45.9884C462.316 45.9884 462.055 46.0407 461.811 46.1422C461.567 46.2438 461.346 46.3925 461.16 46.58L460.58 47.18L460 46.58C459.623 46.2034 459.113 45.9918 458.58 45.9918C458.047 45.9918 457.537 46.2034 457.16 46.58C456.783 46.9566 456.572 47.4674 456.572 48C456.572 48.5326 456.783 49.0434 457.16 49.42L457.76 50L457.16 50.58C456.973 50.7659 456.824 50.9871 456.722 51.2308C456.621 51.4746 456.568 51.736 456.568 52C456.568 52.264 456.621 52.5254 456.722 52.7691C456.824 53.0129 456.973 53.2341 457.16 53.42C457.346 53.6075 457.567 53.7562 457.811 53.8578C458.055 53.9593 458.316 54.0116 458.58 54.0116C458.844 54.0116 459.105 53.9593 459.349 53.8578C459.593 53.7562 459.814 53.6075 460 53.42L460.58 52.82L461.16 53.42C461.346 53.6075 461.567 53.7562 461.811 53.8578C462.055 53.9593 462.316 54.0116 462.58 54.0116C462.844 54.0116 463.105 53.9593 463.349 53.8578C463.593 53.7562 463.814 53.6075 464 53.42C464.187 53.2341 464.336 53.0129 464.438 52.7691C464.539 52.5254 464.592 52.264 464.592 52C464.592 51.736 464.539 51.4746 464.438 51.2308C464.336 50.9871 464.187 50.7659 464 50.58L463.4 50L464 49.42C464.187 49.2341 464.336 49.0129 464.438 48.7691C464.539 48.5254 464.592 48.264 464.592 48C464.592 47.736 464.539 47.4746 464.438 47.2308C464.336 46.9871 464.187 46.7659 464 46.58Z" fill="#530BCA"/>
</svg>
