<svg width="902" height="75" viewBox="0 0 902 75" fill="none" xmlns="http://www.w3.org/2000/svg">
<rect width="902" height="75" rx="5" fill="url(#paint0_linear)"/>
<circle cx="42.5" cy="37.5" r="7.5" fill="#07C8A5"/>
<path d="M95.0559 26.664C95.0559 25.416 95.3259 24.306 95.8659 23.334C96.4059 22.35 97.1559 21.588 98.1159 21.048C99.0879 20.496 100.186 20.22 101.41 20.22C102.91 20.22 104.194 20.616 105.262 21.408C106.33 22.2 107.044 23.28 107.404 24.648H104.02C103.768 24.12 103.408 23.718 102.94 23.442C102.484 23.166 101.962 23.028 101.374 23.028C100.426 23.028 99.6579 23.358 99.0699 24.018C98.4819 24.678 98.1879 25.56 98.1879 26.664C98.1879 27.768 98.4819 28.65 99.0699 29.31C99.6579 29.97 100.426 30.3 101.374 30.3C101.962 30.3 102.484 30.162 102.94 29.886C103.408 29.61 103.768 29.208 104.02 28.68H107.404C107.044 30.048 106.33 31.128 105.262 31.92C104.194 32.7 102.91 33.09 101.41 33.09C100.186 33.09 99.0879 32.82 98.1159 32.28C97.1559 31.728 96.4059 30.966 95.8659 29.994C95.3259 29.022 95.0559 27.912 95.0559 26.664ZM119.207 22.956V33H116.129V31.632C115.817 32.076 115.391 32.436 114.851 32.712C114.323 32.976 113.735 33.108 113.087 33.108C112.319 33.108 111.641 32.94 111.053 32.604C110.465 32.256 110.009 31.758 109.685 31.11C109.361 30.462 109.199 29.7 109.199 28.824V22.956H112.259V28.41C112.259 29.082 112.433 29.604 112.781 29.976C113.129 30.348 113.597 30.534 114.185 30.534C114.785 30.534 115.259 30.348 115.607 29.976C115.955 29.604 116.129 29.082 116.129 28.41V22.956H119.207ZM125.504 33.144C124.628 33.144 123.848 32.994 123.164 32.694C122.48 32.394 121.94 31.986 121.544 31.47C121.148 30.942 120.926 30.354 120.878 29.706H123.92C123.956 30.054 124.118 30.336 124.406 30.552C124.694 30.768 125.048 30.876 125.468 30.876C125.852 30.876 126.146 30.804 126.35 30.66C126.566 30.504 126.674 30.306 126.674 30.066C126.674 29.778 126.524 29.568 126.224 29.436C125.924 29.292 125.438 29.136 124.766 28.968C124.046 28.8 123.446 28.626 122.966 28.446C122.486 28.254 122.072 27.96 121.724 27.564C121.376 27.156 121.202 26.61 121.202 25.926C121.202 25.35 121.358 24.828 121.67 24.36C121.994 23.88 122.462 23.502 123.074 23.226C123.698 22.95 124.436 22.812 125.288 22.812C126.548 22.812 127.538 23.124 128.258 23.748C128.99 24.372 129.41 25.2 129.518 26.232H126.674C126.626 25.884 126.47 25.608 126.206 25.404C125.954 25.2 125.618 25.098 125.198 25.098C124.838 25.098 124.562 25.17 124.37 25.314C124.178 25.446 124.082 25.632 124.082 25.872C124.082 26.16 124.232 26.376 124.532 26.52C124.844 26.664 125.324 26.808 125.972 26.952C126.716 27.144 127.322 27.336 127.79 27.528C128.258 27.708 128.666 28.008 129.014 28.428C129.374 28.836 129.56 29.388 129.572 30.084C129.572 30.672 129.404 31.2 129.068 31.668C128.744 32.124 128.27 32.484 127.646 32.748C127.034 33.012 126.32 33.144 125.504 33.144ZM137.053 30.39V33H135.487C134.371 33 133.501 32.73 132.877 32.19C132.253 31.638 131.941 30.744 131.941 29.508V25.512H130.717V22.956H131.941V20.508H135.019V22.956H137.035V25.512H135.019V29.544C135.019 29.844 135.091 30.06 135.235 30.192C135.379 30.324 135.619 30.39 135.955 30.39H137.053ZM143.339 33.144C142.355 33.144 141.467 32.934 140.675 32.514C139.895 32.094 139.277 31.494 138.821 30.714C138.377 29.934 138.155 29.022 138.155 27.978C138.155 26.946 138.383 26.04 138.839 25.26C139.295 24.468 139.919 23.862 140.711 23.442C141.503 23.022 142.391 22.812 143.375 22.812C144.359 22.812 145.247 23.022 146.039 23.442C146.831 23.862 147.455 24.468 147.911 25.26C148.367 26.04 148.595 26.946 148.595 27.978C148.595 29.01 148.361 29.922 147.893 30.714C147.437 31.494 146.807 32.094 146.003 32.514C145.211 32.934 144.323 33.144 143.339 33.144ZM143.339 30.48C143.927 30.48 144.425 30.264 144.833 29.832C145.253 29.4 145.463 28.782 145.463 27.978C145.463 27.174 145.259 26.556 144.851 26.124C144.455 25.692 143.963 25.476 143.375 25.476C142.775 25.476 142.277 25.692 141.881 26.124C141.485 26.544 141.287 27.162 141.287 27.978C141.287 28.782 141.479 29.4 141.863 29.832C142.259 30.264 142.751 30.48 143.339 30.48ZM163.044 22.848C164.292 22.848 165.282 23.226 166.014 23.982C166.758 24.738 167.13 25.788 167.13 27.132V33H164.07V27.546C164.07 26.898 163.896 26.4 163.548 26.052C163.212 25.692 162.744 25.512 162.144 25.512C161.544 25.512 161.07 25.692 160.722 26.052C160.386 26.4 160.218 26.898 160.218 27.546V33H157.158V27.546C157.158 26.898 156.984 26.4 156.636 26.052C156.3 25.692 155.832 25.512 155.232 25.512C154.632 25.512 154.158 25.692 153.81 26.052C153.474 26.4 153.306 26.898 153.306 27.546V33H150.228V22.956H153.306V24.216C153.618 23.796 154.026 23.466 154.53 23.226C155.034 22.974 155.604 22.848 156.24 22.848C156.996 22.848 157.668 23.01 158.256 23.334C158.856 23.658 159.324 24.12 159.66 24.72C160.008 24.168 160.482 23.718 161.082 23.37C161.682 23.022 162.336 22.848 163.044 22.848ZM178.751 27.816C178.751 28.104 178.733 28.404 178.697 28.716H171.731C171.779 29.34 171.977 29.82 172.325 30.156C172.685 30.48 173.123 30.642 173.639 30.642C174.407 30.642 174.941 30.318 175.241 29.67H178.517C178.349 30.33 178.043 30.924 177.599 31.452C177.167 31.98 176.621 32.394 175.961 32.694C175.301 32.994 174.563 33.144 173.747 33.144C172.763 33.144 171.887 32.934 171.119 32.514C170.351 32.094 169.751 31.494 169.319 30.714C168.887 29.934 168.671 29.022 168.671 27.978C168.671 26.934 168.881 26.022 169.301 25.242C169.733 24.462 170.333 23.862 171.101 23.442C171.869 23.022 172.751 22.812 173.747 22.812C174.719 22.812 175.583 23.016 176.339 23.424C177.095 23.832 177.683 24.414 178.103 25.17C178.535 25.926 178.751 26.808 178.751 27.816ZM175.601 27.006C175.601 26.478 175.421 26.058 175.061 25.746C174.701 25.434 174.251 25.278 173.711 25.278C173.195 25.278 172.757 25.428 172.397 25.728C172.049 26.028 171.833 26.454 171.749 27.006H175.601ZM183.453 24.63C183.813 24.078 184.263 23.646 184.803 23.334C185.343 23.01 185.943 22.848 186.603 22.848V26.106H185.757C184.989 26.106 184.413 26.274 184.029 26.61C183.645 26.934 183.453 27.51 183.453 28.338V33H180.375V22.956H183.453V24.63ZM194.966 22.83V25.386H199.088V27.762H194.966V30.534H199.628V33H191.888V20.364H199.628V22.83H194.966ZM207.747 22.848C208.923 22.848 209.859 23.232 210.555 24C211.263 24.756 211.617 25.8 211.617 27.132V33H208.557V27.546C208.557 26.874 208.383 26.352 208.035 25.98C207.687 25.608 207.219 25.422 206.631 25.422C206.043 25.422 205.575 25.608 205.227 25.98C204.879 26.352 204.705 26.874 204.705 27.546V33H201.627V22.956H204.705V24.288C205.017 23.844 205.437 23.496 205.965 23.244C206.493 22.98 207.087 22.848 207.747 22.848ZM219.354 30.39V33H217.788C216.672 33 215.802 32.73 215.178 32.19C214.554 31.638 214.242 30.744 214.242 29.508V25.512H213.018V22.956H214.242V20.508H217.32V22.956H219.336V25.512H217.32V29.544C217.32 29.844 217.392 30.06 217.536 30.192C217.68 30.324 217.92 30.39 218.256 30.39H219.354ZM224.146 24.63C224.506 24.078 224.956 23.646 225.496 23.334C226.036 23.01 226.636 22.848 227.296 22.848V26.106H226.45C225.682 26.106 225.106 26.274 224.722 26.61C224.338 26.934 224.146 27.51 224.146 28.338V33H221.068V22.956H224.146V24.63ZM239.027 22.956L232.727 37.77H229.415L231.719 32.658L227.633 22.956H231.071L233.393 29.238L235.697 22.956H239.027ZM248.527 33.126C247.603 33.126 246.775 32.976 246.043 32.676C245.311 32.376 244.723 31.932 244.279 31.344C243.847 30.756 243.619 30.048 243.595 29.22H246.871C246.919 29.688 247.081 30.048 247.357 30.3C247.633 30.54 247.993 30.66 248.437 30.66C248.893 30.66 249.253 30.558 249.517 30.354C249.781 30.138 249.913 29.844 249.913 29.472C249.913 29.16 249.805 28.902 249.589 28.698C249.385 28.494 249.127 28.326 248.815 28.194C248.515 28.062 248.083 27.912 247.519 27.744C246.703 27.492 246.037 27.24 245.521 26.988C245.005 26.736 244.561 26.364 244.189 25.872C243.817 25.38 243.631 24.738 243.631 23.946C243.631 22.77 244.057 21.852 244.909 21.192C245.761 20.52 246.871 20.184 248.239 20.184C249.631 20.184 250.753 20.52 251.605 21.192C252.457 21.852 252.913 22.776 252.973 23.964H249.643C249.619 23.556 249.469 23.238 249.193 23.01C248.917 22.77 248.563 22.65 248.131 22.65C247.759 22.65 247.459 22.752 247.231 22.956C247.003 23.148 246.889 23.43 246.889 23.802C246.889 24.21 247.081 24.528 247.465 24.756C247.849 24.984 248.449 25.23 249.265 25.494C250.081 25.77 250.741 26.034 251.245 26.286C251.761 26.538 252.205 26.904 252.577 27.384C252.949 27.864 253.135 28.482 253.135 29.238C253.135 29.958 252.949 30.612 252.577 31.2C252.217 31.788 251.689 32.256 250.993 32.604C250.297 32.952 249.475 33.126 248.527 33.126ZM261.203 22.848C262.355 22.848 263.279 23.232 263.975 24C264.671 24.756 265.019 25.8 265.019 27.132V33H261.959V27.546C261.959 26.874 261.785 26.352 261.437 25.98C261.089 25.608 260.621 25.422 260.033 25.422C259.445 25.422 258.977 25.608 258.629 25.98C258.281 26.352 258.107 26.874 258.107 27.546V33H255.029V19.68H258.107V24.306C258.419 23.862 258.845 23.508 259.385 23.244C259.925 22.98 260.531 22.848 261.203 22.848ZM276.626 27.816C276.626 28.104 276.608 28.404 276.572 28.716H269.606C269.654 29.34 269.852 29.82 270.2 30.156C270.56 30.48 270.998 30.642 271.514 30.642C272.282 30.642 272.816 30.318 273.116 29.67H276.392C276.224 30.33 275.918 30.924 275.474 31.452C275.042 31.98 274.496 32.394 273.836 32.694C273.176 32.994 272.438 33.144 271.622 33.144C270.638 33.144 269.762 32.934 268.994 32.514C268.226 32.094 267.626 31.494 267.194 30.714C266.762 29.934 266.546 29.022 266.546 27.978C266.546 26.934 266.756 26.022 267.176 25.242C267.608 24.462 268.208 23.862 268.976 23.442C269.744 23.022 270.626 22.812 271.622 22.812C272.594 22.812 273.458 23.016 274.214 23.424C274.97 23.832 275.558 24.414 275.978 25.17C276.41 25.926 276.626 26.808 276.626 27.816ZM273.476 27.006C273.476 26.478 273.296 26.058 272.936 25.746C272.576 25.434 272.126 25.278 271.586 25.278C271.07 25.278 270.632 25.428 270.272 25.728C269.924 26.028 269.708 26.454 269.624 27.006H273.476ZM287.718 27.816C287.718 28.104 287.7 28.404 287.664 28.716H280.698C280.746 29.34 280.944 29.82 281.292 30.156C281.652 30.48 282.09 30.642 282.606 30.642C283.374 30.642 283.908 30.318 284.208 29.67H287.484C287.316 30.33 287.01 30.924 286.566 31.452C286.134 31.98 285.588 32.394 284.928 32.694C284.268 32.994 283.53 33.144 282.714 33.144C281.73 33.144 280.854 32.934 280.086 32.514C279.318 32.094 278.718 31.494 278.286 30.714C277.854 29.934 277.638 29.022 277.638 27.978C277.638 26.934 277.848 26.022 278.268 25.242C278.7 24.462 279.3 23.862 280.068 23.442C280.836 23.022 281.718 22.812 282.714 22.812C283.686 22.812 284.55 23.016 285.306 23.424C286.062 23.832 286.65 24.414 287.07 25.17C287.502 25.926 287.718 26.808 287.718 27.816ZM284.568 27.006C284.568 26.478 284.388 26.058 284.028 25.746C283.668 25.434 283.218 25.278 282.678 25.278C282.162 25.278 281.724 25.428 281.364 25.728C281.016 26.028 280.8 26.454 280.716 27.006H284.568ZM294.94 30.39V33H293.374C292.258 33 291.388 32.73 290.764 32.19C290.14 31.638 289.828 30.744 289.828 29.508V25.512H288.604V22.956H289.828V20.508H292.906V22.956H294.922V25.512H292.906V29.544C292.906 29.844 292.978 30.06 293.122 30.192C293.266 30.324 293.506 30.39 293.842 30.39H294.94Z" fill="white"/>
<path d="M99.1309 47.2012C98.1895 47.2012 97.4453 47.5156 96.8984 48.1445C96.3555 48.7695 96.084 49.627 96.084 50.7168C96.084 51.8379 96.3457 52.7051 96.8691 53.3184C97.3965 53.9277 98.1465 54.2324 99.1191 54.2324C99.7168 54.2324 100.398 54.125 101.164 53.9102V54.7832C100.57 55.0059 99.8379 55.1172 98.9668 55.1172C97.7051 55.1172 96.7305 54.7344 96.043 53.9688C95.3594 53.2031 95.0176 52.1152 95.0176 50.7051C95.0176 49.8223 95.1816 49.0488 95.5098 48.3848C95.8418 47.7207 96.3184 47.209 96.9395 46.8496C97.5645 46.4902 98.2988 46.3105 99.1426 46.3105C100.041 46.3105 100.826 46.4746 101.498 46.8027L101.076 47.6582C100.428 47.3535 99.7793 47.2012 99.1309 47.2012ZM109.502 46.4336V51.9766C109.502 52.9531 109.207 53.7207 108.617 54.2793C108.027 54.8379 107.217 55.1172 106.186 55.1172C105.154 55.1172 104.355 54.8359 103.789 54.2734C103.227 53.7109 102.945 52.9375 102.945 51.9531V46.4336H103.941V52.0234C103.941 52.7383 104.137 53.2871 104.527 53.6699C104.918 54.0527 105.492 54.2441 106.25 54.2441C106.973 54.2441 107.529 54.0527 107.92 53.6699C108.311 53.2832 108.506 52.7305 108.506 52.0117V46.4336H109.502ZM116.609 52.7207C116.609 53.4746 116.336 54.0625 115.789 54.4844C115.242 54.9062 114.5 55.1172 113.562 55.1172C112.547 55.1172 111.766 54.9863 111.219 54.7246V53.7637C111.57 53.9121 111.953 54.0293 112.367 54.1152C112.781 54.2012 113.191 54.2441 113.598 54.2441C114.262 54.2441 114.762 54.1191 115.098 53.8691C115.434 53.6152 115.602 53.2637 115.602 52.8145C115.602 52.5176 115.541 52.2754 115.42 52.0879C115.303 51.8965 115.104 51.7207 114.822 51.5605C114.545 51.4004 114.121 51.2188 113.551 51.0156C112.754 50.7305 112.184 50.3926 111.84 50.002C111.5 49.6113 111.33 49.1016 111.33 48.4727C111.33 47.8125 111.578 47.2871 112.074 46.8965C112.57 46.5059 113.227 46.3105 114.043 46.3105C114.895 46.3105 115.678 46.4668 116.393 46.7793L116.082 47.6465C115.375 47.3496 114.688 47.2012 114.02 47.2012C113.492 47.2012 113.08 47.3145 112.783 47.541C112.486 47.7676 112.338 48.082 112.338 48.4844C112.338 48.7812 112.393 49.0254 112.502 49.2168C112.611 49.4043 112.795 49.5781 113.053 49.7383C113.314 49.8945 113.713 50.0684 114.248 50.2598C115.146 50.5801 115.764 50.9238 116.1 51.291C116.439 51.6582 116.609 52.1348 116.609 52.7207ZM120.998 55H120.002V47.3184H117.289V46.4336H123.711V47.3184H120.998V55ZM132.441 50.7051C132.441 52.0762 132.094 53.1543 131.398 53.9395C130.707 54.7246 129.744 55.1172 128.51 55.1172C127.248 55.1172 126.273 54.7324 125.586 53.9629C124.902 53.1895 124.561 52.0996 124.561 50.6934C124.561 49.2988 124.904 48.2188 125.592 47.4531C126.279 46.6836 127.256 46.2988 128.521 46.2988C129.752 46.2988 130.713 46.6895 131.404 47.4707C132.096 48.252 132.441 49.3301 132.441 50.7051ZM125.615 50.7051C125.615 51.8652 125.861 52.7461 126.354 53.3477C126.85 53.9453 127.568 54.2441 128.51 54.2441C129.459 54.2441 130.176 53.9453 130.66 53.3477C131.145 52.75 131.387 51.8691 131.387 50.7051C131.387 49.5527 131.145 48.6797 130.66 48.0859C130.18 47.4883 129.467 47.1895 128.521 47.1895C127.572 47.1895 126.85 47.4902 126.354 48.0918C125.861 48.6895 125.615 49.5605 125.615 50.7051ZM138.148 55L135.242 47.4062H135.195C135.25 48.0078 135.277 48.7227 135.277 49.5508V55H134.357V46.4336H135.857L138.57 53.5H138.617L141.354 46.4336H142.842V55H141.846V49.4805C141.846 48.8477 141.873 48.1602 141.928 47.418H141.881L138.951 55H138.148ZM149.973 55H145.197V46.4336H149.973V47.3184H146.193V50.0781H149.744V50.957H146.193V54.1094H149.973V55ZM152.873 51.4375V55H151.877V46.4336H154.227C155.277 46.4336 156.053 46.6348 156.553 47.0371C157.057 47.4395 157.309 48.0449 157.309 48.8535C157.309 49.9863 156.734 50.752 155.586 51.1504L157.912 55H156.734L154.66 51.4375H152.873ZM152.873 50.582H154.238C154.941 50.582 155.457 50.4434 155.785 50.166C156.113 49.8848 156.277 49.4648 156.277 48.9062C156.277 48.3398 156.109 47.9316 155.773 47.6816C155.441 47.4316 154.906 47.3066 154.168 47.3066H152.873V50.582ZM162.412 55V46.4336H163.408V55H162.412ZM172.455 55H171.318L166.637 47.8105H166.59C166.652 48.6543 166.684 49.4277 166.684 50.1309V55H165.764V46.4336H166.889L171.559 53.5938H171.605C171.598 53.4883 171.58 53.1504 171.553 52.5801C171.525 52.0059 171.516 51.5957 171.523 51.3496V46.4336H172.455V55ZM177.447 55H176.451V47.3184H173.738V46.4336H180.16V47.3184H177.447V55ZM186.23 55H181.455V46.4336H186.23V47.3184H182.451V50.0781H186.002V50.957H182.451V54.1094H186.23V55ZM189.131 51.4375V55H188.135V46.4336H190.484C191.535 46.4336 192.311 46.6348 192.811 47.0371C193.314 47.4395 193.566 48.0449 193.566 48.8535C193.566 49.9863 192.992 50.752 191.844 51.1504L194.17 55H192.992L190.918 51.4375H189.131ZM189.131 50.582H190.496C191.199 50.582 191.715 50.4434 192.043 50.166C192.371 49.8848 192.535 49.4648 192.535 48.9062C192.535 48.3398 192.367 47.9316 192.031 47.6816C191.699 47.4316 191.164 47.3066 190.426 47.3066H189.131V50.582ZM200.938 55L199.871 52.2754H196.438L195.383 55H194.375L197.762 46.3984H198.6L201.969 55H200.938ZM199.561 51.3789L198.564 48.7246C198.436 48.3887 198.303 47.9766 198.166 47.4883C198.08 47.8633 197.957 48.2754 197.797 48.7246L196.789 51.3789H199.561ZM206.814 47.2012C205.873 47.2012 205.129 47.5156 204.582 48.1445C204.039 48.7695 203.768 49.627 203.768 50.7168C203.768 51.8379 204.029 52.7051 204.553 53.3184C205.08 53.9277 205.83 54.2324 206.803 54.2324C207.4 54.2324 208.082 54.125 208.848 53.9102V54.7832C208.254 55.0059 207.521 55.1172 206.65 55.1172C205.389 55.1172 204.414 54.7344 203.727 53.9688C203.043 53.2031 202.701 52.1152 202.701 50.7051C202.701 49.8223 202.865 49.0488 203.193 48.3848C203.525 47.7207 204.002 47.209 204.623 46.8496C205.248 46.4902 205.982 46.3105 206.826 46.3105C207.725 46.3105 208.51 46.4746 209.182 46.8027L208.76 47.6582C208.111 47.3535 207.463 47.2012 206.814 47.2012ZM213.354 55H212.357V47.3184H209.645V46.4336H216.066V47.3184H213.354V55ZM217.361 55V46.4336H218.357V55H217.361ZM228.148 50.7051C228.148 52.0762 227.801 53.1543 227.105 53.9395C226.414 54.7246 225.451 55.1172 224.217 55.1172C222.955 55.1172 221.98 54.7324 221.293 53.9629C220.609 53.1895 220.268 52.0996 220.268 50.6934C220.268 49.2988 220.611 48.2188 221.299 47.4531C221.986 46.6836 222.963 46.2988 224.229 46.2988C225.459 46.2988 226.42 46.6895 227.111 47.4707C227.803 48.252 228.148 49.3301 228.148 50.7051ZM221.322 50.7051C221.322 51.8652 221.568 52.7461 222.061 53.3477C222.557 53.9453 223.275 54.2441 224.217 54.2441C225.166 54.2441 225.883 53.9453 226.367 53.3477C226.852 52.75 227.094 51.8691 227.094 50.7051C227.094 49.5527 226.852 48.6797 226.367 48.0859C225.887 47.4883 225.174 47.1895 224.229 47.1895C223.279 47.1895 222.557 47.4902 222.061 48.0918C221.568 48.6895 221.322 49.5605 221.322 50.7051ZM236.756 55H235.619L230.938 47.8105H230.891C230.953 48.6543 230.984 49.4277 230.984 50.1309V55H230.064V46.4336H231.189L235.859 53.5938H235.906C235.898 53.4883 235.881 53.1504 235.854 52.5801C235.826 52.0059 235.816 51.5957 235.824 51.3496V46.4336H236.756V55ZM241.543 52.2285V51.3379H244.42V52.2285H241.543ZM249.213 55V46.4336H250.209V54.0977H253.988V55H249.213ZM260.832 55L259.766 52.2754H256.332L255.277 55H254.27L257.656 46.3984H258.494L261.863 55H260.832ZM259.455 51.3789L258.459 48.7246C258.33 48.3887 258.197 47.9766 258.061 47.4883C257.975 47.8633 257.852 48.2754 257.691 48.7246L256.684 51.3789H259.455ZM267.875 52.7207C267.875 53.4746 267.602 54.0625 267.055 54.4844C266.508 54.9062 265.766 55.1172 264.828 55.1172C263.812 55.1172 263.031 54.9863 262.484 54.7246V53.7637C262.836 53.9121 263.219 54.0293 263.633 54.1152C264.047 54.2012 264.457 54.2441 264.863 54.2441C265.527 54.2441 266.027 54.1191 266.363 53.8691C266.699 53.6152 266.867 53.2637 266.867 52.8145C266.867 52.5176 266.807 52.2754 266.686 52.0879C266.568 51.8965 266.369 51.7207 266.088 51.5605C265.811 51.4004 265.387 51.2188 264.816 51.0156C264.02 50.7305 263.449 50.3926 263.105 50.002C262.766 49.6113 262.596 49.1016 262.596 48.4727C262.596 47.8125 262.844 47.2871 263.34 46.8965C263.836 46.5059 264.492 46.3105 265.309 46.3105C266.16 46.3105 266.943 46.4668 267.658 46.7793L267.348 47.6465C266.641 47.3496 265.953 47.2012 265.285 47.2012C264.758 47.2012 264.346 47.3145 264.049 47.541C263.752 47.7676 263.604 48.082 263.604 48.4844C263.604 48.7812 263.658 49.0254 263.768 49.2168C263.877 49.4043 264.061 49.5781 264.318 49.7383C264.58 49.8945 264.979 50.0684 265.514 50.2598C266.412 50.5801 267.029 50.9238 267.365 51.291C267.705 51.6582 267.875 52.1348 267.875 52.7207ZM272.264 55H271.268V47.3184H268.555V46.4336H274.977V47.3184H272.264V55ZM285.857 46.4336V51.9766C285.857 52.9531 285.562 53.7207 284.973 54.2793C284.383 54.8379 283.572 55.1172 282.541 55.1172C281.51 55.1172 280.711 54.8359 280.145 54.2734C279.582 53.7109 279.301 52.9375 279.301 51.9531V46.4336H280.297V52.0234C280.297 52.7383 280.492 53.2871 280.883 53.6699C281.273 54.0527 281.848 54.2441 282.605 54.2441C283.328 54.2441 283.885 54.0527 284.275 53.6699C284.666 53.2832 284.861 52.7305 284.861 52.0117V46.4336H285.857ZM293.562 48.9297C293.562 49.7969 293.266 50.4648 292.672 50.9336C292.082 51.3984 291.236 51.6309 290.135 51.6309H289.127V55H288.131V46.4336H290.352C292.492 46.4336 293.562 47.2656 293.562 48.9297ZM289.127 50.7754H290.023C290.906 50.7754 291.545 50.6328 291.939 50.3477C292.334 50.0625 292.531 49.6055 292.531 48.9766C292.531 48.4102 292.346 47.9883 291.975 47.7109C291.604 47.4336 291.025 47.2949 290.24 47.2949H289.127V50.7754ZM302.199 50.6348C302.199 52.0488 301.814 53.1309 301.045 53.8809C300.279 54.627 299.176 55 297.734 55H295.361V46.4336H297.986C299.318 46.4336 300.354 46.8027 301.092 47.541C301.83 48.2793 302.199 49.3105 302.199 50.6348ZM301.145 50.6699C301.145 49.5527 300.863 48.7109 300.301 48.1445C299.742 47.5781 298.91 47.2949 297.805 47.2949H296.357V54.1387H297.57C298.758 54.1387 299.65 53.8477 300.248 53.2656C300.846 52.6797 301.145 51.8145 301.145 50.6699ZM309.5 55L308.434 52.2754H305L303.945 55H302.938L306.324 46.3984H307.162L310.531 55H309.5ZM308.123 51.3789L307.127 48.7246C306.998 48.3887 306.865 47.9766 306.729 47.4883C306.643 47.8633 306.52 48.2754 306.359 48.7246L305.352 51.3789H308.123ZM314.346 55H313.35V47.3184H310.637V46.4336H317.059V47.3184H314.346V55ZM323.129 55H318.354V46.4336H323.129V47.3184H319.35V50.0781H322.9V50.957H319.35V54.1094H323.129V55ZM331.871 50.6348C331.871 52.0488 331.486 53.1309 330.717 53.8809C329.951 54.627 328.848 55 327.406 55H325.033V46.4336H327.658C328.99 46.4336 330.025 46.8027 330.764 47.541C331.502 48.2793 331.871 49.3105 331.871 50.6348ZM330.816 50.6699C330.816 49.5527 330.535 48.7109 329.973 48.1445C329.414 47.5781 328.582 47.2949 327.477 47.2949H326.029V54.1387H327.242C328.43 54.1387 329.322 53.8477 329.92 53.2656C330.518 52.6797 330.816 51.8145 330.816 50.6699ZM342.348 53.0312H341.076V55H340.145V53.0312H335.979V52.1816L340.045 46.3867H341.076V52.1465H342.348V53.0312ZM340.145 52.1465V49.2988C340.145 48.7402 340.164 48.1094 340.203 47.4062H340.156C339.969 47.7812 339.793 48.0918 339.629 48.3379L336.951 52.1465H340.145ZM343.484 54.3789C343.484 54.1172 343.543 53.9199 343.66 53.7871C343.781 53.6504 343.953 53.582 344.176 53.582C344.402 53.582 344.578 53.6504 344.703 53.7871C344.832 53.9199 344.896 54.1172 344.896 54.3789C344.896 54.6328 344.832 54.8281 344.703 54.9648C344.574 55.1016 344.398 55.1699 344.176 55.1699C343.977 55.1699 343.811 55.1094 343.678 54.9883C343.549 54.8633 343.484 54.6602 343.484 54.3789ZM343.484 49.2051C343.484 48.6777 343.715 48.4141 344.176 48.4141C344.656 48.4141 344.896 48.6777 344.896 49.2051C344.896 49.459 344.832 49.6543 344.703 49.791C344.574 49.9277 344.398 49.9961 344.176 49.9961C343.977 49.9961 343.811 49.9355 343.678 49.8145C343.549 49.6895 343.484 49.4863 343.484 49.2051ZM349.057 49.7676C349.959 49.7676 350.668 49.9922 351.184 50.4414C351.703 50.8867 351.963 51.498 351.963 52.2754C351.963 53.1621 351.68 53.8574 351.113 54.3613C350.551 54.8652 349.773 55.1172 348.781 55.1172C347.816 55.1172 347.08 54.9629 346.572 54.6543V53.7168C346.846 53.8926 347.186 54.0312 347.592 54.1328C347.998 54.2305 348.398 54.2793 348.793 54.2793C349.48 54.2793 350.014 54.1172 350.393 53.793C350.775 53.4688 350.967 53 350.967 52.3867C350.967 51.1914 350.234 50.5938 348.77 50.5938C348.398 50.5938 347.902 50.6504 347.281 50.7637L346.777 50.4414L347.1 46.4336H351.359V47.3301H347.932L347.715 49.9023C348.164 49.8125 348.611 49.7676 349.057 49.7676ZM359.281 53.0312H358.01V55H357.078V53.0312H352.912V52.1816L356.979 46.3867H358.01V52.1465H359.281V53.0312ZM357.078 52.1465V49.2988C357.078 48.7402 357.098 48.1094 357.137 47.4062H357.09C356.902 47.7812 356.727 48.0918 356.562 48.3379L353.885 52.1465H357.078ZM369.254 48.9297C369.254 49.7969 368.957 50.4648 368.363 50.9336C367.773 51.3984 366.928 51.6309 365.826 51.6309H364.818V55H363.822V46.4336H366.043C368.184 46.4336 369.254 47.2656 369.254 48.9297ZM364.818 50.7754H365.715C366.598 50.7754 367.236 50.6328 367.631 50.3477C368.025 50.0625 368.223 49.6055 368.223 48.9766C368.223 48.4102 368.037 47.9883 367.666 47.7109C367.295 47.4336 366.717 47.2949 365.932 47.2949H364.818V50.7754ZM374.844 55L371.938 47.4062H371.891C371.945 48.0078 371.973 48.7227 371.973 49.5508V55H371.053V46.4336H372.553L375.266 53.5H375.312L378.049 46.4336H379.537V55H378.541V49.4805C378.541 48.8477 378.568 48.1602 378.623 47.418H378.576L375.646 55H374.844Z" fill="white"/>
<path d="M502.763 27.4C502.763 26.3013 503.008 25.32 503.499 24.456C504 23.5813 504.678 22.904 505.531 22.424C506.395 21.9333 507.36 21.688 508.427 21.688C509.675 21.688 510.768 22.008 511.707 22.648C512.646 23.288 513.302 24.1733 513.675 25.304H511.099C510.843 24.7707 510.48 24.3707 510.011 24.104C509.552 23.8373 509.019 23.704 508.411 23.704C507.76 23.704 507.179 23.8587 506.667 24.168C506.166 24.4667 505.771 24.8933 505.483 25.448C505.206 26.0027 505.067 26.6533 505.067 27.4C505.067 28.136 505.206 28.7867 505.483 29.352C505.771 29.9067 506.166 30.3387 506.667 30.648C507.179 30.9467 507.76 31.096 508.411 31.096C509.019 31.096 509.552 30.9627 510.011 30.696C510.48 30.4187 510.843 30.0133 511.099 29.48H513.675C513.302 30.6213 512.646 31.512 511.707 32.152C510.779 32.7813 509.686 33.096 508.427 33.096C507.36 33.096 506.395 32.856 505.531 32.376C504.678 31.8853 504 31.208 503.499 30.344C503.008 29.48 502.763 28.4987 502.763 27.4ZM523.956 24.136V33H521.7V31.88C521.412 32.264 521.034 32.568 520.564 32.792C520.106 33.0053 519.604 33.112 519.06 33.112C518.367 33.112 517.754 32.968 517.22 32.68C516.687 32.3813 516.266 31.9493 515.956 31.384C515.658 30.808 515.508 30.1253 515.508 29.336V24.136H517.748V29.016C517.748 29.72 517.924 30.264 518.276 30.648C518.628 31.0213 519.108 31.208 519.716 31.208C520.335 31.208 520.82 31.0213 521.172 30.648C521.524 30.264 521.7 29.72 521.7 29.016V24.136H523.956ZM528.407 25.512C528.695 25.0427 529.068 24.6747 529.527 24.408C529.996 24.1413 530.529 24.008 531.127 24.008V26.36H530.535C529.831 26.36 529.297 26.5253 528.935 26.856C528.583 27.1867 528.407 27.7627 528.407 28.584V33H526.167V24.136H528.407V25.512ZM534.875 25.512C535.163 25.0427 535.537 24.6747 535.995 24.408C536.465 24.1413 536.998 24.008 537.595 24.008V26.36H537.003C536.299 26.36 535.766 26.5253 535.403 26.856C535.051 27.1867 534.875 27.7627 534.875 28.584V33H532.635V24.136H534.875V25.512ZM547.344 28.376C547.344 28.696 547.323 28.984 547.28 29.24H540.8C540.853 29.88 541.077 30.3813 541.472 30.744C541.867 31.1067 542.352 31.288 542.928 31.288C543.76 31.288 544.352 30.9307 544.704 30.216H547.12C546.864 31.0693 546.373 31.7733 545.648 32.328C544.923 32.872 544.032 33.144 542.976 33.144C542.123 33.144 541.355 32.9573 540.672 32.584C540 32.2 539.472 31.6613 539.088 30.968C538.715 30.2747 538.528 29.4747 538.528 28.568C538.528 27.6507 538.715 26.8453 539.088 26.152C539.461 25.4587 539.984 24.9253 540.656 24.552C541.328 24.1787 542.101 23.992 542.976 23.992C543.819 23.992 544.571 24.1733 545.232 24.536C545.904 24.8987 546.421 25.416 546.784 26.088C547.157 26.7493 547.344 27.512 547.344 28.376ZM545.024 27.736C545.013 27.16 544.805 26.7013 544.4 26.36C543.995 26.008 543.499 25.832 542.912 25.832C542.357 25.832 541.888 26.0027 541.504 26.344C541.131 26.6747 540.901 27.1387 540.816 27.736H545.024ZM553.891 24.008C554.947 24.008 555.8 24.344 556.451 25.016C557.102 25.6773 557.427 26.6053 557.427 27.8V33H555.187V28.104C555.187 27.4 555.011 26.8613 554.659 26.488C554.307 26.104 553.827 25.912 553.219 25.912C552.6 25.912 552.11 26.104 551.747 26.488C551.395 26.8613 551.219 27.4 551.219 28.104V33H548.979V24.136H551.219V25.24C551.518 24.856 551.896 24.5573 552.355 24.344C552.824 24.12 553.336 24.008 553.891 24.008ZM562.165 25.976V30.264C562.165 30.5627 562.234 30.7813 562.373 30.92C562.522 31.048 562.768 31.112 563.109 31.112H564.149V33H562.741C560.853 33 559.909 32.0827 559.909 30.248V25.976H558.853V24.136H559.909V21.944H562.165V24.136H564.149V25.976H562.165ZM568 21.16V33H565.76V21.16H568ZM578.693 24.136L573.205 37.192H570.821L572.741 32.776L569.189 24.136H571.701L573.989 30.328L576.309 24.136H578.693ZM590.561 30.872H586.113L585.377 33H583.025L587.041 21.816H589.649L593.665 33H591.297L590.561 30.872ZM589.953 29.08L588.337 24.408L586.721 29.08H589.953ZM594.59 28.568C594.59 27.6507 594.777 26.8507 595.151 26.168C595.524 25.4747 596.041 24.9413 596.703 24.568C597.364 24.184 598.121 23.992 598.975 23.992C600.073 23.992 600.98 24.2693 601.695 24.824C602.42 25.368 602.905 26.136 603.151 27.128H600.735C600.607 26.744 600.388 26.4453 600.079 26.232C599.78 26.008 599.407 25.896 598.959 25.896C598.319 25.896 597.812 26.1307 597.439 26.6C597.065 27.0587 596.879 27.7147 596.879 28.568C596.879 29.4107 597.065 30.0667 597.439 30.536C597.812 30.9947 598.319 31.224 598.959 31.224C599.865 31.224 600.457 30.8187 600.735 30.008H603.151C602.905 30.968 602.42 31.7307 601.695 32.296C600.969 32.8613 600.063 33.144 598.975 33.144C598.121 33.144 597.364 32.9573 596.703 32.584C596.041 32.2 595.524 31.6667 595.151 30.984C594.777 30.2907 594.59 29.4853 594.59 28.568ZM607.4 25.976V30.264C607.4 30.5627 607.469 30.7813 607.608 30.92C607.757 31.048 608.002 31.112 608.344 31.112H609.384V33H607.976C606.088 33 605.144 32.0827 605.144 30.248V25.976H604.088V24.136H605.144V21.944H607.4V24.136H609.384V25.976H607.4ZM612.131 23.08C611.736 23.08 611.405 22.9573 611.139 22.712C610.883 22.456 610.755 22.1413 610.755 21.768C610.755 21.3947 610.883 21.0853 611.139 20.84C611.405 20.584 611.736 20.456 612.131 20.456C612.525 20.456 612.851 20.584 613.107 20.84C613.373 21.0853 613.507 21.3947 613.507 21.768C613.507 22.1413 613.373 22.456 613.107 22.712C612.851 22.9573 612.525 23.08 612.131 23.08ZM613.235 24.136V33H610.995V24.136H613.235ZM619.144 30.936L621.384 24.136H623.768L620.488 33H617.768L614.504 24.136H616.904L619.144 30.936ZM633.266 28.376C633.266 28.696 633.245 28.984 633.202 29.24H626.722C626.775 29.88 626.999 30.3813 627.394 30.744C627.789 31.1067 628.274 31.288 628.85 31.288C629.682 31.288 630.274 30.9307 630.626 30.216H633.042C632.786 31.0693 632.295 31.7733 631.57 32.328C630.845 32.872 629.954 33.144 628.898 33.144C628.045 33.144 627.277 32.9573 626.594 32.584C625.922 32.2 625.394 31.6613 625.01 30.968C624.637 30.2747 624.45 29.4747 624.45 28.568C624.45 27.6507 624.637 26.8453 625.01 26.152C625.383 25.4587 625.906 24.9253 626.578 24.552C627.25 24.1787 628.023 23.992 628.898 23.992C629.741 23.992 630.493 24.1733 631.154 24.536C631.826 24.8987 632.343 25.416 632.706 26.088C633.079 26.7493 633.266 27.512 633.266 28.376ZM630.946 27.736C630.935 27.16 630.727 26.7013 630.322 26.36C629.917 26.008 629.421 25.832 628.834 25.832C628.279 25.832 627.81 26.0027 627.426 26.344C627.053 26.6747 626.823 27.1387 626.738 27.736H630.946Z" fill="#07C8A5"/>
<path d="M506.225 55H505.275V48.8945C505.275 48.3867 505.291 47.9062 505.322 47.4531C505.24 47.5352 505.148 47.6211 505.047 47.7109C504.945 47.8008 504.48 48.1816 503.652 48.8535L503.137 48.1855L505.404 46.4336H506.225V55ZM515.523 53.0312H514.252V55H513.32V53.0312H509.154V52.1816L513.221 46.3867H514.252V52.1465H515.523V53.0312ZM513.32 52.1465V49.2988C513.32 48.7402 513.34 48.1094 513.379 47.4062H513.332C513.145 47.7812 512.969 48.0918 512.805 48.3379L510.127 52.1465H513.32ZM526.902 50.6348C526.902 52.0488 526.518 53.1309 525.748 53.8809C524.982 54.627 523.879 55 522.438 55H520.064V46.4336H522.689C524.021 46.4336 525.057 46.8027 525.795 47.541C526.533 48.2793 526.902 49.3105 526.902 50.6348ZM525.848 50.6699C525.848 49.5527 525.566 48.7109 525.004 48.1445C524.445 47.5781 523.613 47.2949 522.508 47.2949H521.061V54.1387H522.273C523.461 54.1387 524.354 53.8477 524.951 53.2656C525.549 52.6797 525.848 51.8145 525.848 50.6699ZM534.203 55L533.137 52.2754H529.703L528.648 55H527.641L531.027 46.3984H531.865L535.234 55H534.203ZM532.826 51.3789L531.83 48.7246C531.701 48.3887 531.568 47.9766 531.432 47.4883C531.346 47.8633 531.223 48.2754 531.062 48.7246L530.055 51.3789H532.826ZM539.049 55H538.053V47.3184H535.34V46.4336H541.762V47.3184H539.049V55ZM548.441 55L547.375 52.2754H543.941L542.887 55H541.879L545.266 46.3984H546.104L549.473 55H548.441ZM547.064 51.3789L546.068 48.7246C545.939 48.3887 545.807 47.9766 545.67 47.4883C545.584 47.8633 545.461 48.2754 545.301 48.7246L544.293 51.3789H547.064ZM554.764 55H553.768V46.4336H558.543V47.3184H554.764V50.4531H558.314V51.3379H554.764V55ZM559.967 55V46.4336H560.963V55H559.967ZM568.094 55H563.318V46.4336H568.094V47.3184H564.314V50.0781H567.865V50.957H564.314V54.1094H568.094V55ZM569.998 55V46.4336H570.994V54.0977H574.773V55H569.998ZM583.07 50.6348C583.07 52.0488 582.686 53.1309 581.916 53.8809C581.15 54.627 580.047 55 578.605 55H576.232V46.4336H578.857C580.189 46.4336 581.225 46.8027 581.963 47.541C582.701 48.2793 583.07 49.3105 583.07 50.6348ZM582.016 50.6699C582.016 49.5527 581.734 48.7109 581.172 48.1445C580.613 47.5781 579.781 47.2949 578.676 47.2949H577.229V54.1387H578.441C579.629 54.1387 580.521 53.8477 581.119 53.2656C581.717 52.6797 582.016 51.8145 582.016 50.6699ZM589.82 52.7207C589.82 53.4746 589.547 54.0625 589 54.4844C588.453 54.9062 587.711 55.1172 586.773 55.1172C585.758 55.1172 584.977 54.9863 584.43 54.7246V53.7637C584.781 53.9121 585.164 54.0293 585.578 54.1152C585.992 54.2012 586.402 54.2441 586.809 54.2441C587.473 54.2441 587.973 54.1191 588.309 53.8691C588.645 53.6152 588.812 53.2637 588.812 52.8145C588.812 52.5176 588.752 52.2754 588.631 52.0879C588.514 51.8965 588.314 51.7207 588.033 51.5605C587.756 51.4004 587.332 51.2188 586.762 51.0156C585.965 50.7305 585.395 50.3926 585.051 50.002C584.711 49.6113 584.541 49.1016 584.541 48.4727C584.541 47.8125 584.789 47.2871 585.285 46.8965C585.781 46.5059 586.438 46.3105 587.254 46.3105C588.105 46.3105 588.889 46.4668 589.604 46.7793L589.293 47.6465C588.586 47.3496 587.898 47.2012 587.23 47.2012C586.703 47.2012 586.291 47.3145 585.994 47.541C585.697 47.7676 585.549 48.082 585.549 48.4844C585.549 48.7812 585.604 49.0254 585.713 49.2168C585.822 49.4043 586.006 49.5781 586.264 49.7383C586.525 49.8945 586.924 50.0684 587.459 50.2598C588.357 50.5801 588.975 50.9238 589.311 51.291C589.65 51.6582 589.82 52.1348 589.82 52.7207ZM595.686 55H594.689V46.4336H599.465V47.3184H595.686V50.4531H599.236V51.3379H595.686V55ZM600.889 55V46.4336H601.885V55H600.889ZM604.24 55V46.4336H605.236V54.0977H609.016V55H604.24ZM610.475 55V46.4336H611.471V54.0977H615.25V55H610.475ZM621.484 55H616.709V46.4336H621.484V47.3184H617.705V50.0781H621.256V50.957H617.705V54.1094H621.484V55ZM630.227 50.6348C630.227 52.0488 629.842 53.1309 629.072 53.8809C628.307 54.627 627.203 55 625.762 55H623.389V46.4336H626.014C627.346 46.4336 628.381 46.8027 629.119 47.541C629.857 48.2793 630.227 49.3105 630.227 50.6348ZM629.172 50.6699C629.172 49.5527 628.891 48.7109 628.328 48.1445C627.77 47.5781 626.938 47.2949 625.832 47.2949H624.385V54.1387H625.598C626.785 54.1387 627.678 53.8477 628.275 53.2656C628.873 52.6797 629.172 51.8145 629.172 50.6699Z" fill="white"/>
<defs>
<linearGradient id="paint0_linear" x1="902" y1="36.8852" x2="124.878" y2="-274.636" gradientUnits="userSpaceOnUse">
<stop stop-color="#100268" stop-opacity="0.74"/>
<stop offset="0.265807" stop-color="#100268"/>
</linearGradient>
</defs>
</svg>
