<svg width="902" height="75" viewBox="0 0 902 75" fill="none" xmlns="http://www.w3.org/2000/svg">
<rect width="902" height="75" rx="5" fill="url(#paint0_linear)"/>
<circle cx="42.5" cy="37.5" r="7.5" fill="#07C8A5"/>
<path d="M95.0559 26.664C95.0559 25.416 95.3259 24.306 95.8659 23.334C96.4059 22.35 97.1559 21.588 98.1159 21.048C99.0879 20.496 100.186 20.22 101.41 20.22C102.91 20.22 104.194 20.616 105.262 21.408C106.33 22.2 107.044 23.28 107.404 24.648H104.02C103.768 24.12 103.408 23.718 102.94 23.442C102.484 23.166 101.962 23.028 101.374 23.028C100.426 23.028 99.6579 23.358 99.0699 24.018C98.4819 24.678 98.1879 25.56 98.1879 26.664C98.1879 27.768 98.4819 28.65 99.0699 29.31C99.6579 29.97 100.426 30.3 101.374 30.3C101.962 30.3 102.484 30.162 102.94 29.886C103.408 29.61 103.768 29.208 104.02 28.68H107.404C107.044 30.048 106.33 31.128 105.262 31.92C104.194 32.7 102.91 33.09 101.41 33.09C100.186 33.09 99.0879 32.82 98.1159 32.28C97.1559 31.728 96.4059 30.966 95.8659 29.994C95.3259 29.022 95.0559 27.912 95.0559 26.664ZM119.207 22.956V33H116.129V31.632C115.817 32.076 115.391 32.436 114.851 32.712C114.323 32.976 113.735 33.108 113.087 33.108C112.319 33.108 111.641 32.94 111.053 32.604C110.465 32.256 110.009 31.758 109.685 31.11C109.361 30.462 109.199 29.7 109.199 28.824V22.956H112.259V28.41C112.259 29.082 112.433 29.604 112.781 29.976C113.129 30.348 113.597 30.534 114.185 30.534C114.785 30.534 115.259 30.348 115.607 29.976C115.955 29.604 116.129 29.082 116.129 28.41V22.956H119.207ZM125.504 33.144C124.628 33.144 123.848 32.994 123.164 32.694C122.48 32.394 121.94 31.986 121.544 31.47C121.148 30.942 120.926 30.354 120.878 29.706H123.92C123.956 30.054 124.118 30.336 124.406 30.552C124.694 30.768 125.048 30.876 125.468 30.876C125.852 30.876 126.146 30.804 126.35 30.66C126.566 30.504 126.674 30.306 126.674 30.066C126.674 29.778 126.524 29.568 126.224 29.436C125.924 29.292 125.438 29.136 124.766 28.968C124.046 28.8 123.446 28.626 122.966 28.446C122.486 28.254 122.072 27.96 121.724 27.564C121.376 27.156 121.202 26.61 121.202 25.926C121.202 25.35 121.358 24.828 121.67 24.36C121.994 23.88 122.462 23.502 123.074 23.226C123.698 22.95 124.436 22.812 125.288 22.812C126.548 22.812 127.538 23.124 128.258 23.748C128.99 24.372 129.41 25.2 129.518 26.232H126.674C126.626 25.884 126.47 25.608 126.206 25.404C125.954 25.2 125.618 25.098 125.198 25.098C124.838 25.098 124.562 25.17 124.37 25.314C124.178 25.446 124.082 25.632 124.082 25.872C124.082 26.16 124.232 26.376 124.532 26.52C124.844 26.664 125.324 26.808 125.972 26.952C126.716 27.144 127.322 27.336 127.79 27.528C128.258 27.708 128.666 28.008 129.014 28.428C129.374 28.836 129.56 29.388 129.572 30.084C129.572 30.672 129.404 31.2 129.068 31.668C128.744 32.124 128.27 32.484 127.646 32.748C127.034 33.012 126.32 33.144 125.504 33.144ZM137.053 30.39V33H135.487C134.371 33 133.501 32.73 132.877 32.19C132.253 31.638 131.941 30.744 131.941 29.508V25.512H130.717V22.956H131.941V20.508H135.019V22.956H137.035V25.512H135.019V29.544C135.019 29.844 135.091 30.06 135.235 30.192C135.379 30.324 135.619 30.39 135.955 30.39H137.053ZM143.339 33.144C142.355 33.144 141.467 32.934 140.675 32.514C139.895 32.094 139.277 31.494 138.821 30.714C138.377 29.934 138.155 29.022 138.155 27.978C138.155 26.946 138.383 26.04 138.839 25.26C139.295 24.468 139.919 23.862 140.711 23.442C141.503 23.022 142.391 22.812 143.375 22.812C144.359 22.812 145.247 23.022 146.039 23.442C146.831 23.862 147.455 24.468 147.911 25.26C148.367 26.04 148.595 26.946 148.595 27.978C148.595 29.01 148.361 29.922 147.893 30.714C147.437 31.494 146.807 32.094 146.003 32.514C145.211 32.934 144.323 33.144 143.339 33.144ZM143.339 30.48C143.927 30.48 144.425 30.264 144.833 29.832C145.253 29.4 145.463 28.782 145.463 27.978C145.463 27.174 145.259 26.556 144.851 26.124C144.455 25.692 143.963 25.476 143.375 25.476C142.775 25.476 142.277 25.692 141.881 26.124C141.485 26.544 141.287 27.162 141.287 27.978C141.287 28.782 141.479 29.4 141.863 29.832C142.259 30.264 142.751 30.48 143.339 30.48ZM163.044 22.848C164.292 22.848 165.282 23.226 166.014 23.982C166.758 24.738 167.13 25.788 167.13 27.132V33H164.07V27.546C164.07 26.898 163.896 26.4 163.548 26.052C163.212 25.692 162.744 25.512 162.144 25.512C161.544 25.512 161.07 25.692 160.722 26.052C160.386 26.4 160.218 26.898 160.218 27.546V33H157.158V27.546C157.158 26.898 156.984 26.4 156.636 26.052C156.3 25.692 155.832 25.512 155.232 25.512C154.632 25.512 154.158 25.692 153.81 26.052C153.474 26.4 153.306 26.898 153.306 27.546V33H150.228V22.956H153.306V24.216C153.618 23.796 154.026 23.466 154.53 23.226C155.034 22.974 155.604 22.848 156.24 22.848C156.996 22.848 157.668 23.01 158.256 23.334C158.856 23.658 159.324 24.12 159.66 24.72C160.008 24.168 160.482 23.718 161.082 23.37C161.682 23.022 162.336 22.848 163.044 22.848ZM178.751 27.816C178.751 28.104 178.733 28.404 178.697 28.716H171.731C171.779 29.34 171.977 29.82 172.325 30.156C172.685 30.48 173.123 30.642 173.639 30.642C174.407 30.642 174.941 30.318 175.241 29.67H178.517C178.349 30.33 178.043 30.924 177.599 31.452C177.167 31.98 176.621 32.394 175.961 32.694C175.301 32.994 174.563 33.144 173.747 33.144C172.763 33.144 171.887 32.934 171.119 32.514C170.351 32.094 169.751 31.494 169.319 30.714C168.887 29.934 168.671 29.022 168.671 27.978C168.671 26.934 168.881 26.022 169.301 25.242C169.733 24.462 170.333 23.862 171.101 23.442C171.869 23.022 172.751 22.812 173.747 22.812C174.719 22.812 175.583 23.016 176.339 23.424C177.095 23.832 177.683 24.414 178.103 25.17C178.535 25.926 178.751 26.808 178.751 27.816ZM175.601 27.006C175.601 26.478 175.421 26.058 175.061 25.746C174.701 25.434 174.251 25.278 173.711 25.278C173.195 25.278 172.757 25.428 172.397 25.728C172.049 26.028 171.833 26.454 171.749 27.006H175.601ZM183.453 24.63C183.813 24.078 184.263 23.646 184.803 23.334C185.343 23.01 185.943 22.848 186.603 22.848V26.106H185.757C184.989 26.106 184.413 26.274 184.029 26.61C183.645 26.934 183.453 27.51 183.453 28.338V33H180.375V22.956H183.453V24.63ZM194.966 22.83V25.386H199.088V27.762H194.966V30.534H199.628V33H191.888V20.364H199.628V22.83H194.966ZM207.747 22.848C208.923 22.848 209.859 23.232 210.555 24C211.263 24.756 211.617 25.8 211.617 27.132V33H208.557V27.546C208.557 26.874 208.383 26.352 208.035 25.98C207.687 25.608 207.219 25.422 206.631 25.422C206.043 25.422 205.575 25.608 205.227 25.98C204.879 26.352 204.705 26.874 204.705 27.546V33H201.627V22.956H204.705V24.288C205.017 23.844 205.437 23.496 205.965 23.244C206.493 22.98 207.087 22.848 207.747 22.848ZM219.354 30.39V33H217.788C216.672 33 215.802 32.73 215.178 32.19C214.554 31.638 214.242 30.744 214.242 29.508V25.512H213.018V22.956H214.242V20.508H217.32V22.956H219.336V25.512H217.32V29.544C217.32 29.844 217.392 30.06 217.536 30.192C217.68 30.324 217.92 30.39 218.256 30.39H219.354ZM224.146 24.63C224.506 24.078 224.956 23.646 225.496 23.334C226.036 23.01 226.636 22.848 227.296 22.848V26.106H226.45C225.682 26.106 225.106 26.274 224.722 26.61C224.338 26.934 224.146 27.51 224.146 28.338V33H221.068V22.956H224.146V24.63ZM239.027 22.956L232.727 37.77H229.415L231.719 32.658L227.633 22.956H231.071L233.393 29.238L235.697 22.956H239.027ZM248.527 33.126C247.603 33.126 246.775 32.976 246.043 32.676C245.311 32.376 244.723 31.932 244.279 31.344C243.847 30.756 243.619 30.048 243.595 29.22H246.871C246.919 29.688 247.081 30.048 247.357 30.3C247.633 30.54 247.993 30.66 248.437 30.66C248.893 30.66 249.253 30.558 249.517 30.354C249.781 30.138 249.913 29.844 249.913 29.472C249.913 29.16 249.805 28.902 249.589 28.698C249.385 28.494 249.127 28.326 248.815 28.194C248.515 28.062 248.083 27.912 247.519 27.744C246.703 27.492 246.037 27.24 245.521 26.988C245.005 26.736 244.561 26.364 244.189 25.872C243.817 25.38 243.631 24.738 243.631 23.946C243.631 22.77 244.057 21.852 244.909 21.192C245.761 20.52 246.871 20.184 248.239 20.184C249.631 20.184 250.753 20.52 251.605 21.192C252.457 21.852 252.913 22.776 252.973 23.964H249.643C249.619 23.556 249.469 23.238 249.193 23.01C248.917 22.77 248.563 22.65 248.131 22.65C247.759 22.65 247.459 22.752 247.231 22.956C247.003 23.148 246.889 23.43 246.889 23.802C246.889 24.21 247.081 24.528 247.465 24.756C247.849 24.984 248.449 25.23 249.265 25.494C250.081 25.77 250.741 26.034 251.245 26.286C251.761 26.538 252.205 26.904 252.577 27.384C252.949 27.864 253.135 28.482 253.135 29.238C253.135 29.958 252.949 30.612 252.577 31.2C252.217 31.788 251.689 32.256 250.993 32.604C250.297 32.952 249.475 33.126 248.527 33.126ZM261.203 22.848C262.355 22.848 263.279 23.232 263.975 24C264.671 24.756 265.019 25.8 265.019 27.132V33H261.959V27.546C261.959 26.874 261.785 26.352 261.437 25.98C261.089 25.608 260.621 25.422 260.033 25.422C259.445 25.422 258.977 25.608 258.629 25.98C258.281 26.352 258.107 26.874 258.107 27.546V33H255.029V19.68H258.107V24.306C258.419 23.862 258.845 23.508 259.385 23.244C259.925 22.98 260.531 22.848 261.203 22.848ZM276.626 27.816C276.626 28.104 276.608 28.404 276.572 28.716H269.606C269.654 29.34 269.852 29.82 270.2 30.156C270.56 30.48 270.998 30.642 271.514 30.642C272.282 30.642 272.816 30.318 273.116 29.67H276.392C276.224 30.33 275.918 30.924 275.474 31.452C275.042 31.98 274.496 32.394 273.836 32.694C273.176 32.994 272.438 33.144 271.622 33.144C270.638 33.144 269.762 32.934 268.994 32.514C268.226 32.094 267.626 31.494 267.194 30.714C266.762 29.934 266.546 29.022 266.546 27.978C266.546 26.934 266.756 26.022 267.176 25.242C267.608 24.462 268.208 23.862 268.976 23.442C269.744 23.022 270.626 22.812 271.622 22.812C272.594 22.812 273.458 23.016 274.214 23.424C274.97 23.832 275.558 24.414 275.978 25.17C276.41 25.926 276.626 26.808 276.626 27.816ZM273.476 27.006C273.476 26.478 273.296 26.058 272.936 25.746C272.576 25.434 272.126 25.278 271.586 25.278C271.07 25.278 270.632 25.428 270.272 25.728C269.924 26.028 269.708 26.454 269.624 27.006H273.476ZM287.718 27.816C287.718 28.104 287.7 28.404 287.664 28.716H280.698C280.746 29.34 280.944 29.82 281.292 30.156C281.652 30.48 282.09 30.642 282.606 30.642C283.374 30.642 283.908 30.318 284.208 29.67H287.484C287.316 30.33 287.01 30.924 286.566 31.452C286.134 31.98 285.588 32.394 284.928 32.694C284.268 32.994 283.53 33.144 282.714 33.144C281.73 33.144 280.854 32.934 280.086 32.514C279.318 32.094 278.718 31.494 278.286 30.714C277.854 29.934 277.638 29.022 277.638 27.978C277.638 26.934 277.848 26.022 278.268 25.242C278.7 24.462 279.3 23.862 280.068 23.442C280.836 23.022 281.718 22.812 282.714 22.812C283.686 22.812 284.55 23.016 285.306 23.424C286.062 23.832 286.65 24.414 287.07 25.17C287.502 25.926 287.718 26.808 287.718 27.816ZM284.568 27.006C284.568 26.478 284.388 26.058 284.028 25.746C283.668 25.434 283.218 25.278 282.678 25.278C282.162 25.278 281.724 25.428 281.364 25.728C281.016 26.028 280.8 26.454 280.716 27.006H284.568ZM294.94 30.39V33H293.374C292.258 33 291.388 32.73 290.764 32.19C290.14 31.638 289.828 30.744 289.828 29.508V25.512H288.604V22.956H289.828V20.508H292.906V22.956H294.922V25.512H292.906V29.544C292.906 29.844 292.978 30.06 293.122 30.192C293.266 30.324 293.506 30.39 293.842 30.39H294.94Z" fill="white"/>
<path d="M99.0215 47.2012C98.0801 47.2012 97.3359 47.5156 96.7891 48.1445C96.2461 48.7695 95.9746 49.627 95.9746 50.7168C95.9746 51.8379 96.2363 52.7051 96.7598 53.3184C97.2871 53.9277 98.0371 54.2324 99.0098 54.2324C99.6074 54.2324 100.289 54.125 101.055 53.9102V54.7832C100.461 55.0059 99.7285 55.1172 98.8574 55.1172C97.5957 55.1172 96.6211 54.7344 95.9336 53.9688C95.25 53.2031 94.9082 52.1152 94.9082 50.7051C94.9082 49.8223 95.0723 49.0488 95.4004 48.3848C95.7324 47.7207 96.209 47.209 96.8301 46.8496C97.4551 46.4902 98.1895 46.3105 99.0332 46.3105C99.9316 46.3105 100.717 46.4746 101.389 46.8027L100.967 47.6582C100.318 47.3535 99.6699 47.2012 99.0215 47.2012ZM109.393 46.4336V51.9766C109.393 52.9531 109.098 53.7207 108.508 54.2793C107.918 54.8379 107.107 55.1172 106.076 55.1172C105.045 55.1172 104.246 54.8359 103.68 54.2734C103.117 53.7109 102.836 52.9375 102.836 51.9531V46.4336H103.832V52.0234C103.832 52.7383 104.027 53.2871 104.418 53.6699C104.809 54.0527 105.383 54.2441 106.141 54.2441C106.863 54.2441 107.42 54.0527 107.811 53.6699C108.201 53.2832 108.396 52.7305 108.396 52.0117V46.4336H109.393ZM116.5 52.7207C116.5 53.4746 116.227 54.0625 115.68 54.4844C115.133 54.9062 114.391 55.1172 113.453 55.1172C112.438 55.1172 111.656 54.9863 111.109 54.7246V53.7637C111.461 53.9121 111.844 54.0293 112.258 54.1152C112.672 54.2012 113.082 54.2441 113.488 54.2441C114.152 54.2441 114.652 54.1191 114.988 53.8691C115.324 53.6152 115.492 53.2637 115.492 52.8145C115.492 52.5176 115.432 52.2754 115.311 52.0879C115.193 51.8965 114.994 51.7207 114.713 51.5605C114.436 51.4004 114.012 51.2188 113.441 51.0156C112.645 50.7305 112.074 50.3926 111.73 50.002C111.391 49.6113 111.221 49.1016 111.221 48.4727C111.221 47.8125 111.469 47.2871 111.965 46.8965C112.461 46.5059 113.117 46.3105 113.934 46.3105C114.785 46.3105 115.568 46.4668 116.283 46.7793L115.973 47.6465C115.266 47.3496 114.578 47.2012 113.91 47.2012C113.383 47.2012 112.971 47.3145 112.674 47.541C112.377 47.7676 112.229 48.082 112.229 48.4844C112.229 48.7812 112.283 49.0254 112.393 49.2168C112.502 49.4043 112.686 49.5781 112.943 49.7383C113.205 49.8945 113.604 50.0684 114.139 50.2598C115.037 50.5801 115.654 50.9238 115.99 51.291C116.33 51.6582 116.5 52.1348 116.5 52.7207ZM120.889 55H119.893V47.3184H117.18V46.4336H123.602V47.3184H120.889V55ZM132.332 50.7051C132.332 52.0762 131.984 53.1543 131.289 53.9395C130.598 54.7246 129.635 55.1172 128.4 55.1172C127.139 55.1172 126.164 54.7324 125.477 53.9629C124.793 53.1895 124.451 52.0996 124.451 50.6934C124.451 49.2988 124.795 48.2188 125.482 47.4531C126.17 46.6836 127.146 46.2988 128.412 46.2988C129.643 46.2988 130.604 46.6895 131.295 47.4707C131.986 48.252 132.332 49.3301 132.332 50.7051ZM125.506 50.7051C125.506 51.8652 125.752 52.7461 126.244 53.3477C126.74 53.9453 127.459 54.2441 128.4 54.2441C129.35 54.2441 130.066 53.9453 130.551 53.3477C131.035 52.75 131.277 51.8691 131.277 50.7051C131.277 49.5527 131.035 48.6797 130.551 48.0859C130.07 47.4883 129.357 47.1895 128.412 47.1895C127.463 47.1895 126.74 47.4902 126.244 48.0918C125.752 48.6895 125.506 49.5605 125.506 50.7051ZM138.039 55L135.133 47.4062H135.086C135.141 48.0078 135.168 48.7227 135.168 49.5508V55H134.248V46.4336H135.748L138.461 53.5H138.508L141.244 46.4336H142.732V55H141.736V49.4805C141.736 48.8477 141.764 48.1602 141.818 47.418H141.771L138.842 55H138.039ZM149.863 55H145.088V46.4336H149.863V47.3184H146.084V50.0781H149.635V50.957H146.084V54.1094H149.863V55ZM152.764 51.4375V55H151.768V46.4336H154.117C155.168 46.4336 155.943 46.6348 156.443 47.0371C156.947 47.4395 157.199 48.0449 157.199 48.8535C157.199 49.9863 156.625 50.752 155.477 51.1504L157.803 55H156.625L154.551 51.4375H152.764ZM152.764 50.582H154.129C154.832 50.582 155.348 50.4434 155.676 50.166C156.004 49.8848 156.168 49.4648 156.168 48.9062C156.168 48.3398 156 47.9316 155.664 47.6816C155.332 47.4316 154.797 47.3066 154.059 47.3066H152.764V50.582ZM162.303 55V46.4336H163.299V55H162.303ZM172.346 55H171.209L166.527 47.8105H166.48C166.543 48.6543 166.574 49.4277 166.574 50.1309V55H165.654V46.4336H166.779L171.449 53.5938H171.496C171.488 53.4883 171.471 53.1504 171.443 52.5801C171.416 52.0059 171.406 51.5957 171.414 51.3496V46.4336H172.346V55ZM177.338 55H176.342V47.3184H173.629V46.4336H180.051V47.3184H177.338V55ZM186.121 55H181.346V46.4336H186.121V47.3184H182.342V50.0781H185.893V50.957H182.342V54.1094H186.121V55ZM189.021 51.4375V55H188.025V46.4336H190.375C191.426 46.4336 192.201 46.6348 192.701 47.0371C193.205 47.4395 193.457 48.0449 193.457 48.8535C193.457 49.9863 192.883 50.752 191.734 51.1504L194.061 55H192.883L190.809 51.4375H189.021ZM189.021 50.582H190.387C191.09 50.582 191.605 50.4434 191.934 50.166C192.262 49.8848 192.426 49.4648 192.426 48.9062C192.426 48.3398 192.258 47.9316 191.922 47.6816C191.59 47.4316 191.055 47.3066 190.316 47.3066H189.021V50.582ZM200.828 55L199.762 52.2754H196.328L195.273 55H194.266L197.652 46.3984H198.49L201.859 55H200.828ZM199.451 51.3789L198.455 48.7246C198.326 48.3887 198.193 47.9766 198.057 47.4883C197.971 47.8633 197.848 48.2754 197.688 48.7246L196.68 51.3789H199.451ZM206.705 47.2012C205.764 47.2012 205.02 47.5156 204.473 48.1445C203.93 48.7695 203.658 49.627 203.658 50.7168C203.658 51.8379 203.92 52.7051 204.443 53.3184C204.971 53.9277 205.721 54.2324 206.693 54.2324C207.291 54.2324 207.973 54.125 208.738 53.9102V54.7832C208.145 55.0059 207.412 55.1172 206.541 55.1172C205.279 55.1172 204.305 54.7344 203.617 53.9688C202.934 53.2031 202.592 52.1152 202.592 50.7051C202.592 49.8223 202.756 49.0488 203.084 48.3848C203.416 47.7207 203.893 47.209 204.514 46.8496C205.139 46.4902 205.873 46.3105 206.717 46.3105C207.615 46.3105 208.4 46.4746 209.072 46.8027L208.65 47.6582C208.002 47.3535 207.354 47.2012 206.705 47.2012ZM213.244 55H212.248V47.3184H209.535V46.4336H215.957V47.3184H213.244V55ZM217.252 55V46.4336H218.248V55H217.252ZM228.039 50.7051C228.039 52.0762 227.691 53.1543 226.996 53.9395C226.305 54.7246 225.342 55.1172 224.107 55.1172C222.846 55.1172 221.871 54.7324 221.184 53.9629C220.5 53.1895 220.158 52.0996 220.158 50.6934C220.158 49.2988 220.502 48.2188 221.189 47.4531C221.877 46.6836 222.854 46.2988 224.119 46.2988C225.35 46.2988 226.311 46.6895 227.002 47.4707C227.693 48.252 228.039 49.3301 228.039 50.7051ZM221.213 50.7051C221.213 51.8652 221.459 52.7461 221.951 53.3477C222.447 53.9453 223.166 54.2441 224.107 54.2441C225.057 54.2441 225.773 53.9453 226.258 53.3477C226.742 52.75 226.984 51.8691 226.984 50.7051C226.984 49.5527 226.742 48.6797 226.258 48.0859C225.777 47.4883 225.064 47.1895 224.119 47.1895C223.17 47.1895 222.447 47.4902 221.951 48.0918C221.459 48.6895 221.213 49.5605 221.213 50.7051ZM236.646 55H235.51L230.828 47.8105H230.781C230.844 48.6543 230.875 49.4277 230.875 50.1309V55H229.955V46.4336H231.08L235.75 53.5938H235.797C235.789 53.4883 235.771 53.1504 235.744 52.5801C235.717 52.0059 235.707 51.5957 235.715 51.3496V46.4336H236.646V55Z" fill="white"/>
<path d="M502.763 27.4C502.763 26.3013 503.008 25.32 503.499 24.456C504 23.5813 504.678 22.904 505.531 22.424C506.395 21.9333 507.36 21.688 508.427 21.688C509.675 21.688 510.768 22.008 511.707 22.648C512.646 23.288 513.302 24.1733 513.675 25.304H511.099C510.843 24.7707 510.48 24.3707 510.011 24.104C509.552 23.8373 509.019 23.704 508.411 23.704C507.76 23.704 507.179 23.8587 506.667 24.168C506.166 24.4667 505.771 24.8933 505.483 25.448C505.206 26.0027 505.067 26.6533 505.067 27.4C505.067 28.136 505.206 28.7867 505.483 29.352C505.771 29.9067 506.166 30.3387 506.667 30.648C507.179 30.9467 507.76 31.096 508.411 31.096C509.019 31.096 509.552 30.9627 510.011 30.696C510.48 30.4187 510.843 30.0133 511.099 29.48H513.675C513.302 30.6213 512.646 31.512 511.707 32.152C510.779 32.7813 509.686 33.096 508.427 33.096C507.36 33.096 506.395 32.856 505.531 32.376C504.678 31.8853 504 31.208 503.499 30.344C503.008 29.48 502.763 28.4987 502.763 27.4ZM523.956 24.136V33H521.7V31.88C521.412 32.264 521.034 32.568 520.564 32.792C520.106 33.0053 519.604 33.112 519.06 33.112C518.367 33.112 517.754 32.968 517.22 32.68C516.687 32.3813 516.266 31.9493 515.956 31.384C515.658 30.808 515.508 30.1253 515.508 29.336V24.136H517.748V29.016C517.748 29.72 517.924 30.264 518.276 30.648C518.628 31.0213 519.108 31.208 519.716 31.208C520.335 31.208 520.82 31.0213 521.172 30.648C521.524 30.264 521.7 29.72 521.7 29.016V24.136H523.956ZM528.407 25.512C528.695 25.0427 529.068 24.6747 529.527 24.408C529.996 24.1413 530.529 24.008 531.127 24.008V26.36H530.535C529.831 26.36 529.297 26.5253 528.935 26.856C528.583 27.1867 528.407 27.7627 528.407 28.584V33H526.167V24.136H528.407V25.512ZM534.875 25.512C535.163 25.0427 535.537 24.6747 535.995 24.408C536.465 24.1413 536.998 24.008 537.595 24.008V26.36H537.003C536.299 26.36 535.766 26.5253 535.403 26.856C535.051 27.1867 534.875 27.7627 534.875 28.584V33H532.635V24.136H534.875V25.512ZM547.344 28.376C547.344 28.696 547.323 28.984 547.28 29.24H540.8C540.853 29.88 541.077 30.3813 541.472 30.744C541.867 31.1067 542.352 31.288 542.928 31.288C543.76 31.288 544.352 30.9307 544.704 30.216H547.12C546.864 31.0693 546.373 31.7733 545.648 32.328C544.923 32.872 544.032 33.144 542.976 33.144C542.123 33.144 541.355 32.9573 540.672 32.584C540 32.2 539.472 31.6613 539.088 30.968C538.715 30.2747 538.528 29.4747 538.528 28.568C538.528 27.6507 538.715 26.8453 539.088 26.152C539.461 25.4587 539.984 24.9253 540.656 24.552C541.328 24.1787 542.101 23.992 542.976 23.992C543.819 23.992 544.571 24.1733 545.232 24.536C545.904 24.8987 546.421 25.416 546.784 26.088C547.157 26.7493 547.344 27.512 547.344 28.376ZM545.024 27.736C545.013 27.16 544.805 26.7013 544.4 26.36C543.995 26.008 543.499 25.832 542.912 25.832C542.357 25.832 541.888 26.0027 541.504 26.344C541.131 26.6747 540.901 27.1387 540.816 27.736H545.024ZM553.891 24.008C554.947 24.008 555.8 24.344 556.451 25.016C557.102 25.6773 557.427 26.6053 557.427 27.8V33H555.187V28.104C555.187 27.4 555.011 26.8613 554.659 26.488C554.307 26.104 553.827 25.912 553.219 25.912C552.6 25.912 552.11 26.104 551.747 26.488C551.395 26.8613 551.219 27.4 551.219 28.104V33H548.979V24.136H551.219V25.24C551.518 24.856 551.896 24.5573 552.355 24.344C552.824 24.12 553.336 24.008 553.891 24.008ZM562.165 25.976V30.264C562.165 30.5627 562.234 30.7813 562.373 30.92C562.522 31.048 562.768 31.112 563.109 31.112H564.149V33H562.741C560.853 33 559.909 32.0827 559.909 30.248V25.976H558.853V24.136H559.909V21.944H562.165V24.136H564.149V25.976H562.165ZM568 21.16V33H565.76V21.16H568ZM578.693 24.136L573.205 37.192H570.821L572.741 32.776L569.189 24.136H571.701L573.989 30.328L576.309 24.136H578.693ZM590.561 30.872H586.113L585.377 33H583.025L587.041 21.816H589.649L593.665 33H591.297L590.561 30.872ZM589.953 29.08L588.337 24.408L586.721 29.08H589.953ZM594.59 28.568C594.59 27.6507 594.777 26.8507 595.151 26.168C595.524 25.4747 596.041 24.9413 596.703 24.568C597.364 24.184 598.121 23.992 598.975 23.992C600.073 23.992 600.98 24.2693 601.695 24.824C602.42 25.368 602.905 26.136 603.151 27.128H600.735C600.607 26.744 600.388 26.4453 600.079 26.232C599.78 26.008 599.407 25.896 598.959 25.896C598.319 25.896 597.812 26.1307 597.439 26.6C597.065 27.0587 596.879 27.7147 596.879 28.568C596.879 29.4107 597.065 30.0667 597.439 30.536C597.812 30.9947 598.319 31.224 598.959 31.224C599.865 31.224 600.457 30.8187 600.735 30.008H603.151C602.905 30.968 602.42 31.7307 601.695 32.296C600.969 32.8613 600.063 33.144 598.975 33.144C598.121 33.144 597.364 32.9573 596.703 32.584C596.041 32.2 595.524 31.6667 595.151 30.984C594.777 30.2907 594.59 29.4853 594.59 28.568ZM607.4 25.976V30.264C607.4 30.5627 607.469 30.7813 607.608 30.92C607.757 31.048 608.002 31.112 608.344 31.112H609.384V33H607.976C606.088 33 605.144 32.0827 605.144 30.248V25.976H604.088V24.136H605.144V21.944H607.4V24.136H609.384V25.976H607.4ZM612.131 23.08C611.736 23.08 611.405 22.9573 611.139 22.712C610.883 22.456 610.755 22.1413 610.755 21.768C610.755 21.3947 610.883 21.0853 611.139 20.84C611.405 20.584 611.736 20.456 612.131 20.456C612.525 20.456 612.851 20.584 613.107 20.84C613.373 21.0853 613.507 21.3947 613.507 21.768C613.507 22.1413 613.373 22.456 613.107 22.712C612.851 22.9573 612.525 23.08 612.131 23.08ZM613.235 24.136V33H610.995V24.136H613.235ZM619.144 30.936L621.384 24.136H623.768L620.488 33H617.768L614.504 24.136H616.904L619.144 30.936ZM633.266 28.376C633.266 28.696 633.245 28.984 633.202 29.24H626.722C626.775 29.88 626.999 30.3813 627.394 30.744C627.789 31.1067 628.274 31.288 628.85 31.288C629.682 31.288 630.274 30.9307 630.626 30.216H633.042C632.786 31.0693 632.295 31.7733 631.57 32.328C630.845 32.872 629.954 33.144 628.898 33.144C628.045 33.144 627.277 32.9573 626.594 32.584C625.922 32.2 625.394 31.6613 625.01 30.968C624.637 30.2747 624.45 29.4747 624.45 28.568C624.45 27.6507 624.637 26.8453 625.01 26.152C625.383 25.4587 625.906 24.9253 626.578 24.552C627.25 24.1787 628.023 23.992 628.898 23.992C629.741 23.992 630.493 24.1733 631.154 24.536C631.826 24.8987 632.343 25.416 632.706 26.088C633.079 26.7493 633.266 27.512 633.266 28.376ZM630.946 27.736C630.935 27.16 630.727 26.7013 630.322 26.36C629.917 26.008 629.421 25.832 628.834 25.832C628.279 25.832 627.81 26.0027 627.426 26.344C627.053 26.6747 626.823 27.1387 626.738 27.736H630.946Z" fill="#07C8A5"/>
<path d="M510.689 49.7051C510.689 51.0762 510.342 52.1543 509.646 52.9395C508.955 53.7246 507.992 54.1172 506.758 54.1172C505.496 54.1172 504.521 53.7324 503.834 52.9629C503.15 52.1895 502.809 51.0996 502.809 49.6934C502.809 48.2988 503.152 47.2188 503.84 46.4531C504.527 45.6836 505.504 45.2988 506.77 45.2988C508 45.2988 508.961 45.6895 509.652 46.4707C510.344 47.252 510.689 48.3301 510.689 49.7051ZM503.863 49.7051C503.863 50.8652 504.109 51.7461 504.602 52.3477C505.098 52.9453 505.816 53.2441 506.758 53.2441C507.707 53.2441 508.424 52.9453 508.908 52.3477C509.393 51.75 509.635 50.8691 509.635 49.7051C509.635 48.5527 509.393 47.6797 508.908 47.0859C508.428 46.4883 507.715 46.1895 506.77 46.1895C505.82 46.1895 505.098 46.4902 504.602 47.0918C504.109 47.6895 503.863 48.5605 503.863 49.7051ZM518.037 47.9297C518.037 48.7969 517.74 49.4648 517.146 49.9336C516.557 50.3984 515.711 50.6309 514.609 50.6309H513.602V54H512.605V45.4336H514.826C516.967 45.4336 518.037 46.2656 518.037 47.9297ZM513.602 49.7754H514.498C515.381 49.7754 516.02 49.6328 516.414 49.3477C516.809 49.0625 517.006 48.6055 517.006 47.9766C517.006 47.4102 516.82 46.9883 516.449 46.7109C516.078 46.4336 515.5 46.2949 514.715 46.2949H513.602V49.7754ZM524.611 54H519.836V45.4336H524.611V46.3184H520.832V49.0781H524.383V49.957H520.832V53.1094H524.611V54ZM533.207 54H532.07L527.389 46.8105H527.342C527.404 47.6543 527.436 48.4277 527.436 49.1309V54H526.516V45.4336H527.641L532.311 52.5938H532.357C532.35 52.4883 532.332 52.1504 532.305 51.5801C532.277 51.0059 532.268 50.5957 532.275 50.3496V45.4336H533.207V54ZM543.514 51.7207C543.514 52.4746 543.24 53.0625 542.693 53.4844C542.146 53.9062 541.404 54.1172 540.467 54.1172C539.451 54.1172 538.67 53.9863 538.123 53.7246V52.7637C538.475 52.9121 538.857 53.0293 539.271 53.1152C539.686 53.2012 540.096 53.2441 540.502 53.2441C541.166 53.2441 541.666 53.1191 542.002 52.8691C542.338 52.6152 542.506 52.2637 542.506 51.8145C542.506 51.5176 542.445 51.2754 542.324 51.0879C542.207 50.8965 542.008 50.7207 541.727 50.5605C541.449 50.4004 541.025 50.2188 540.455 50.0156C539.658 49.7305 539.088 49.3926 538.744 49.002C538.404 48.6113 538.234 48.1016 538.234 47.4727C538.234 46.8125 538.482 46.2871 538.979 45.8965C539.475 45.5059 540.131 45.3105 540.947 45.3105C541.799 45.3105 542.582 45.4668 543.297 45.7793L542.986 46.6465C542.279 46.3496 541.592 46.2012 540.924 46.2012C540.396 46.2012 539.984 46.3145 539.688 46.541C539.391 46.7676 539.242 47.082 539.242 47.4844C539.242 47.7812 539.297 48.0254 539.406 48.2168C539.516 48.4043 539.699 48.5781 539.957 48.7383C540.219 48.8945 540.617 49.0684 541.152 49.2598C542.051 49.5801 542.668 49.9238 543.004 50.291C543.344 50.6582 543.514 51.1348 543.514 51.7207ZM550.041 54H545.266V45.4336H550.041V46.3184H546.262V49.0781H549.812V49.957H546.262V53.1094H550.041V54ZM555.613 46.2012C554.672 46.2012 553.928 46.5156 553.381 47.1445C552.838 47.7695 552.566 48.627 552.566 49.7168C552.566 50.8379 552.828 51.7051 553.352 52.3184C553.879 52.9277 554.629 53.2324 555.602 53.2324C556.199 53.2324 556.881 53.125 557.646 52.9102V53.7832C557.053 54.0059 556.32 54.1172 555.449 54.1172C554.188 54.1172 553.213 53.7344 552.525 52.9688C551.842 52.2031 551.5 51.1152 551.5 49.7051C551.5 48.8223 551.664 48.0488 551.992 47.3848C552.324 46.7207 552.801 46.209 553.422 45.8496C554.047 45.4902 554.781 45.3105 555.625 45.3105C556.523 45.3105 557.309 45.4746 557.98 45.8027L557.559 46.6582C556.91 46.3535 556.262 46.2012 555.613 46.2012ZM565.984 45.4336V50.9766C565.984 51.9531 565.689 52.7207 565.1 53.2793C564.51 53.8379 563.699 54.1172 562.668 54.1172C561.637 54.1172 560.838 53.8359 560.271 53.2734C559.709 52.7109 559.428 51.9375 559.428 50.9531V45.4336H560.424V51.0234C560.424 51.7383 560.619 52.2871 561.01 52.6699C561.4 53.0527 561.975 53.2441 562.732 53.2441C563.455 53.2441 564.012 53.0527 564.402 52.6699C564.793 52.2832 564.988 51.7305 564.988 51.0117V45.4336H565.984ZM569.254 50.4375V54H568.258V45.4336H570.607C571.658 45.4336 572.434 45.6348 572.934 46.0371C573.438 46.4395 573.689 47.0449 573.689 47.8535C573.689 48.9863 573.115 49.752 571.967 50.1504L574.293 54H573.115L571.041 50.4375H569.254ZM569.254 49.582H570.619C571.322 49.582 571.838 49.4434 572.166 49.166C572.494 48.8848 572.658 48.4648 572.658 47.9062C572.658 47.3398 572.49 46.9316 572.154 46.6816C571.822 46.4316 571.287 46.3066 570.549 46.3066H569.254V49.582ZM575.676 54V45.4336H576.672V54H575.676ZM581.664 54H580.668V46.3184H577.955V45.4336H584.377V46.3184H581.664V54ZM587.852 49.7168L590.137 45.4336H591.215L588.355 50.6777V54H587.348V50.7246L584.494 45.4336H585.584L587.852 49.7168ZM600.9 54L599.834 51.2754H596.4L595.346 54H594.338L597.725 45.3984H598.562L601.932 54H600.9ZM599.523 50.3789L598.527 47.7246C598.398 47.3887 598.266 46.9766 598.129 46.4883C598.043 46.8633 597.92 47.2754 597.76 47.7246L596.752 50.3789H599.523ZM606.777 46.2012C605.836 46.2012 605.092 46.5156 604.545 47.1445C604.002 47.7695 603.73 48.627 603.73 49.7168C603.73 50.8379 603.992 51.7051 604.516 52.3184C605.043 52.9277 605.793 53.2324 606.766 53.2324C607.363 53.2324 608.045 53.125 608.811 52.9102V53.7832C608.217 54.0059 607.484 54.1172 606.613 54.1172C605.352 54.1172 604.377 53.7344 603.689 52.9688C603.006 52.2031 602.664 51.1152 602.664 49.7051C602.664 48.8223 602.828 48.0488 603.156 47.3848C603.488 46.7207 603.965 46.209 604.586 45.8496C605.211 45.4902 605.945 45.3105 606.789 45.3105C607.688 45.3105 608.473 45.4746 609.145 45.8027L608.723 46.6582C608.074 46.3535 607.426 46.2012 606.777 46.2012ZM614.348 46.2012C613.406 46.2012 612.662 46.5156 612.115 47.1445C611.572 47.7695 611.301 48.627 611.301 49.7168C611.301 50.8379 611.562 51.7051 612.086 52.3184C612.613 52.9277 613.363 53.2324 614.336 53.2324C614.934 53.2324 615.615 53.125 616.381 52.9102V53.7832C615.787 54.0059 615.055 54.1172 614.184 54.1172C612.922 54.1172 611.947 53.7344 611.26 52.9688C610.576 52.2031 610.234 51.1152 610.234 49.7051C610.234 48.8223 610.398 48.0488 610.727 47.3848C611.059 46.7207 611.535 46.209 612.156 45.8496C612.781 45.4902 613.516 45.3105 614.359 45.3105C615.258 45.3105 616.043 45.4746 616.715 45.8027L616.293 46.6582C615.645 46.3535 614.996 46.2012 614.348 46.2012ZM623.025 54H618.25V45.4336H623.025V46.3184H619.246V49.0781H622.797V49.957H619.246V53.1094H623.025V54ZM629.764 51.7207C629.764 52.4746 629.49 53.0625 628.943 53.4844C628.396 53.9062 627.654 54.1172 626.717 54.1172C625.701 54.1172 624.92 53.9863 624.373 53.7246V52.7637C624.725 52.9121 625.107 53.0293 625.521 53.1152C625.936 53.2012 626.346 53.2441 626.752 53.2441C627.416 53.2441 627.916 53.1191 628.252 52.8691C628.588 52.6152 628.756 52.2637 628.756 51.8145C628.756 51.5176 628.695 51.2754 628.574 51.0879C628.457 50.8965 628.258 50.7207 627.977 50.5605C627.699 50.4004 627.275 50.2188 626.705 50.0156C625.908 49.7305 625.338 49.3926 624.994 49.002C624.654 48.6113 624.484 48.1016 624.484 47.4727C624.484 46.8125 624.732 46.2871 625.229 45.8965C625.725 45.5059 626.381 45.3105 627.197 45.3105C628.049 45.3105 628.832 45.4668 629.547 45.7793L629.236 46.6465C628.529 46.3496 627.842 46.2012 627.174 46.2012C626.646 46.2012 626.234 46.3145 625.938 46.541C625.641 46.7676 625.492 47.082 625.492 47.4844C625.492 47.7812 625.547 48.0254 625.656 48.2168C625.766 48.4043 625.949 48.5781 626.207 48.7383C626.469 48.8945 626.867 49.0684 627.402 49.2598C628.301 49.5801 628.918 49.9238 629.254 50.291C629.594 50.6582 629.764 51.1348 629.764 51.7207ZM636.35 51.7207C636.35 52.4746 636.076 53.0625 635.529 53.4844C634.982 53.9062 634.24 54.1172 633.303 54.1172C632.287 54.1172 631.506 53.9863 630.959 53.7246V52.7637C631.311 52.9121 631.693 53.0293 632.107 53.1152C632.521 53.2012 632.932 53.2441 633.338 53.2441C634.002 53.2441 634.502 53.1191 634.838 52.8691C635.174 52.6152 635.342 52.2637 635.342 51.8145C635.342 51.5176 635.281 51.2754 635.16 51.0879C635.043 50.8965 634.844 50.7207 634.562 50.5605C634.285 50.4004 633.861 50.2188 633.291 50.0156C632.494 49.7305 631.924 49.3926 631.58 49.002C631.24 48.6113 631.07 48.1016 631.07 47.4727C631.07 46.8125 631.318 46.2871 631.814 45.8965C632.311 45.5059 632.967 45.3105 633.783 45.3105C634.635 45.3105 635.418 45.4668 636.133 45.7793L635.822 46.6465C635.115 46.3496 634.428 46.2012 633.76 46.2012C633.232 46.2012 632.82 46.3145 632.523 46.541C632.227 46.7676 632.078 47.082 632.078 47.4844C632.078 47.7812 632.133 48.0254 632.242 48.2168C632.352 48.4043 632.535 48.5781 632.793 48.7383C633.055 48.8945 633.453 49.0684 633.988 49.2598C634.887 49.5801 635.504 49.9238 635.84 50.291C636.18 50.6582 636.35 51.1348 636.35 51.7207Z" fill="white"/>
<defs>
<linearGradient id="paint0_linear" x1="902" y1="36.8852" x2="124.878" y2="-274.636" gradientUnits="userSpaceOnUse">
<stop stop-color="#100268" stop-opacity="0.74"/>
<stop offset="0.265807" stop-color="#100268"/>
</linearGradient>
</defs>
</svg>
