<svg width="18" height="18" viewBox="0 0 18 18" fill="none" xmlns="http://www.w3.org/2000/svg">
<path d="M0 11.25V14.625C0 16.4891 4.02943 18 9 18C13.9706 18 18 16.4891 18 14.625V11.25C18 13.1141 13.9706 14.625 9 14.625C4.02943 14.625 0 13.1141 0 11.25Z" fill="white" fill-opacity="0.75"/>
<path d="M0 5.625V9C0 10.8641 4.02943 12.375 9 12.375C13.9706 12.375 18 10.8641 18 9V5.625C18 7.48912 13.9706 9 9 9C4.02943 9 0 7.48912 0 5.625Z" fill="white" fill-opacity="0.75"/>
<path d="M18 3.375C18 5.23912 13.9706 6.75 9 6.75C4.02943 6.75 0 5.23912 0 3.375C0 1.51088 4.02943 0 9 0C13.9706 0 18 1.51088 18 3.375Z" fill="white" fill-opacity="0.75"/>
</svg>
