<svg width="21" height="16" viewBox="0 0 21 16" fill="none" xmlns="http://www.w3.org/2000/svg">
<path d="M16.1001 0V15.9685C19.0401 14.3307 21.0001 11.3071 21.0001 7.9685C21.0001 4.62992 19.0401 1.66929 16.1001 0" fill="#ED4C5C"/>
<path d="M4.9 0C1.96 1.66929 0 4.69291 0 8C0 11.3071 1.96 14.3307 4.9 16V0Z" fill="#ED4C5C"/>
<path d="M14.3148 7.87399C14.1748 7.811 14.1398 7.68501 14.1748 7.62202L14.5248 6.48816L13.2998 6.70864C13.2648 6.70864 13.1248 6.70864 13.0898 6.48816L12.9848 6.11021L12.1448 6.9921C12.1448 6.9921 11.5848 7.52753 11.7598 6.70864L12.1098 4.97635L11.4448 5.29131C11.4098 5.29131 11.2698 5.32281 11.0948 5.00785L10.4998 3.90549L9.8698 4.94486C9.6948 5.25982 9.5548 5.22832 9.5198 5.22832L8.8548 4.91336L9.2048 6.64564C9.3798 7.46454 8.8198 6.92911 8.8198 6.92911L7.9798 6.04722L7.8748 6.42517C7.8048 6.64564 7.6998 6.64564 7.6648 6.64564L6.4398 6.42517L6.7898 7.55903C6.7898 7.65352 6.7898 7.74801 6.6498 7.811L6.2998 7.99998C6.2998 7.99998 7.6998 9.00785 8.1548 9.35431C8.2598 9.4173 8.4698 9.60627 8.3998 9.82675L8.2248 10.2677L10.1498 10.0157C10.2548 10.0157 10.4648 10.0157 10.4298 10.2992L10.3248 12.0945H10.6748L10.5698 10.2992C10.5698 10.0157 10.7798 10.0157 10.8498 10.0157L12.7748 10.2677L12.5998 9.82675C12.5298 9.60627 12.7398 9.4173 12.8448 9.35431C13.2998 9.00785 14.6998 7.99998 14.6998 7.99998L14.3148 7.87399Z" fill="#ED4C5C"/>
</svg>
