<svg width="451" height="47" viewBox="0 0 451 47" fill="none" xmlns="http://www.w3.org/2000/svg">
<rect width="451" height="47" rx="5" fill="url(#paint0_linear)"/>
<circle cx="45" cy="23" r="5" fill="#07C8A5"/>
<path d="M425 28.1417C425 27.9415 425.069 27.7475 425.197 27.5933L429.033 23.0008L425.334 18.3998C425.263 18.3121 425.21 18.2113 425.178 18.1031C425.146 17.9948 425.135 17.8813 425.147 17.769C425.159 17.6568 425.193 17.548 425.247 17.4489C425.301 17.3498 425.374 17.2624 425.462 17.1917C425.55 17.1205 425.651 17.0674 425.759 17.0353C425.867 17.0032 425.981 16.9929 426.093 17.0048C426.205 17.0168 426.314 17.0508 426.413 17.1049C426.512 17.159 426.599 17.2322 426.67 17.3202L430.805 22.4611C430.931 22.6144 431 22.8067 431 23.0051C431 23.2036 430.931 23.3959 430.805 23.5492L426.524 28.69C426.452 28.7768 426.364 28.8485 426.264 28.9011C426.165 28.9536 426.056 28.986 425.944 28.9964C425.831 29.0067 425.718 28.9948 425.611 28.9614C425.503 28.9279 425.403 28.8736 425.317 28.8014C425.219 28.7217 425.139 28.6212 425.084 28.5071C425.03 28.393 425.001 28.2682 425 28.1417Z" fill="white"/>
<path d="M110.138 13.624V22H108.458V16.552L106.214 22H104.942L102.686 16.552V22H101.006V13.624H102.914L105.578 19.852L108.242 13.624H110.138ZM117.979 18.532C117.979 18.772 117.963 18.988 117.931 19.18H113.071C113.111 19.66 113.279 20.036 113.575 20.308C113.871 20.58 114.235 20.716 114.667 20.716C115.291 20.716 115.735 20.448 115.999 19.912H117.811C117.619 20.552 117.251 21.08 116.707 21.496C116.163 21.904 115.495 22.108 114.703 22.108C114.063 22.108 113.487 21.968 112.975 21.688C112.471 21.4 112.075 20.996 111.787 20.476C111.507 19.956 111.367 19.356 111.367 18.676C111.367 17.988 111.507 17.384 111.787 16.864C112.067 16.344 112.459 15.944 112.963 15.664C113.467 15.384 114.047 15.244 114.703 15.244C115.335 15.244 115.899 15.38 116.395 15.652C116.899 15.924 117.287 16.312 117.559 16.816C117.839 17.312 117.979 17.884 117.979 18.532ZM116.239 18.052C116.231 17.62 116.075 17.276 115.771 17.02C115.467 16.756 115.095 16.624 114.655 16.624C114.239 16.624 113.887 16.752 113.599 17.008C113.319 17.256 113.147 17.604 113.083 18.052H116.239ZM118.773 18.652C118.773 17.98 118.905 17.384 119.169 16.864C119.441 16.344 119.809 15.944 120.273 15.664C120.737 15.384 121.253 15.244 121.821 15.244C122.253 15.244 122.665 15.34 123.057 15.532C123.449 15.716 123.761 15.964 123.993 16.276V13.12H125.697V22H123.993V21.016C123.785 21.344 123.493 21.608 123.117 21.808C122.741 22.008 122.305 22.108 121.809 22.108C121.249 22.108 120.737 21.964 120.273 21.676C119.809 21.388 119.441 20.984 119.169 20.464C118.905 19.936 118.773 19.332 118.773 18.652ZM124.005 18.676C124.005 18.268 123.925 17.92 123.765 17.632C123.605 17.336 123.389 17.112 123.117 16.96C122.845 16.8 122.553 16.72 122.241 16.72C121.929 16.72 121.641 16.796 121.377 16.948C121.113 17.1 120.897 17.324 120.729 17.62C120.569 17.908 120.489 18.252 120.489 18.652C120.489 19.052 120.569 19.404 120.729 19.708C120.897 20.004 121.113 20.232 121.377 20.392C121.649 20.552 121.937 20.632 122.241 20.632C122.553 20.632 122.845 20.556 123.117 20.404C123.389 20.244 123.605 20.02 123.765 19.732C123.925 19.436 124.005 19.084 124.005 18.676ZM128.19 14.56C127.894 14.56 127.646 14.468 127.446 14.284C127.254 14.092 127.158 13.856 127.158 13.576C127.158 13.296 127.254 13.064 127.446 12.88C127.646 12.688 127.894 12.592 128.19 12.592C128.486 12.592 128.73 12.688 128.922 12.88C129.122 13.064 129.222 13.296 129.222 13.576C129.222 13.856 129.122 14.092 128.922 14.284C128.73 14.468 128.486 14.56 128.19 14.56ZM129.018 15.352V22H127.338V15.352H129.018ZM130.246 18.676C130.246 17.988 130.386 17.388 130.666 16.876C130.946 16.356 131.334 15.956 131.83 15.676C132.326 15.388 132.894 15.244 133.534 15.244C134.358 15.244 135.038 15.452 135.574 15.868C136.118 16.276 136.482 16.852 136.666 17.596H134.854C134.758 17.308 134.594 17.084 134.362 16.924C134.138 16.756 133.858 16.672 133.522 16.672C133.042 16.672 132.662 16.848 132.382 17.2C132.102 17.544 131.962 18.036 131.962 18.676C131.962 19.308 132.102 19.8 132.382 20.152C132.662 20.496 133.042 20.668 133.522 20.668C134.202 20.668 134.646 20.364 134.854 19.756H136.666C136.482 20.476 136.118 21.048 135.574 21.472C135.03 21.896 134.35 22.108 133.534 22.108C132.894 22.108 132.326 21.968 131.83 21.688C131.334 21.4 130.946 21 130.666 20.488C130.386 19.968 130.246 19.364 130.246 18.676ZM137.464 18.652C137.464 17.98 137.596 17.384 137.86 16.864C138.132 16.344 138.496 15.944 138.952 15.664C139.416 15.384 139.932 15.244 140.5 15.244C140.996 15.244 141.428 15.344 141.796 15.544C142.172 15.744 142.472 15.996 142.696 16.3V15.352H144.388V22H142.696V21.028C142.48 21.34 142.18 21.6 141.796 21.808C141.42 22.008 140.984 22.108 140.488 22.108C139.928 22.108 139.416 21.964 138.952 21.676C138.496 21.388 138.132 20.984 137.86 20.464C137.596 19.936 137.464 19.332 137.464 18.652ZM142.696 18.676C142.696 18.268 142.616 17.92 142.456 17.632C142.296 17.336 142.08 17.112 141.808 16.96C141.536 16.8 141.244 16.72 140.932 16.72C140.62 16.72 140.332 16.796 140.068 16.948C139.804 17.1 139.588 17.324 139.42 17.62C139.26 17.908 139.18 18.252 139.18 18.652C139.18 19.052 139.26 19.404 139.42 19.708C139.588 20.004 139.804 20.232 140.068 20.392C140.34 20.552 140.628 20.632 140.932 20.632C141.244 20.632 141.536 20.556 141.808 20.404C142.08 20.244 142.296 20.02 142.456 19.732C142.616 19.436 142.696 19.084 142.696 18.676ZM147.709 13.12V22H146.029V13.12H147.709ZM155.12 22.084C154.536 22.084 154.008 21.984 153.536 21.784C153.072 21.584 152.704 21.296 152.432 20.92C152.16 20.544 152.02 20.1 152.012 19.588H153.812C153.836 19.932 153.956 20.204 154.172 20.404C154.396 20.604 154.7 20.704 155.084 20.704C155.476 20.704 155.784 20.612 156.008 20.428C156.232 20.236 156.344 19.988 156.344 19.684C156.344 19.436 156.268 19.232 156.116 19.072C155.964 18.912 155.772 18.788 155.54 18.7C155.316 18.604 155.004 18.5 154.604 18.388C154.06 18.228 153.616 18.072 153.272 17.92C152.936 17.76 152.644 17.524 152.396 17.212C152.156 16.892 152.036 16.468 152.036 15.94C152.036 15.444 152.16 15.012 152.408 14.644C152.656 14.276 153.004 13.996 153.452 13.804C153.9 13.604 154.412 13.504 154.988 13.504C155.852 13.504 156.552 13.716 157.088 14.14C157.632 14.556 157.932 15.14 157.988 15.892H156.14C156.124 15.604 156 15.368 155.768 15.184C155.544 14.992 155.244 14.896 154.868 14.896C154.54 14.896 154.276 14.98 154.076 15.148C153.884 15.316 153.788 15.56 153.788 15.88C153.788 16.104 153.86 16.292 154.004 16.444C154.156 16.588 154.34 16.708 154.556 16.804C154.78 16.892 155.092 16.996 155.492 17.116C156.036 17.276 156.48 17.436 156.824 17.596C157.168 17.756 157.464 17.996 157.712 18.316C157.96 18.636 158.084 19.056 158.084 19.576C158.084 20.024 157.968 20.44 157.736 20.824C157.504 21.208 157.164 21.516 156.716 21.748C156.268 21.972 155.736 22.084 155.12 22.084ZM165.817 15.352V22H164.125V21.16C163.909 21.448 163.625 21.676 163.273 21.844C162.929 22.004 162.553 22.084 162.145 22.084C161.625 22.084 161.165 21.976 160.765 21.76C160.365 21.536 160.049 21.212 159.817 20.788C159.593 20.356 159.481 19.844 159.481 19.252V15.352H161.161V19.012C161.161 19.54 161.293 19.948 161.557 20.236C161.821 20.516 162.181 20.656 162.637 20.656C163.101 20.656 163.465 20.516 163.729 20.236C163.993 19.948 164.125 19.54 164.125 19.012V15.352H165.817ZM169.154 16.312C169.37 16.008 169.666 15.756 170.042 15.556C170.426 15.348 170.862 15.244 171.35 15.244C171.918 15.244 172.43 15.384 172.886 15.664C173.35 15.944 173.714 16.344 173.978 16.864C174.25 17.376 174.386 17.972 174.386 18.652C174.386 19.332 174.25 19.936 173.978 20.464C173.714 20.984 173.35 21.388 172.886 21.676C172.43 21.964 171.918 22.108 171.35 22.108C170.862 22.108 170.43 22.008 170.054 21.808C169.686 21.608 169.386 21.356 169.154 21.052V25.168H167.474V15.352H169.154V16.312ZM172.67 18.652C172.67 18.252 172.586 17.908 172.418 17.62C172.258 17.324 172.042 17.1 171.77 16.948C171.506 16.796 171.218 16.72 170.906 16.72C170.602 16.72 170.314 16.8 170.042 16.96C169.778 17.112 169.562 17.336 169.394 17.632C169.234 17.928 169.154 18.276 169.154 18.676C169.154 19.076 169.234 19.424 169.394 19.72C169.562 20.016 169.778 20.244 170.042 20.404C170.314 20.556 170.602 20.632 170.906 20.632C171.218 20.632 171.506 20.552 171.77 20.392C172.042 20.232 172.258 20.004 172.418 19.708C172.586 19.412 172.67 19.06 172.67 18.652ZM177.287 16.312C177.503 16.008 177.799 15.756 178.175 15.556C178.559 15.348 178.995 15.244 179.483 15.244C180.051 15.244 180.563 15.384 181.019 15.664C181.483 15.944 181.847 16.344 182.111 16.864C182.383 17.376 182.519 17.972 182.519 18.652C182.519 19.332 182.383 19.936 182.111 20.464C181.847 20.984 181.483 21.388 181.019 21.676C180.563 21.964 180.051 22.108 179.483 22.108C178.995 22.108 178.563 22.008 178.187 21.808C177.819 21.608 177.519 21.356 177.287 21.052V25.168H175.607V15.352H177.287V16.312ZM180.803 18.652C180.803 18.252 180.719 17.908 180.551 17.62C180.391 17.324 180.175 17.1 179.903 16.948C179.639 16.796 179.351 16.72 179.039 16.72C178.735 16.72 178.447 16.8 178.175 16.96C177.911 17.112 177.695 17.336 177.527 17.632C177.367 17.928 177.287 18.276 177.287 18.676C177.287 19.076 177.367 19.424 177.527 19.72C177.695 20.016 177.911 20.244 178.175 20.404C178.447 20.556 178.735 20.632 179.039 20.632C179.351 20.632 179.639 20.552 179.903 20.392C180.175 20.232 180.391 20.004 180.551 19.708C180.719 19.412 180.803 19.06 180.803 18.652ZM185.42 13.12V22H183.74V13.12H185.42ZM193.44 15.352L189.324 25.144H187.536L188.976 21.832L186.312 15.352H188.196L189.912 19.996L191.652 15.352H193.44ZM200.097 22.084C199.513 22.084 198.985 21.984 198.513 21.784C198.049 21.584 197.681 21.296 197.409 20.92C197.137 20.544 196.997 20.1 196.989 19.588H198.789C198.813 19.932 198.933 20.204 199.149 20.404C199.373 20.604 199.677 20.704 200.061 20.704C200.453 20.704 200.761 20.612 200.985 20.428C201.209 20.236 201.321 19.988 201.321 19.684C201.321 19.436 201.245 19.232 201.093 19.072C200.941 18.912 200.749 18.788 200.517 18.7C200.293 18.604 199.981 18.5 199.581 18.388C199.037 18.228 198.593 18.072 198.249 17.92C197.913 17.76 197.621 17.524 197.373 17.212C197.133 16.892 197.013 16.468 197.013 15.94C197.013 15.444 197.137 15.012 197.385 14.644C197.633 14.276 197.981 13.996 198.429 13.804C198.877 13.604 199.389 13.504 199.965 13.504C200.829 13.504 201.529 13.716 202.065 14.14C202.609 14.556 202.909 15.14 202.965 15.892H201.117C201.101 15.604 200.977 15.368 200.745 15.184C200.521 14.992 200.221 14.896 199.845 14.896C199.517 14.896 199.253 14.98 199.053 15.148C198.861 15.316 198.765 15.56 198.765 15.88C198.765 16.104 198.837 16.292 198.981 16.444C199.133 16.588 199.317 16.708 199.533 16.804C199.757 16.892 200.069 16.996 200.469 17.116C201.013 17.276 201.457 17.436 201.801 17.596C202.145 17.756 202.441 17.996 202.689 18.316C202.937 18.636 203.061 19.056 203.061 19.576C203.061 20.024 202.945 20.44 202.713 20.824C202.481 21.208 202.141 21.516 201.693 21.748C201.245 21.972 200.713 22.084 200.097 22.084ZM206.473 16.732V19.948C206.473 20.172 206.525 20.336 206.629 20.44C206.741 20.536 206.925 20.584 207.181 20.584H207.961V22H206.905C205.489 22 204.781 21.312 204.781 19.936V16.732H203.989V15.352H204.781V13.708H206.473V15.352H207.961V16.732H206.473ZM212.122 22.108C211.482 22.108 210.906 21.968 210.394 21.688C209.882 21.4 209.478 20.996 209.182 20.476C208.894 19.956 208.75 19.356 208.75 18.676C208.75 17.996 208.898 17.396 209.194 16.876C209.498 16.356 209.91 15.956 210.43 15.676C210.95 15.388 211.53 15.244 212.17 15.244C212.81 15.244 213.39 15.388 213.91 15.676C214.43 15.956 214.838 16.356 215.134 16.876C215.438 17.396 215.59 17.996 215.59 18.676C215.59 19.356 215.434 19.956 215.122 20.476C214.818 20.996 214.402 21.4 213.874 21.688C213.354 21.968 212.77 22.108 212.122 22.108ZM212.122 20.644C212.426 20.644 212.71 20.572 212.974 20.428C213.246 20.276 213.462 20.052 213.622 19.756C213.782 19.46 213.862 19.1 213.862 18.676C213.862 18.044 213.694 17.56 213.358 17.224C213.03 16.88 212.626 16.708 212.146 16.708C211.666 16.708 211.262 16.88 210.934 17.224C210.614 17.56 210.454 18.044 210.454 18.676C210.454 19.308 210.61 19.796 210.922 20.14C211.242 20.476 211.642 20.644 212.122 20.644ZM218.502 16.384C218.718 16.032 218.998 15.756 219.342 15.556C219.694 15.356 220.094 15.256 220.542 15.256V17.02H220.098C219.57 17.02 219.17 17.144 218.898 17.392C218.634 17.64 218.502 18.072 218.502 18.688V22H216.822V15.352H218.502V16.384ZM227.854 18.532C227.854 18.772 227.838 18.988 227.806 19.18H222.946C222.986 19.66 223.154 20.036 223.45 20.308C223.746 20.58 224.11 20.716 224.542 20.716C225.166 20.716 225.61 20.448 225.874 19.912H227.686C227.494 20.552 227.126 21.08 226.582 21.496C226.038 21.904 225.37 22.108 224.578 22.108C223.938 22.108 223.362 21.968 222.85 21.688C222.346 21.4 221.95 20.996 221.662 20.476C221.382 19.956 221.242 19.356 221.242 18.676C221.242 17.988 221.382 17.384 221.662 16.864C221.942 16.344 222.334 15.944 222.838 15.664C223.342 15.384 223.922 15.244 224.578 15.244C225.21 15.244 225.774 15.38 226.27 15.652C226.774 15.924 227.162 16.312 227.434 16.816C227.714 17.312 227.854 17.884 227.854 18.532ZM226.114 18.052C226.106 17.62 225.95 17.276 225.646 17.02C225.342 16.756 224.97 16.624 224.53 16.624C224.114 16.624 223.762 16.752 223.474 17.008C223.194 17.256 223.022 17.604 222.958 18.052H226.114ZM234.831 22.084C234.247 22.084 233.719 21.984 233.247 21.784C232.783 21.584 232.415 21.296 232.143 20.92C231.871 20.544 231.731 20.1 231.723 19.588H233.523C233.547 19.932 233.667 20.204 233.883 20.404C234.107 20.604 234.411 20.704 234.795 20.704C235.187 20.704 235.495 20.612 235.719 20.428C235.943 20.236 236.055 19.988 236.055 19.684C236.055 19.436 235.979 19.232 235.827 19.072C235.675 18.912 235.483 18.788 235.251 18.7C235.027 18.604 234.715 18.5 234.315 18.388C233.771 18.228 233.327 18.072 232.983 17.92C232.647 17.76 232.355 17.524 232.107 17.212C231.867 16.892 231.747 16.468 231.747 15.94C231.747 15.444 231.871 15.012 232.119 14.644C232.367 14.276 232.715 13.996 233.163 13.804C233.611 13.604 234.123 13.504 234.699 13.504C235.563 13.504 236.263 13.716 236.799 14.14C237.343 14.556 237.643 15.14 237.699 15.892H235.851C235.835 15.604 235.711 15.368 235.479 15.184C235.255 14.992 234.955 14.896 234.579 14.896C234.251 14.896 233.987 14.98 233.787 15.148C233.595 15.316 233.499 15.56 233.499 15.88C233.499 16.104 233.571 16.292 233.715 16.444C233.867 16.588 234.051 16.708 234.267 16.804C234.491 16.892 234.803 16.996 235.203 17.116C235.747 17.276 236.191 17.436 236.535 17.596C236.879 17.756 237.175 17.996 237.423 18.316C237.671 18.636 237.795 19.056 237.795 19.576C237.795 20.024 237.679 20.44 237.447 20.824C237.215 21.208 236.875 21.516 236.427 21.748C235.979 21.972 235.447 22.084 234.831 22.084ZM242.996 15.256C243.5 15.256 243.948 15.368 244.34 15.592C244.732 15.808 245.036 16.132 245.252 16.564C245.476 16.988 245.588 17.5 245.588 18.1V22H243.908V18.328C243.908 17.8 243.776 17.396 243.512 17.116C243.248 16.828 242.888 16.684 242.432 16.684C241.968 16.684 241.6 16.828 241.328 17.116C241.064 17.396 240.932 17.8 240.932 18.328V22H239.252V13.12H240.932V16.18C241.148 15.892 241.436 15.668 241.796 15.508C242.156 15.34 242.556 15.256 242.996 15.256ZM253.365 18.532C253.365 18.772 253.349 18.988 253.317 19.18H248.457C248.497 19.66 248.665 20.036 248.961 20.308C249.257 20.58 249.621 20.716 250.053 20.716C250.677 20.716 251.121 20.448 251.385 19.912H253.197C253.005 20.552 252.637 21.08 252.093 21.496C251.549 21.904 250.881 22.108 250.089 22.108C249.449 22.108 248.873 21.968 248.361 21.688C247.857 21.4 247.461 20.996 247.173 20.476C246.893 19.956 246.753 19.356 246.753 18.676C246.753 17.988 246.893 17.384 247.173 16.864C247.453 16.344 247.845 15.944 248.349 15.664C248.853 15.384 249.433 15.244 250.089 15.244C250.721 15.244 251.285 15.38 251.781 15.652C252.285 15.924 252.673 16.312 252.945 16.816C253.225 17.312 253.365 17.884 253.365 18.532ZM251.625 18.052C251.617 17.62 251.461 17.276 251.157 17.02C250.853 16.756 250.481 16.624 250.041 16.624C249.625 16.624 249.273 16.752 248.985 17.008C248.705 17.256 248.533 17.604 248.469 18.052H251.625ZM260.772 18.532C260.772 18.772 260.756 18.988 260.724 19.18H255.864C255.904 19.66 256.072 20.036 256.368 20.308C256.664 20.58 257.028 20.716 257.46 20.716C258.084 20.716 258.528 20.448 258.792 19.912H260.604C260.412 20.552 260.044 21.08 259.5 21.496C258.956 21.904 258.288 22.108 257.496 22.108C256.856 22.108 256.28 21.968 255.768 21.688C255.264 21.4 254.868 20.996 254.58 20.476C254.3 19.956 254.16 19.356 254.16 18.676C254.16 17.988 254.3 17.384 254.58 16.864C254.86 16.344 255.252 15.944 255.756 15.664C256.26 15.384 256.84 15.244 257.496 15.244C258.128 15.244 258.692 15.38 259.188 15.652C259.692 15.924 260.08 16.312 260.352 16.816C260.632 17.312 260.772 17.884 260.772 18.532ZM259.032 18.052C259.024 17.62 258.868 17.276 258.564 17.02C258.26 16.756 257.888 16.624 257.448 16.624C257.032 16.624 256.68 16.752 256.392 17.008C256.112 17.256 255.94 17.604 255.876 18.052H259.032ZM263.954 16.732V19.948C263.954 20.172 264.006 20.336 264.11 20.44C264.222 20.536 264.406 20.584 264.662 20.584H265.442V22H264.386C262.97 22 262.262 21.312 262.262 19.936V16.732H261.47V15.352H262.262V13.708H263.954V15.352H265.442V16.732H263.954Z" fill="white"/>
<path d="M102.923 31.4507C102.374 31.4507 101.94 31.6341 101.621 32.001C101.304 32.3656 101.146 32.8657 101.146 33.5015C101.146 34.1554 101.298 34.6613 101.604 35.019C101.911 35.3745 102.349 35.5522 102.916 35.5522C103.265 35.5522 103.662 35.4896 104.109 35.3643V35.8735C103.763 36.0034 103.335 36.0684 102.827 36.0684C102.091 36.0684 101.523 35.8451 101.122 35.3984C100.723 34.9518 100.523 34.3172 100.523 33.4946C100.523 32.9797 100.619 32.5285 100.811 32.1411C101.004 31.7537 101.282 31.4552 101.645 31.2456C102.009 31.036 102.438 30.9312 102.93 30.9312C103.454 30.9312 103.912 31.0269 104.304 31.2183L104.058 31.7173C103.679 31.5396 103.301 31.4507 102.923 31.4507ZM108.973 31.0029V34.2363C108.973 34.806 108.801 35.2537 108.457 35.5796C108.112 35.9054 107.64 36.0684 107.038 36.0684C106.437 36.0684 105.971 35.9043 105.64 35.5762C105.312 35.248 105.148 34.7969 105.148 34.2227V31.0029H105.729V34.2637C105.729 34.6807 105.843 35.0008 106.071 35.2241C106.299 35.4474 106.634 35.5591 107.076 35.5591C107.497 35.5591 107.822 35.4474 108.05 35.2241C108.278 34.9985 108.392 34.6761 108.392 34.2568V31.0029H108.973ZM113.119 34.6704C113.119 35.1102 112.959 35.4531 112.64 35.6992C112.321 35.9453 111.888 36.0684 111.341 36.0684C110.749 36.0684 110.293 35.992 109.974 35.8394V35.2788C110.179 35.3654 110.403 35.4338 110.644 35.4839C110.886 35.534 111.125 35.5591 111.362 35.5591C111.749 35.5591 112.041 35.4862 112.237 35.3403C112.433 35.1922 112.531 34.9871 112.531 34.7251C112.531 34.5519 112.495 34.4106 112.425 34.3013C112.356 34.1896 112.24 34.0871 112.076 33.9937C111.914 33.9002 111.667 33.7943 111.334 33.6758C110.87 33.5094 110.537 33.3123 110.336 33.0845C110.138 32.8566 110.039 32.5592 110.039 32.1924C110.039 31.8073 110.184 31.5008 110.473 31.2729C110.763 31.0451 111.145 30.9312 111.622 30.9312C112.118 30.9312 112.575 31.0223 112.992 31.2046L112.811 31.7104C112.399 31.5373 111.998 31.4507 111.608 31.4507C111.3 31.4507 111.06 31.5168 110.887 31.6489C110.714 31.7811 110.627 31.9645 110.627 32.1992C110.627 32.3724 110.659 32.5148 110.723 32.6265C110.786 32.7358 110.894 32.8372 111.044 32.9307C111.197 33.0218 111.429 33.1232 111.741 33.2349C112.265 33.4217 112.625 33.6222 112.821 33.8364C113.02 34.0506 113.119 34.3286 113.119 34.6704ZM115.679 36H115.098V31.519H113.515V31.0029H117.261V31.519H115.679V36ZM122.354 33.4946C122.354 34.2944 122.151 34.9233 121.746 35.3813C121.342 35.8394 120.781 36.0684 120.061 36.0684C119.325 36.0684 118.756 35.8439 118.355 35.395C117.956 34.9438 117.757 34.3081 117.757 33.4878C117.757 32.6743 117.957 32.0443 118.358 31.5977C118.759 31.1488 119.329 30.9243 120.067 30.9243C120.785 30.9243 121.346 31.1522 121.749 31.6079C122.152 32.0636 122.354 32.6925 122.354 33.4946ZM118.372 33.4946C118.372 34.1714 118.516 34.6852 118.803 35.0361C119.092 35.3848 119.511 35.5591 120.061 35.5591C120.614 35.5591 121.032 35.3848 121.315 35.0361C121.597 34.6875 121.739 34.1737 121.739 33.4946C121.739 32.8224 121.597 32.3132 121.315 31.9668C121.035 31.6182 120.619 31.4438 120.067 31.4438C119.514 31.4438 119.092 31.6193 118.803 31.9702C118.516 32.3188 118.372 32.827 118.372 33.4946ZM125.683 36L123.988 31.5703H123.96C123.992 31.9212 124.008 32.3382 124.008 32.8213V36H123.472V31.0029H124.347L125.929 35.125H125.957L127.553 31.0029H128.421V36H127.84V32.7803C127.84 32.4111 127.856 32.0101 127.888 31.5771H127.86L126.151 36H125.683ZM132.581 36H129.795V31.0029H132.581V31.519H130.376V33.1289H132.447V33.6416H130.376V35.4805H132.581V36ZM134.272 33.9219V36H133.691V31.0029H135.062C135.675 31.0029 136.127 31.1203 136.419 31.355C136.713 31.5897 136.86 31.9429 136.86 32.4146C136.86 33.0754 136.525 33.522 135.855 33.7544L137.212 36H136.525L135.315 33.9219H134.272ZM134.272 33.4229H135.069C135.479 33.4229 135.78 33.342 135.971 33.1802C136.163 33.0161 136.258 32.7712 136.258 32.4453C136.258 32.1149 136.16 31.8768 135.964 31.731C135.771 31.5851 135.458 31.5122 135.028 31.5122H134.272V33.4229ZM139.837 36V31.0029H140.418V36H139.837ZM145.695 36H145.032L142.301 31.8062H142.274C142.31 32.2983 142.329 32.7495 142.329 33.1597V36H141.792V31.0029H142.448L145.172 35.1797H145.2C145.195 35.1182 145.185 34.9211 145.169 34.5884C145.153 34.2534 145.147 34.0142 145.152 33.8706V31.0029H145.695V36ZM148.607 36H148.026V31.519H146.444V31.0029H150.19V31.519H148.607V36ZM153.731 36H150.945V31.0029H153.731V31.519H151.526V33.1289H153.598V33.6416H151.526V35.4805H153.731V36ZM155.423 33.9219V36H154.842V31.0029H156.212C156.825 31.0029 157.278 31.1203 157.569 31.355C157.863 31.5897 158.01 31.9429 158.01 32.4146C158.01 33.0754 157.675 33.522 157.005 33.7544L158.362 36H157.675L156.465 33.9219H155.423ZM155.423 33.4229H156.219C156.629 33.4229 156.93 33.342 157.122 33.1802C157.313 33.0161 157.409 32.7712 157.409 32.4453C157.409 32.1149 157.311 31.8768 157.115 31.731C156.921 31.5851 156.609 31.5122 156.178 31.5122H155.423V33.4229ZM162.31 36L161.688 34.4106H159.685L159.07 36H158.482L160.458 30.9824H160.946L162.912 36H162.31ZM161.507 33.8877L160.926 32.3394C160.851 32.1434 160.773 31.903 160.693 31.6182C160.643 31.8369 160.571 32.0773 160.478 32.3394L159.89 33.8877H161.507ZM165.738 31.4507C165.189 31.4507 164.755 31.6341 164.436 32.001C164.119 32.3656 163.961 32.8657 163.961 33.5015C163.961 34.1554 164.114 34.6613 164.419 35.019C164.727 35.3745 165.164 35.5522 165.731 35.5522C166.08 35.5522 166.478 35.4896 166.924 35.3643V35.8735C166.578 36.0034 166.151 36.0684 165.643 36.0684C164.907 36.0684 164.338 35.8451 163.937 35.3984C163.538 34.9518 163.339 34.3172 163.339 33.4946C163.339 32.9797 163.435 32.5285 163.626 32.1411C163.82 31.7537 164.098 31.4552 164.46 31.2456C164.825 31.036 165.253 30.9312 165.745 30.9312C166.269 30.9312 166.727 31.0269 167.119 31.2183L166.873 31.7173C166.495 31.5396 166.117 31.4507 165.738 31.4507ZM169.553 36H168.972V31.519H167.389V31.0029H171.135V31.519H169.553V36ZM171.891 36V31.0029H172.472V36H171.891ZM178.183 33.4946C178.183 34.2944 177.98 34.9233 177.575 35.3813C177.171 35.8394 176.61 36.0684 175.89 36.0684C175.154 36.0684 174.585 35.8439 174.184 35.395C173.785 34.9438 173.586 34.3081 173.586 33.4878C173.586 32.6743 173.786 32.0443 174.188 31.5977C174.589 31.1488 175.158 30.9243 175.896 30.9243C176.614 30.9243 177.175 31.1522 177.578 31.6079C177.981 32.0636 178.183 32.6925 178.183 33.4946ZM174.201 33.4946C174.201 34.1714 174.345 34.6852 174.632 35.0361C174.921 35.3848 175.34 35.5591 175.89 35.5591C176.443 35.5591 176.861 35.3848 177.144 35.0361C177.427 34.6875 177.568 34.1737 177.568 33.4946C177.568 32.8224 177.427 32.3132 177.144 31.9668C176.864 31.6182 176.448 31.4438 175.896 31.4438C175.343 31.4438 174.921 31.6193 174.632 31.9702C174.345 32.3188 174.201 32.827 174.201 33.4946ZM183.204 36H182.541L179.81 31.8062H179.783C179.819 32.2983 179.837 32.7495 179.837 33.1597V36H179.301V31.0029H179.957L182.681 35.1797H182.708C182.704 35.1182 182.694 34.9211 182.678 34.5884C182.662 34.2534 182.656 34.0142 182.661 33.8706V31.0029H183.204V36ZM188.536 31.4507C187.987 31.4507 187.553 31.6341 187.234 32.001C186.917 32.3656 186.759 32.8657 186.759 33.5015C186.759 34.1554 186.911 34.6613 187.217 35.019C187.524 35.3745 187.962 35.5522 188.529 35.5522C188.878 35.5522 189.276 35.4896 189.722 35.3643V35.8735C189.376 36.0034 188.949 36.0684 188.44 36.0684C187.704 36.0684 187.136 35.8451 186.735 35.3984C186.336 34.9518 186.137 34.3172 186.137 33.4946C186.137 32.9797 186.232 32.5285 186.424 32.1411C186.618 31.7537 186.896 31.4552 187.258 31.2456C187.622 31.036 188.051 30.9312 188.543 30.9312C189.067 30.9312 189.525 31.0269 189.917 31.2183L189.671 31.7173C189.293 31.5396 188.914 31.4507 188.536 31.4507ZM195.15 33.4946C195.15 34.2944 194.947 34.9233 194.542 35.3813C194.138 35.8394 193.576 36.0684 192.856 36.0684C192.12 36.0684 191.552 35.8439 191.151 35.395C190.752 34.9438 190.553 34.3081 190.553 33.4878C190.553 32.6743 190.753 32.0443 191.154 31.5977C191.555 31.1488 192.125 30.9243 192.863 30.9243C193.581 30.9243 194.142 31.1522 194.545 31.6079C194.948 32.0636 195.15 32.6925 195.15 33.4946ZM191.168 33.4946C191.168 34.1714 191.312 34.6852 191.599 35.0361C191.888 35.3848 192.307 35.5591 192.856 35.5591C193.41 35.5591 193.828 35.3848 194.111 35.0361C194.393 34.6875 194.535 34.1737 194.535 33.4946C194.535 32.8224 194.393 32.3132 194.111 31.9668C193.831 31.6182 193.415 31.4438 192.863 31.4438C192.31 31.4438 191.888 31.6193 191.599 31.9702C191.312 32.3188 191.168 32.827 191.168 33.4946ZM198.479 36L196.784 31.5703H196.756C196.788 31.9212 196.804 32.3382 196.804 32.8213V36H196.268V31.0029H197.143L198.725 35.125H198.752L200.349 31.0029H201.217V36H200.636V32.7803C200.636 32.4111 200.652 32.0101 200.684 31.5771H200.656L198.947 36H198.479ZM205.759 32.459C205.759 32.9648 205.586 33.3545 205.24 33.6279C204.896 33.8991 204.402 34.0347 203.76 34.0347H203.172V36H202.591V31.0029H203.886C205.135 31.0029 205.759 31.4883 205.759 32.459ZM203.172 33.5356H203.695C204.21 33.5356 204.582 33.4525 204.812 33.2861C205.043 33.1198 205.158 32.8532 205.158 32.4863C205.158 32.1559 205.049 31.9098 204.833 31.748C204.617 31.5863 204.279 31.5054 203.821 31.5054H203.172V33.5356ZM211.146 33.4946C211.146 34.2944 210.943 34.9233 210.538 35.3813C210.134 35.8394 209.573 36.0684 208.853 36.0684C208.117 36.0684 207.548 35.8439 207.147 35.395C206.748 34.9438 206.549 34.3081 206.549 33.4878C206.549 32.6743 206.749 32.0443 207.15 31.5977C207.551 31.1488 208.121 30.9243 208.859 30.9243C209.577 30.9243 210.138 31.1522 210.541 31.6079C210.944 32.0636 211.146 32.6925 211.146 33.4946ZM207.164 33.4946C207.164 34.1714 207.308 34.6852 207.595 35.0361C207.884 35.3848 208.303 35.5591 208.853 35.5591C209.406 35.5591 209.824 35.3848 210.107 35.0361C210.389 34.6875 210.531 34.1737 210.531 33.4946C210.531 32.8224 210.389 32.3132 210.107 31.9668C209.827 31.6182 209.411 31.4438 208.859 31.4438C208.306 31.4438 207.884 31.6193 207.595 31.9702C207.308 32.3188 207.164 32.827 207.164 33.4946ZM216.167 36H215.504L212.773 31.8062H212.746C212.782 32.2983 212.8 32.7495 212.8 33.1597V36H212.264V31.0029H212.92L215.644 35.1797H215.671C215.667 35.1182 215.657 34.9211 215.641 34.5884C215.625 34.2534 215.619 34.0142 215.624 33.8706V31.0029H216.167V36ZM220.327 36H217.541V31.0029H220.327V31.519H218.122V33.1289H220.193V33.6416H218.122V35.4805H220.327V36ZM225.341 36H224.678L221.947 31.8062H221.919C221.956 32.2983 221.974 32.7495 221.974 33.1597V36H221.438V31.0029H222.094L224.818 35.1797H224.845C224.841 35.1182 224.83 34.9211 224.814 34.5884C224.799 34.2534 224.793 34.0142 224.797 33.8706V31.0029H225.341V36ZM228.253 36H227.672V31.519H226.089V31.0029H229.835V31.519H228.253V36Z" fill="white"/>
<defs>
<linearGradient id="paint0_linear" x1="451" y1="23.1148" x2="41.8545" y2="-107.746" gradientUnits="userSpaceOnUse">
<stop offset="0.265807" stop-color="#100268"/>
</linearGradient>
</defs>
</svg>
