<svg width="16" height="16" viewBox="0 0 16 16" fill="none" xmlns="http://www.w3.org/2000/svg">
<path d="M16 8C16 9.58225 15.5308 11.129 14.6518 12.4446C13.7727 13.7602 12.5233 14.7855 11.0615 15.391C9.59966 15.9965 7.99113 16.155 6.43928 15.8463C4.88743 15.5376 3.46197 14.7757 2.34315 13.6569C1.22433 12.538 0.462403 11.1126 0.153721 9.56072C-0.15496 8.00887 0.00346625 6.40034 0.608967 4.93853C1.21447 3.47672 2.23985 2.22729 3.55544 1.34824C4.87103 0.469192 6.41775 0 8 0C10.1217 0 12.1566 0.842855 13.6569 2.34315C15.1571 3.84344 16 5.87827 16 8ZM11.795 7.25H8.75V4.205C8.75 4.00609 8.67099 3.81532 8.53033 3.67467C8.38968 3.53402 8.19892 3.455 8 3.455C7.80109 3.455 7.61033 3.53402 7.46967 3.67467C7.32902 3.81532 7.25 4.00609 7.25 4.205V7.25H4.205C4.00609 7.25 3.81533 7.32902 3.67467 7.46967C3.53402 7.61032 3.455 7.80109 3.455 8C3.455 8.19891 3.53402 8.38968 3.67467 8.53033C3.81533 8.67098 4.00609 8.75 4.205 8.75H7.25V11.795C7.25 11.9939 7.32902 12.1847 7.46967 12.3253C7.61033 12.466 7.80109 12.545 8 12.545C8.19892 12.545 8.38968 12.466 8.53033 12.3253C8.67099 12.1847 8.75 11.9939 8.75 11.795V8.75H11.795C11.9939 8.75 12.1847 8.67098 12.3253 8.53033C12.466 8.38968 12.545 8.19891 12.545 8C12.545 7.80109 12.466 7.61032 12.3253 7.46967C12.1847 7.32902 11.9939 7.25 11.795 7.25Z" fill="white"/>
</svg>
