<svg width="40" height="40" viewBox="0 0 40 40" fill="none" xmlns="http://www.w3.org/2000/svg">
<path d="M20.2798 0.0018582C9.03221 -0.150051 -0.150058 9.03178 0.00185829 20.2788C0.151851 31.0653 8.9351 39.8481 19.7221 39.9981C30.9716 40.1519 40.1519 30.9701 39.9981 19.7231C39.85 8.93467 31.0668 0.151844 20.2798 0.0018582ZM18.6654 18.5068L23.6219 12.8343C23.8904 12.527 24.27 12.339 24.6772 12.3116C25.0843 12.2842 25.4857 12.4197 25.793 12.6882C26.1003 12.9567 26.2883 13.3362 26.3157 13.7434C26.3431 14.1505 26.2076 14.5518 25.9391 14.8591L20.9826 20.5317C20.8497 20.6838 20.688 20.8083 20.507 20.8979C20.3259 20.9876 20.129 21.0408 19.9274 21.0543C19.7258 21.0679 19.5235 21.0416 19.332 20.977C19.1406 20.9124 18.9637 20.8107 18.8116 20.6778C18.6594 20.5448 18.5349 20.3832 18.4453 20.2022C18.3556 20.0211 18.3024 19.8242 18.2889 19.6226C18.2753 19.421 18.3016 19.2187 18.3662 19.0273C18.4308 18.8358 18.5325 18.659 18.6654 18.5068V18.5068ZM14.9291 27.2416C14.6406 27.5299 14.2494 27.6918 13.8416 27.6918C13.4338 27.6918 13.0426 27.5299 12.7542 27.2416L8.14379 22.6267C8.00098 22.4837 7.88773 22.3141 7.81049 22.1274C7.73325 21.9407 7.69355 21.7406 7.69364 21.5386C7.69373 21.3365 7.73361 21.1365 7.81101 20.9499C7.88842 20.7632 8.00182 20.5937 8.14475 20.4509C8.28768 20.3081 8.45735 20.1948 8.64405 20.1176C8.83075 20.0404 9.03083 20.0007 9.23288 20.0008C9.43493 20.0009 9.63498 20.0407 9.82161 20.1181C10.0082 20.1955 10.1778 20.3089 10.3206 20.4519L14.9358 25.0668C15.2232 25.3562 15.3839 25.7478 15.3827 26.1556C15.3814 26.5634 15.2182 26.954 14.9291 27.2416ZM31.9283 14.8591L21.1711 27.1656C21.0325 27.3244 20.8627 27.4531 20.6724 27.5435C20.482 27.634 20.2751 27.6844 20.0644 27.6916H20.0125C19.8103 27.6916 19.6101 27.6518 19.4234 27.5744C19.2366 27.497 19.067 27.3836 18.9241 27.2406L14.3147 22.6257C14.0263 22.337 13.8643 21.9456 13.8645 21.5376C13.8647 21.1296 14.027 20.7383 14.3156 20.4499C14.6043 20.1615 14.9957 19.9996 15.4038 19.9998C15.8118 20 16.2031 20.1622 16.4915 20.4509L19.3567 23.3189C19.4312 23.3934 19.5202 23.4518 19.6182 23.4905C19.7162 23.5292 19.8211 23.5473 19.9264 23.5438C20.0317 23.5403 20.1351 23.5152 20.2303 23.4701C20.3255 23.4249 20.4104 23.3607 20.4798 23.2814L29.614 12.8343C29.8825 12.527 30.2621 12.339 30.6692 12.3116C31.0764 12.2842 31.4777 12.4197 31.785 12.6882C32.0923 12.9567 32.2803 13.3362 32.3077 13.7434C32.3351 14.1505 32.1997 14.5518 31.9312 14.8591H31.9283Z" fill="#530BCA"/>
</svg>
