<svg width="902" height="75" viewBox="0 0 902 75" fill="none" xmlns="http://www.w3.org/2000/svg">
<rect width="902" height="75" rx="5" fill="url(#paint0_linear)"/>
<path d="M104.809 23.432C104.809 24.164 104.641 24.836 104.305 25.448C103.969 26.048 103.453 26.534 102.757 26.906C102.061 27.278 101.197 27.464 100.165 27.464H98.2575V32H95.1795V19.364H100.165C101.173 19.364 102.025 19.538 102.721 19.886C103.417 20.234 103.939 20.714 104.287 21.326C104.635 21.938 104.809 22.64 104.809 23.432ZM99.9315 25.016C100.519 25.016 100.957 24.878 101.245 24.602C101.533 24.326 101.677 23.936 101.677 23.432C101.677 22.928 101.533 22.538 101.245 22.262C100.957 21.986 100.519 21.848 99.9315 21.848H98.2575V25.016H99.9315ZM109.49 23.63C109.85 23.078 110.3 22.646 110.84 22.334C111.38 22.01 111.98 21.848 112.64 21.848V25.106H111.794C111.026 25.106 110.45 25.274 110.066 25.61C109.682 25.934 109.49 26.51 109.49 27.338V32H106.412V21.956H109.49V23.63ZM118.683 32.144C117.699 32.144 116.811 31.934 116.019 31.514C115.239 31.094 114.621 30.494 114.165 29.714C113.721 28.934 113.499 28.022 113.499 26.978C113.499 25.946 113.727 25.04 114.183 24.26C114.639 23.468 115.263 22.862 116.055 22.442C116.847 22.022 117.735 21.812 118.719 21.812C119.703 21.812 120.591 22.022 121.383 22.442C122.175 22.862 122.799 23.468 123.255 24.26C123.711 25.04 123.939 25.946 123.939 26.978C123.939 28.01 123.705 28.922 123.237 29.714C122.781 30.494 122.151 31.094 121.347 31.514C120.555 31.934 119.667 32.144 118.683 32.144ZM118.683 29.48C119.271 29.48 119.769 29.264 120.177 28.832C120.597 28.4 120.807 27.782 120.807 26.978C120.807 26.174 120.603 25.556 120.195 25.124C119.799 24.692 119.307 24.476 118.719 24.476C118.119 24.476 117.621 24.692 117.225 25.124C116.829 25.544 116.631 26.162 116.631 26.978C116.631 27.782 116.823 28.4 117.207 28.832C117.603 29.264 118.095 29.48 118.683 29.48ZM124.96 26.96C124.96 25.928 125.152 25.022 125.536 24.242C125.932 23.462 126.466 22.862 127.138 22.442C127.81 22.022 128.56 21.812 129.388 21.812C130.048 21.812 130.648 21.95 131.188 22.226C131.74 22.502 132.172 22.874 132.484 23.342V18.68H135.562V32H132.484V30.56C132.196 31.04 131.782 31.424 131.242 31.712C130.714 32 130.096 32.144 129.388 32.144C128.56 32.144 127.81 31.934 127.138 31.514C126.466 31.082 125.932 30.476 125.536 29.696C125.152 28.904 124.96 27.992 124.96 26.96ZM132.484 26.978C132.484 26.21 132.268 25.604 131.836 25.16C131.416 24.716 130.9 24.494 130.288 24.494C129.676 24.494 129.154 24.716 128.722 25.16C128.302 25.592 128.092 26.192 128.092 26.96C128.092 27.728 128.302 28.34 128.722 28.796C129.154 29.24 129.676 29.462 130.288 29.462C130.9 29.462 131.416 29.24 131.836 28.796C132.268 28.352 132.484 27.746 132.484 26.978ZM147.707 21.956V32H144.629V30.632C144.317 31.076 143.891 31.436 143.351 31.712C142.823 31.976 142.235 32.108 141.587 32.108C140.819 32.108 140.141 31.94 139.553 31.604C138.965 31.256 138.509 30.758 138.185 30.11C137.861 29.462 137.699 28.7 137.699 27.824V21.956H140.759V27.41C140.759 28.082 140.933 28.604 141.281 28.976C141.629 29.348 142.097 29.534 142.685 29.534C143.285 29.534 143.759 29.348 144.107 28.976C144.455 28.604 144.629 28.082 144.629 27.41V21.956H147.707ZM149.306 26.978C149.306 25.934 149.516 25.022 149.936 24.242C150.368 23.462 150.962 22.862 151.718 22.442C152.486 22.022 153.362 21.812 154.346 21.812C155.606 21.812 156.656 22.142 157.496 22.802C158.348 23.462 158.906 24.392 159.17 25.592H155.894C155.618 24.824 155.084 24.44 154.292 24.44C153.728 24.44 153.278 24.662 152.942 25.106C152.606 25.538 152.438 26.162 152.438 26.978C152.438 27.794 152.606 28.424 152.942 28.868C153.278 29.3 153.728 29.516 154.292 29.516C155.084 29.516 155.618 29.132 155.894 28.364H159.17C158.906 29.54 158.348 30.464 157.496 31.136C156.644 31.808 155.594 32.144 154.346 32.144C153.362 32.144 152.486 31.934 151.718 31.514C150.962 31.094 150.368 30.494 149.936 29.714C149.516 28.934 149.306 28.022 149.306 26.978ZM166.414 29.39V32H164.848C163.732 32 162.862 31.73 162.238 31.19C161.614 30.638 161.302 29.744 161.302 28.508V24.512H160.078V21.956H161.302V19.508H164.38V21.956H166.396V24.512H164.38V28.544C164.38 28.844 164.452 29.06 164.596 29.192C164.74 29.324 164.98 29.39 165.316 29.39H166.414ZM176.515 32.126C175.591 32.126 174.763 31.976 174.031 31.676C173.299 31.376 172.711 30.932 172.267 30.344C171.835 29.756 171.607 29.048 171.583 28.22H174.859C174.907 28.688 175.069 29.048 175.345 29.3C175.621 29.54 175.981 29.66 176.425 29.66C176.881 29.66 177.241 29.558 177.505 29.354C177.769 29.138 177.901 28.844 177.901 28.472C177.901 28.16 177.793 27.902 177.577 27.698C177.373 27.494 177.115 27.326 176.803 27.194C176.503 27.062 176.071 26.912 175.507 26.744C174.691 26.492 174.025 26.24 173.509 25.988C172.993 25.736 172.549 25.364 172.177 24.872C171.805 24.38 171.619 23.738 171.619 22.946C171.619 21.77 172.045 20.852 172.897 20.192C173.749 19.52 174.859 19.184 176.227 19.184C177.619 19.184 178.741 19.52 179.593 20.192C180.445 20.852 180.901 21.776 180.961 22.964H177.631C177.607 22.556 177.457 22.238 177.181 22.01C176.905 21.77 176.551 21.65 176.119 21.65C175.747 21.65 175.447 21.752 175.219 21.956C174.991 22.148 174.877 22.43 174.877 22.802C174.877 23.21 175.069 23.528 175.453 23.756C175.837 23.984 176.437 24.23 177.253 24.494C178.069 24.77 178.729 25.034 179.233 25.286C179.749 25.538 180.193 25.904 180.565 26.384C180.937 26.864 181.123 27.482 181.123 28.238C181.123 28.958 180.937 29.612 180.565 30.2C180.205 30.788 179.677 31.256 178.981 31.604C178.285 31.952 177.463 32.126 176.515 32.126ZM182.405 26.96C182.405 25.928 182.597 25.022 182.981 24.242C183.377 23.462 183.911 22.862 184.583 22.442C185.255 22.022 186.005 21.812 186.833 21.812C187.541 21.812 188.159 21.956 188.687 22.244C189.227 22.532 189.641 22.91 189.929 23.378V21.956H193.007V32H189.929V30.578C189.629 31.046 189.209 31.424 188.669 31.712C188.141 32 187.523 32.144 186.815 32.144C185.999 32.144 185.255 31.934 184.583 31.514C183.911 31.082 183.377 30.476 182.981 29.696C182.597 28.904 182.405 27.992 182.405 26.96ZM189.929 26.978C189.929 26.21 189.713 25.604 189.281 25.16C188.861 24.716 188.345 24.494 187.733 24.494C187.121 24.494 186.599 24.716 186.167 25.16C185.747 25.592 185.537 26.192 185.537 26.96C185.537 27.728 185.747 28.34 186.167 28.796C186.599 29.24 187.121 29.462 187.733 29.462C188.345 29.462 188.861 29.24 189.281 28.796C189.713 28.352 189.929 27.746 189.929 26.978ZM198.312 18.68V32H195.234V18.68H198.312ZM210.011 26.816C210.011 27.104 209.993 27.404 209.957 27.716H202.991C203.039 28.34 203.237 28.82 203.585 29.156C203.945 29.48 204.383 29.642 204.899 29.642C205.667 29.642 206.201 29.318 206.501 28.67H209.777C209.609 29.33 209.303 29.924 208.859 30.452C208.427 30.98 207.881 31.394 207.221 31.694C206.561 31.994 205.823 32.144 205.007 32.144C204.023 32.144 203.147 31.934 202.379 31.514C201.611 31.094 201.011 30.494 200.579 29.714C200.147 28.934 199.931 28.022 199.931 26.978C199.931 25.934 200.141 25.022 200.561 24.242C200.993 23.462 201.593 22.862 202.361 22.442C203.129 22.022 204.011 21.812 205.007 21.812C205.979 21.812 206.843 22.016 207.599 22.424C208.355 22.832 208.943 23.414 209.363 24.17C209.795 24.926 210.011 25.808 210.011 26.816ZM206.861 26.006C206.861 25.478 206.681 25.058 206.321 24.746C205.961 24.434 205.511 24.278 204.971 24.278C204.455 24.278 204.017 24.428 203.657 24.728C203.309 25.028 203.093 25.454 203.009 26.006H206.861ZM215.721 32.144C214.845 32.144 214.065 31.994 213.381 31.694C212.697 31.394 212.157 30.986 211.761 30.47C211.365 29.942 211.143 29.354 211.095 28.706H214.137C214.173 29.054 214.335 29.336 214.623 29.552C214.911 29.768 215.265 29.876 215.685 29.876C216.069 29.876 216.363 29.804 216.567 29.66C216.783 29.504 216.891 29.306 216.891 29.066C216.891 28.778 216.741 28.568 216.441 28.436C216.141 28.292 215.655 28.136 214.983 27.968C214.263 27.8 213.663 27.626 213.183 27.446C212.703 27.254 212.289 26.96 211.941 26.564C211.593 26.156 211.419 25.61 211.419 24.926C211.419 24.35 211.575 23.828 211.887 23.36C212.211 22.88 212.679 22.502 213.291 22.226C213.915 21.95 214.653 21.812 215.505 21.812C216.765 21.812 217.755 22.124 218.475 22.748C219.207 23.372 219.627 24.2 219.735 25.232H216.891C216.843 24.884 216.687 24.608 216.423 24.404C216.171 24.2 215.835 24.098 215.415 24.098C215.055 24.098 214.779 24.17 214.587 24.314C214.395 24.446 214.299 24.632 214.299 24.872C214.299 25.16 214.449 25.376 214.749 25.52C215.061 25.664 215.541 25.808 216.189 25.952C216.933 26.144 217.539 26.336 218.007 26.528C218.475 26.708 218.883 27.008 219.231 27.428C219.591 27.836 219.777 28.388 219.789 29.084C219.789 29.672 219.621 30.2 219.285 30.668C218.961 31.124 218.487 31.484 217.863 31.748C217.251 32.012 216.537 32.144 215.721 32.144ZM224.964 25.664C224.964 24.416 225.234 23.306 225.774 22.334C226.314 21.35 227.064 20.588 228.024 20.048C228.996 19.496 230.094 19.22 231.318 19.22C232.818 19.22 234.102 19.616 235.17 20.408C236.238 21.2 236.952 22.28 237.312 23.648H233.928C233.676 23.12 233.316 22.718 232.848 22.442C232.392 22.166 231.87 22.028 231.282 22.028C230.334 22.028 229.566 22.358 228.978 23.018C228.39 23.678 228.096 24.56 228.096 25.664C228.096 26.768 228.39 27.65 228.978 28.31C229.566 28.97 230.334 29.3 231.282 29.3C231.87 29.3 232.392 29.162 232.848 28.886C233.316 28.61 233.676 28.208 233.928 27.68H237.312C236.952 29.048 236.238 30.128 235.17 30.92C234.102 31.7 232.818 32.09 231.318 32.09C230.094 32.09 228.996 31.82 228.024 31.28C227.064 30.728 226.314 29.966 225.774 28.994C225.234 28.022 224.964 26.912 224.964 25.664ZM243.769 32.144C242.785 32.144 241.897 31.934 241.105 31.514C240.325 31.094 239.707 30.494 239.251 29.714C238.807 28.934 238.585 28.022 238.585 26.978C238.585 25.946 238.813 25.04 239.269 24.26C239.725 23.468 240.349 22.862 241.141 22.442C241.933 22.022 242.821 21.812 243.805 21.812C244.789 21.812 245.677 22.022 246.469 22.442C247.261 22.862 247.885 23.468 248.341 24.26C248.797 25.04 249.025 25.946 249.025 26.978C249.025 28.01 248.791 28.922 248.323 29.714C247.867 30.494 247.237 31.094 246.433 31.514C245.641 31.934 244.753 32.144 243.769 32.144ZM243.769 29.48C244.357 29.48 244.855 29.264 245.263 28.832C245.683 28.4 245.893 27.782 245.893 26.978C245.893 26.174 245.689 25.556 245.281 25.124C244.885 24.692 244.393 24.476 243.805 24.476C243.205 24.476 242.707 24.692 242.311 25.124C241.915 25.544 241.717 26.162 241.717 26.978C241.717 27.782 241.909 28.4 242.293 28.832C242.689 29.264 243.181 29.48 243.769 29.48ZM263.474 21.848C264.722 21.848 265.712 22.226 266.444 22.982C267.188 23.738 267.56 24.788 267.56 26.132V32H264.5V26.546C264.5 25.898 264.326 25.4 263.978 25.052C263.642 24.692 263.174 24.512 262.574 24.512C261.974 24.512 261.5 24.692 261.152 25.052C260.816 25.4 260.648 25.898 260.648 26.546V32H257.588V26.546C257.588 25.898 257.414 25.4 257.066 25.052C256.73 24.692 256.262 24.512 255.662 24.512C255.062 24.512 254.588 24.692 254.24 25.052C253.904 25.4 253.736 25.898 253.736 26.546V32H250.658V21.956H253.736V23.216C254.048 22.796 254.456 22.466 254.96 22.226C255.464 21.974 256.034 21.848 256.67 21.848C257.426 21.848 258.098 22.01 258.686 22.334C259.286 22.658 259.754 23.12 260.09 23.72C260.438 23.168 260.912 22.718 261.512 22.37C262.112 22.022 262.766 21.848 263.474 21.848ZM272.791 23.378C273.091 22.91 273.505 22.532 274.033 22.244C274.561 21.956 275.179 21.812 275.887 21.812C276.715 21.812 277.465 22.022 278.137 22.442C278.809 22.862 279.337 23.462 279.721 24.242C280.117 25.022 280.315 25.928 280.315 26.96C280.315 27.992 280.117 28.904 279.721 29.696C279.337 30.476 278.809 31.082 278.137 31.514C277.465 31.934 276.715 32.144 275.887 32.144C275.191 32.144 274.573 32 274.033 31.712C273.505 31.424 273.091 31.052 272.791 30.596V36.788H269.713V21.956H272.791V23.378ZM277.183 26.96C277.183 26.192 276.967 25.592 276.535 25.16C276.115 24.716 275.593 24.494 274.969 24.494C274.357 24.494 273.835 24.716 273.403 25.16C272.983 25.604 272.773 26.21 272.773 26.978C272.773 27.746 272.983 28.352 273.403 28.796C273.835 29.24 274.357 29.462 274.969 29.462C275.581 29.462 276.103 29.24 276.535 28.796C276.967 28.34 277.183 27.728 277.183 26.96ZM286.501 32.144C285.517 32.144 284.629 31.934 283.837 31.514C283.057 31.094 282.439 30.494 281.983 29.714C281.539 28.934 281.317 28.022 281.317 26.978C281.317 25.946 281.545 25.04 282.001 24.26C282.457 23.468 283.081 22.862 283.873 22.442C284.665 22.022 285.553 21.812 286.537 21.812C287.521 21.812 288.409 22.022 289.201 22.442C289.993 22.862 290.617 23.468 291.073 24.26C291.529 25.04 291.757 25.946 291.757 26.978C291.757 28.01 291.523 28.922 291.055 29.714C290.599 30.494 289.969 31.094 289.165 31.514C288.373 31.934 287.485 32.144 286.501 32.144ZM286.501 29.48C287.089 29.48 287.587 29.264 287.995 28.832C288.415 28.4 288.625 27.782 288.625 26.978C288.625 26.174 288.421 25.556 288.013 25.124C287.617 24.692 287.125 24.476 286.537 24.476C285.937 24.476 285.439 24.692 285.043 25.124C284.647 25.544 284.449 26.162 284.449 26.978C284.449 27.782 284.641 28.4 285.025 28.832C285.421 29.264 285.913 29.48 286.501 29.48ZM299.51 21.848C300.686 21.848 301.622 22.232 302.318 23C303.026 23.756 303.38 24.8 303.38 26.132V32H300.32V26.546C300.32 25.874 300.146 25.352 299.798 24.98C299.45 24.608 298.982 24.422 298.394 24.422C297.806 24.422 297.338 24.608 296.99 24.98C296.642 25.352 296.468 25.874 296.468 26.546V32H293.39V21.956H296.468V23.288C296.78 22.844 297.2 22.496 297.728 22.244C298.256 21.98 298.85 21.848 299.51 21.848ZM314.987 26.816C314.987 27.104 314.969 27.404 314.933 27.716H307.967C308.015 28.34 308.213 28.82 308.561 29.156C308.921 29.48 309.359 29.642 309.875 29.642C310.643 29.642 311.177 29.318 311.477 28.67H314.753C314.585 29.33 314.279 29.924 313.835 30.452C313.403 30.98 312.857 31.394 312.197 31.694C311.537 31.994 310.799 32.144 309.983 32.144C308.999 32.144 308.123 31.934 307.355 31.514C306.587 31.094 305.987 30.494 305.555 29.714C305.123 28.934 304.907 28.022 304.907 26.978C304.907 25.934 305.117 25.022 305.537 24.242C305.969 23.462 306.569 22.862 307.337 22.442C308.105 22.022 308.987 21.812 309.983 21.812C310.955 21.812 311.819 22.016 312.575 22.424C313.331 22.832 313.919 23.414 314.339 24.17C314.771 24.926 314.987 25.808 314.987 26.816ZM311.837 26.006C311.837 25.478 311.657 25.058 311.297 24.746C310.937 24.434 310.487 24.278 309.947 24.278C309.431 24.278 308.993 24.428 308.633 24.728C308.285 25.028 308.069 25.454 307.985 26.006H311.837ZM322.731 21.848C323.907 21.848 324.843 22.232 325.539 23C326.247 23.756 326.601 24.8 326.601 26.132V32H323.541V26.546C323.541 25.874 323.367 25.352 323.019 24.98C322.671 24.608 322.203 24.422 321.615 24.422C321.027 24.422 320.559 24.608 320.211 24.98C319.863 25.352 319.689 25.874 319.689 26.546V32H316.611V21.956H319.689V23.288C320.001 22.844 320.421 22.496 320.949 22.244C321.477 21.98 322.071 21.848 322.731 21.848ZM334.338 29.39V32H332.772C331.656 32 330.786 31.73 330.162 31.19C329.538 30.638 329.226 29.744 329.226 28.508V24.512H328.002V21.956H329.226V19.508H332.304V21.956H334.32V24.512H332.304V28.544C332.304 28.844 332.376 29.06 332.52 29.192C332.664 29.324 332.904 29.39 333.24 29.39H334.338Z" fill="white"/>
<path d="M101.443 55H96.668V46.4336H101.443V47.3184H97.6641V50.0781H101.215V50.957H97.6641V54.1094H101.443V55ZM107.139 55L104.232 47.4062H104.186C104.24 48.0078 104.268 48.7227 104.268 49.5508V55H103.348V46.4336H104.848L107.561 53.5H107.607L110.344 46.4336H111.832V55H110.836V49.4805C110.836 48.8477 110.863 48.1602 110.918 47.418H110.871L107.941 55H107.139ZM119.619 48.9297C119.619 49.7969 119.322 50.4648 118.729 50.9336C118.139 51.3984 117.293 51.6309 116.191 51.6309H115.184V55H114.188V46.4336H116.408C118.549 46.4336 119.619 47.2656 119.619 48.9297ZM115.184 50.7754H116.08C116.963 50.7754 117.602 50.6328 117.996 50.3477C118.391 50.0625 118.588 49.6055 118.588 48.9766C118.588 48.4102 118.402 47.9883 118.031 47.7109C117.66 47.4336 117.082 47.2949 116.297 47.2949H115.184V50.7754ZM121.418 55V46.4336H122.414V54.0977H126.193V55H121.418ZM135.088 50.7051C135.088 52.0762 134.74 53.1543 134.045 53.9395C133.354 54.7246 132.391 55.1172 131.156 55.1172C129.895 55.1172 128.92 54.7324 128.232 53.9629C127.549 53.1895 127.207 52.0996 127.207 50.6934C127.207 49.2988 127.551 48.2188 128.238 47.4531C128.926 46.6836 129.902 46.2988 131.168 46.2988C132.398 46.2988 133.359 46.6895 134.051 47.4707C134.742 48.252 135.088 49.3301 135.088 50.7051ZM128.262 50.7051C128.262 51.8652 128.508 52.7461 129 53.3477C129.496 53.9453 130.215 54.2441 131.156 54.2441C132.105 54.2441 132.822 53.9453 133.307 53.3477C133.791 52.75 134.033 51.8691 134.033 50.7051C134.033 49.5527 133.791 48.6797 133.307 48.0859C132.826 47.4883 132.113 47.1895 131.168 47.1895C130.219 47.1895 129.496 47.4902 129 48.0918C128.508 48.6895 128.262 49.5605 128.262 50.7051ZM139.184 50.7168L141.469 46.4336H142.547L139.688 51.6777V55H138.68V51.7246L135.826 46.4336H136.916L139.184 50.7168ZM148.506 55H143.73V46.4336H148.506V47.3184H144.727V50.0781H148.277V50.957H144.727V54.1094H148.506V55ZM155.186 55H150.41V46.4336H155.186V47.3184H151.406V50.0781H154.957V50.957H151.406V54.1094H155.186V55ZM160.207 55V46.4336H161.203V55H160.207ZM170.25 55H169.113L164.432 47.8105H164.385C164.447 48.6543 164.479 49.4277 164.479 50.1309V55H163.559V46.4336H164.684L169.354 53.5938H169.4C169.393 53.4883 169.375 53.1504 169.348 52.5801C169.32 52.0059 169.311 51.5957 169.318 51.3496V46.4336H170.25V55ZM175.242 55H174.246V47.3184H171.533V46.4336H177.955V47.3184H175.242V55ZM184.025 55H179.25V46.4336H184.025V47.3184H180.246V50.0781H183.797V50.957H180.246V54.1094H184.025V55ZM186.926 51.4375V55H185.93V46.4336H188.279C189.33 46.4336 190.105 46.6348 190.605 47.0371C191.109 47.4395 191.361 48.0449 191.361 48.8535C191.361 49.9863 190.787 50.752 189.639 51.1504L191.965 55H190.787L188.713 51.4375H186.926ZM186.926 50.582H188.291C188.994 50.582 189.51 50.4434 189.838 50.166C190.166 49.8848 190.33 49.4648 190.33 48.9062C190.33 48.3398 190.162 47.9316 189.826 47.6816C189.494 47.4316 188.959 47.3066 188.221 47.3066H186.926V50.582ZM198.732 55L197.666 52.2754H194.232L193.178 55H192.17L195.557 46.3984H196.395L199.764 55H198.732ZM197.355 51.3789L196.359 48.7246C196.23 48.3887 196.098 47.9766 195.961 47.4883C195.875 47.8633 195.752 48.2754 195.592 48.7246L194.584 51.3789H197.355ZM204.609 47.2012C203.668 47.2012 202.924 47.5156 202.377 48.1445C201.834 48.7695 201.562 49.627 201.562 50.7168C201.562 51.8379 201.824 52.7051 202.348 53.3184C202.875 53.9277 203.625 54.2324 204.598 54.2324C205.195 54.2324 205.877 54.125 206.643 53.9102V54.7832C206.049 55.0059 205.316 55.1172 204.445 55.1172C203.184 55.1172 202.209 54.7344 201.521 53.9688C200.838 53.2031 200.496 52.1152 200.496 50.7051C200.496 49.8223 200.66 49.0488 200.988 48.3848C201.32 47.7207 201.797 47.209 202.418 46.8496C203.043 46.4902 203.777 46.3105 204.621 46.3105C205.52 46.3105 206.305 46.4746 206.977 46.8027L206.555 47.6582C205.906 47.3535 205.258 47.2012 204.609 47.2012ZM211.148 55H210.152V47.3184H207.439V46.4336H213.861V47.3184H211.148V55ZM215.156 55V46.4336H216.152V55H215.156ZM225.943 50.7051C225.943 52.0762 225.596 53.1543 224.9 53.9395C224.209 54.7246 223.246 55.1172 222.012 55.1172C220.75 55.1172 219.775 54.7324 219.088 53.9629C218.404 53.1895 218.062 52.0996 218.062 50.6934C218.062 49.2988 218.406 48.2188 219.094 47.4531C219.781 46.6836 220.758 46.2988 222.023 46.2988C223.254 46.2988 224.215 46.6895 224.906 47.4707C225.598 48.252 225.943 49.3301 225.943 50.7051ZM219.117 50.7051C219.117 51.8652 219.363 52.7461 219.855 53.3477C220.352 53.9453 221.07 54.2441 222.012 54.2441C222.961 54.2441 223.678 53.9453 224.162 53.3477C224.646 52.75 224.889 51.8691 224.889 50.7051C224.889 49.5527 224.646 48.6797 224.162 48.0859C223.682 47.4883 222.969 47.1895 222.023 47.1895C221.074 47.1895 220.352 47.4902 219.855 48.0918C219.363 48.6895 219.117 49.5605 219.117 50.7051ZM234.551 55H233.414L228.732 47.8105H228.686C228.748 48.6543 228.779 49.4277 228.779 50.1309V55H227.859V46.4336H228.984L233.654 53.5938H233.701C233.693 53.4883 233.676 53.1504 233.648 52.5801C233.621 52.0059 233.611 51.5957 233.619 51.3496V46.4336H234.551V55ZM239.338 52.2285V51.3379H242.215V52.2285H239.338ZM247.008 55V46.4336H248.004V54.0977H251.783V55H247.008ZM258.627 55L257.561 52.2754H254.127L253.072 55H252.064L255.451 46.3984H256.289L259.658 55H258.627ZM257.25 51.3789L256.254 48.7246C256.125 48.3887 255.992 47.9766 255.855 47.4883C255.77 47.8633 255.646 48.2754 255.486 48.7246L254.479 51.3789H257.25ZM265.67 52.7207C265.67 53.4746 265.396 54.0625 264.85 54.4844C264.303 54.9062 263.561 55.1172 262.623 55.1172C261.607 55.1172 260.826 54.9863 260.279 54.7246V53.7637C260.631 53.9121 261.014 54.0293 261.428 54.1152C261.842 54.2012 262.252 54.2441 262.658 54.2441C263.322 54.2441 263.822 54.1191 264.158 53.8691C264.494 53.6152 264.662 53.2637 264.662 52.8145C264.662 52.5176 264.602 52.2754 264.48 52.0879C264.363 51.8965 264.164 51.7207 263.883 51.5605C263.605 51.4004 263.182 51.2188 262.611 51.0156C261.814 50.7305 261.244 50.3926 260.9 50.002C260.561 49.6113 260.391 49.1016 260.391 48.4727C260.391 47.8125 260.639 47.2871 261.135 46.8965C261.631 46.5059 262.287 46.3105 263.104 46.3105C263.955 46.3105 264.738 46.4668 265.453 46.7793L265.143 47.6465C264.436 47.3496 263.748 47.2012 263.08 47.2012C262.553 47.2012 262.141 47.3145 261.844 47.541C261.547 47.7676 261.398 48.082 261.398 48.4844C261.398 48.7812 261.453 49.0254 261.562 49.2168C261.672 49.4043 261.855 49.5781 262.113 49.7383C262.375 49.8945 262.773 50.0684 263.309 50.2598C264.207 50.5801 264.824 50.9238 265.16 51.291C265.5 51.6582 265.67 52.1348 265.67 52.7207ZM270.059 55H269.062V47.3184H266.35V46.4336H272.771V47.3184H270.059V55ZM283.652 46.4336V51.9766C283.652 52.9531 283.357 53.7207 282.768 54.2793C282.178 54.8379 281.367 55.1172 280.336 55.1172C279.305 55.1172 278.506 54.8359 277.939 54.2734C277.377 53.7109 277.096 52.9375 277.096 51.9531V46.4336H278.092V52.0234C278.092 52.7383 278.287 53.2871 278.678 53.6699C279.068 54.0527 279.643 54.2441 280.4 54.2441C281.123 54.2441 281.68 54.0527 282.07 53.6699C282.461 53.2832 282.656 52.7305 282.656 52.0117V46.4336H283.652ZM291.357 48.9297C291.357 49.7969 291.061 50.4648 290.467 50.9336C289.877 51.3984 289.031 51.6309 287.93 51.6309H286.922V55H285.926V46.4336H288.146C290.287 46.4336 291.357 47.2656 291.357 48.9297ZM286.922 50.7754H287.818C288.701 50.7754 289.34 50.6328 289.734 50.3477C290.129 50.0625 290.326 49.6055 290.326 48.9766C290.326 48.4102 290.141 47.9883 289.77 47.7109C289.398 47.4336 288.82 47.2949 288.035 47.2949H286.922V50.7754ZM299.994 50.6348C299.994 52.0488 299.609 53.1309 298.84 53.8809C298.074 54.627 296.971 55 295.529 55H293.156V46.4336H295.781C297.113 46.4336 298.148 46.8027 298.887 47.541C299.625 48.2793 299.994 49.3105 299.994 50.6348ZM298.939 50.6699C298.939 49.5527 298.658 48.7109 298.096 48.1445C297.537 47.5781 296.705 47.2949 295.6 47.2949H294.152V54.1387H295.365C296.553 54.1387 297.445 53.8477 298.043 53.2656C298.641 52.6797 298.939 51.8145 298.939 50.6699ZM307.295 55L306.229 52.2754H302.795L301.74 55H300.732L304.119 46.3984H304.957L308.326 55H307.295ZM305.918 51.3789L304.922 48.7246C304.793 48.3887 304.66 47.9766 304.523 47.4883C304.438 47.8633 304.314 48.2754 304.154 48.7246L303.146 51.3789H305.918ZM312.141 55H311.145V47.3184H308.432V46.4336H314.854V47.3184H312.141V55ZM320.924 55H316.148V46.4336H320.924V47.3184H317.145V50.0781H320.695V50.957H317.145V54.1094H320.924V55ZM329.666 50.6348C329.666 52.0488 329.281 53.1309 328.512 53.8809C327.746 54.627 326.643 55 325.201 55H322.828V46.4336H325.453C326.785 46.4336 327.82 46.8027 328.559 47.541C329.297 48.2793 329.666 49.3105 329.666 50.6348ZM328.611 50.6699C328.611 49.5527 328.33 48.7109 327.768 48.1445C327.209 47.5781 326.377 47.2949 325.271 47.2949H323.824V54.1387H325.037C326.225 54.1387 327.117 53.8477 327.715 53.2656C328.312 52.6797 328.611 51.8145 328.611 50.6699ZM340.143 53.0312H338.871V55H337.939V53.0312H333.773V52.1816L337.84 46.3867H338.871V52.1465H340.143V53.0312ZM337.939 52.1465V49.2988C337.939 48.7402 337.959 48.1094 337.998 47.4062H337.951C337.764 47.7812 337.588 48.0918 337.424 48.3379L334.746 52.1465H337.939ZM341.279 54.3789C341.279 54.1172 341.338 53.9199 341.455 53.7871C341.576 53.6504 341.748 53.582 341.971 53.582C342.197 53.582 342.373 53.6504 342.498 53.7871C342.627 53.9199 342.691 54.1172 342.691 54.3789C342.691 54.6328 342.627 54.8281 342.498 54.9648C342.369 55.1016 342.193 55.1699 341.971 55.1699C341.771 55.1699 341.605 55.1094 341.473 54.9883C341.344 54.8633 341.279 54.6602 341.279 54.3789ZM341.279 49.2051C341.279 48.6777 341.51 48.4141 341.971 48.4141C342.451 48.4141 342.691 48.6777 342.691 49.2051C342.691 49.459 342.627 49.6543 342.498 49.791C342.369 49.9277 342.193 49.9961 341.971 49.9961C341.771 49.9961 341.605 49.9355 341.473 49.8145C341.344 49.6895 341.279 49.4863 341.279 49.2051ZM346.852 49.7676C347.754 49.7676 348.463 49.9922 348.979 50.4414C349.498 50.8867 349.758 51.498 349.758 52.2754C349.758 53.1621 349.475 53.8574 348.908 54.3613C348.346 54.8652 347.568 55.1172 346.576 55.1172C345.611 55.1172 344.875 54.9629 344.367 54.6543V53.7168C344.641 53.8926 344.98 54.0312 345.387 54.1328C345.793 54.2305 346.193 54.2793 346.588 54.2793C347.275 54.2793 347.809 54.1172 348.188 53.793C348.57 53.4688 348.762 53 348.762 52.3867C348.762 51.1914 348.029 50.5938 346.564 50.5938C346.193 50.5938 345.697 50.6504 345.076 50.7637L344.572 50.4414L344.895 46.4336H349.154V47.3301H345.727L345.51 49.9023C345.959 49.8125 346.406 49.7676 346.852 49.7676ZM357.076 53.0312H355.805V55H354.873V53.0312H350.707V52.1816L354.773 46.3867H355.805V52.1465H357.076V53.0312ZM354.873 52.1465V49.2988C354.873 48.7402 354.893 48.1094 354.932 47.4062H354.885C354.697 47.7812 354.521 48.0918 354.357 48.3379L351.68 52.1465H354.873ZM367.049 48.9297C367.049 49.7969 366.752 50.4648 366.158 50.9336C365.568 51.3984 364.723 51.6309 363.621 51.6309H362.613V55H361.617V46.4336H363.838C365.979 46.4336 367.049 47.2656 367.049 48.9297ZM362.613 50.7754H363.51C364.393 50.7754 365.031 50.6328 365.426 50.3477C365.82 50.0625 366.018 49.6055 366.018 48.9766C366.018 48.4102 365.832 47.9883 365.461 47.7109C365.09 47.4336 364.512 47.2949 363.727 47.2949H362.613V50.7754ZM372.639 55L369.732 47.4062H369.686C369.74 48.0078 369.768 48.7227 369.768 49.5508V55H368.848V46.4336H370.348L373.061 53.5H373.107L375.844 46.4336H377.332V55H376.336V49.4805C376.336 48.8477 376.363 48.1602 376.418 47.418H376.371L373.441 55H372.639Z" fill="white"/>
<path d="M502.763 27.4C502.763 26.3013 503.008 25.32 503.499 24.456C504 23.5813 504.678 22.904 505.531 22.424C506.395 21.9333 507.36 21.688 508.427 21.688C509.675 21.688 510.768 22.008 511.707 22.648C512.646 23.288 513.302 24.1733 513.675 25.304H511.099C510.843 24.7707 510.48 24.3707 510.011 24.104C509.552 23.8373 509.019 23.704 508.411 23.704C507.76 23.704 507.179 23.8587 506.667 24.168C506.166 24.4667 505.771 24.8933 505.483 25.448C505.206 26.0027 505.067 26.6533 505.067 27.4C505.067 28.136 505.206 28.7867 505.483 29.352C505.771 29.9067 506.166 30.3387 506.667 30.648C507.179 30.9467 507.76 31.096 508.411 31.096C509.019 31.096 509.552 30.9627 510.011 30.696C510.48 30.4187 510.843 30.0133 511.099 29.48H513.675C513.302 30.6213 512.646 31.512 511.707 32.152C510.779 32.7813 509.686 33.096 508.427 33.096C507.36 33.096 506.395 32.856 505.531 32.376C504.678 31.8853 504 31.208 503.499 30.344C503.008 29.48 502.763 28.4987 502.763 27.4ZM523.956 24.136V33H521.7V31.88C521.412 32.264 521.034 32.568 520.564 32.792C520.106 33.0053 519.604 33.112 519.06 33.112C518.367 33.112 517.754 32.968 517.22 32.68C516.687 32.3813 516.266 31.9493 515.956 31.384C515.658 30.808 515.508 30.1253 515.508 29.336V24.136H517.748V29.016C517.748 29.72 517.924 30.264 518.276 30.648C518.628 31.0213 519.108 31.208 519.716 31.208C520.335 31.208 520.82 31.0213 521.172 30.648C521.524 30.264 521.7 29.72 521.7 29.016V24.136H523.956ZM528.407 25.512C528.695 25.0427 529.068 24.6747 529.527 24.408C529.996 24.1413 530.529 24.008 531.127 24.008V26.36H530.535C529.831 26.36 529.297 26.5253 528.935 26.856C528.583 27.1867 528.407 27.7627 528.407 28.584V33H526.167V24.136H528.407V25.512ZM534.875 25.512C535.163 25.0427 535.537 24.6747 535.995 24.408C536.465 24.1413 536.998 24.008 537.595 24.008V26.36H537.003C536.299 26.36 535.766 26.5253 535.403 26.856C535.051 27.1867 534.875 27.7627 534.875 28.584V33H532.635V24.136H534.875V25.512ZM547.344 28.376C547.344 28.696 547.323 28.984 547.28 29.24H540.8C540.853 29.88 541.077 30.3813 541.472 30.744C541.867 31.1067 542.352 31.288 542.928 31.288C543.76 31.288 544.352 30.9307 544.704 30.216H547.12C546.864 31.0693 546.373 31.7733 545.648 32.328C544.923 32.872 544.032 33.144 542.976 33.144C542.123 33.144 541.355 32.9573 540.672 32.584C540 32.2 539.472 31.6613 539.088 30.968C538.715 30.2747 538.528 29.4747 538.528 28.568C538.528 27.6507 538.715 26.8453 539.088 26.152C539.461 25.4587 539.984 24.9253 540.656 24.552C541.328 24.1787 542.101 23.992 542.976 23.992C543.819 23.992 544.571 24.1733 545.232 24.536C545.904 24.8987 546.421 25.416 546.784 26.088C547.157 26.7493 547.344 27.512 547.344 28.376ZM545.024 27.736C545.013 27.16 544.805 26.7013 544.4 26.36C543.995 26.008 543.499 25.832 542.912 25.832C542.357 25.832 541.888 26.0027 541.504 26.344C541.131 26.6747 540.901 27.1387 540.816 27.736H545.024ZM553.891 24.008C554.947 24.008 555.8 24.344 556.451 25.016C557.102 25.6773 557.427 26.6053 557.427 27.8V33H555.187V28.104C555.187 27.4 555.011 26.8613 554.659 26.488C554.307 26.104 553.827 25.912 553.219 25.912C552.6 25.912 552.11 26.104 551.747 26.488C551.395 26.8613 551.219 27.4 551.219 28.104V33H548.979V24.136H551.219V25.24C551.518 24.856 551.896 24.5573 552.355 24.344C552.824 24.12 553.336 24.008 553.891 24.008ZM562.165 25.976V30.264C562.165 30.5627 562.234 30.7813 562.373 30.92C562.522 31.048 562.768 31.112 563.109 31.112H564.149V33H562.741C560.853 33 559.909 32.0827 559.909 30.248V25.976H558.853V24.136H559.909V21.944H562.165V24.136H564.149V25.976H562.165ZM568 21.16V33H565.76V21.16H568ZM578.693 24.136L573.205 37.192H570.821L572.741 32.776L569.189 24.136H571.701L573.989 30.328L576.309 24.136H578.693ZM590.561 30.872H586.113L585.377 33H583.025L587.041 21.816H589.649L593.665 33H591.297L590.561 30.872ZM589.953 29.08L588.337 24.408L586.721 29.08H589.953ZM594.59 28.568C594.59 27.6507 594.777 26.8507 595.151 26.168C595.524 25.4747 596.041 24.9413 596.703 24.568C597.364 24.184 598.121 23.992 598.975 23.992C600.073 23.992 600.98 24.2693 601.695 24.824C602.42 25.368 602.905 26.136 603.151 27.128H600.735C600.607 26.744 600.388 26.4453 600.079 26.232C599.78 26.008 599.407 25.896 598.959 25.896C598.319 25.896 597.812 26.1307 597.439 26.6C597.065 27.0587 596.879 27.7147 596.879 28.568C596.879 29.4107 597.065 30.0667 597.439 30.536C597.812 30.9947 598.319 31.224 598.959 31.224C599.865 31.224 600.457 30.8187 600.735 30.008H603.151C602.905 30.968 602.42 31.7307 601.695 32.296C600.969 32.8613 600.063 33.144 598.975 33.144C598.121 33.144 597.364 32.9573 596.703 32.584C596.041 32.2 595.524 31.6667 595.151 30.984C594.777 30.2907 594.59 29.4853 594.59 28.568ZM607.4 25.976V30.264C607.4 30.5627 607.469 30.7813 607.608 30.92C607.757 31.048 608.002 31.112 608.344 31.112H609.384V33H607.976C606.088 33 605.144 32.0827 605.144 30.248V25.976H604.088V24.136H605.144V21.944H607.4V24.136H609.384V25.976H607.4ZM612.131 23.08C611.736 23.08 611.405 22.9573 611.139 22.712C610.883 22.456 610.755 22.1413 610.755 21.768C610.755 21.3947 610.883 21.0853 611.139 20.84C611.405 20.584 611.736 20.456 612.131 20.456C612.525 20.456 612.851 20.584 613.107 20.84C613.373 21.0853 613.507 21.3947 613.507 21.768C613.507 22.1413 613.373 22.456 613.107 22.712C612.851 22.9573 612.525 23.08 612.131 23.08ZM613.235 24.136V33H610.995V24.136H613.235ZM619.144 30.936L621.384 24.136H623.768L620.488 33H617.768L614.504 24.136H616.904L619.144 30.936ZM633.266 28.376C633.266 28.696 633.245 28.984 633.202 29.24H626.722C626.775 29.88 626.999 30.3813 627.394 30.744C627.789 31.1067 628.274 31.288 628.85 31.288C629.682 31.288 630.274 30.9307 630.626 30.216H633.042C632.786 31.0693 632.295 31.7733 631.57 32.328C630.845 32.872 629.954 33.144 628.898 33.144C628.045 33.144 627.277 32.9573 626.594 32.584C625.922 32.2 625.394 31.6613 625.01 30.968C624.637 30.2747 624.45 29.4747 624.45 28.568C624.45 27.6507 624.637 26.8453 625.01 26.152C625.383 25.4587 625.906 24.9253 626.578 24.552C627.25 24.1787 628.023 23.992 628.898 23.992C629.741 23.992 630.493 24.1733 631.154 24.536C631.826 24.8987 632.343 25.416 632.706 26.088C633.079 26.7493 633.266 27.512 633.266 28.376ZM630.946 27.736C630.935 27.16 630.727 26.7013 630.322 26.36C629.917 26.008 629.421 25.832 628.834 25.832C628.279 25.832 627.81 26.0027 627.426 26.344C627.053 26.6747 626.823 27.1387 626.738 27.736H630.946Z" fill="#07C8A5"/>
<path d="M506.225 55H505.275V48.8945C505.275 48.3867 505.291 47.9062 505.322 47.4531C505.24 47.5352 505.148 47.6211 505.047 47.7109C504.945 47.8008 504.48 48.1816 503.652 48.8535L503.137 48.1855L505.404 46.4336H506.225V55ZM515.523 53.0312H514.252V55H513.32V53.0312H509.154V52.1816L513.221 46.3867H514.252V52.1465H515.523V53.0312ZM513.32 52.1465V49.2988C513.32 48.7402 513.34 48.1094 513.379 47.4062H513.332C513.145 47.7812 512.969 48.0918 512.805 48.3379L510.127 52.1465H513.32ZM526.902 50.6348C526.902 52.0488 526.518 53.1309 525.748 53.8809C524.982 54.627 523.879 55 522.438 55H520.064V46.4336H522.689C524.021 46.4336 525.057 46.8027 525.795 47.541C526.533 48.2793 526.902 49.3105 526.902 50.6348ZM525.848 50.6699C525.848 49.5527 525.566 48.7109 525.004 48.1445C524.445 47.5781 523.613 47.2949 522.508 47.2949H521.061V54.1387H522.273C523.461 54.1387 524.354 53.8477 524.951 53.2656C525.549 52.6797 525.848 51.8145 525.848 50.6699ZM534.203 55L533.137 52.2754H529.703L528.648 55H527.641L531.027 46.3984H531.865L535.234 55H534.203ZM532.826 51.3789L531.83 48.7246C531.701 48.3887 531.568 47.9766 531.432 47.4883C531.346 47.8633 531.223 48.2754 531.062 48.7246L530.055 51.3789H532.826ZM539.049 55H538.053V47.3184H535.34V46.4336H541.762V47.3184H539.049V55ZM548.441 55L547.375 52.2754H543.941L542.887 55H541.879L545.266 46.3984H546.104L549.473 55H548.441ZM547.064 51.3789L546.068 48.7246C545.939 48.3887 545.807 47.9766 545.67 47.4883C545.584 47.8633 545.461 48.2754 545.301 48.7246L544.293 51.3789H547.064ZM554.764 55H553.768V46.4336H558.543V47.3184H554.764V50.4531H558.314V51.3379H554.764V55ZM559.967 55V46.4336H560.963V55H559.967ZM568.094 55H563.318V46.4336H568.094V47.3184H564.314V50.0781H567.865V50.957H564.314V54.1094H568.094V55ZM569.998 55V46.4336H570.994V54.0977H574.773V55H569.998ZM583.07 50.6348C583.07 52.0488 582.686 53.1309 581.916 53.8809C581.15 54.627 580.047 55 578.605 55H576.232V46.4336H578.857C580.189 46.4336 581.225 46.8027 581.963 47.541C582.701 48.2793 583.07 49.3105 583.07 50.6348ZM582.016 50.6699C582.016 49.5527 581.734 48.7109 581.172 48.1445C580.613 47.5781 579.781 47.2949 578.676 47.2949H577.229V54.1387H578.441C579.629 54.1387 580.521 53.8477 581.119 53.2656C581.717 52.6797 582.016 51.8145 582.016 50.6699ZM589.82 52.7207C589.82 53.4746 589.547 54.0625 589 54.4844C588.453 54.9062 587.711 55.1172 586.773 55.1172C585.758 55.1172 584.977 54.9863 584.43 54.7246V53.7637C584.781 53.9121 585.164 54.0293 585.578 54.1152C585.992 54.2012 586.402 54.2441 586.809 54.2441C587.473 54.2441 587.973 54.1191 588.309 53.8691C588.645 53.6152 588.812 53.2637 588.812 52.8145C588.812 52.5176 588.752 52.2754 588.631 52.0879C588.514 51.8965 588.314 51.7207 588.033 51.5605C587.756 51.4004 587.332 51.2188 586.762 51.0156C585.965 50.7305 585.395 50.3926 585.051 50.002C584.711 49.6113 584.541 49.1016 584.541 48.4727C584.541 47.8125 584.789 47.2871 585.285 46.8965C585.781 46.5059 586.438 46.3105 587.254 46.3105C588.105 46.3105 588.889 46.4668 589.604 46.7793L589.293 47.6465C588.586 47.3496 587.898 47.2012 587.23 47.2012C586.703 47.2012 586.291 47.3145 585.994 47.541C585.697 47.7676 585.549 48.082 585.549 48.4844C585.549 48.7812 585.604 49.0254 585.713 49.2168C585.822 49.4043 586.006 49.5781 586.264 49.7383C586.525 49.8945 586.924 50.0684 587.459 50.2598C588.357 50.5801 588.975 50.9238 589.311 51.291C589.65 51.6582 589.82 52.1348 589.82 52.7207ZM595.686 55H594.689V46.4336H599.465V47.3184H595.686V50.4531H599.236V51.3379H595.686V55ZM600.889 55V46.4336H601.885V55H600.889ZM604.24 55V46.4336H605.236V54.0977H609.016V55H604.24ZM610.475 55V46.4336H611.471V54.0977H615.25V55H610.475ZM621.484 55H616.709V46.4336H621.484V47.3184H617.705V50.0781H621.256V50.957H617.705V54.1094H621.484V55ZM630.227 50.6348C630.227 52.0488 629.842 53.1309 629.072 53.8809C628.307 54.627 627.203 55 625.762 55H623.389V46.4336H626.014C627.346 46.4336 628.381 46.8027 629.119 47.541C629.857 48.2793 630.227 49.3105 630.227 50.6348ZM629.172 50.6699C629.172 49.5527 628.891 48.7109 628.328 48.1445C627.77 47.5781 626.938 47.2949 625.832 47.2949H624.385V54.1387H625.598C626.785 54.1387 627.678 53.8477 628.275 53.2656C628.873 52.6797 629.172 51.8145 629.172 50.6699Z" fill="white"/>
<rect x="696" y="18" width="185" height="39" rx="5" fill="#07C8A5"/>
<path d="M742.413 40.404H739.077L738.525 42H736.761L739.773 33.612H741.729L744.741 42H742.965L742.413 40.404ZM741.957 39.06L740.745 35.556L739.533 39.06H741.957ZM745.435 38.676C745.435 37.988 745.575 37.388 745.855 36.876C746.135 36.356 746.523 35.956 747.019 35.676C747.515 35.388 748.083 35.244 748.723 35.244C749.547 35.244 750.227 35.452 750.763 35.868C751.307 36.276 751.671 36.852 751.855 37.596H750.043C749.947 37.308 749.783 37.084 749.551 36.924C749.327 36.756 749.047 36.672 748.711 36.672C748.231 36.672 747.851 36.848 747.571 37.2C747.291 37.544 747.151 38.036 747.151 38.676C747.151 39.308 747.291 39.8 747.571 40.152C747.851 40.496 748.231 40.668 748.711 40.668C749.391 40.668 749.835 40.364 750.043 39.756H751.855C751.671 40.476 751.307 41.048 750.763 41.472C750.219 41.896 749.539 42.108 748.723 42.108C748.083 42.108 747.515 41.968 747.019 41.688C746.523 41.4 746.135 41 745.855 40.488C745.575 39.968 745.435 39.364 745.435 38.676ZM752.654 38.676C752.654 37.988 752.794 37.388 753.074 36.876C753.354 36.356 753.742 35.956 754.238 35.676C754.734 35.388 755.302 35.244 755.942 35.244C756.766 35.244 757.446 35.452 757.982 35.868C758.526 36.276 758.89 36.852 759.074 37.596H757.262C757.166 37.308 757.002 37.084 756.77 36.924C756.546 36.756 756.266 36.672 755.93 36.672C755.45 36.672 755.07 36.848 754.79 37.2C754.51 37.544 754.37 38.036 754.37 38.676C754.37 39.308 754.51 39.8 754.79 40.152C755.07 40.496 755.45 40.668 755.93 40.668C756.61 40.668 757.054 40.364 757.262 39.756H759.074C758.89 40.476 758.526 41.048 757.982 41.472C757.438 41.896 756.758 42.108 755.942 42.108C755.302 42.108 754.734 41.968 754.238 41.688C753.742 41.4 753.354 41 753.074 40.488C752.794 39.968 752.654 39.364 752.654 38.676ZM766.485 38.532C766.485 38.772 766.469 38.988 766.437 39.18H761.577C761.617 39.66 761.785 40.036 762.081 40.308C762.377 40.58 762.741 40.716 763.173 40.716C763.797 40.716 764.241 40.448 764.505 39.912H766.317C766.125 40.552 765.757 41.08 765.213 41.496C764.669 41.904 764.001 42.108 763.209 42.108C762.569 42.108 761.993 41.968 761.481 41.688C760.977 41.4 760.581 40.996 760.293 40.476C760.013 39.956 759.873 39.356 759.873 38.676C759.873 37.988 760.013 37.384 760.293 36.864C760.573 36.344 760.965 35.944 761.469 35.664C761.973 35.384 762.553 35.244 763.209 35.244C763.841 35.244 764.405 35.38 764.901 35.652C765.405 35.924 765.793 36.312 766.065 36.816C766.345 37.312 766.485 37.884 766.485 38.532ZM764.745 38.052C764.737 37.62 764.581 37.276 764.277 37.02C763.973 36.756 763.601 36.624 763.161 36.624C762.745 36.624 762.393 36.752 762.105 37.008C761.825 37.256 761.653 37.604 761.589 38.052H764.745ZM770.255 42.108C769.711 42.108 769.223 42.012 768.791 41.82C768.359 41.62 768.015 41.352 767.759 41.016C767.511 40.68 767.375 40.308 767.351 39.9H769.043C769.075 40.156 769.199 40.368 769.415 40.536C769.639 40.704 769.915 40.788 770.243 40.788C770.563 40.788 770.811 40.724 770.987 40.596C771.171 40.468 771.263 40.304 771.263 40.104C771.263 39.888 771.151 39.728 770.927 39.624C770.711 39.512 770.363 39.392 769.883 39.264C769.387 39.144 768.979 39.02 768.659 38.892C768.347 38.764 768.075 38.568 767.843 38.304C767.619 38.04 767.507 37.684 767.507 37.236C767.507 36.868 767.611 36.532 767.819 36.228C768.035 35.924 768.339 35.684 768.731 35.508C769.131 35.332 769.599 35.244 770.135 35.244C770.927 35.244 771.559 35.444 772.031 35.844C772.503 36.236 772.763 36.768 772.811 37.44H771.203C771.179 37.176 771.067 36.968 770.867 36.816C770.675 36.656 770.415 36.576 770.087 36.576C769.783 36.576 769.547 36.632 769.379 36.744C769.219 36.856 769.139 37.012 769.139 37.212C769.139 37.436 769.251 37.608 769.475 37.728C769.699 37.84 770.047 37.956 770.519 38.076C770.999 38.196 771.395 38.32 771.707 38.448C772.019 38.576 772.287 38.776 772.511 39.048C772.743 39.312 772.863 39.664 772.871 40.104C772.871 40.488 772.763 40.832 772.547 41.136C772.339 41.44 772.035 41.68 771.635 41.856C771.243 42.024 770.783 42.108 770.255 42.108ZM776.794 42.108C776.25 42.108 775.762 42.012 775.33 41.82C774.898 41.62 774.554 41.352 774.298 41.016C774.05 40.68 773.914 40.308 773.89 39.9H775.582C775.614 40.156 775.738 40.368 775.954 40.536C776.178 40.704 776.454 40.788 776.782 40.788C777.102 40.788 777.35 40.724 777.526 40.596C777.71 40.468 777.802 40.304 777.802 40.104C777.802 39.888 777.69 39.728 777.466 39.624C777.25 39.512 776.902 39.392 776.422 39.264C775.926 39.144 775.518 39.02 775.198 38.892C774.886 38.764 774.614 38.568 774.382 38.304C774.158 38.04 774.046 37.684 774.046 37.236C774.046 36.868 774.15 36.532 774.358 36.228C774.574 35.924 774.878 35.684 775.27 35.508C775.67 35.332 776.138 35.244 776.674 35.244C777.466 35.244 778.098 35.444 778.57 35.844C779.042 36.236 779.302 36.768 779.35 37.44H777.742C777.718 37.176 777.606 36.968 777.406 36.816C777.214 36.656 776.954 36.576 776.626 36.576C776.322 36.576 776.086 36.632 775.918 36.744C775.758 36.856 775.678 37.012 775.678 37.212C775.678 37.436 775.79 37.608 776.014 37.728C776.238 37.84 776.586 37.956 777.058 38.076C777.538 38.196 777.934 38.32 778.246 38.448C778.558 38.576 778.826 38.776 779.05 39.048C779.282 39.312 779.402 39.664 779.41 40.104C779.41 40.488 779.302 40.832 779.086 41.136C778.878 41.44 778.574 41.68 778.174 41.856C777.782 42.024 777.322 42.108 776.794 42.108ZM786.576 33.624C787.456 33.624 788.228 33.796 788.892 34.14C789.564 34.484 790.08 34.976 790.44 35.616C790.808 36.248 790.992 36.984 790.992 37.824C790.992 38.664 790.808 39.4 790.44 40.032C790.08 40.656 789.564 41.14 788.892 41.484C788.228 41.828 787.456 42 786.576 42H783.648V33.624H786.576ZM786.516 40.572C787.396 40.572 788.076 40.332 788.556 39.852C789.036 39.372 789.276 38.696 789.276 37.824C789.276 36.952 789.036 36.272 788.556 35.784C788.076 35.288 787.396 35.04 786.516 35.04H785.328V40.572H786.516ZM791.818 38.652C791.818 37.98 791.95 37.384 792.214 36.864C792.486 36.344 792.85 35.944 793.306 35.664C793.77 35.384 794.286 35.244 794.854 35.244C795.35 35.244 795.782 35.344 796.15 35.544C796.526 35.744 796.826 35.996 797.05 36.3V35.352H798.742V42H797.05V41.028C796.834 41.34 796.534 41.6 796.15 41.808C795.774 42.008 795.338 42.108 794.842 42.108C794.282 42.108 793.77 41.964 793.306 41.676C792.85 41.388 792.486 40.984 792.214 40.464C791.95 39.936 791.818 39.332 791.818 38.652ZM797.05 38.676C797.05 38.268 796.97 37.92 796.81 37.632C796.65 37.336 796.434 37.112 796.162 36.96C795.89 36.8 795.598 36.72 795.286 36.72C794.974 36.72 794.686 36.796 794.422 36.948C794.158 37.1 793.942 37.324 793.774 37.62C793.614 37.908 793.534 38.252 793.534 38.652C793.534 39.052 793.614 39.404 793.774 39.708C793.942 40.004 794.158 40.232 794.422 40.392C794.694 40.552 794.982 40.632 795.286 40.632C795.598 40.632 795.89 40.556 796.162 40.404C796.434 40.244 796.65 40.02 796.81 39.732C796.97 39.436 797.05 39.084 797.05 38.676ZM802.339 36.732V39.948C802.339 40.172 802.391 40.336 802.495 40.44C802.607 40.536 802.791 40.584 803.047 40.584H803.827V42H802.771C801.355 42 800.647 41.312 800.647 39.936V36.732H799.855V35.352H800.647V33.708H802.339V35.352H803.827V36.732H802.339ZM804.603 38.652C804.603 37.98 804.735 37.384 804.999 36.864C805.271 36.344 805.635 35.944 806.091 35.664C806.555 35.384 807.071 35.244 807.639 35.244C808.135 35.244 808.567 35.344 808.935 35.544C809.311 35.744 809.611 35.996 809.835 36.3V35.352H811.527V42H809.835V41.028C809.619 41.34 809.319 41.6 808.935 41.808C808.559 42.008 808.123 42.108 807.627 42.108C807.067 42.108 806.555 41.964 806.091 41.676C805.635 41.388 805.271 40.984 804.999 40.464C804.735 39.936 804.603 39.332 804.603 38.652ZM809.835 38.676C809.835 38.268 809.755 37.92 809.595 37.632C809.435 37.336 809.219 37.112 808.947 36.96C808.675 36.8 808.383 36.72 808.071 36.72C807.759 36.72 807.471 36.796 807.207 36.948C806.943 37.1 806.727 37.324 806.559 37.62C806.399 37.908 806.319 38.252 806.319 38.652C806.319 39.052 806.399 39.404 806.559 39.708C806.727 40.004 806.943 40.232 807.207 40.392C807.479 40.552 807.767 40.632 808.071 40.632C808.383 40.632 808.675 40.556 808.947 40.404C809.219 40.244 809.435 40.02 809.595 39.732C809.755 39.436 809.835 39.084 809.835 38.676ZM814.848 36.324C815.064 36.004 815.36 35.744 815.736 35.544C816.12 35.344 816.556 35.244 817.044 35.244C817.612 35.244 818.124 35.384 818.58 35.664C819.044 35.944 819.408 36.344 819.672 36.864C819.944 37.376 820.08 37.972 820.08 38.652C820.08 39.332 819.944 39.936 819.672 40.464C819.408 40.984 819.044 41.388 818.58 41.676C818.124 41.964 817.612 42.108 817.044 42.108C816.548 42.108 816.112 42.012 815.736 41.82C815.368 41.62 815.072 41.364 814.848 41.052V42H813.168V33.12H814.848V36.324ZM818.364 38.652C818.364 38.252 818.28 37.908 818.112 37.62C817.952 37.324 817.736 37.1 817.464 36.948C817.2 36.796 816.912 36.72 816.6 36.72C816.296 36.72 816.008 36.8 815.736 36.96C815.472 37.112 815.256 37.336 815.088 37.632C814.928 37.928 814.848 38.276 814.848 38.676C814.848 39.076 814.928 39.424 815.088 39.72C815.256 40.016 815.472 40.244 815.736 40.404C816.008 40.556 816.296 40.632 816.6 40.632C816.912 40.632 817.2 40.552 817.464 40.392C817.736 40.232 817.952 40.004 818.112 39.708C818.28 39.412 818.364 39.06 818.364 38.652ZM820.869 38.652C820.869 37.98 821.001 37.384 821.265 36.864C821.537 36.344 821.901 35.944 822.357 35.664C822.821 35.384 823.337 35.244 823.905 35.244C824.401 35.244 824.833 35.344 825.201 35.544C825.577 35.744 825.877 35.996 826.101 36.3V35.352H827.793V42H826.101V41.028C825.885 41.34 825.585 41.6 825.201 41.808C824.825 42.008 824.389 42.108 823.893 42.108C823.333 42.108 822.821 41.964 822.357 41.676C821.901 41.388 821.537 40.984 821.265 40.464C821.001 39.936 820.869 39.332 820.869 38.652ZM826.101 38.676C826.101 38.268 826.021 37.92 825.861 37.632C825.701 37.336 825.485 37.112 825.213 36.96C824.941 36.8 824.649 36.72 824.337 36.72C824.025 36.72 823.737 36.796 823.473 36.948C823.209 37.1 822.993 37.324 822.825 37.62C822.665 37.908 822.585 38.252 822.585 38.652C822.585 39.052 822.665 39.404 822.825 39.708C822.993 40.004 823.209 40.232 823.473 40.392C823.745 40.552 824.033 40.632 824.337 40.632C824.649 40.632 824.941 40.556 825.213 40.404C825.485 40.244 825.701 40.02 825.861 39.732C826.021 39.436 826.101 39.084 826.101 38.676ZM831.977 42.108C831.433 42.108 830.945 42.012 830.513 41.82C830.081 41.62 829.737 41.352 829.481 41.016C829.233 40.68 829.097 40.308 829.073 39.9H830.765C830.797 40.156 830.921 40.368 831.137 40.536C831.361 40.704 831.637 40.788 831.965 40.788C832.285 40.788 832.533 40.724 832.709 40.596C832.893 40.468 832.985 40.304 832.985 40.104C832.985 39.888 832.873 39.728 832.649 39.624C832.433 39.512 832.085 39.392 831.605 39.264C831.109 39.144 830.701 39.02 830.381 38.892C830.069 38.764 829.797 38.568 829.565 38.304C829.341 38.04 829.229 37.684 829.229 37.236C829.229 36.868 829.333 36.532 829.541 36.228C829.757 35.924 830.061 35.684 830.453 35.508C830.853 35.332 831.321 35.244 831.857 35.244C832.649 35.244 833.281 35.444 833.753 35.844C834.225 36.236 834.485 36.768 834.533 37.44H832.925C832.901 37.176 832.789 36.968 832.589 36.816C832.397 36.656 832.137 36.576 831.809 36.576C831.505 36.576 831.269 36.632 831.101 36.744C830.941 36.856 830.861 37.012 830.861 37.212C830.861 37.436 830.973 37.608 831.197 37.728C831.421 37.84 831.769 37.956 832.241 38.076C832.721 38.196 833.117 38.32 833.429 38.448C833.741 38.576 834.009 38.776 834.233 39.048C834.465 39.312 834.585 39.664 834.593 40.104C834.593 40.488 834.485 40.832 834.269 41.136C834.061 41.44 833.757 41.68 833.357 41.856C832.965 42.024 832.505 42.108 831.977 42.108ZM842.153 38.532C842.153 38.772 842.137 38.988 842.105 39.18H837.245C837.285 39.66 837.453 40.036 837.749 40.308C838.045 40.58 838.409 40.716 838.841 40.716C839.465 40.716 839.909 40.448 840.173 39.912H841.985C841.793 40.552 841.425 41.08 840.881 41.496C840.337 41.904 839.669 42.108 838.877 42.108C838.237 42.108 837.661 41.968 837.149 41.688C836.645 41.4 836.249 40.996 835.961 40.476C835.681 39.956 835.541 39.356 835.541 38.676C835.541 37.988 835.681 37.384 835.961 36.864C836.241 36.344 836.633 35.944 837.137 35.664C837.641 35.384 838.221 35.244 838.877 35.244C839.509 35.244 840.073 35.38 840.569 35.652C841.073 35.924 841.461 36.312 841.733 36.816C842.013 37.312 842.153 37.884 842.153 38.532ZM840.413 38.052C840.405 37.62 840.249 37.276 839.945 37.02C839.641 36.756 839.269 36.624 838.829 36.624C838.413 36.624 838.061 36.752 837.773 37.008C837.493 37.256 837.321 37.604 837.257 38.052H840.413Z" fill="white"/>
<path fill-rule="evenodd" clip-rule="evenodd" d="M37.2704 25.875C39.2094 25.415 41.2675 25 42.5001 25C43.7308 25 45.7907 25.415 47.7297 25.875C49.4593 26.2913 51.1776 26.7442 52.8832 27.2333C53.8648 27.5133 54.6047 28.2717 54.7479 29.2067C55.8131 36.2017 53.3424 41.385 50.3474 44.815C49.071 46.287 47.5558 47.5792 45.852 48.6483C45.2596 49.0203 44.6334 49.347 43.9799 49.625C43.4779 49.8317 42.9425 50 42.5001 50C42.0576 50 41.5222 49.8317 41.0202 49.625C40.3666 49.3473 39.7403 49.0206 39.1481 48.6483C37.445 47.579 35.9304 46.2869 34.6546 44.815C31.6559 41.385 29.187 36.2017 30.2522 29.2067C30.3235 28.7535 30.5364 28.3276 30.8664 27.9784C31.1964 27.6291 31.63 27.3708 32.1169 27.2333C33.8226 26.7442 35.5409 26.2913 37.2704 25.875ZM43.4575 37.3483C44.0705 37.1473 44.5854 36.7598 44.9125 36.2534C45.2396 35.747 45.3582 35.1538 45.2476 34.5771C45.1371 34.0004 44.8043 33.4767 44.3074 33.0973C43.8105 32.7179 43.1809 32.5068 42.5282 32.5007C41.8755 32.4946 41.2411 32.694 40.7355 33.0641C40.2299 33.4342 39.8851 33.9516 39.7613 34.5261C39.6374 35.1006 39.7422 35.6959 40.0575 36.2082C40.3728 36.7206 40.8786 37.1176 41.4868 37.33C41.4476 37.4017 41.4201 37.478 41.405 37.5567L40.786 40.89C40.7638 41.0093 40.7709 41.1315 40.8068 41.2482C40.8427 41.3648 40.9064 41.473 40.9936 41.5653C41.0809 41.6576 41.1894 41.7318 41.3119 41.7827C41.4343 41.8336 41.5676 41.8599 41.7025 41.86H43.2549C43.3903 41.8601 43.5242 41.8336 43.6471 41.7824C43.77 41.7312 43.8789 41.6566 43.9662 41.5637C44.0535 41.4708 44.1171 41.3619 44.1525 41.2447C44.188 41.1275 44.1944 41.0047 44.1714 40.885L43.5263 37.5517C43.5131 37.4815 43.49 37.4132 43.4575 37.3483Z" fill="white"/>
<defs>
<linearGradient id="paint0_linear" x1="902" y1="36.8852" x2="124.878" y2="-274.636" gradientUnits="userSpaceOnUse">
<stop stop-color="#100268" stop-opacity="0.74"/>
<stop offset="0.265807" stop-color="#100268"/>
</linearGradient>
</defs>
</svg>
