<svg width="40" height="40" viewBox="0 0 40 40" fill="none" xmlns="http://www.w3.org/2000/svg">
<path d="M14 19.42L14.58 18.82L15.16 19.42C15.3459 19.6075 15.5671 19.7562 15.8109 19.8578C16.0546 19.9593 16.316 20.0116 16.58 20.0116C16.844 20.0116 17.1054 19.9593 17.3492 19.8578C17.5929 19.7562 17.8141 19.6075 18 19.42C18.1875 19.2341 18.3363 19.0129 18.4378 18.7691C18.5393 18.5254 18.5916 18.264 18.5916 18C18.5916 17.736 18.5393 17.4746 18.4378 17.2308C18.3363 16.9871 18.1875 16.7659 18 16.58L17.4 16L18 15.42C18.3766 15.0328 18.584 14.5118 18.5765 13.9717C18.569 13.4316 18.3472 12.9166 17.96 12.54C17.5728 12.1634 17.0518 11.956 16.5117 11.9635C15.9716 11.971 15.4566 12.1928 15.08 12.58L14.5 13.18L14 12.58C13.6234 12.1928 13.1084 11.971 12.5683 11.9635C12.0282 11.956 11.5072 12.1634 11.12 12.54C10.7328 12.9166 10.511 13.4316 10.5035 13.9717C10.496 14.5118 10.7034 15.0328 11.08 15.42L11.68 16L11.08 16.58C10.8925 16.7659 10.7438 16.9871 10.6422 17.2308C10.5407 17.4746 10.4884 17.736 10.4884 18C10.4884 18.264 10.5407 18.5254 10.6422 18.7691C10.7438 19.0129 10.8925 19.2341 11.08 19.42C11.2659 19.6075 11.4871 19.7562 11.7309 19.8578C11.9746 19.9593 12.236 20.0116 12.5 20.0116C12.764 20.0116 13.0254 19.9593 13.2692 19.8578C13.5129 19.7562 13.7341 19.6075 13.92 19.42H14ZM12.8 26.66C12.3969 26.9986 12.1435 27.4824 12.0948 28.0066C12.0462 28.5308 12.2061 29.053 12.54 29.46C12.7079 29.6625 12.9141 29.8299 13.1468 29.9526C13.3795 30.0753 13.6341 30.1509 13.8961 30.1751C14.158 30.1992 14.4222 30.1715 14.6734 30.0934C14.9246 30.0153 15.1579 29.8884 15.36 29.72C16.697 28.6421 18.3626 28.0542 20.08 28.0542C21.7974 28.0542 23.463 28.6421 24.8 29.72C25.0021 29.8884 25.2354 30.0153 25.4866 30.0934C25.7378 30.1715 26.002 30.1992 26.2639 30.1751C26.5259 30.1509 26.7805 30.0753 27.0132 29.9526C27.2459 29.8299 27.4521 29.6625 27.62 29.46C27.9539 29.053 28.1138 28.5308 28.0652 28.0066C28.0165 27.4824 27.7631 26.9986 27.36 26.66C25.2899 24.9809 22.7055 24.0645 20.04 24.0645C17.3745 24.0645 14.7901 24.9809 12.72 26.66H12.8ZM20 0C16.0444 0 12.1776 1.17298 8.8886 3.37061C5.59962 5.56823 3.03617 8.69181 1.52242 12.3463C0.00866568 16.0008 -0.387401 20.0222 0.384303 23.9018C1.15601 27.7814 3.06082 31.3451 5.85787 34.1421C8.65492 36.9392 12.2186 38.844 16.0982 39.6157C19.9778 40.3874 23.9992 39.9913 27.6537 38.4776C31.3082 36.9638 34.4318 34.4004 36.6294 31.1114C38.827 27.8224 40 23.9556 40 20C40 17.3736 39.4827 14.7728 38.4776 12.3463C37.4725 9.91982 35.9993 7.71503 34.1421 5.85786C32.285 4.00069 30.0802 2.5275 27.6537 1.52241C25.2272 0.517315 22.6264 0 20 0V0ZM20 36C16.8355 36 13.7421 35.0616 11.1109 33.3035C8.4797 31.5454 6.42894 29.0465 5.21794 26.1229C4.00693 23.1993 3.69008 19.9822 4.30744 16.8786C4.92481 13.7749 6.44866 10.9239 8.6863 8.68629C10.9239 6.44865 13.7749 4.9248 16.8786 4.30743C19.9823 3.69007 23.1993 4.00692 26.1229 5.21793C29.0466 6.42893 31.5454 8.47969 33.3035 11.1109C35.0616 13.7421 36 16.8355 36 20C36 24.2435 34.3143 28.3131 31.3137 31.3137C28.3131 34.3143 24.2435 36 20 36V36ZM30 12.58C29.8141 12.3925 29.5929 12.2438 29.3492 12.1422C29.1054 12.0407 28.844 11.9884 28.58 11.9884C28.316 11.9884 28.0546 12.0407 27.8109 12.1422C27.5671 12.2438 27.3459 12.3925 27.16 12.58L26.58 13.18L26 12.58C25.6234 12.2034 25.1126 11.9918 24.58 11.9918C24.0474 11.9918 23.5366 12.2034 23.16 12.58C22.7834 12.9566 22.5718 13.4674 22.5718 14C22.5718 14.5326 22.7834 15.0434 23.16 15.42L23.76 16L23.16 16.58C22.9725 16.7659 22.8238 16.9871 22.7222 17.2308C22.6207 17.4746 22.5684 17.736 22.5684 18C22.5684 18.264 22.6207 18.5254 22.7222 18.7691C22.8238 19.0129 22.9725 19.2341 23.16 19.42C23.3459 19.6075 23.5671 19.7562 23.8109 19.8578C24.0546 19.9593 24.316 20.0116 24.58 20.0116C24.844 20.0116 25.1054 19.9593 25.3492 19.8578C25.5929 19.7562 25.8141 19.6075 26 19.42L26.58 18.82L27.16 19.42C27.3459 19.6075 27.5671 19.7562 27.8109 19.8578C28.0546 19.9593 28.316 20.0116 28.58 20.0116C28.844 20.0116 29.1054 19.9593 29.3492 19.8578C29.5929 19.7562 29.8141 19.6075 30 19.42C30.1875 19.2341 30.3362 19.0129 30.4378 18.7691C30.5393 18.5254 30.5916 18.264 30.5916 18C30.5916 17.736 30.5393 17.4746 30.4378 17.2308C30.3362 16.9871 30.1875 16.7659 30 16.58L29.4 16L30 15.42C30.1875 15.2341 30.3362 15.0129 30.4378 14.7691C30.5393 14.5254 30.5916 14.264 30.5916 14C30.5916 13.736 30.5393 13.4746 30.4378 13.2308C30.3362 12.9871 30.1875 12.7659 30 12.58Z" fill="#0B35CA"/>
</svg>
