<svg width="70" height="70" viewBox="0 0 70 70" fill="none" xmlns="http://www.w3.org/2000/svg">
<circle cx="35" cy="35" r="34.5" fill="#0B35CA" fill-opacity="0.1" stroke="#0B35CA"/>
<path fill-rule="evenodd" clip-rule="evenodd" d="M26.4286 33.375V30.125C26.4286 27.9701 27.3316 25.9035 28.9391 24.3798C30.5465 22.856 32.7267 22 35 22C37.2733 22 39.4535 22.856 41.0609 24.3798C42.6684 25.9035 43.5714 27.9701 43.5714 30.125V33.375C44.4807 33.375 45.3528 33.7174 45.9958 34.3269C46.6388 34.9364 47 35.763 47 36.625V44.75C47 45.612 46.6388 46.4386 45.9958 47.0481C45.3528 47.6576 44.4807 48 43.5714 48H26.4286C25.5193 48 24.6472 47.6576 24.0042 47.0481C23.3612 46.4386 23 45.612 23 44.75V36.625C23 35.763 23.3612 34.9364 24.0042 34.3269C24.6472 33.7174 25.5193 33.375 26.4286 33.375ZM40.1429 30.125V33.375H29.8571V30.125C29.8571 28.8321 30.399 27.5921 31.3635 26.6779C32.3279 25.7636 33.636 25.25 35 25.25C36.364 25.25 37.6721 25.7636 38.6365 26.6779C39.601 27.5921 40.1429 28.8321 40.1429 30.125Z" fill="#0B35CA"/>
</svg>
