<svg width="70" height="70" viewBox="0 0 70 70" fill="none" xmlns="http://www.w3.org/2000/svg">
<circle cx="35" cy="35" r="35" fill="#100268"/>
<path d="M28 25C28 24.45 27.55 24 27 24C26.45 24 26 24.45 26 25V29H25C24.45 29 24 29.45 24 30V35H30V30C30 29.45 29.55 29 29 29H28V25ZM32 39C32 40.3 32.84 41.4 34 41.82V45C34 45.55 34.45 46 35 46C35.55 46 36 45.55 36 45V41.82C37.16 41.41 38 40.31 38 39V37H32V39ZM24 39C24 40.3 24.84 41.4 26 41.82V45C26 45.55 26.45 46 27 46C27.55 46 28 45.55 28 45V41.82C29.16 41.4 30 40.3 30 39V37H24V39ZM44 29V25C44 24.45 43.55 24 43 24C42.45 24 42 24.45 42 25V29H41C40.45 29 40 29.45 40 30V35H46V30C46 29.45 45.55 29 45 29H44ZM36 25C36 24.45 35.55 24 35 24C34.45 24 34 24.45 34 25V29H33C32.45 29 32 29.45 32 30V35H38V30C38 29.45 37.55 29 37 29H36V25ZM40 39C40 40.3 40.84 41.4 42 41.82V45C42 45.55 42.45 46 43 46C43.55 46 44 45.55 44 45V41.82C45.16 41.41 46 40.31 46 39V37H40V39Z" fill="white"/>
</svg>
