<svg width="18" height="20" viewBox="0 0 18 20" fill="none" xmlns="http://www.w3.org/2000/svg">
<path d="M5.99999 3.44775C6.00029 2.96347 5.86192 2.48766 5.5988 2.06815C5.33568 1.64864 4.95709 1.30021 4.50108 1.0579C4.04507 0.815586 3.52772 0.687928 3.00104 0.68776C2.47436 0.687591 1.95691 0.814918 1.50072 1.05694C1.04453 1.29896 0.665674 1.64714 0.402238 2.06649C0.138803 2.48583 7.47212e-05 2.96155 1.36774e-06 3.44583C-7.19858e-05 3.9301 0.138512 4.40586 0.40182 4.82527C0.665128 5.24468 1.04388 5.59297 1.5 5.8351V14.8527C0.928075 15.1563 0.481087 15.6249 0.228362 16.1859C-0.0243626 16.7469 -0.0687011 17.3689 0.102223 17.9555C0.273148 18.542 0.649783 19.0603 1.17372 19.43C1.69765 19.7996 2.3396 20 3 20C3.6604 20 4.30235 19.7996 4.82628 19.43C5.35021 19.0603 5.72685 18.542 5.89777 17.9555C6.0687 17.3689 6.02436 16.7469 5.77163 16.1859C5.51891 15.6249 5.07192 15.1563 4.5 14.8527V5.8351C4.95581 5.59313 5.33436 5.24515 5.59765 4.8261C5.86094 4.40706 5.9997 3.9317 5.99999 3.44775ZM3 2.06852C3.29667 2.06852 3.58668 2.14941 3.83335 2.30096C4.08003 2.45251 4.27228 2.66792 4.38582 2.91994C4.49935 3.17196 4.52905 3.44928 4.47117 3.71682C4.4133 3.98436 4.27043 4.23012 4.06066 4.42301C3.85088 4.6159 3.5836 4.74725 3.29263 4.80047C3.00166 4.85369 2.70006 4.82638 2.42597 4.72199C2.15188 4.6176 1.91762 4.44082 1.75279 4.214C1.58797 3.98719 1.5 3.72053 1.5 3.44775C1.5 3.08195 1.65803 2.73114 1.93934 2.47249C2.22064 2.21383 2.60217 2.06852 3 2.06852ZM3 18.6192C2.70333 18.6192 2.41332 18.5383 2.16664 18.3868C1.91997 18.2352 1.72771 18.0198 1.61418 17.7678C1.50065 17.5158 1.47094 17.2385 1.52882 16.9709C1.5867 16.7034 1.72956 16.4576 1.93934 16.2648C2.14912 16.0719 2.41639 15.9405 2.70736 15.8873C2.99833 15.8341 3.29993 15.8614 3.57402 15.9658C3.84811 16.0702 4.08238 16.2469 4.2472 16.4738C4.41202 16.7006 4.5 16.9672 4.5 17.24C4.5 17.6058 4.34196 17.9566 4.06066 18.2153C3.77935 18.4739 3.39782 18.6192 3 18.6192Z" fill="white"/>
<path d="M16.5001 14.8527V6.0338C16.4989 4.98249 16.0441 3.97457 15.2357 3.23118C14.4272 2.4878 13.331 2.06966 12.1876 2.06852H11.2501V0.689294C11.2501 0.552948 11.206 0.41968 11.1236 0.306333C11.0412 0.192985 10.9241 0.104645 10.7871 0.0524761C10.6501 0.000307243 10.4994 -0.0133489 10.3539 0.0132336C10.2085 0.039816 10.0749 0.105444 9.96998 0.201824L6.96998 2.96028C6.82944 3.08959 6.75049 3.26493 6.75049 3.44775C6.75049 3.63057 6.82944 3.8059 6.96998 3.93522L9.96998 6.69367C10.0749 6.79005 10.2085 6.85568 10.3539 6.88226C10.4994 6.90884 10.6501 6.89519 10.7871 6.84302C10.9241 6.79085 11.0412 6.70251 11.1236 6.58916C11.206 6.47581 11.2501 6.34255 11.2501 6.2062V4.82697H12.1876C12.5357 4.82697 12.8696 4.95412 13.1157 5.18044C13.3619 5.40677 13.5001 5.71373 13.5001 6.0338V14.8527C12.9282 15.1563 12.4812 15.6249 12.2285 16.1859C11.9758 16.7469 11.9314 17.3689 12.1024 17.9555C12.2733 18.542 12.6499 19.0603 13.1739 19.43C13.6978 19.7996 14.3397 20 15.0001 20C15.6605 20 16.3025 19.7996 16.8264 19.43C17.3503 19.0603 17.727 18.542 17.8979 17.9555C18.0688 17.3689 18.0245 16.7469 17.7718 16.1859C17.519 15.6249 17.0721 15.1563 16.5001 14.8527ZM15.0001 18.6192C14.7035 18.6192 14.4135 18.5383 14.1668 18.3868C13.9201 18.2352 13.7278 18.0198 13.6143 17.7678C13.5008 17.5158 13.4711 17.2385 13.529 16.9709C13.5868 16.7034 13.7297 16.4576 13.9395 16.2648C14.1493 16.0719 14.4165 15.9405 14.7075 15.8873C14.9985 15.8341 15.3001 15.8614 15.5742 15.9658C15.8482 16.0702 16.0825 16.2469 16.2473 16.4738C16.4122 16.7006 16.5001 16.9672 16.5001 17.24C16.5001 17.6058 16.3421 17.9566 16.0608 18.2153C15.7795 18.4739 15.398 18.6192 15.0001 18.6192Z" fill="white"/>
</svg>
