<svg width="40" height="40" viewBox="0 0 40 40" fill="none" xmlns="http://www.w3.org/2000/svg">
<circle cx="20" cy="20" r="20" fill="#FBB70A"/>
<path d="M17 28.2517C17 27.8908 17.0776 27.5334 17.2284 27.2C17.3791 26.8666 17.6001 26.5636 17.8787 26.3084C18.1573 26.0532 18.488 25.8507 18.852 25.7126C19.2159 25.5745 19.606 25.5034 20 25.5034C20.394 25.5034 20.7841 25.5745 21.1481 25.7126C21.512 25.8507 21.8427 26.0532 22.1213 26.3084C22.3999 26.5636 22.6209 26.8666 22.7716 27.2C22.9224 27.5334 23 27.8908 23 28.2517C23 28.9806 22.6839 29.6796 22.1213 30.195C21.5587 30.7104 20.7956 31 20 31C19.2044 31 18.4413 30.7104 17.8787 30.195C17.3161 29.6796 17 28.9806 17 28.2517ZM17.294 11.7483C17.254 11.4016 17.2941 11.051 17.4116 10.7194C17.5291 10.3878 17.7214 10.0825 17.976 9.82335C18.2306 9.5642 18.5418 9.35698 18.8894 9.21514C19.2371 9.0733 19.6134 9 19.994 9C20.3746 9 20.7509 9.0733 21.0986 9.21514C21.4462 9.35698 21.7574 9.5642 22.012 9.82335C22.2666 10.0825 22.4589 10.3878 22.5764 10.7194C22.6939 11.051 22.7339 11.4016 22.694 11.7483L21.644 21.3865C21.6087 21.7651 21.4196 22.1179 21.1141 22.3749C20.8085 22.6319 20.4088 22.7745 19.994 22.7745C19.5792 22.7745 19.1795 22.6319 18.8739 22.3749C18.5684 22.1179 18.3793 21.7651 18.344 21.3865L17.294 11.7483Z" fill="white"/>
</svg>
