<svg width="35" height="35" viewBox="0 0 35 35" fill="none" xmlns="http://www.w3.org/2000/svg">
<path d="M27.6989 19.3178C26.1946 21.1371 24.4927 23.0066 22.6559 24.8434C20.8192 26.6802 18.9498 28.3828 17.1309 29.8865C17.2535 29.8909 17.376 29.8958 17.4998 29.8958C20.2063 29.8928 22.8011 28.8163 24.7148 26.9025C26.6286 24.9887 27.7051 22.394 27.7082 19.6875C27.7082 19.5635 27.7032 19.4406 27.6989 19.3178V19.3178Z" fill="white"/>
<path d="M31.9376 5.25089C30.5233 3.83613 27.9333 4.3378 24.0195 6.78415C22.5783 7.69785 21.1882 8.68978 19.8555 9.7555C18.1607 9.35213 16.3909 9.38949 14.7146 9.864C13.0384 10.3385 11.5116 11.2344 10.2797 12.4662C9.04789 13.6981 8.15201 15.2249 7.6775 16.9011C7.20298 18.5774 7.16562 20.3472 7.569 22.042C6.50322 23.3747 5.51128 24.7648 4.59764 26.2061C2.15111 30.12 1.64907 32.71 3.06256 34.125C3.33244 34.3879 3.65325 34.5929 4.00526 34.7274C4.35727 34.8618 4.73306 34.9228 5.10952 34.9066C6.56293 34.9066 8.50743 34.1376 10.9806 32.5915C14.1876 30.5863 17.9676 27.4691 21.6242 23.8131C25.2808 20.1571 28.3982 16.3765 30.4027 13.1695C32.849 9.25493 33.3511 6.66493 31.9376 5.25089V5.25089ZM27.4969 12.2981C25.5987 15.1752 22.7812 18.5325 19.5631 21.7497C16.3449 24.967 12.9885 27.7854 10.1114 29.6836C7.28025 31.5514 5.75465 31.9749 5.19374 31.9945C5.21342 31.434 5.63689 29.908 7.50465 27.0769C7.91863 26.4494 8.37965 25.7981 8.87475 25.1314C9.4122 25.9806 10.071 26.7467 10.8302 27.4052C13.5624 25.3739 16.137 23.1386 18.5318 20.7187C20.9517 18.324 23.1869 15.7496 25.2183 13.0176C24.5597 12.258 23.7935 11.599 22.944 11.0614C23.6107 10.5654 24.262 10.1053 24.8894 9.69134C27.7206 7.82358 29.2462 7.40011 29.8071 7.38043C29.7874 7.94115 29.364 9.46694 27.4962 12.2981H27.4969Z" fill="white"/>
<path d="M27.7083 32.0833C28.5138 32.0833 29.1667 31.4304 29.1667 30.625C29.1667 29.8195 28.5138 29.1666 27.7083 29.1666C26.9029 29.1666 26.25 29.8195 26.25 30.625C26.25 31.4304 26.9029 32.0833 27.7083 32.0833Z" fill="white"/>
<path d="M2.91634 20.4167C3.72175 20.4167 4.37467 19.7638 4.37467 18.9583C4.37467 18.1529 3.72175 17.5 2.91634 17.5C2.11093 17.5 1.45801 18.1529 1.45801 18.9583C1.45801 19.7638 2.11093 20.4167 2.91634 20.4167Z" fill="white"/>
<path d="M32.0833 18.9584C32.8888 18.9584 33.5417 18.3055 33.5417 17.5001C33.5417 16.6946 32.8888 16.0417 32.0833 16.0417C31.2779 16.0417 30.625 16.6946 30.625 17.5001C30.625 18.3055 31.2779 18.9584 32.0833 18.9584Z" fill="white"/>
</svg>
