<svg width="20" height="16" viewBox="0 0 20 16" fill="none" xmlns="http://www.w3.org/2000/svg">
<path d="M0 0.666626V14.4999C0 15.3269 0.673008 15.9999 1.5 15.9999H18.5C19.327 15.9999 20 15.3269 20 14.4999V0.666626H0ZM12 5.66662H15.6667C15.8507 5.66662 16 5.81561 16 5.99994C16 6.18428 15.8507 6.33326 15.6667 6.33326H12C11.816 6.33326 11.6667 6.18428 11.6667 5.99994C11.6667 5.81561 11.816 5.66662 12 5.66662ZM12 6.99994H17.3333C17.5173 6.99994 17.6666 7.14893 17.6666 7.33326C17.6666 7.5176 17.5173 7.66658 17.3333 7.66658H12C11.816 7.66658 11.6667 7.5176 11.6667 7.33326C11.6667 7.14893 11.816 6.99994 12 6.99994ZM12 12.6666H15.6667C15.8507 12.6666 16 12.8156 16 12.9999C16 13.1843 15.8507 13.3333 15.6667 13.3333H12C11.816 13.3333 11.6667 13.1843 11.6667 12.9999C11.6667 12.8156 11.816 12.6666 12 12.6666ZM2.66668 5.66662H6.33336C6.51734 5.66662 6.66668 5.81561 6.66668 5.99994C6.66668 6.18428 6.51734 6.33326 6.33336 6.33326H2.66668C2.4827 6.33326 2.33336 6.18428 2.33336 5.99994C2.33336 5.81561 2.48266 5.66662 2.66668 5.66662ZM2.66668 6.99994H8C8.18398 6.99994 8.33332 7.14893 8.33332 7.33326C8.33332 7.5176 8.18398 7.66658 8 7.66658H2.66668C2.4827 7.66658 2.33336 7.5176 2.33336 7.33326C2.33336 7.14893 2.48266 6.99994 2.66668 6.99994ZM2.66668 12.6666H6.33336C6.51734 12.6666 6.66668 12.8156 6.66668 12.9999C6.66668 13.1843 6.51734 13.3333 6.33336 13.3333H2.66668C2.4827 13.3333 2.33336 13.1843 2.33336 12.9999C2.33336 12.8156 2.48266 12.6666 2.66668 12.6666ZM8 14.6666H2.66668C2.4827 14.6666 2.33336 14.5176 2.33336 14.3333C2.33336 14.149 2.4827 14 2.66668 14H8C8.18398 14 8.33332 14.149 8.33332 14.3333C8.33332 14.5176 8.18398 14.6666 8 14.6666ZM8.23566 10.9023C8.17066 10.9673 8.08531 10.9999 8 10.9999C7.91465 10.9999 7.82934 10.9673 7.76434 10.9023L6.66668 9.80463L5.80469 10.6666L6.2357 11.0976C6.36606 11.228 6.36606 11.4387 6.2357 11.569C6.1707 11.634 6.08535 11.6666 6.00004 11.6666C5.91469 11.6666 5.82937 11.634 5.76437 11.569L4.66672 10.4713L3.56906 11.569C3.50406 11.634 3.41871 11.6666 3.3334 11.6666C3.24805 11.6666 3.16273 11.634 3.09773 11.569C2.96738 11.4387 2.96738 11.228 3.09773 11.0976L4.43105 9.76432C4.56105 9.63397 4.77238 9.63397 4.90238 9.76432L5.3334 10.1953L6.43105 9.09768C6.56105 8.96733 6.77238 8.96733 6.90238 9.09768L8.2357 10.431C8.36602 10.5613 8.36602 10.7719 8.23566 10.9023ZM8.23566 3.90229C8.17066 3.96729 8.08531 3.99995 8 3.99995C7.91465 3.99995 7.82934 3.96729 7.76434 3.90229L6.66668 2.80463L5.80469 3.66663L6.2357 4.09764C6.36606 4.22799 6.36606 4.43866 6.2357 4.56897C6.1707 4.63397 6.08535 4.66662 6.00004 4.66662C5.91469 4.66662 5.82937 4.63397 5.76437 4.56897L4.66672 3.47131L3.56906 4.56897C3.50406 4.63397 3.41871 4.66662 3.3334 4.66662C3.24805 4.66662 3.16273 4.63397 3.09773 4.56897C2.96738 4.43866 2.96738 4.22795 3.09773 4.09764L4.43105 2.76432C4.56105 2.63397 4.77238 2.63397 4.90238 2.76432L5.3334 3.19534L6.43105 2.09768C6.56105 1.96733 6.77238 1.96733 6.90238 2.09768L8.2357 3.431C8.36602 3.56127 8.36602 3.77194 8.23566 3.90229ZM17.3333 14.6666H12C11.816 14.6666 11.6667 14.5176 11.6667 14.3333C11.6667 14.149 11.816 14 12 14H17.3333C17.5173 14 17.6666 14.149 17.6666 14.3333C17.6666 14.5176 17.5173 14.6666 17.3333 14.6666ZM17.569 10.9023C17.504 10.9673 17.4186 10.9999 17.3333 10.9999C17.248 10.9999 17.1627 10.9673 17.0977 10.9023L16 9.80463L15.138 10.6666L15.569 11.0976C15.6994 11.228 15.6994 11.4387 15.569 11.569C15.504 11.634 15.4187 11.6666 15.3334 11.6666C15.248 11.6666 15.1627 11.634 15.0977 11.569L14 10.4713L12.9024 11.569C12.8374 11.634 12.752 11.6666 12.6667 11.6666C12.5814 11.6666 12.4961 11.634 12.4311 11.569C12.3007 11.4387 12.3007 11.228 12.4311 11.0976L13.7644 9.76432C13.8944 9.63397 14.1057 9.63397 14.2357 9.76432L14.6667 10.1953L15.7644 9.09768C15.8944 8.96733 16.1057 8.96733 16.2357 9.09768L17.569 10.431C17.6993 10.5613 17.6993 10.7719 17.569 10.9023ZM17.569 3.90229C17.504 3.96729 17.4186 3.99995 17.3333 3.99995C17.248 3.99995 17.1627 3.96729 17.0977 3.90229L16 2.80463L15.138 3.66663L15.569 4.09764C15.6994 4.22799 15.6994 4.43866 15.569 4.56897C15.504 4.63397 15.4187 4.66662 15.3334 4.66662C15.248 4.66662 15.1627 4.63397 15.0977 4.56897L14 3.47131L12.9024 4.56897C12.8374 4.63397 12.752 4.66662 12.6667 4.66662C12.5814 4.66662 12.4961 4.63397 12.4311 4.56897C12.3007 4.43866 12.3007 4.22795 12.4311 4.09764L13.7644 2.76432C13.8944 2.63397 14.1057 2.63397 14.2357 2.76432L14.6667 3.19534L15.7644 2.09768C15.8944 1.96733 16.1057 1.96733 16.2357 2.09768L17.569 3.431C17.6993 3.56127 17.6993 3.77194 17.569 3.90229Z" fill="#11036B"/>
</svg>
