<svg width="6" height="12" viewBox="0 0 6 12" fill="none" xmlns="http://www.w3.org/2000/svg">
<path d="M1.43051e-06 11.1417C-0.000389099 10.9415 0.0692859 10.7475 0.196933 10.5933L4.03283 6.00084L0.33393 1.39979C0.262807 1.31215 0.209694 1.2113 0.177644 1.10306C0.145594 0.994808 0.135239 0.881288 0.147174 0.769022C0.159109 0.656756 0.193098 0.547957 0.24719 0.448879C0.30128 0.349801 0.374407 0.262396 0.462364 0.19169C0.549945 0.120519 0.65072 0.0673701 0.758895 0.0352983C0.86707 0.00322655 0.980513 -0.00713554 1.0927 0.00480767C1.20489 0.0167509 1.31362 0.0507638 1.41263 0.104892C1.51164 0.159019 1.59899 0.232195 1.66964 0.320212L5.80522 5.46105C5.93115 5.61436 6 5.80667 6 6.00513C6 6.20358 5.93115 6.39589 5.80522 6.5492L1.52409 11.69C1.45221 11.7768 1.36393 11.8485 1.26431 11.9011C1.16469 11.9536 1.05569 11.986 0.943539 11.9964C0.831393 12.0067 0.718309 11.9948 0.610764 11.9614C0.503219 11.9279 0.403326 11.8736 0.316805 11.8014C0.218585 11.7217 0.139235 11.6212 0.0844579 11.5071C0.0296807 11.393 0.000837803 11.2682 1.43051e-06 11.1417Z" fill="#100268"/>
</svg>
