<svg width="18" height="20" viewBox="0 0 18 20" fill="none" xmlns="http://www.w3.org/2000/svg">
<path fill-rule="evenodd" clip-rule="evenodd" d="M2.57143 8.75V6.25C2.57143 4.5924 3.24872 3.00269 4.45431 1.83058C5.6599 0.65848 7.29504 0 9 0C10.705 0 12.3401 0.65848 13.5457 1.83058C14.7513 3.00269 15.4286 4.5924 15.4286 6.25V8.75C16.1106 8.75 16.7646 9.01339 17.2468 9.48223C17.7291 9.95107 18 10.587 18 11.25V17.5C18 18.163 17.7291 18.7989 17.2468 19.2678C16.7646 19.7366 16.1106 20 15.4286 20H2.57143C1.88944 20 1.23539 19.7366 0.753154 19.2678C0.270917 18.7989 0 18.163 0 17.5V11.25C0 10.587 0.270917 9.95107 0.753154 9.48223C1.23539 9.01339 1.88944 8.75 2.57143 8.75ZM12.8571 6.25V8.75H5.14286V6.25C5.14286 5.25544 5.54923 4.30161 6.27259 3.59835C6.99594 2.89509 7.97702 2.5 9 2.5C10.023 2.5 11.0041 2.89509 11.7274 3.59835C12.4508 4.30161 12.8571 5.25544 12.8571 6.25Z" fill="#C80735"/>
</svg>
